<svg xmlns="http://www.w3.org/2000/svg" width="41.508" height="117.398" viewBox="0 0 10.982 31.062"><g fill="#9dabd9" stroke="#000" stroke-width=".265"><path d="M10.262 30.929L7.985 30.9s-1.403-2.607-2.75-3.124c0 0-.125-.369.07-1.03.197-.662.61-.255.63-2.265-.271-3.126-.756-5.566.63-7.883.348-.776-.024-1.547-.024-1.547l-.417-1.011-.16-.34s-.048.887-.255 1.28c-.207.393-.669 1.257-1.123 2.649-.455 1.392-1.019 2.579-1.092 2.949-.074.37-.795 3.72-.534 5.725.26 2.003.783 2.415 1.82 3.144.304.213-.048.59-.048.59l-1.974-.006C1.144 27.675.154 27.093.146 27.024c-.07-.628.105-1.038.59-1.614.306-.361.172-5.407.172-5.407s.026-2.49 1.232-4.19c.072-.101.56-2.287.588-4.228.021-1.567.17-2.41.17-2.41-.272-.717-.844-2.102-.812-3.166 0 0-.085-2.228 1.21-4.233.153-.236.076-.61.077-.845 0 0 1.383-1.355 7.05-.535.503.072.588 2.31.112 3.313-.809 1.6-1.846 2.203-2.664 2.134 0 0 .848 2.6 1.341 4.769.493 2.168.852 4.414.852 4.414-.043.621.012 1.201-.128 1.863-.44 1.045-.87 2.106-1.175 3.379 0 0-.501 1.628-.45 2.773.052 1.146-.04 3.444-.04 3.444s.572 2.617 1.316 3.384c1.27.317.675 1.06.675 1.06z"/><path d="M2.086 6.009s.674 1.854 1.952 3.608c.203.28 1.367 2.884 2.086 4.423M7.135 3.802l.736 2.041"/></g></svg>