<?xml version="1.0" encoding="UTF-8" standalone="no"?>
<!-- Created with Inkscape (http://www.inkscape.org/) -->

<svg
   width="4.2333331mm"
   height="4.2333331mm"
   viewBox="0 0 4.2333331 4.2333331"
   version="1.1"
   id="svg5"
   inkscape:version="1.1 (c4e8f9ed74, 2021-05-24)"
   sodipodi:docname="favicon.svg"
   xmlns:inkscape="http://www.inkscape.org/namespaces/inkscape"
   xmlns:sodipodi="http://sodipodi.sourceforge.net/DTD/sodipodi-0.dtd"
   xmlns="http://www.w3.org/2000/svg"
   xmlns:svg="http://www.w3.org/2000/svg">
  <sodipodi:namedview
     id="namedview7"
     pagecolor="#ffffff"
     bordercolor="#666666"
     borderopacity="1.0"
     inkscape:pageshadow="2"
     inkscape:pageopacity="0.0"
     inkscape:pagecheckerboard="0"
     inkscape:document-units="mm"
     showgrid="false"
     inkscape:zoom="23.803591"
     inkscape:cx="5.8814655"
     inkscape:cy="10.061507"
     inkscape:window-width="1920"
     inkscape:window-height="1023"
     inkscape:window-x="0"
     inkscape:window-y="0"
     inkscape:window-maximized="1"
     inkscape:current-layer="layer1" />
  <defs
     id="defs2" />
  <g
     inkscape:label="Layer 1"
     inkscape:groupmode="layer"
     id="layer1">
    <circle
       style="fill:#92c900;fill-opacity:1;stroke:none;stroke-width:5.65834;stroke-linecap:round"
       id="path1816-6"
       cx="2.1166666"
       cy="2.1166666"
       r="2.1166666" />
    <path
       style="fill:#fec0bd;fill-opacity:1;stroke:none;stroke-width:0.344244;stroke-linecap:round"
       id="path958"
       sodipodi:type="arc"
       sodipodi:cx="2.3232543"
       sodipodi:cy="1.8876026"
       sodipodi:rx="2.1166666"
       sodipodi:ry="2.1166666"
       sodipodi:start="0"
       sodipodi:end="5.4094727"
       sodipodi:arc-type="slice"
       d="M 4.4399209,1.8876026 A 2.1166666,2.1166666 0 0 1 2.7819262,3.9539756 2.1166666,2.1166666 0 0 1 0.40537196,2.7831496 2.1166666,2.1166666 0 0 1 1.0333899,0.20935138 2.1166666,2.1166666 0 0 1 3.6821214,0.26471696 L 2.3232543,1.8876026 Z"
       transform="rotate(5.9067599)" />
    <circle
       style="fill:#ffffff;fill-opacity:1;stroke:none;stroke-width:3.6119;stroke-linecap:round"
       id="path1816"
       cx="2.1166666"
       cy="2.1166666"
       r="1.3511374" />
    <path
       style="fill:#000000;stroke-width:0.00827715"
       d="M 1.9235708,4.2277788 C 1.5218582,4.1863625 1.1588964,4.0451072 0.83762188,3.8051553 0.73387625,3.7276703 0.50863247,3.5027073 0.43180383,3.3998435 0.21390267,3.1081007 0.07508886,2.7784838 0.02330011,2.4298406 -0.06064182,1.8647414 0.08372396,1.3016372 0.43214914,0.83510961 0.50799318,0.73355748 0.73375926,0.50782213 0.83532539,0.43198855 1.4144122,-3.8291181e-4 2.1408467,-0.11490693 2.8217004,0.11883216 3.0173145,0.18598702 3.2763475,0.33139526 3.4519886,0.47264501 3.5527289,0.55365975 3.7278308,0.73443867 3.8054393,0.83755567 4.025606,1.1300857 4.1658583,1.4686282 4.2174895,1.832164 c 0.021125,0.1487427 0.021125,0.4223397 0,0.5710823 C 4.1660035,2.7657637 4.0263582,3.102655 3.8043895,3.3998435 3.7281065,3.5019762 3.5025572,3.7274951 3.4004105,3.8037671 3.108904,4.0214321 2.781151,4.1595143 2.4302751,4.2124841 2.3035678,4.2316126 2.0383923,4.2396166 1.9235708,4.2277788 Z M 2.2183273,3.9737235 c 0.00634,-0.035279 0.011518,-0.1106991 0.011518,-0.1676004 0,-0.056901 -0.00518,-0.1323213 -0.011518,-0.1676002 l -0.011518,-0.064143 h -0.088713 -0.088713 l -0.011518,0.064143 c -0.00633,0.035279 -0.011518,0.110699 -0.011518,0.1676002 0,0.056901 0.00518,0.1323217 0.011518,0.1676004 l 0.011518,0.064143 h 0.088713 0.088713 z M 1.8100635,3.9324496 c 0.039998,-0.1002 0.059566,-0.1855771 0.065322,-0.2850005 l 0.00511,-0.088324 -0.032269,-0.00848 c -0.017748,-0.00467 -0.055671,-0.013799 -0.084273,-0.020295 -0.0608,-0.013809 -0.053079,-0.021146 -0.09676,0.091942 -0.030126,0.077994 -0.049804,0.1729376 -0.058106,0.2803491 l -0.00522,0.067547 0.068796,0.01658 c 0.1057259,0.02548 0.1055113,0.025565 0.1373976,-0.054315 z m 0.7472378,0.05476 0.076237,-0.017551 -0.00556,-0.073641 c -0.00935,-0.1239028 -0.028961,-0.2084817 -0.0736,-0.3175003 -0.02551,-0.062301 -0.023942,-0.061387 -0.08249,-0.048091 -0.1219694,0.0277 -0.1137456,0.022552 -0.1136905,0.07117 1.388e-4,0.1302385 0.075416,0.4031633 0.111186,0.4031633 0.00642,0 0.045987,-0.0079 0.087918,-0.017551 z M 1.4210653,3.80734 C 1.4893353,3.7052896 1.5358803,3.5994803 1.5588431,3.494136 1.5652031,3.464951 1.5606331,3.461487 1.4527535,3.413785 L 1.4063565,3.393269 1.3677935,3.447303 c -0.055805,0.078194 -0.1061197,0.1804958 -0.1358844,0.2762887 -0.014296,0.04601 -0.024694,0.084829 -0.023106,0.086264 0.011374,0.010279 0.1381457,0.070012 0.1492875,0.070342 0.00858,2.534e-4 0.032845,-0.02782 0.062975,-0.072858 z M 2.9563967,3.846544 C 2.9938557,3.827806 3.0259547,3.811148 3.0277277,3.809525 3.0329677,3.804725 3.0041317,3.7074554 2.9777227,3.640874 2.9521187,3.576323 2.8947127,3.4760239 2.8535049,3.4238445 l -0.024106,-0.030525 -0.07214,0.033107 c -0.039677,0.018209 -0.075281,0.036202 -0.079119,0.039986 -0.00856,0.00844 0.029075,0.1344375 0.061623,0.2062759 0.03094,0.068288 0.1232978,0.207924 0.1375255,0.207924 0.00605,0 0.04165,-0.015331 0.079108,-0.034068 z M 1.0827977,3.5896323 c 0.038375,-0.037978 0.090525,-0.1007082 0.1158877,-0.1394012 0.044937,-0.068554 0.081085,-0.1383088 0.074312,-0.1433987 -0.00185,-0.00139 -0.03202,-0.025626 -0.067042,-0.053857 l -0.063678,-0.051329 -0.051562,0.046002 C 0.9985342,3.3298884 0.94665556,3.3956702 0.87774544,3.5176928 l -0.0264126,0.04677 0.0679066,0.054081 c 0.0496737,0.03956 0.0713809,0.052209 0.0808458,0.047109 0.00712,-0.00383 0.044337,-0.038044 0.082712,-0.076021 z M 3.324334,3.612256 3.384111,3.5646204 3.362507,3.5219095 C 3.31246,3.4229684 3.2338468,3.321916 3.1489335,3.2473768 l -0.053204,-0.046705 -0.066197,0.05236 c -0.036408,0.028798 -0.066402,0.056162 -0.066654,0.060809 -7.102e-4,0.013151 0.072608,0.1353304 0.1123268,0.1871799 0.049388,0.064472 0.1689134,0.1743178 0.1803076,0.1657062 0.00497,-0.00376 0.035944,-0.028271 0.068821,-0.054471 z M 0.80608239,3.307106 C 0.87718069,3.2595243 0.9346676,3.2094471 0.98827046,3.148401 L 1.0349812,3.095204 0.98261446,3.029017 C 0.95381286,2.992614 0.92644486,2.962623 0.92179696,2.962372 0.90870686,2.9616634 0.78655519,3.034888 0.73511852,3.0742776 c -0.0666091,0.051009 -0.1753517,0.168737 -0.16655953,0.180323 0.003927,0.00517 0.0285789,0.036304 0.0547821,0.069177 l 0.0476423,0.059769 0.0427164,-0.021601 c 0.023494,-0.011881 0.0650662,-0.036558 0.0923826,-0.05484 z M 3.6276812,3.305916 C 3.6607432,3.26424 3.6713172,3.244956 3.6662562,3.235565 3.6482742,3.202195 3.5138552,3.0783075 3.4508047,3.0369895 3.3822417,2.9920589 3.3124768,2.9559152 3.3073865,2.9626874 c -0.00139,0.00185 -0.02563,0.032015 -0.053865,0.067033 l -0.051336,0.063669 0.046511,0.052119 c 0.070543,0.079048 0.1396948,0.1357524 0.2310142,0.1894312 0.064821,0.038103 0.084843,0.046431 0.092567,0.038503 0.00542,-0.00556 0.030352,-0.035952 0.055404,-0.06753 z M 2.3437368,3.3556294 C 2.5958673,3.3100574 2.8147548,3.1935242 3.0044094,3.0038957 3.1950305,2.8133005 3.3095583,2.5975307 3.3573891,2.3388834 c 0.019391,-0.1048589 0.019391,-0.3374994 0,-0.4423583 C 3.3095508,1.637837 3.1949958,1.4220316 3.0044094,1.2315625 2.8175062,1.0447741 2.6218165,0.93835329 2.3635116,0.88302658 2.2406416,0.85670884 2.0021927,0.85655564 1.876686,0.88271455 1.3700198,0.9883149 0.99232735,1.364531 0.88319372,1.8723233 c -0.0261143,0.1215084 -0.0261143,0.3692542 0,0.4907625 C 0.93877662,2.6217097 1.0450564,2.817055 1.2318336,3.0038959 1.4494163,3.221553 1.6576888,3.3212744 1.99807,3.3707721 c 0.050717,0.00738 0.2755867,-0.00248 0.3456668,-0.015143 z M 2.0229033,2.9072608 C 1.688288,2.8577382 1.4345299,2.6333912 1.3465275,2.3092779 1.3235485,2.2246464 1.3214439,2.0260846 1.342623,1.9408947 1.4071572,1.6813126 1.5859834,1.4746941 1.8283777,1.3796458 c 0.104664,-0.041041 0.1689848,-0.052366 0.2938581,-0.051739 0.1276775,6.404e-4 0.1868391,0.011513 0.2927223,0.053794 0.1889516,0.075452 0.3586886,0.2437434 0.4380315,0.4343008 0.041046,0.098579 0.055005,0.1752224 0.054952,0.3017034 -4.69e-5,0.1049852 -0.00288,0.1302826 -0.022616,0.2020614 C 2.8619956,2.4045981 2.8180586,2.501309 2.7714551,2.570409 2.7567101,2.5922724 2.7105571,2.6436806 2.6688923,2.6846495 2.562747,2.7890232 2.440456,2.8574736 2.2991373,2.8916139 2.2466853,2.9042853 2.0703047,2.9142762 2.0229033,2.9072608 Z M 0.51179712,3.0067439 C 0.60191602,2.9795215 0.7159596,2.9232597 0.78712784,2.8709128 l 0.0555447,-0.040855 -0.0206758,-0.046746 c -0.0333826,-0.075473 -0.0529785,-0.1110777 -0.0611352,-0.1110777 -0.0157999,0 -0.18194424,0.057348 -0.21662799,0.074773 -0.0618527,0.031075 -0.18928533,0.1182446 -0.18928533,0.1294797 0,0.017223 0.0691286,0.1516392 0.0779862,0.1516392 0.004441,0 0.0399296,-0.00962 0.0788627,-0.021382 z m 3.33449258,-0.04909 c 0.019226,-0.03876 0.034956,-0.075803 0.034956,-0.082317 0,-0.017061 -0.1516511,-0.1155286 -0.2240507,-0.1454781 -0.054245,-0.022439 -0.1661608,-0.057624 -0.1832911,-0.057624 -0.00683,0 -0.027962,0.039307 -0.059616,0.1108729 l -0.020585,0.046541 0.059593,0.041998 c 0.076819,0.054139 0.1899972,0.1089017 0.2789518,0.1349755 0.038698,0.011343 0.072324,0.020822 0.074724,0.021064 0.0024,2.416e-4 0.020093,-0.031272 0.039319,-0.070032 z M 0.47911355,2.6099447 c 0.0729211,-0.015489 0.21708507,-0.066318 0.23268571,-0.082041 0.004642,-0.00468 -0.006378,-0.062529 -0.0265052,-0.1391416 -0.008108,-0.030861 -0.008399,-0.031037 -0.0512928,-0.030988 -0.13025626,1.408e-4 -0.40321843,0.075405 -0.40321843,0.1111705 0,0.00642 0.007894,0.045958 0.0175414,0.087854 l 0.0175414,0.076176 0.0797215,-0.0058 c 0.0438468,-0.00319 0.10393371,-0.010944 0.13352642,-0.01723 z M 3.9889319,2.5518876 c 0.0099,-0.043431 0.016047,-0.084029 0.013672,-0.090219 -0.00526,-0.013697 -0.1186741,-0.058295 -0.2038808,-0.08017 -0.034285,-0.0088 -0.1020885,-0.018304 -0.150673,-0.021116 l -0.088336,-0.00511 -0.00848,0.032264 c -0.00467,0.017746 -0.013862,0.055928 -0.020434,0.084851 l -0.011949,0.052586 0.042548,0.018737 c 0.1200623,0.052872 0.2308827,0.077663 0.3833231,0.085751 l 0.026223,0.00139 z M 0.60948719,2.2160375 0.66122277,2.2058256 v -0.08841 -0.088411 l -0.0641521,-0.011516 c -0.0352837,-0.00633 -0.11071412,-0.011517 -0.16762325,-0.011517 -0.0569091,0 -0.1323396,0.00518 -0.16762329,0.011517 l -0.0641521,0.011516 v 0.088701 0.088701 l 0.0641521,0.010109 c 0.0352837,0.00556 0.0697396,0.011494 0.0765687,0.013187 0.0248303,0.00616 0.22069871,-0.00372 0.27109436,-0.013664 z m 3.37729841,0 0.051736,-0.010212 v -0.08841 -0.088411 L 3.9743696,2.0174882 C 3.9390855,2.0111542 3.863655,2.0059716 3.806746,2.0059716 c -0.056909,0 -0.1323398,0.00518 -0.1676233,0.011517 l -0.064152,0.011516 v 0.088701 0.088701 l 0.064152,0.010109 c 0.035283,0.00556 0.069739,0.011494 0.076569,0.013187 0.02483,0.00616 0.2206988,-0.00372 0.2710939,-0.013664 z M 0.68529402,1.8466479 c 0.004485,-0.01707 0.0135312,-0.054701 0.0201033,-0.083623 l 0.0119494,-0.052586 -0.0462395,-0.020446 C 0.56343345,1.6423798 0.46895437,1.6198693 0.32893194,1.6084651 l -0.0632658,-0.00515 -0.0199478,0.085458 -0.0199478,0.085458 0.0275187,0.014774 c 0.0451022,0.024214 0.19290039,0.070794 0.25065752,0.078998 0.0295928,0.0042 0.0806674,0.0081 0.11349922,0.00866 l 0.0596942,0.00102 z M 3.723969,1.8657204 c 0.1122345,-0.016937 0.2814415,-0.07661 0.2814415,-0.099255 0,-0.00642 -0.00789,-0.045958 -0.017542,-0.087854 l -0.017541,-0.076176 -0.079722,0.0058 c -0.043847,0.00319 -0.1039338,0.010944 -0.1335265,0.017229 -0.072921,0.015489 -0.2170852,0.066318 -0.2326857,0.082041 -0.00464,0.00468 0.00638,0.062529 0.026505,0.1391417 0.00811,0.030861 0.0084,0.031037 0.051293,0.030988 0.023727,-2.35e-5 0.078526,-0.00539 0.1217777,-0.011916 z M 0.80722001,1.4826239 0.84258221,1.4062226 0.78842844,1.3675845 C 0.7101173,1.3117104 0.60784035,1.2614133 0.51198993,1.2316388 c -0.0460168,-0.014294 -0.0848434,-0.024691 -0.0862813,-0.023103 -0.009095,0.010042 -0.0707604,0.141181 -0.0707604,0.1504817 0,0.019753 0.14632966,0.1152433 0.22728395,0.1483181 0.0585324,0.023914 0.16359685,0.055487 0.17776607,0.05342 0.006523,-9.526e-4 0.0277726,-0.03611 0.0472218,-0.078132 z M 3.5453548,1.542439 c 0.039363,-0.011405 0.09613,-0.031872 0.1261503,-0.045482 0.069787,-0.031638 0.2097401,-0.1239479 0.2097401,-0.1383389 0,-0.00934 -0.062135,-0.1406567 -0.071242,-0.1505641 -0.00547,-0.00595 -0.1295519,0.032831 -0.1941783,0.060688 -0.06008,0.025897 -0.1943813,0.1084352 -0.2125922,0.1306528 -0.00641,0.00782 8.237e-4,0.031076 0.027133,0.087223 0.019731,0.042107 0.037573,0.076558 0.039648,0.076558 0.00207,0 0.035979,-0.00933 0.075341,-0.020737 z M 0.98199952,1.2071574 1.0337513,1.1417332 0.98787119,1.0903215 C 0.90575193,0.99830137 0.83990344,0.94639482 0.71791722,0.87752402 l -0.0467767,-0.026409 -0.0540885,0.0678974 c -0.0399466,0.0501451 -0.0522184,0.07128 -0.046936,0.0808348 0.0148982,0.0269479 0.13591318,0.14282638 0.18787529,0.17990078 0.0572949,0.040879 0.15007185,0.093555 0.16397879,0.093103 0.004553,-1.407e-4 0.031566,-0.02971 0.0600294,-0.065694 z m 2.40689608,0.02782 c 0.092162,-0.053747 0.1480975,-0.098317 0.2220943,-0.1769653 0.041592,-0.044207 0.0613,-0.0710673 0.056644,-0.0772023 -0.00393,-0.005175 -0.028579,-0.0363042 -0.054782,-0.0691772 L 3.5652099,0.8518638 3.5224939,0.8734647 c -0.098955,0.05004 -0.2000212,0.1286432 -0.2745706,0.2135445 l -0.046711,0.053197 0.052366,0.066188 c 0.028802,0.036403 0.05617,0.066394 0.060818,0.066645 0.00465,2.51e-4 0.038172,-0.016876 0.074499,-0.038062 z M 1.2099174,0.9796784 C 1.2446184,0.9523657 1.2731814,0.9262166 1.2733914,0.9215694 1.2739873,0.9083951 1.2006204,0.7861258 1.1613937,0.73491654 1.1103777,0.66831654 0.9926338,0.55958882 0.98104637,0.56837969 c -0.005176,0.003926 -0.0363093,0.0285749 -0.0691867,0.0547747 l -0.059777,0.0476357 0.0216257,0.0427105 c 0.0425349,0.0840061 0.10558775,0.1680705 0.18284423,0.24377481 0.043171,0.0423035 0.081143,0.0758235 0.084383,0.074489 0.00324,-0.00133 0.034282,-0.024774 0.068982,-0.052086 z M 3.1868182,0.9473753 C 3.2566052,0.8778929 3.3059546,0.81163445 3.3580862,0.71742611 l 0.026042,-0.0470616 -0.067541,-0.0537898 c -0.049396,-0.0393389 -0.071017,-0.0519166 -0.08048,-0.0468181 -0.027096,0.0145989 -0.1517759,0.14516165 -0.1841745,0.19286421 -0.043932,0.0646846 -0.089638,0.14570431 -0.089047,0.15784754 2.53e-4,0.005253 0.029124,0.0323573 0.064152,0.0602324 0.044479,0.0353963 0.067432,0.0487126 0.076103,0.0441527 0.00683,-0.00359 0.044483,-0.0384563 0.083676,-0.0774782 z M 1.5313207,0.78469964 c 0.017694,-0.009025 0.032171,-0.0198453 0.032171,-0.0240439 0,-0.0157975 -0.057356,-0.18191914 -0.074783,-0.21659818 -0.03108,-0.0618442 -0.118261,-0.18925941 -0.1294973,-0.18925941 -0.017225,0 -0.1516601,0.069119 -0.1516601,0.0779754 0,0.004441 0.00962,0.0399242 0.021386,0.0788521 0.027226,0.0901066 0.083496,0.20413445 0.1358493,0.27529294 l 0.040861,0.0555372 0.046752,-0.020673 c 0.025714,-0.0113702 0.061229,-0.0280576 0.078923,-0.0370831 z m 1.35215,-0.0193852 c 0.05681,-0.0853691 0.096726,-0.17072582 0.1242554,-0.26570932 0.011616,-0.0400803 0.020143,-0.0737275 0.018949,-0.0747717 -0.010577,-0.009249 -0.1411656,-0.0700352 -0.1504576,-0.0700352 -0.014055,0 -0.1002794,0.12577269 -0.1315874,0.19194336 -0.022986,0.0485814 -0.058415,0.15075292 -0.067676,0.19516222 l -0.00565,0.0270753 0.077265,0.0360219 c 0.042496,0.0198122 0.079906,0.0345054 0.083133,0.032652 0.00323,-0.001853 0.026521,-0.034406 0.051764,-0.0723386 z M 1.8470023,0.68509877 c 0.030865,-0.008107 0.031041,-0.008397 0.030992,-0.0512858 C 1.8778558,0.5035745 1.8025791,0.23064971 1.7668089,0.23064971 c -0.00642,0 -0.045964,0.007893 -0.087866,0.0175391 l -0.076186,0.0175391 0.0058,0.0797105 c 0.00319,0.0438406 0.010945,0.10391936 0.017232,0.13350806 0.015491,0.0729113 0.066327,0.21705544 0.082052,0.23265402 0.00468,0.004642 0.062538,-0.006377 0.1391614,-0.0265017 z m 0.7098561,-0.0406722 c 0.037354,-0.0904893 0.057099,-0.17382996 0.066461,-0.28052008 0.00455,-0.0518918 0.00717,-0.0954609 0.00581,-0.0968203 -0.00136,-0.001361 -0.04042,-0.011419 -0.086801,-0.0223545 l -0.084333,-0.0198826 -0.024287,0.058767 c -0.050552,0.12231922 -0.075559,0.23636439 -0.075559,0.34458819 v 0.0487414 l 0.031041,0.008235 c 0.075636,0.0200649 0.130824,0.0306606 0.1362192,0.0261528 0.00321,-0.002686 0.017367,-0.0327942 0.031449,-0.0669069 z m -0.3385311,-0.047539 c 0.00634,-0.0352789 0.011518,-0.11069917 0.011518,-0.16760034 0,-0.0569014 -0.00518,-0.13232162 -0.011518,-0.16760033 L 2.2068093,0.1975435 h -0.088713 -0.088713 l -0.011518,0.0641434 c -0.00633,0.0352787 -0.011518,0.11069891 -0.011518,0.16760033 0,0.0569012 0.00518,0.1323214 0.011518,0.16760034 l 0.011518,0.0641432 h 0.088713 0.088713 z"
       id="path836" />
  </g>
</svg>
