<?xml version="1.0" encoding="UTF-8" standalone="no"?>
<!-- Created with Inkscape (http://www.inkscape.org/) -->

<svg
   width="4.2333341mm"
   height="4.2333345mm"
   viewBox="0 0 4.2333341 4.2333345"
   version="1.1"
   id="svg5"
   inkscape:version="1.1 (c4e8f9ed74, 2021-05-24)"
   sodipodi:docname="favicon.svg"
   xmlns:inkscape="http://www.inkscape.org/namespaces/inkscape"
   xmlns:sodipodi="http://sodipodi.sourceforge.net/DTD/sodipodi-0.dtd"
   xmlns="http://www.w3.org/2000/svg"
   xmlns:svg="http://www.w3.org/2000/svg">
  <sodipodi:namedview
     id="namedview7"
     pagecolor="#ffffff"
     bordercolor="#666666"
     borderopacity="1.0"
     inkscape:pageshadow="2"
     inkscape:pageopacity="0.0"
     inkscape:pagecheckerboard="0"
     inkscape:document-units="mm"
     showgrid="false"
     inkscape:zoom="33.905254"
     inkscape:cx="14.024375"
     inkscape:cy="7.8011508"
     inkscape:window-width="1457"
     inkscape:window-height="1053"
     inkscape:window-x="337"
     inkscape:window-y="39"
     inkscape:window-maximized="0"
     inkscape:current-layer="g5472" />
  <defs
     id="defs2" />
  <g
     inkscape:label="Layer 1"
     inkscape:groupmode="layer"
     id="layer1">
    <rect
       style="fill:#dcdcdc;fill-opacity:1;stroke-width:0.303998"
       id="rect847"
       width="4.2333331"
       height="4.2333331"
       x="0"
       y="0"
       ry="0.87678307" />
    <g
       id="g5472"
       transform="matrix(0.01840521,0,0,0.01647645,0.06320619,-0.23436583)">
      <path
         style="fill:#000000;stroke-width:0.249621"
         d="m 84.149891,269.37313 c -0.323819,-0.0635 -1.383591,-0.24233 -2.355057,-0.39732 -3.669709,-0.58544 -8.759307,-2.36995 -12.993222,-4.55566 -17.474756,-9.02115 -35.761663,-32.88439 -42.929843,-56.02068 -0.765994,-2.47236 -1.881531,-7.25677 -2.481718,-10.64385 -0.148273,-0.83674 -0.376468,-1.52135 -0.507108,-1.52135 -0.611037,0 -3.538544,-1.51113 -4.950992,-2.55562 -5.140477,-3.80131 -8.0990569,-11.49505 -7.645684,-19.88248 0.164615,-3.04535 0.833571,-5.6691 2.171802,-8.51815 1.806478,-3.84592 5.09088,-7.81803 7.677354,-9.28488 l 1.434496,-0.81354 -0.143333,-2.16069 c -0.804749,-12.13069 -0.786449,-24.89383 0.04451,-31.0086 1.878995,-13.8279 6.105177,-25.208315 12.857039,-34.621905 2.165536,-3.01924 6.695047,-7.99606 9.275985,-10.19203 8.546601,-7.27183 19.084017,-12.07287 31.125586,-14.18139 3.302792,-0.57833 14.789974,-0.82333 20.135771,-0.42946 12.074963,0.88968 24.125213,5.25838 33.346823,12.08956 11.98846,8.8808 20.24047,22.06424 23.88813,38.163745 2.55829,11.29143 2.77557,25.5173 0.61502,40.26836 l -0.44566,3.04271 1.79586,2.18543 c 4.38384,5.33483 6.15025,8.47594 7.08981,12.60741 1.92054,8.44513 -2.46135,19.36072 -9.51895,23.7124 -2.13544,1.31671 -2.61031,1.93723 -2.81608,3.67985 -0.63388,5.36843 -6.1412,19.83055 -10.91502,28.66268 -11.97277,22.15094 -28.95025,38.08813 -44.452973,41.72911 -2.241698,0.52648 -7.907228,0.92013 -9.302488,0.64635 z M 108.05375,147.26124 c 13.38547,-0.75065 20.29751,-2.52429 25.19913,-6.46614 5.98255,-4.81113 8.66891,-11.96833 8.28884,-22.08375 -0.43459,-11.56626 -4.14459,-20.743115 -11.73075,-29.016575 -7.13946,-7.78628 -16.89586,-13.02964 -28.70465,-15.42666 -2.791238,-0.56658 -8.095238,-1.32967 -9.242168,-1.32967 h -0.649083 v 37.465545 37.46556 l 6.064283,-0.17209 c 3.335348,-0.0946 8.183828,-0.29095 10.774398,-0.43622 z M 81.794834,110.37698 V 73.203025 h -1.632863 c -3.088562,0 -11.645324,2.05319 -16.671795,4.00038 -8.080427,3.13026 -14.119859,7.28636 -19.744108,13.5871 -7.332395,8.21435 -10.612676,16.313785 -11.093651,27.391685 -0.550901,12.68836 3.427655,20.69163 12.42372,24.99156 6.27154,2.99767 11.385176,3.814 25.649919,4.09471 5.245897,0.10323 9.882416,0.20902 10.303381,0.23509 l 0.765397,0.0474 z"
         id="path836"
         sodipodi:nodetypes="sssssssssscscscssssscsssscssscssssscccccccssssssscc" />
      <path
         d="m 99.637117,140.52888 c 0.24148,-0.61846 2.493823,-5.76791 5.005213,-11.44323 l 4.56617,-10.31875 -1.8985,-0.16385 c -1.04418,-0.0901 -4.01186,-0.17942 -6.59485,-0.19844 -2.583001,-0.019 -4.696363,-0.11264 -4.696363,-0.20805 0,-0.32275 1.360371,-1.95982 9.601013,-11.55386 9.53593,-11.102059 15.57806,-17.950539 15.71566,-17.812948 0.0531,0.0531 -0.15429,0.679029 -0.46095,1.390851 -2.42987,5.640139 -8.4072,21.420437 -8.19436,21.633287 0.23049,0.23049 5.58921,0.575 11.78134,0.75744 l 2.38125,0.0702 -12.03853,12.82774 c -6.6212,7.05526 -12.73681,13.57393 -13.59023,14.48594 -0.85343,0.912 -1.656142,1.65819 -1.783801,1.65819 -0.127662,0 -0.0345,-0.50601 0.206938,-1.12448 z"
         style="fill:#ff3c00;fill-opacity:1;stroke-width:0.0700042"
         id="path2308" />
      <path
         d="m 205.07216,98.05696 c -0.58209,-0.111509 -6.17801,-0.985568 -12.43542,-1.942359 -10.20038,-1.559701 -20.73955,-3.265991 -23.09039,-3.738341 -0.89755,-0.18034 -1.44316,-0.634698 -0.76217,-0.634698 2.29062,0 22.54884,-2.17996 22.82505,-2.456172 0.17356,-0.173538 -0.31589,-1.220798 -2.23069,-4.772999 -0.92742,-1.720479 -1.64343,-3.17093 -1.59112,-3.223241 0.10699,-0.10699 22.01792,-4.80604 26.5926,-5.703078 1.62682,-0.319011 3.23417,-0.509712 3.57187,-0.423781 0.79865,0.203211 2.12565,2.21437 5.72665,8.679101 l 2.89468,5.1967 -1.09324,0.179999 c -1.63497,0.2692 -11.51805,0.650959 -17.23282,0.66567 -2.7649,0.007 -5.29012,0.0835 -5.61161,0.169659 -0.58161,0.15594 -0.57988,0.165912 0.34749,2.007431 0.5126,1.017891 1.46215,2.809139 2.11011,3.980571 0.64796,1.171419 1.14643,2.149758 1.10773,2.174068 -0.0387,0.02432 -0.54664,-0.047 -1.12872,-0.15853 z M 151.49403,81.034822 c 0,-0.0679 1.63712,-1.278652 3.63802,-2.690601 11.57021,-8.16455 16.20573,-11.51214 16.20573,-11.703129 0,-0.118211 -1.60734,-1.262841 -3.57187,-2.543631 -1.96453,-1.280789 -3.57188,-2.420731 -3.57188,-2.5332 0,-0.112469 2.29196,-2.273051 5.09324,-4.801301 8.48834,-7.661008 17.5087,-15.698589 17.86097,-15.915018 0.20791,-0.12773 2.73378,1.24242 6.74687,3.659809 3.528,2.125181 6.69074,4.0742 7.02831,4.331139 l 0.61377,0.467162 -1.93668,1.288608 c -1.06518,0.708742 -4.67511,2.950461 -8.0221,4.981612 -8.47591,5.143688 -10.18645,6.264979 -10.18645,6.67738 0,0.409919 0.25448,0.6057 3.70416,2.849718 1.38244,0.89929 2.51354,1.752082 2.51354,1.895092 0,0.26952 -6.97403,3.060369 -25.16433,10.070219 -10.47809,4.037851 -10.9513,4.209229 -10.9513,3.966141 z M 140.64612,67.594901 c 0,-0.32744 0.99383,-2.691199 5.39547,-12.83277 2.41676,-5.568329 4.39412,-10.241529 4.39412,-10.384899 0,-0.159221 -1.51878,-0.26207 -3.90262,-0.264282 -4.47193,-0.004 -5.15576,-0.115779 -5.04096,-0.82296 0.044,-0.27115 2.10409,-6.920529 4.57794,-14.776389 l 4.49792,-14.283378 8.40053,-0.0058 c 4.62028,-0.0032 8.40051,0.07277 8.40051,0.16878 0,0.195125 -3.86057,7.690609 -8.26539,16.047607 -1.59633,3.028601 -2.83252,5.576441 -2.7471,5.661851 0.0854,0.0854 2.03262,0.248369 4.32712,0.362111 2.29451,0.113739 4.20108,0.215048 4.23684,0.225129 0.0945,0.0266 -23.26743,29.981001 -24.04417,30.829049 -0.12662,0.138242 -0.23021,0.17241 -0.23021,0.0759 z"
         style="fill:#ff3c00;fill-opacity:1;stroke-width:0.0700042"
         id="path1354" />
    </g>
  </g>
</svg>
