<?xml version="1.0" encoding="UTF-8" standalone="no"?>
<svg
   xmlns:dc="http://purl.org/dc/elements/1.1/"
   xmlns:cc="http://creativecommons.org/ns#"
   xmlns:rdf="http://www.w3.org/1999/02/22-rdf-syntax-ns#"
   xmlns:svg="http://www.w3.org/2000/svg"
   xmlns="http://www.w3.org/2000/svg"
   xmlns:sodipodi="http://sodipodi.sourceforge.net/DTD/sodipodi-0.dtd"
   xmlns:inkscape="http://www.inkscape.org/namespaces/inkscape"
   width="4.2333341mm"
   height="4.2333336mm"
   viewBox="0 0 4.2333341 4.2333336"
   version="1.1"
   id="svg8"
   inkscape:version="1.0.2 (e86c870879, 2021-01-15, custom)"
   sodipodi:docname="favicon.svg">
  <defs
     id="defs2" />
  <sodipodi:namedview
     id="base"
     pagecolor="#ffffff"
     bordercolor="#666666"
     borderopacity="1.0"
     inkscape:pageopacity="0.0"
     inkscape:pageshadow="2"
     inkscape:zoom="31.678384"
     inkscape:cx="7.1357114"
     inkscape:cy="8.0289949"
     inkscape:document-units="mm"
     inkscape:current-layer="layer1"
     inkscape:document-rotation="0"
     showgrid="false"
     fit-margin-top="0"
     fit-margin-left="0"
     fit-margin-right="0"
     fit-margin-bottom="0"
     inkscape:window-width="1920"
     inkscape:window-height="1023"
     inkscape:window-x="0"
     inkscape:window-y="0"
     inkscape:window-maximized="1" />
  <metadata
     id="metadata5">
    <rdf:RDF>
      <cc:Work
         rdf:about="">
        <dc:format>image/svg+xml</dc:format>
        <dc:type
           rdf:resource="http://purl.org/dc/dcmitype/StillImage" />
        <dc:title />
      </cc:Work>
    </rdf:RDF>
  </metadata>
  <g
     inkscape:label="Layer 1"
     inkscape:groupmode="layer"
     id="layer1">
    <circle
       style="fill:#ffffff;stroke-width:0.320765;stroke-linecap:round"
       id="path832"
       cx="2.1165345"
       cy="2.1165345"
       r="2.1165345" />
    <path
       style="fill:#5b2b2b;fill-opacity:1;stroke-width:0.0209046"
       d="M 1.8131705,4.2195748 C 1.6292222,4.1904636 1.4116339,4.1265508 1.2524363,4.0548689 0.80267304,3.8523543 0.39496422,3.443451 0.18951789,2.9888364 0.12149419,2.8383125 0.02703063,2.4936116 0.02703063,2.3959145 V 2.3357809 H 0.52573122 1.024432 L 1.092173,2.2298618 c 0.037258,-0.058256 0.074353,-0.098302 0.082434,-0.088993 0.00808,0.00931 0.083933,0.1191157 0.1685588,0.2440145 0.084627,0.1248982 0.1562343,0.2191259 0.1591278,0.2093945 0.00289,-0.00973 0.062357,-0.2717937 0.1321407,-0.5823612 0.069784,-0.3105676 0.129687,-0.5674855 0.1331187,-0.5709288 0.00343,-0.00344 0.092668,0.429691 0.198305,0.9625191 0.1056359,0.5328286 0.1986208,0.9894702 0.2066333,1.0147588 0.010261,0.032388 0.072676,-0.1641521 0.2111305,-0.6648288 0.1081093,-0.390945 0.2023288,-0.7108089 0.2093764,-0.7108089 0.00705,0 0.044706,0.1564477 0.083685,0.3476621 l 0.070871,0.3476614 0.047781,-0.080683 C 2.8216152,2.6128924 2.8974584,2.4870688 2.9638763,2.3776596 L 3.0846367,2.1787343 3.2267623,2.172512 c 0.1328193,-0.00582 0.1468672,-0.00204 0.214554,0.057584 0.098959,0.087177 0.2101089,0.088162 0.3054335,0.00271 0.058515,-0.052458 0.068156,-0.074916 0.068156,-0.1587644 0,-0.083848 -0.00964,-0.1063061 -0.068156,-0.1587638 -0.095946,-0.086013 -0.2135081,-0.085341 -0.3002772,0.00172 -0.06073,0.060933 -0.068528,0.062818 -0.2597813,0.062818 H 2.9895202 l -0.056879,0.096124 C 2.9013582,2.1287998 2.8657172,2.1864072 2.8534382,2.2039493 2.8364362,2.2282396 2.8067841,2.1179632 2.729058,1.7413686 2.6729271,1.469408 2.6205807,1.2586798 2.6127327,1.2730843 2.6048845,1.2874888 2.517508,1.59138 2.4185635,1.9483989 2.319619,2.3054173 2.2316697,2.6144101 2.2231207,2.63505 2.2134772,2.658333 2.1285651,2.2748579 1.999406,1.6247191 1.8849116,1.0483979 1.7859362,0.57686223 1.7794614,0.57686223 c -0.00648,0 -0.090091,0.35099835 -0.1858142,0.77999607 C 1.4979242,1.7858565 1.4168558,2.1401166 1.4134945,2.144103 1.4101345,2.1480917 1.3538485,2.0706374 1.288416,1.9719871 1.1522619,1.7667113 1.1812065,1.7620779 1.010635,2.0164525 L 0.9228786,2.1473248 H 0.46143926 0 L 0.0137726,1.9507393 C 0.04974475,1.4372863 0.27303859,0.95859279 0.64596356,0.59545969 0.92179772,0.32686816 1.2287049,0.15283739 1.6094774,0.0491014 1.8492171,-0.01621222 2.3651037,-0.01640275 2.6223264,0.04874527 3.0256047,0.15085609 3.320515,0.31939761 3.6177621,0.61763686 3.9133729,0.91423422 4.0854558,1.2180933 4.1843554,1.6181122 4.2458514,1.8668455 4.2501464,2.3311417 4.1932254,2.5766033 4.0074682,3.3775598 3.413323,3.9853528 2.6253257,4.1805149 2.4315931,4.228496 2.0004962,4.2492392 1.8131705,4.2195932 Z"
       id="path863" />
    <path
       style="fill:#000000;stroke-width:0.264583"
       id="path847"
       d="" />
  </g>
</svg>
