<?xml version="1.0" encoding="UTF-8" standalone="no"?>
<!-- Created with Inkscape (http://www.inkscape.org/) -->

<svg
   width="4.2333326mm"
   height="4.2333331mm"
   viewBox="0 0 4.2333327 4.2333331"
   version="1.1"
   id="svg5"
   inkscape:version="1.1 (c4e8f9ed74, 2021-05-24)"
   sodipodi:docname="favicon.svg"
   xmlns:inkscape="http://www.inkscape.org/namespaces/inkscape"
   xmlns:sodipodi="http://sodipodi.sourceforge.net/DTD/sodipodi-0.dtd"
   xmlns="http://www.w3.org/2000/svg"
   xmlns:svg="http://www.w3.org/2000/svg">
  <sodipodi:namedview
     id="namedview7"
     pagecolor="#ffffff"
     bordercolor="#666666"
     borderopacity="1.0"
     inkscape:pageshadow="2"
     inkscape:pageopacity="0.0"
     inkscape:pagecheckerboard="0"
     inkscape:document-units="mm"
     showgrid="false"
     fit-margin-top="0"
     fit-margin-left="0"
     fit-margin-right="0"
     fit-margin-bottom="0"
     inkscape:zoom="23.803591"
     inkscape:cx="8.8221981"
     inkscape:cy="10.439601"
     inkscape:window-width="1920"
     inkscape:window-height="1023"
     inkscape:window-x="0"
     inkscape:window-y="0"
     inkscape:window-maximized="1"
     inkscape:current-layer="layer1" />
  <defs
     id="defs2" />
  <g
     inkscape:label="Layer 1"
     inkscape:groupmode="layer"
     id="layer1"
     transform="translate(-0.26458326)">
    <g
       id="g3706"
       transform="matrix(0.02574169,0,0,0.02631663,0.12730633,-1.0289664)">
      <circle
         style="fill:#e72627;fill-opacity:1;stroke-width:0.274774"
         id="path3262"
         cx="46.456284"
         cy="116.73664"
         r="29.048477" />
      <path
         style="fill:#ffbb84;fill-opacity:1;stroke-width:0.352778"
         d="m 40.975491,175.42689 v -24.5341 l -0.797316,-0.77771 c -0.438528,-0.42774 -4.279579,-2.68272 -8.535674,-5.01105 -9.259743,-5.06562 -11.496547,-6.95372 -13.855385,-11.69542 -2.080607,-4.18241 -2.28755,-5.99327 -2.137413,-18.70353 0.126069,-10.67275 0.14537,-10.92009 1.032549,-13.23214 1.867584,-4.867074 5.341062,-8.789194 9.750277,-11.009634 1.386568,-0.69826 2.685967,-1.57776 2.887555,-1.95442 0.237981,-0.44468 0.368346,-6.35308 0.371733,-16.84763 0.0057,-17.858771 0.09996,-18.836209 2.200546,-22.832717 3.012973,-5.732403 9.716961,-9.747558 16.244242,-9.729007 8.495298,0.02414 16.342977,6.599735 17.859403,14.964437 0.241258,1.330806 0.379483,9.265497 0.379483,21.784027 v 19.69076 h 2.810249 2.810248 l 0.10017,-23.37152 0.10017,-23.371529 0.9876,-2.116667 c 1.29103,-2.766984 3.68543,-5.168716 6.38179,-6.401315 1.82076,-0.832337 2.6214,-0.985408 5.154222,-0.985408 2.53281,0 3.33346,0.153071 5.15422,0.985408 2.69635,1.232599 5.09075,3.634331 6.38178,6.401315 l 0.9876,2.116667 0.0972,31.838189 0.0972,31.838194 h 2.81319 2.81319 V 92.716536 72.960986 h 5.64444 5.64445 v -2.82222 -2.82223 h -5.64445 -5.64444 v -4.27592 -4.275918 l 4.32153,0.147118 c 4.09642,0.139453 4.43721,0.208995 6.54245,1.335024 2.41058,1.289346 3.87962,2.883726 5.10664,5.542346 l 0.78632,1.70374 0.0968,26.72292 0.0968,26.722904 h 2.81365 2.81366 V 104.00542 87.072096 h 4.23333 4.23333 v -2.82222 -2.82223 h -4.23333 -4.23333 v -2.82222 -2.82222 h 3.39865 c 1.86926,0 4.05207,0.19306 4.85069,0.42902 1.93776,0.57253 4.86022,3.49499 5.43275,5.43274 0.32069,1.08539 0.42902,8.36771 0.42902,28.839574 v 27.38755 h 2.82222 2.82222 v -18.34445 -18.34443 h 4.23333 4.23334 v -2.822224 -2.82223 h -4.23334 -4.23333 v -2.82222 -2.82222 h 3.39865 c 1.86926,0 4.05208,0.19306 4.8507,0.42902 1.93775,0.57253 4.86021,3.49499 5.43274,5.43274 0.31772,1.07532 0.42902,7.452664 0.42902,24.580824 v 23.12879 l -4.05694,28.13492 c -2.23132,15.4742 -4.05695,28.18564 -4.05695,28.24764 0,0.062 -24.84437,0.11273 -55.20972,0.11273 H 40.975491 Z m 9.877778,-37.5548 v -4.23334 h -2.822222 -2.822222 v 4.23334 4.23333 h 2.822222 2.822222 z M 39.338927,136.1082 c 2.214873,-3.81052 2.322816,-3.33807 -1.228326,-5.37641 l -1.68413,-0.96668 -1.943749,3.30271 c -1.069061,1.81649 -1.99022,3.48354 -2.047017,3.70455 -0.119814,0.46622 4.366126,3.22608 4.71903,2.90327 0.129904,-0.11883 1.112788,-1.72418 2.184192,-3.56744 z m 24.440945,0.76241 c -0.071,-0.12828 -1.036528,-1.78636 -2.145626,-3.6846 l -2.016548,-3.45136 -1.207213,0.71733 c -0.66397,0.39453 -1.766418,1.04999 -2.44989,1.45657 l -1.242674,0.73924 0.666793,1.11285 c 0.36674,0.61206 1.324543,2.25474 2.128456,3.6504 l 1.461657,2.53756 2.467063,-1.42237 c 1.356886,-0.7823 2.408979,-1.52733 2.337982,-1.65562 z m -33.655754,-7.96414 3.436129,-2.00758 -0.966685,-1.68413 c -2.049332,-3.5703 -1.535289,-3.4726 -5.613218,-1.06684 l -3.588204,2.11685 1.414677,2.45373 c 0.778072,1.34954 1.519638,2.39563 1.647926,2.32464 0.128287,-0.071 1.779506,-1.0325 3.669375,-2.13667 z m 41.13969,-0.20277 1.42153,-2.46561 -2.537562,-1.46166 c -1.39566,-0.80391 -3.042345,-1.76419 -3.659304,-2.13395 l -1.121745,-0.6723 -1.274117,2.17395 c -0.700762,1.19567 -1.307229,2.32344 -1.3477,2.50615 -0.05174,0.23356 6.291916,4.29108 7.03967,4.5027 0.03175,0.009 0.697388,-1.0932 1.479228,-2.44928 z M 29.686603,115.29431 v -2.82222 h -4.233334 -4.233333 v 2.82222 2.82222 h 4.233333 4.233334 z m 45.155555,0 v -2.82222 h -4.23333 -4.233337 v 2.82222 2.82222 h 4.233337 4.23333 z m -42.248596,-9.92045 0.966685,-1.68413 -3.436129,-2.00757 c -1.889869,-1.10417 -3.541088,-2.065674 -3.669375,-2.136664 -0.128288,-0.071 -0.869854,0.975094 -1.647926,2.324634 l -1.414677,2.45372 3.588204,2.11685 c 4.077929,2.40576 3.563886,2.50345 5.613218,-1.06684 z m 37.554214,0.43833 2.537562,-1.46166 -1.42575,-2.47292 -1.425749,-2.472934 -1.111811,0.666164 c -0.611498,0.3664 -2.269084,1.33289 -3.683529,2.14777 l -2.571711,1.4816 0.774135,1.29913 c 0.425775,0.71453 1.082269,1.81865 1.458874,2.45362 l 0.684734,1.15448 1.112841,-0.6668 c 0.612063,-0.36674 2.254744,-1.32454 3.650404,-2.12845 z m -30.046277,-7.132114 1.242673,-0.73924 -0.666792,-1.11285 c -0.366741,-0.61206 -1.324543,-2.25474 -2.128456,-3.6504 l -1.461657,-2.53756 -2.467064,1.42237 c -1.356885,0.7823 -2.408978,1.52733 -2.337981,1.65562 0.071,0.12828 1.036528,1.78636 2.145626,3.6846 l 2.016548,3.451364 1.207213,-0.71733 c 0.66397,-0.394534 1.766418,-1.049994 2.44989,-1.456574 z m 21.539672,-1.28923 c 1.105292,-1.89177 2.067705,-3.54455 2.138701,-3.67283 0.071,-0.12829 -0.981096,-0.87332 -2.337982,-1.65562 l -2.467063,-1.42237 -1.461657,2.53756 c -0.803913,1.39566 -1.764171,3.04231 -2.133903,3.65922 l -0.672246,1.12166 2.394652,1.42188 c 1.317057,0.782044 2.425079,1.428234 2.462269,1.435984 0.03719,0.008 0.971941,-1.533714 2.077229,-3.425484 z m -10.787902,-4.67431 v -4.23333 h -2.822222 -2.822222 v 4.23333 4.23334 h 2.822222 2.822222 z m 9.877778,-28.22222 v -2.82222 h -12.7 -12.7 v 2.82222 2.82222 h 12.7 12.7 z M 91.77549,53.205429 v -2.822222 h -7.05555 -7.055562 v 2.822222 2.822222 h 7.055562 7.05555 z"
         id="path836" />
    </g>
  </g>
</svg>
