<svg xmlns="http://www.w3.org/2000/svg" height="16" width="16"><path overflow="visible" font-weight="400" d="M9.619 0a.548.548 0 00-.143.016s-.51.116-1.005.492c-.33.251-.663.647-.85 1.178a2.164 2.164 0 00-1.01-.678C6.066.833 5.571.863 5.571.863c-.71.036-.653 1.067.057 1.031 0 0 .32-.011.648.094.155.05.292.109.404.202-2.97.559-5.384 2.939-5.598 5.675C.602 8.061 0 8.533 0 9.549c0 .763.527 1.423 1.256 1.64.778 2.597 3.227 3.93 5.373 4.328.384.312.865.483 1.371.483.507 0 .987-.17 1.37-.484 2.147-.398 4.596-1.73 5.374-4.328.729-.216 1.256-.876 1.256-1.639 0-.944-.613-1.45-1.099-1.669-.36-3-3.11-5.504-6.305-5.785.1-.376.311-.606.533-.775.305-.232.595-.3.595-.3.617-.132.527-1.009-.105-1.02zM5.6 8.26c.442 0 .8.346.8.773a.788.788 0 01-.8.774.788.788 0 01-.8-.774c0-.427.358-.774.8-.774zm4.8 0c.442 0 .8.346.8.773a.788.788 0 01-.8.774.788.788 0 01-.8-.774c0-.427.358-.774.8-.774zm-4.33 3.073a.544.544 0 01.394.108c.002.002.593.43 1.536.43.947 0 1.53-.425 1.535-.43a.545.545 0 01.75.084.506.506 0 01-.087.725c-.035.027-.868.654-2.198.654s-2.163-.627-2.198-.654a.506.506 0 01-.087-.725.535.535 0 01.356-.192z" style="line-height:normal;text-indent:0;text-align:start;text-decoration-line:none;text-decoration-style:solid;text-decoration-color:#000;text-transform:none;white-space:normal;isolation:auto;mix-blend-mode:normal" font-family="sans-serif" fill="#f89aff"/></svg>