<svg width="16" height="16" viewBox="0 0 4.233 4.233" xml:space="preserve" xmlns="http://www.w3.org/2000/svg"><path style="fill:#fff;fill-opacity:1;stroke:none;stroke-width:.037515px;stroke-linecap:butt;stroke-linejoin:miter;stroke-opacity:1" d="M.238.556C.93.594 1.657.292 2.118 0v4.233C.483 3.643.18 2.003.237.556Zm3.758 0C3.304.594 2.578.292 2.117 0v4.233c1.633-.59 1.936-2.23 1.88-3.677Z"/><path style="fill:#e23632;fill-opacity:1;stroke:none;stroke-width:.0317531px;stroke-linecap:butt;stroke-linejoin:miter;stroke-opacity:1" d="M.527.796c.586.032 1.2-.224 1.59-.47v3.582C.735 3.408.48 2.021.527.796Zm3.18 0c-.585.032-1.2-.224-1.59-.47v3.582c1.383-.5 1.639-1.887 1.59-3.112Z"/><ellipse style="fill:#fff;fill-opacity:1;stroke-width:.0481277" cx="2.117" cy="2.117" rx=".947" ry=".941"/><g style="font-size:2.32434px;line-height:1.25;font-family:Tahoma;-inkscape-font-specification:'Tahoma, Normal';fill:#003f7d;stroke-width:.0581085"><path d="M1.965 2.705v-.432h-.436v-.299h.436v-.432h.29v.432h.437v.299h-.437v.432z" style="font-weight:700;font-family:Arial;-inkscape-font-specification:'Arial Bold'" transform="scale(1.00318 .99683)" aria-label="+"/></g><path style="mix-blend-mode:multiply;fill:#000;fill-opacity:.147765;stroke:none;stroke-width:.037515px;stroke-linecap:butt;stroke-linejoin:miter;stroke-opacity:1" d="M3.996.556C3.304.594 2.578.292 2.117 0v4.233c1.633-.59 1.936-2.23 1.88-3.677Z"/></svg>