<?xml version="1.0" encoding="UTF-8" standalone="no"?>
<!-- Created with Inkscape (http://www.inkscape.org/) -->

<svg
   width="4.2333336mm"
   height="4.2333331mm"
   viewBox="0 0 4.2333336 4.2333331"
   version="1.1"
   id="svg5"
   inkscape:version="1.1.1 (3bf5ae0d25, 2021-09-20, custom)"
   sodipodi:docname="favicon.svg"
   xmlns:inkscape="http://www.inkscape.org/namespaces/inkscape"
   xmlns:sodipodi="http://sodipodi.sourceforge.net/DTD/sodipodi-0.dtd"
   xmlns="http://www.w3.org/2000/svg"
   xmlns:svg="http://www.w3.org/2000/svg">
  <sodipodi:namedview
     id="namedview7"
     pagecolor="#ffffff"
     bordercolor="#666666"
     borderopacity="1.0"
     inkscape:pageshadow="2"
     inkscape:pageopacity="0.0"
     inkscape:pagecheckerboard="0"
     inkscape:document-units="mm"
     showgrid="false"
     inkscape:zoom="23.803591"
     inkscape:cx="6.3435807"
     inkscape:cy="7.5828895"
     inkscape:window-width="1920"
     inkscape:window-height="1023"
     inkscape:window-x="0"
     inkscape:window-y="0"
     inkscape:window-maximized="1"
     inkscape:current-layer="layer1" />
  <defs
     id="defs2" />
  <g
     inkscape:label="Layer 1"
     inkscape:groupmode="layer"
     id="layer1"
     transform="translate(0.01865118,0.02269353)">
    <rect
       style="fill:#d6eecf;fill-opacity:1;stroke:none;stroke-width:0.0242417"
       id="rect850"
       width="4.2333331"
       height="4.2333331"
       x="-0.01865118"
       y="-0.02269353"
       ry="0.32940185" />
    <path
       style="fill:#000000;stroke-width:0.00845756"
       d="M 1.8176274,4.1930872 C 1.8717732,4.0131129 1.8837429,3.5963514 1.8433955,3.2958873 1.7583858,2.6628241 1.4811606,2.0565415 1.0472346,1.5547084 1.0036195,1.5042677 0.95466981,1.4472905 0.93845765,1.4280924 l -0.0294768,-0.034906 0.0842194,0.045343 c 0.0463207,0.024939 0.13466925,0.077106 0.19632965,0.1159266 0.5090213,0.3204756 0.8185066,0.6416409 0.9311504,0.9662918 0.00467,0.013468 0.010889,0.00921 0.041181,-0.028207 0.1755253,-0.2168134 0.378449,-0.5660877 0.5035165,-0.8666564 0.04507,-0.1083153 0.1422739,-0.39462 0.1433438,-0.4222054 5.252e-4,-0.013511 0.00142,-0.013313 0.00783,0.00172 0.010207,0.023955 0.010147,0.6097347 -6.37e-5,0.7730393 -0.05396,0.8616302 -0.2348948,1.5915661 -0.52419,2.1146976 l -0.06106,0.1104134 -0.2090579,0.00227 c -0.1965671,0.00214 -0.208788,0.00138 -0.2045411,-0.01274 z"
       id="path836" />
    <path
       style="fill:#2e8611;fill-opacity:1;stroke:#000000;stroke-width:0.0264583;stroke-miterlimit:4;stroke-dasharray:none;stroke-opacity:1"
       d="m 1.8649216,1.0164267 c 9.55e-5,-0.0727886 0.031075,-0.24882186 0.064659,-0.36733713 0.00199,-0.007007 -0.00664,0.00637 -0.019157,0.0297267 -0.046562,0.0868504 -0.087662,0.23851976 -0.087662,0.32349423 0,0.02061 -0.00218,0.037473 -0.00484,0.037473 -0.014095,0 -0.1226789,-0.0790958 -0.1571244,-0.11445462 C 1.6015358,0.86449724 1.5826151,0.8198621 1.5833033,0.74251634 1.5840291,0.66097073 1.6093143,0.59655723 1.7122729,0.413975 1.8048116,0.2498704 1.8375937,0.17378873 1.8556823,0.0811449 l 0.013879,-0.07108408 0.056667,0.07957742 c 0.068263,0.09586232 0.1675125,0.29330287 0.1915665,0.38109109 0.022884,0.0835162 0.030412,0.20432894 0.017012,0.27301419 -0.021532,0.11037299 -0.094209,0.2120959 -0.1994023,0.27909468 -0.029302,0.018663 -0.057159,0.033932 -0.061904,0.033932 -0.00475,0 -0.00861,-0.018155 -0.00858,-0.040343 z"
       id="path1085" />
    <path
       style="fill:#2e8611;fill-opacity:1;stroke:#000000;stroke-width:0.0264583;stroke-miterlimit:4;stroke-dasharray:none;stroke-opacity:1"
       d="M 2.9488762,1.1449187 C 2.9334605,1.1293723 3.0815038,0.95639582 3.191328,0.86163321 l 0.04211,-0.0363346 -0.050532,0.0277661 C 3.095066,0.90133081 2.9752824,1.0069913 2.923086,1.0822501 2.908697,1.1029971 2.908079,1.1031051 2.896125,1.0869701 2.873808,1.0568501 2.833197,0.9384388 2.828006,0.88835075 2.818246,0.79414885 2.85983,0.70632316 2.9435458,0.64434923 c 0.023045,-0.0170602 0.117483,-0.0705289 0.2098623,-0.11881936 0.1809187,-0.0945742 0.2510675,-0.13879397 0.313608,-0.1976901 0.033633,-0.0316732 0.040741,-0.0352714 0.045413,-0.0229916 0.00959,0.0252058 -0.00335,0.30275723 -0.017638,0.37821316 -0.04739,0.25031354 -0.1520671,0.39931827 -0.3168615,0.45104277 -0.05021,0.01576 -0.2163695,0.023604 -0.2290529,0.010813 z"
       id="path1083" />
    <path
       style="fill:#2e8611;fill-opacity:1;stroke:#000000;stroke-width:0.0264583;stroke-miterlimit:4;stroke-dasharray:none;stroke-opacity:1"
       d="M 0.52871209,1.2400581 C 0.35245313,1.1969417 0.23417812,1.0435905 0.18055534,0.78865101 0.16779111,0.72796538 0.16140168,0.6584207 0.15778441,0.54079944 c -0.002766,-0.0899233 -0.003302,-0.16349688 -0.001194,-0.16349688 0.00211,0 0.0225596,0.0181927 0.0454454,0.0404283 0.0594055,0.0577176 0.12847016,0.10100867 0.3160358,0.19809702 0.090717,0.0469572 0.18574395,0.10184354 0.21117086,0.12196957 0.11673598,0.0923987 0.14105548,0.20578378 0.078435,0.36568605 -0.0109763,0.028028 -0.0239639,0.061783 -0.0288618,0.075011 l -0.008904,0.024051 -0.0324577,-0.041038 C 0.66848224,1.0743035 0.56683446,0.98827994 0.48367221,0.94673492 l -0.0378989,-0.0189329 0.033688,0.0276492 C 0.58887328,1.045251 0.7378776,1.2204856 0.72403303,1.2430767 c -0.007569,0.012351 -0.14091447,0.01029 -0.19532126,-0.00302 z"
       id="path1081" />
    <path
       style="fill:#000000;stroke-width:0.00845756"
       d="M 2.0272978,1.9877048 C 1.9399841,1.9589674 1.8714116,1.8977691 1.8323225,1.813697 1.812975,1.7720854 1.8101315,1.7550728 1.8101471,1.6810309 c 1.69e-5,-0.078917 0.0019,-0.088543 0.026652,-0.1358935 0.032558,-0.062295 0.084458,-0.1141848 0.1459797,-0.1459501 0.042263,-0.021822 0.054067,-0.023892 0.1347514,-0.023637 0.072697,2.28e-4 0.095561,0.00358 0.12851,0.018841 0.056031,0.025949 0.1211025,0.090266 0.1523742,0.1506087 0.024555,0.047382 0.026482,0.057288 0.026499,0.1362101 1.68e-5,0.078878 -0.00199,0.089218 -0.027353,0.1411813 C 2.3448304,1.9304089 2.2499872,1.99228 2.130163,1.9968286 2.088969,1.9983886 2.048997,1.9948486 2.0272977,1.9877086 Z"
       id="path1079" />
    <path
       style="fill:#2e8611;fill-opacity:1;stroke:#000000;stroke-width:0.0264583;stroke-miterlimit:4;stroke-dasharray:none;stroke-opacity:1"
       d="M 3.5029403,2.7035706 C 3.4384163,2.6942199 3.3442052,2.6474972 3.289067,2.5975031 3.2654191,2.5760613 3.2460709,2.555157 3.2460709,2.551049 c 0,-0.019245 0.1832459,-0.05581 0.3242447,-0.064699 0.081509,-0.00514 0.088593,-0.00676 0.058954,-0.013461 -0.046921,-0.010614 -0.2761892,-0.00152 -0.3347725,0.013285 -0.034732,0.00877 -0.048426,0.0095 -0.048426,0.00256 0,-0.02282 0.036631,-0.1401969 0.055922,-0.1791919 0.025587,-0.051721 0.071556,-0.101343 0.1167277,-0.1260024 0.029447,-0.016075 0.046941,-0.018384 0.1389623,-0.018342 0.089503,4.17e-5 0.1286156,0.00496 0.2610802,0.032806 0.1610259,0.033855 0.2983079,0.044217 0.3734602,0.028188 l 0.032371,-0.0069 -0.015527,0.026882 C 4.1823152,2.292486 4.06865,2.4256753 3.9984592,2.4929558 3.8290035,2.6553856 3.6615566,2.726557 3.5029403,2.7035705 Z"
       id="path1077" />
    <path
       style="fill:#2e8611;fill-opacity:1;stroke:#000000;stroke-width:0.0264583;stroke-miterlimit:4;stroke-dasharray:none;stroke-opacity:1"
       d="M 0.6095857,2.7039578 C 0.5191698,2.6905401 0.41300457,2.639153 0.30910825,2.5585179 0.22972274,2.4969059 0.07952475,2.3304894 0.02440081,2.2430672 l -0.01513627,-0.024005 0.03297181,0.00702 c 0.07656433,0.016296 0.21257525,0.00563 0.39511542,-0.030978 0.15330404,-0.030747 0.18807843,-0.035042 0.26108056,-0.032251 0.0650418,0.00249 0.0918903,0.0073 0.11790704,0.021151 0.0448425,0.023868 0.0909729,0.073482 0.11672771,0.1255426 0.0192915,0.038995 0.0559222,0.156372 0.0559222,0.1791919 0,0.00694 -0.013694,0.00621 -0.0484261,-0.00256 -0.0585836,-0.014801 -0.28785201,-0.023899 -0.33477246,-0.013285 -0.0296394,0.0067 -0.0225551,0.00832 0.0589535,0.013461 0.13745986,0.00867 0.324245,0.045397 0.324245,0.063762 0,0.013062 -0.0643829,0.069107 -0.11369612,0.098973 -0.0810729,0.0491 -0.17453786,0.068402 -0.26570751,0.054873 z"
       id="path1075" />
  </g>
</svg>
