<?xml version="1.0" encoding="UTF-8" standalone="no"?>
<!-- Created with Inkscape (http://www.inkscape.org/) -->

<svg
   width="16.933332mm"
   height="16.933332mm"
   viewBox="0 0 16.933332 16.933332"
   version="1.1"
   id="svg5"
   xml:space="preserve"
   inkscape:version="1.2.1 (9c6d41e410, 2022-07-14, custom)"
   sodipodi:docname="logo.svg"
   xmlns:inkscape="http://www.inkscape.org/namespaces/inkscape"
   xmlns:sodipodi="http://sodipodi.sourceforge.net/DTD/sodipodi-0.dtd"
   xmlns="http://www.w3.org/2000/svg"
   xmlns:svg="http://www.w3.org/2000/svg"><sodipodi:namedview
     id="namedview7"
     pagecolor="#ffffff"
     bordercolor="#666666"
     borderopacity="1.0"
     inkscape:showpageshadow="2"
     inkscape:pageopacity="0.0"
     inkscape:pagecheckerboard="0"
     inkscape:deskcolor="#d1d1d1"
     inkscape:document-units="mm"
     showgrid="false"
     inkscape:zoom="3.3638608"
     inkscape:cx="-18.431203"
     inkscape:cy="25.565862"
     inkscape:window-width="1920"
     inkscape:window-height="1056"
     inkscape:window-x="1920"
     inkscape:window-y="0"
     inkscape:window-maximized="1"
     inkscape:current-layer="layer1" /><defs
     id="defs2" /><g
     inkscape:label="Layer 1"
     inkscape:groupmode="layer"
     id="layer1"><g
       id="g183"
       transform="scale(4.0000002)"
       style="stroke-width:0.25"><rect
         style="fill:#000000;fill-opacity:1;stroke:none;stroke-width:1.775;stroke-dasharray:none;stroke-opacity:1"
         id="rect2815"
         width="4.2333331"
         height="4.2333331"
         x="0"
         y="0"
         ry="0.86220562" /><path
         style="fill:#e73400;fill-opacity:1;stroke:none;stroke-width:1.775;stroke-dasharray:none;stroke-opacity:1"
         d="M 1.7053814,3.9032956 C 1.4698001,3.8815291 1.2353118,3.7759195 1.0545928,3.6101908 0.77870143,3.3571844 0.63334464,2.9730818 0.66054147,2.5689174 0.70255576,1.9445559 1.1336718,1.4742624 1.7110647,1.4229288 L 1.7929824,1.4156477 1.6224481,1.2060026 C 1.333957,0.85135134 1.1991207,0.67986066 1.1874366,0.65273583 1.1696352,0.61140944 1.1603731,0.55563392 1.1649065,0.51706205 1.1768194,0.41570187 1.2601238,0.33362038 1.3575423,0.3272538 c 0.073204,-0.004784 0.1392932,0.0283591 0.220679,0.11066752 0.024516,0.0247934 0.2575516,0.32227364 0.5178582,0.66106728 L 2.569364,1.7149774 2.572534,1.3334339 2.575704,0.95188987 2.594762,0.91743947 c 0.043522,-0.0786768 0.1287296,-0.10345152 0.2115164,-0.0615004 0.055808,0.02828 0.096019,0.0850344 0.1242469,0.17536113 0.012548,0.040155 0.013002,0.060718 0.016448,0.7462177 l 0.00354,0.7049241 0.1698306,-0.2102408 c 0.093405,-0.1156324 0.1804103,-0.2195316 0.1933437,-0.2308871 0.076193,-0.066899 0.1512916,-0.057816 0.2142292,0.025908 0.06403,0.08518 0.06413,0.1763775 3.095e-4,0.2852701 -0.026386,0.045021 -0.1466656,0.20717 -0.1670172,0.2251572 -0.00756,0.00668 -0.017486,0.01965 -0.022061,0.028822 C 3.3253321,2.6341864 2.8903209,3.2025591 2.7311322,3.4009003 2.4758182,3.7190088 2.2975906,3.8427259 2.0214966,3.893494 1.9587486,3.905032 1.7831069,3.910478 1.7053695,3.903294 Z M 2.0547862,3.3822815 c 0.063083,-0.01652 0.1666205,-0.067175 0.2200947,-0.1076797 0.050369,-0.038152 0.1349196,-0.1269661 0.1678167,-0.1762772 0.08854,-0.1327171 0.13146,-0.2739647 0.131983,-0.434351 C 2.5749992,2.5660661 2.5665713,2.508534 2.5393137,2.4225665 2.4594662,2.1707336 2.2735881,1.9899966 2.0325515,1.9298208 1.9670327,1.9134638 1.8326923,1.9131684 1.7637605,1.9292288 1.5640889,1.9757521 1.3898248,2.1195441 1.2890623,2.3209211 1.2014403,2.4960358 1.1878111,2.7188037 1.2531099,2.9085564 c 0.069483,0.2019135 0.2320066,0.3773345 0.4148039,0.4477234 0.039894,0.015361 0.1010331,0.032134 0.148642,0.040775 0.040474,0.00735 0.1889102,-0.00186 0.2382304,-0.014773 z"
         id="path302" /></g></g></svg>
