<?xml version="1.0" encoding="UTF-8" standalone="no"?>
<svg
   xmlns:dc="http://purl.org/dc/elements/1.1/"
   xmlns:cc="http://creativecommons.org/ns#"
   xmlns:rdf="http://www.w3.org/1999/02/22-rdf-syntax-ns#"
   xmlns:svg="http://www.w3.org/2000/svg"
   xmlns="http://www.w3.org/2000/svg"
   xmlns:sodipodi="http://sodipodi.sourceforge.net/DTD/sodipodi-0.dtd"
   xmlns:inkscape="http://www.inkscape.org/namespaces/inkscape"
   viewBox="0 0 79.685 80.189"
   height="505.126"
   width="501.951"
   version="1.1"
   id="svg150"
   sodipodi:docname="Nellis FMR Logo.svg"
   inkscape:version="1.0 (4035a4fb49, 2020-05-01)">
  <metadata
     id="metadata156">
    <rdf:RDF>
      <cc:Work
         rdf:about="">
        <dc:format>image/svg+xml</dc:format>
        <dc:type
           rdf:resource="http://purl.org/dc/dcmitype/StillImage" />
      </cc:Work>
    </rdf:RDF>
  </metadata>
  <defs
     id="defs154" />
  <sodipodi:namedview
     inkscape:document-rotation="0"
     pagecolor="#ffffff"
     bordercolor="#666666"
     borderopacity="1"
     objecttolerance="10"
     gridtolerance="10"
     guidetolerance="10"
     inkscape:pageopacity="0"
     inkscape:pageshadow="2"
     inkscape:window-width="1518"
     inkscape:window-height="1049"
     id="namedview152"
     showgrid="false"
     showguides="false"
     inkscape:zoom="2"
     inkscape:cx="245.09332"
     inkscape:cy="279.42707"
     inkscape:window-x="234"
     inkscape:window-y="0"
     inkscape:window-maximized="0"
     inkscape:current-layer="svg150" />
  <ellipse
     id="ellipse2"
     stroke-width="3"
     stroke="#000000"
     fill="#ffffff"
     cx="-50.980431"
     cy="24.417181"
     rx="38.622002"
     ry="38.300999"
     transform="rotate(-109.229)" />
  <path
     id="path8"
     fill="#2c327e"
     d="m 39.988266,68.441274 c 0.05932,-15.347797 1.430448,-30.916608 1.276549,-46.355614 l -3.393324,-0.03266 0.745,14.779 c -3.372,-3.873 -6.787,-8.183 -11.183,-7.712 v 3.317 c 3.294,0.74 7.875,2.285 10.46,5.698 -6.875,-1.376 -16.873,-3.697 -20.382,-3.657 l 0.142,3.657 c 7.49,-0.403 20.374,-0.817 21.261,5.414"
     sodipodi:nodetypes="cccccccccc" />
  <path
     id="path4"
     d="m 42.517,75.839 c -0.076,-0.123 -0.327,-4.029 -0.268,-4.18 0.061,-0.161 0.772,-0.27 1.022,-0.156 0.111,0.051 0.538,0.655 1.029,1.457 0.46,0.753 0.853,1.325 0.871,1.27 0.019,-0.055 -0.011,-0.705 -0.066,-1.445 -0.055,-0.74 -0.076,-1.384 -0.047,-1.431 0.06,-0.098 0.717,-0.117 0.725,-0.022 0.168,1.865 0.278,4.129 0.206,4.228 -0.064,0.086 -0.223,0.114 -0.552,0.095 -0.533,-0.03 -0.474,0.04 -1.672,-1.957 -0.358,-0.597 -0.666,-1.04 -0.684,-0.985 -0.019,0.056 0.013,0.767 0.07,1.582 0.089,1.243 0.087,1.493 -0.01,1.555 -0.16,0.101 -0.56,0.094 -0.625,-0.011 z m -2.889,-1.586 c 0.032,-0.873 0.081,-1.865 0.11,-2.205 l 0.052,-0.618 0.39,0.025 0.39,0.025 -0.015,1.059 c -0.008,0.582 -0.04,1.563 -0.072,2.18 l -0.057,1.122 h -0.854 z m -3.377,1.306 c -0.517,-0.17 -0.787,-0.38 -1.038,-0.81 -0.196,-0.334 -0.228,-0.483 -0.229,-1.067 0,-1.114 0.435,-2 1.177,-2.393 0.392,-0.207 1.35,-0.18 1.8,0.05 0.423,0.217 0.49,0.31 0.464,0.646 -0.03,0.386 -0.131,0.421 -0.506,0.173 -0.692,-0.458 -1.433,-0.32 -1.738,0.323 -0.383,0.806 -0.371,1.67 0.028,2.116 0.228,0.255 0.273,0.27 0.82,0.266 0.318,-0.003 0.664,-0.036 0.769,-0.074 0.175,-0.063 0.19,-0.044 0.19,0.236 0,0.23 -0.05,0.337 -0.209,0.44 -0.278,0.183 -1.103,0.233 -1.528,0.094 z m 11.9,-0.491 c -0.047,-0.11 -0.28,-1.038 -0.516,-2.06 -0.376,-1.628 -0.414,-1.872 -0.302,-1.953 0.189,-0.139 2.142,-0.577 2.3,-0.517 0.093,0.037 0.126,0.136 0.108,0.325 -0.026,0.268 -0.04,0.276 -0.704,0.425 -0.372,0.084 -0.722,0.169 -0.776,0.188 -0.074,0.027 -0.067,0.162 0.029,0.528 0.07,0.271 0.141,0.507 0.158,0.524 0.017,0.017 0.3,-0.035 0.627,-0.115 0.683,-0.167 0.812,-0.144 0.87,0.16 0.054,0.282 -0.038,0.349 -0.654,0.474 -0.28,0.057 -0.549,0.127 -0.599,0.157 -0.064,0.038 -0.054,0.225 0.033,0.626 0.142,0.655 0.104,0.64 1.048,0.414 0.358,-0.085 0.685,-0.133 0.727,-0.105 0.138,0.09 0.196,0.501 0.083,0.574 -0.105,0.066 -1.41,0.388 -2.03,0.5 -0.277,0.05 -0.325,0.032 -0.401,-0.145 z M 32.337,74.822 c -0.105,-0.042 -0.19,-0.106 -0.188,-0.143 0.002,-0.036 0.207,-0.98 0.456,-2.098 l 0.452,-2.032 0.362,0.017 c 0.2,0.01 0.391,0.048 0.427,0.085 0.052,0.054 -0.248,1.555 -0.814,4.068 -0.046,0.207 -0.332,0.25 -0.695,0.103 z m -4.424,-1.286 c -0.571,-0.197 -0.813,-0.321 -0.833,-0.43 -0.034,-0.185 1.147,-3.784 1.292,-3.937 0.086,-0.089 0.26,-0.054 0.945,0.19 1.319,0.471 1.827,0.921 1.95,1.726 0.123,0.817 -0.386,2.03 -1.037,2.469 -0.503,0.34 -1.298,0.333 -2.317,-0.018 z m 1.789,-0.666 c 0.375,-0.268 0.624,-0.878 0.624,-1.532 0,-0.51 -0.025,-0.592 -0.247,-0.823 -0.224,-0.235 -1.022,-0.588 -1.115,-0.494 -0.022,0.02 -0.245,0.653 -0.497,1.404 -0.3,0.896 -0.426,1.385 -0.366,1.422 0.243,0.15 0.817,0.274 1.079,0.232 0.161,-0.026 0.396,-0.12 0.522,-0.21 z M 54.007,71.3 c -0.526,-1.008 -0.945,-1.893 -0.931,-1.969 0.034,-0.182 1.454,-0.918 1.91,-0.989 0.942,-0.147 1.652,0.82 1.216,1.656 -0.168,0.321 -0.17,0.348 -0.032,0.391 0.082,0.026 0.227,0.078 0.324,0.116 0.26,0.102 1.306,1.011 1.306,1.134 0,0.104 -0.508,0.392 -0.692,0.392 -0.051,0 -0.343,-0.214 -0.648,-0.474 -0.702,-0.599 -0.901,-0.68 -1.258,-0.51 l -0.271,0.13 0.376,0.713 c 0.207,0.392 0.376,0.756 0.376,0.81 0,0.1 -0.487,0.43 -0.635,0.431 -0.046,0 -0.515,-0.824 -1.04,-1.831 z m 0.896,-0.851 c 0.44,-0.273 0.611,-0.476 0.611,-0.723 0,-0.276 -0.33,-0.658 -0.569,-0.658 -0.12,0 -0.732,0.272 -0.853,0.38 -0.03,0.026 0.513,1.144 0.554,1.144 0.015,0 0.13,-0.065 0.257,-0.143 z m -30.948,1.394 c -0.57,-0.289 -1.038,-0.572 -1.038,-0.63 0,-0.057 0.403,-0.926 0.894,-1.93 0.705,-1.44 0.928,-1.824 1.057,-1.824 0.09,0 0.603,0.218 1.139,0.485 1.025,0.51 1.135,0.637 0.838,0.965 -0.13,0.144 -0.168,0.135 -0.803,-0.184 -0.366,-0.184 -0.702,-0.335 -0.746,-0.335 -0.08,0 -0.554,0.922 -0.5,0.974 0.014,0.014 0.252,0.126 0.528,0.248 0.714,0.315 0.748,0.352 0.595,0.65 -0.07,0.134 -0.165,0.245 -0.212,0.245 -0.047,0 -0.317,-0.117 -0.6,-0.26 -0.282,-0.143 -0.563,-0.24 -0.623,-0.218 -0.09,0.035 -0.55,0.883 -0.55,1.014 0,0.021 0.323,0.2 0.72,0.395 0.395,0.196 0.719,0.389 0.719,0.428 0,0.154 -0.201,0.503 -0.289,0.502 -0.05,0 -0.559,-0.237 -1.13,-0.525 z M 58.628,69.47 c -1.327,-1.753 -1.675,-2.244 -1.675,-2.369 0,-0.122 1.772,-1.505 1.928,-1.505 0.088,0 0.36,0.368 0.357,0.484 0,0.037 -0.286,0.27 -0.635,0.52 -0.348,0.248 -0.634,0.467 -0.634,0.486 0,0.019 0.137,0.224 0.305,0.457 0.183,0.255 0.343,0.4 0.402,0.366 0.054,-0.032 0.292,-0.204 0.529,-0.381 0.237,-0.178 0.47,-0.323 0.516,-0.323 0.112,0 0.365,0.283 0.365,0.41 0,0.054 -0.246,0.276 -0.546,0.492 l -0.547,0.393 0.253,0.347 c 0.55,0.754 0.454,0.709 0.86,0.408 1.018,-0.754 0.98,-0.736 1.166,-0.568 0.093,0.084 0.169,0.216 0.169,0.294 0,0.138 -1.764,1.526 -1.94,1.526 -0.048,0 -0.44,-0.467 -0.873,-1.037 z m -38.119,0.498 -0.25,-0.2 0.462,-0.625 c 0.253,-0.344 0.735,-0.986 1.07,-1.427 0.336,-0.44 0.597,-0.814 0.582,-0.83 -0.016,-0.016 -0.707,0.417 -1.537,0.962 -0.829,0.544 -1.572,1.007 -1.65,1.027 -0.08,0.021 -0.26,-0.068 -0.407,-0.202 l -0.262,-0.24 0.55,-1.692 c 0.302,-0.93 0.537,-1.73 0.521,-1.777 -0.016,-0.047 -0.475,0.513 -1.02,1.245 -0.546,0.731 -1.033,1.354 -1.082,1.385 -0.112,0.069 -0.529,-0.236 -0.564,-0.412 -0.024,-0.124 2.144,-3.114 2.42,-3.339 0.1,-0.08 0.174,-0.077 0.348,0.015 0.383,0.203 0.772,0.618 0.772,0.823 0,0.108 -0.188,0.824 -0.417,1.592 -0.23,0.768 -0.409,1.404 -0.4,1.414 0.01,0.01 0.62,-0.362 1.353,-0.825 0.734,-0.463 1.394,-0.843 1.467,-0.843 0.074,0 0.322,0.139 0.551,0.307 0.293,0.215 0.41,0.357 0.393,0.473 -0.038,0.245 -2.376,3.363 -2.524,3.366 -0.07,0 -0.239,-0.087 -0.376,-0.197 z m 41.793,-2.366 c -0.101,-0.108 -0.184,-0.221 -0.184,-0.252 0,-0.03 0.19,-0.138 0.424,-0.238 0.39,-0.168 0.93,-0.654 0.93,-0.837 0,-0.206 -0.218,-0.519 -0.392,-0.562 -0.108,-0.028 -0.516,0.053 -0.922,0.183 -0.636,0.202 -0.77,0.22 -1.052,0.135 -0.632,-0.19 -1.042,-0.844 -0.896,-1.43 0.15,-0.596 0.857,-1.29 1.315,-1.29 0.226,0 0.508,0.223 0.508,0.401 0,0.051 -0.124,0.134 -0.275,0.184 -0.545,0.18 -0.92,0.687 -0.747,1.01 0.144,0.27 0.458,0.287 1.071,0.056 0.712,-0.268 1.19,-0.275 1.56,-0.022 0.902,0.615 0.724,1.845 -0.372,2.582 -0.484,0.326 -0.718,0.345 -0.968,0.08 z m 2.515,-3.805 c -1.98,-1.624 -2.276,-1.875 -2.276,-1.937 0,-0.13 0.452,-0.589 0.557,-0.565 0.223,0.05 3.253,2.633 3.253,2.773 0,0.078 -0.107,0.244 -0.237,0.37 l -0.238,0.228 z M 12.689,62.721 c -0.102,-0.138 -0.186,-0.29 -0.186,-0.337 0,-0.047 0.279,-0.295 0.62,-0.551 l 0.618,-0.466 0.535,-1.166 c 0.294,-0.642 0.59,-1.255 0.658,-1.364 0.12,-0.193 0.127,-0.194 0.294,-0.043 0.094,0.086 0.221,0.252 0.282,0.37 0.102,0.196 0.073,0.288 -0.343,1.097 -0.25,0.486 -0.446,0.891 -0.437,0.9 0.01,0.009 0.454,-0.099 0.988,-0.238 l 0.97,-0.254 0.236,0.263 c 0.198,0.222 0.315,0.516 0.206,0.516 -0.017,0 -0.669,0.132 -1.449,0.294 l -1.419,0.295 -0.578,0.467 c -0.318,0.257 -0.63,0.468 -0.694,0.468 -0.064,0 -0.2,-0.113 -0.301,-0.251 z m 53.197,-1.369 c -0.838,-0.557 -1.596,-1.084 -1.684,-1.171 -0.158,-0.156 -0.153,-0.172 0.235,-0.78 0.755,-1.184 1.295,-1.594 2.101,-1.594 0.819,0 1.832,0.681 2.192,1.474 0.3,0.658 0.185,1.188 -0.5,2.315 -0.357,0.588 -0.518,0.781 -0.648,0.776 -0.095,-0.004 -0.858,-0.462 -1.696,-1.02 z m 1.948,-0.364 c 0.448,-0.764 0.336,-1.34 -0.364,-1.875 -0.73,-0.557 -1.407,-0.59 -1.903,-0.091 -0.329,0.33 -0.563,0.748 -0.443,0.788 0.046,0.016 0.599,0.372 1.227,0.79 0.63,0.42 1.17,0.763 1.203,0.763 0.033,0 0.16,-0.169 0.28,-0.375 z M 10.738,59.919 c -0.296,-0.466 -0.556,-0.917 -0.578,-1.002 -0.032,-0.122 0.317,-0.38 1.714,-1.271 0.965,-0.615 1.806,-1.098 1.869,-1.074 0.14,0.053 0.46,0.564 0.407,0.649 -0.02,0.033 -0.627,0.429 -1.347,0.879 -0.72,0.45 -1.39,0.883 -1.49,0.964 l -0.182,0.147 0.347,0.547 c 0.19,0.3 0.347,0.592 0.347,0.648 0.001,0.11 -0.323,0.365 -0.462,0.363 -0.048,0 -0.33,-0.383 -0.625,-0.85 z m 57.857,-3.033 c -1.277,-0.66 -1.784,-0.963 -1.8,-1.078 -0.03,-0.214 0.944,-2.1 1.1,-2.132 0.067,-0.014 0.203,0.043 0.301,0.127 l 0.179,0.151 -0.334,0.673 c -0.184,0.37 -0.335,0.702 -0.335,0.738 0,0.08 0.698,0.494 0.832,0.494 0.054,0 0.232,-0.266 0.396,-0.592 0.164,-0.326 0.35,-0.593 0.415,-0.593 0.064,0 0.201,0.069 0.305,0.153 l 0.188,0.152 -0.303,0.602 c -0.23,0.456 -0.278,0.621 -0.2,0.684 0.172,0.137 0.809,0.441 0.925,0.44 0.06,0 0.262,-0.294 0.448,-0.655 0.358,-0.694 0.532,-0.817 0.806,-0.57 0.154,0.14 0.143,0.177 -0.388,1.236 -0.3,0.6 -0.594,1.09 -0.652,1.09 -0.058,-10e-4 -0.905,-0.415 -1.883,-0.92 z M 8.865,56.71 A 2.709,2.709 0 0 1 8.693,56.333 c 0,-0.022 0.62,-0.354 1.376,-0.738 0.757,-0.383 1.586,-0.804 1.842,-0.935 0.256,-0.13 0.528,-0.238 0.604,-0.239 0.076,0 0.203,0.136 0.284,0.305 0.121,0.256 0.126,0.323 0.03,0.412 -0.134,0.124 -3.612,1.907 -3.72,1.907 -0.04,0 -0.15,-0.151 -0.244,-0.335 z M 7.683,54.384 C 7.623,54.314 7.57,54.138 7.563,53.994 7.551,53.734 7.558,53.729 8.566,53.361 9.126,53.157 9.887,52.884 10.26,52.753 L 10.937,52.515 8.956,52.473 6.975,52.431 6.86,52.101 C 6.775,51.853 6.77,51.741 6.842,51.655 6.895,51.591 7.563,51.04 8.327,50.429 9.091,49.819 9.703,49.306 9.687,49.29 9.672,49.274 9.356,49.371 8.986,49.506 6.251,50.499 6.388,50.457 6.26,50.33 6.193,50.263 6.132,50.085 6.125,49.935 L 6.111,49.661 7.169,49.282 c 2.81,-1.005 2.794,-1 2.942,-0.906 0.08,0.05 0.219,0.324 0.31,0.61 0.202,0.631 0.282,0.517 -1.243,1.773 -0.595,0.49 -1.071,0.9 -1.058,0.911 0.013,0.011 0.72,0.046 1.572,0.077 0.852,0.031 1.601,0.077 1.665,0.101 0.123,0.047 0.384,0.755 0.384,1.04 0,0.224 -0.008,0.228 -2.032,0.942 -0.954,0.336 -1.777,0.628 -1.827,0.647 -0.051,0.02 -0.14,-0.022 -0.2,-0.093 z m 64.172,-0.727 c -0.21,-0.087 -1.057,-0.415 -1.884,-0.728 -1.363,-0.516 -1.503,-0.588 -1.503,-0.77 0,-0.258 0.192,-0.714 0.359,-0.853 0.135,-0.112 2.372,-0.44 3.007,-0.441 0.444,0 0.461,-0.1 0.042,-0.248 -0.788,-0.276 -2.356,-0.888 -2.422,-0.945 -0.103,-0.088 0.105,-0.67 0.239,-0.67 0.117,0 1.613,0.544 3.067,1.115 0.475,0.186 0.879,0.383 0.898,0.437 0.051,0.15 -0.113,0.584 -0.299,0.79 -0.12,0.132 -0.308,0.198 -0.687,0.24 -0.286,0.03 -0.864,0.11 -1.283,0.176 -0.419,0.066 -0.983,0.12 -1.254,0.12 -0.27,0 -0.472,0.032 -0.448,0.07 0.024,0.04 0.697,0.313 1.495,0.61 0.8,0.296 1.474,0.594 1.5,0.662 0.061,0.16 -0.16,0.557 -0.322,0.578 -0.068,0.009 -0.296,-0.056 -0.505,-0.143 z m 0.747,-5.341 c -0.957,-0.137 -1.652,-0.56 -1.972,-1.203 -0.376,-0.756 -0.238,-1.736 0.318,-2.247 0.17,-0.157 0.27,-0.187 0.476,-0.142 0.143,0.031 0.28,0.09 0.305,0.131 0.026,0.041 -0.088,0.25 -0.253,0.466 -0.452,0.592 -0.402,1.218 0.129,1.634 0.358,0.281 1.045,0.463 1.578,0.419 0.402,-0.033 0.516,-0.082 0.713,-0.303 0.288,-0.322 0.379,-0.751 0.259,-1.223 -0.05,-0.195 -0.075,-0.37 -0.056,-0.389 0.019,-0.018 0.17,-0.008 0.338,0.023 0.347,0.065 0.466,0.275 0.466,0.82 0,0.585 -0.172,1.07 -0.52,1.465 -0.447,0.508 -0.96,0.665 -1.78,0.549 z M 5.588,47.85 a 1.781,1.781 0 0 1 -0.06,-0.44 c -0.009,-0.27 0.03,-0.327 0.33,-0.501 l 0.44,-0.26 c 0.071,-0.044 0.08,-0.16 0.028,-0.4 C 6.286,46.063 6.21,45.697 6.157,45.435 L 6.061,44.959 5.553,44.901 c -0.439,-0.05 -0.519,-0.086 -0.589,-0.27 -0.124,-0.327 -0.1,-0.625 0.05,-0.625 0.072,0 0.786,0.096 1.587,0.213 l 2.112,0.306 c 0.36,0.052 0.695,0.144 0.746,0.205 0.05,0.061 0.112,0.314 0.137,0.561 l 0.044,0.45 -1.002,0.59 c -1.813,1.065 -2.856,1.654 -2.927,1.654 -0.04,0 -0.094,-0.06 -0.123,-0.135 z m 2.336,-2.075 c 0.428,-0.239 0.761,-0.45 0.74,-0.471 -0.04,-0.041 -1.854,-0.29 -1.884,-0.259 -0.046,0.047 0.245,1.162 0.302,1.162 0.035,0 0.414,-0.194 0.842,-0.432 z M 71.049,43.35 c 0.033,-0.221 0.074,-0.425 0.091,-0.453 0.017,-0.027 0.452,-0.177 0.966,-0.333 0.514,-0.156 0.934,-0.308 0.934,-0.338 0,-0.03 -0.105,-0.102 -0.233,-0.16 -0.128,-0.057 -0.509,-0.276 -0.846,-0.485 -0.516,-0.32 -0.614,-0.417 -0.613,-0.608 0.002,-0.313 0.088,-0.607 0.178,-0.607 0.042,0 0.618,0.36 1.282,0.8 l 1.206,0.802 0.778,0.098 c 0.428,0.054 0.794,0.141 0.814,0.194 0.068,0.178 -0.047,0.659 -0.168,0.705 -0.066,0.026 -0.444,0.005 -0.84,-0.046 l -0.718,-0.093 -1.302,0.463 c -0.716,0.255 -1.366,0.463 -1.445,0.463 -0.124,0 -0.136,-0.057 -0.084,-0.402 z m -64.5,-0.586 c -0.031,-0.03 -0.057,-0.212 -0.058,-0.402 0,-0.19 -0.025,-0.493 -0.055,-0.674 L 6.382,41.36 5.51,41.419 4.64,41.477 4.583,41.176 c -0.11,-0.583 -0.23,-0.545 2.483,-0.778 1.164,-0.1 1.744,-0.119 1.803,-0.06 0.047,0.047 0.128,0.572 0.18,1.166 0.1,1.168 0.084,1.228 -0.337,1.231 C 8.475,42.737 8.454,42.685 8.375,41.89 L 8.312,41.255 7.895,41.228 C 7.665,41.214 7.39,41.223 7.284,41.25 c -0.188,0.047 -0.192,0.07 -0.141,0.733 0.042,0.54 0.028,0.7 -0.066,0.76 -0.14,0.09 -0.448,0.102 -0.528,0.022 z M 29.584,11.185 C 29.538,11.109 28.974,9.048 28.676,7.867 28.545,7.347 28.522,7.131 28.591,7.049 c 0.126,-0.153 0.89,-0.328 1.043,-0.24 0.117,0.067 0.965,0.966 1.858,1.969 0.223,0.25 0.42,0.438 0.44,0.418 0.02,-0.02 -0.133,-0.663 -0.34,-1.43 -0.348,-1.288 -0.365,-1.402 -0.234,-1.5 A 0.738,0.738 0 0 1 31.732,6.16 c 0.273,0 0.226,-0.128 0.841,2.26 0.243,0.942 0.42,1.768 0.392,1.838 -0.059,0.154 -0.68,0.334 -0.905,0.262 C 31.971,10.492 31.376,9.9 30.737,9.204 30.099,8.509 29.563,7.953 29.548,7.968 c -0.015,0.015 0.149,0.703 0.365,1.528 0.24,0.913 0.363,1.531 0.316,1.579 -0.113,0.112 -0.595,0.195 -0.645,0.11 z m 19.241,-0.582 a 2.304,2.304 0 0 1 -0.668,-0.36 C 47.895,10.025 47.874,9.975 47.927,9.69 47.96,9.518 48.019,9.377 48.059,9.377 c 0.04,0 0.27,0.134 0.512,0.297 0.563,0.379 1.104,0.415 1.318,0.089 0.198,-0.303 0.096,-0.507 -0.576,-1.145 -0.555,-0.525 -0.596,-0.59 -0.63,-0.98 -0.106,-1.231 1.212,-1.807 2.352,-1.028 0.237,0.162 0.286,0.247 0.275,0.476 -0.02,0.401 -0.153,0.5 -0.388,0.286 -0.274,-0.25 -0.546,-0.376 -0.829,-0.384 -0.322,-0.009 -0.506,0.152 -0.506,0.444 0,0.184 0.128,0.348 0.592,0.76 0.688,0.61 0.834,0.945 0.673,1.543 -0.223,0.83 -1.031,1.175 -2.027,0.868 z M 34.657,9.991 C 34.635,9.956 34.54,9.356 34.446,8.658 34.066,5.865 34.062,5.808 34.167,5.743 c 0.146,-0.09 2.29,-0.36 2.386,-0.3 0.044,0.027 0.08,0.176 0.08,0.33 v 0.28 l -0.812,0.108 -0.813,0.108 0.058,0.475 c 0.032,0.26 0.085,0.503 0.118,0.538 0.033,0.035 0.343,0.028 0.688,-0.016 0.345,-0.043 0.657,-0.06 0.694,-0.037 0.037,0.023 0.067,0.17 0.067,0.325 0,0.279 -0.007,0.285 -0.444,0.338 -0.245,0.03 -0.554,0.076 -0.688,0.102 l -0.244,0.047 0.058,0.562 c 0.031,0.31 0.084,0.587 0.116,0.615 0.033,0.03 0.288,0.023 0.567,-0.014 0.28,-0.036 0.651,-0.07 0.826,-0.073 0.307,-0.007 0.317,0.002 0.317,0.287 0,0.34 0.08,0.311 -1.354,0.506 -1.126,0.153 -1.08,0.15 -1.13,0.067 z M 45.795,9.898 c -0.087,-0.055 -0.039,-0.489 0.238,-2.136 0.19,-1.137 0.38,-2.1 0.42,-2.142 0.104,-0.104 0.68,0.018 0.732,0.156 0.04,0.104 -0.343,2.633 -0.568,3.75 -0.089,0.44 -0.093,0.444 -0.401,0.443 -0.171,0 -0.36,-0.033 -0.42,-0.07 z M 43.289,9.626 C 42.709,9.584 42.329,9.518 42.264,9.447 42.184,9.359 42.193,8.892 42.309,7.261 42.39,6.12 42.461,5.177 42.466,5.165 c 0.023,-0.052 0.656,-0.011 0.75,0.05 0.086,0.053 0.081,0.42 -0.022,1.831 -0.07,0.97 -0.117,1.776 -0.102,1.79 0.014,0.015 0.342,0.053 0.728,0.085 0.762,0.064 0.858,0.135 0.72,0.53 -0.093,0.263 -0.078,0.26 -1.25,0.176 z M 38.676,9.553 C 38.578,9.493 38.415,7.255 38.413,5.938 L 38.411,5.251 38.713,5.202 c 0.438,-0.07 0.545,-0.002 0.546,0.353 0.003,0.688 0.171,3.176 0.218,3.222 0.028,0.028 0.361,0.05 0.741,0.05 h 0.691 l 0.026,0.315 c 0.023,0.27 -0.001,0.32 -0.17,0.355 -0.351,0.072 -1.992,0.117 -2.09,0.056 z" />
  <g
     id="g1092">
    <path
       d="m 40.932,66.827 c 0,0 2.746,-2.304 0.18,-3.838 0.291,-0.25 0.842,-0.541 1.283,-0.591 1.802,1.388 0.468,3.91 -1.463,4.43 z"
       fill="#2c327e"
       id="path6" />
    <path
       d="m 37.475,61.097 1.319,-0.907 c -1.805,-1.348 -2.807,-1.815 4.01,-4.834 0,0 4.736,-2.233 0.086,-5.981 0,0 -1.077,0.41 -1.644,0.78 5.868,3.883 -3.686,4.62 -5.301,7.625 -0.502,0.933 -0.069,2.56 1.53,3.317 z"
       fill="#2c327e"
       id="path10" />
    <path
       d="m 38.751,54.378 -1.56,0.85 c -6.016,-4.042 -0.04104,-5.905377 3.581963,-7.855377 1.307704,-0.655801 5.525558,-2.200251 3.45545,-4.436072 -0.511212,-0.552136 -1.241917,-0.187359 -1.538984,-0.397006 -0.84385,-0.622504 0.205921,-1.596244 0.971337,-1.851625 0.753606,-0.360654 2.353178,-0.05846 2.936917,0.633032 1.087521,1.28826 1.262349,3.55072 -1.135958,5.53785 C 43.689725,48.516802 32.549,51.406 38.751,54.378 Z"
       fill="#2c327e"
       id="path12"
       sodipodi:nodetypes="cccsccscc" />
    <path
       d="m 36.894,48.411 1.885,-1.12 c -4.403,-1.869 -4.268,-3.111 -3.807,-3.987 0.642,-1.22 1.527,-0.557 1.922,-0.86 0.952,-0.844 -0.722,-1.952 -1.63,-1.985 -3.059,-0.056 -3.284,2.501 -2.948,3.827 0.45,1.777 2.316,3.123 4.578,4.125 z m 1.953,18.271 c -0.722,-0.046 -1.475,-0.959 -1.769,-1.493 -2.427,-4.089 8.906,-4.634 4.225,-7.933 0.296,-0.354 1.068,-0.706 1.699,-0.696 1.011,0.876 1.742,2.526 0.767,3.604 -2.928,2.515 -8.099,2.514 -4.922,6.518 z"
       fill="#2c327e"
       id="path14" />
  </g>
  <path
     sodipodi:nodetypes="ccccccccccc"
     d="M 41.708679,22.053 40.963681,36.832 C 44.33568,32.959 47.75068,28.649 52.14668,29.12 v 3.317 c -3.294,0.74 -7.875,2.284999 -10.46,5.697999 6.875,-1.375999 16.873,-3.697 20.382,-3.656999 l -0.142,3.656999 C 54.43668,37.732 41.55268,37.318 40.66568,43.549 40.231046,51.865321 39.988266,68.441274 39.988266,68.441274 39.556883,52.964548 38.256156,22.662337 38.256156,22.662337 Z"
     fill="#2c327e"
     id="path8-3"
     style="stroke-width:1" />
  <g
     id="g36"
     transform="matrix(1.01116,0,0,1.01116,-57.347,-88.179)">
    <path
       id="path16"
       fill="#ffffff"
       d="m 96.065,99.324 c -0.082,0.004 -0.232,0.204 -0.34,0.621 l -0.29,1.347 -0.103,1.686 -0.318,1.449 -1.926,1.624 0.007,0.95 2.29,0.007 v 0.904 c -0.39,0.33 -1.155,0.875 -1.157,0.986 -0.005,0.13 -0.026,0.428 -0.03,0.573 -0.002,0.105 0.2,0.15 0.35,0.147 l 1.517,-0.478 1.541,0.478 c 0.15,0.003 0.351,-0.042 0.349,-0.147 -0.004,-0.145 -0.025,-0.444 -0.03,-0.573 -0.002,-0.11 -0.766,-0.656 -1.157,-0.986 v -0.904 l 2.291,-0.006 0.006,-0.951 -1.925,-1.624 -0.319,-1.449 -0.102,-1.686 -0.29,-1.347 c -0.068,-0.366 -0.284,-0.619 -0.364,-0.62 z" />
    <path
       id="path18"
       fill="#ff0000"
       d="m 95.52,100.86 h 1.1 c -0.266,-1.582 -0.425,-1.535 -0.555,-1.536 -0.145,-0.013 -0.318,0.15 -0.545,1.535 z" />
    <rect
       id="rect20"
       width="2.1889999"
       height="0.50199997"
       x="102.368"
       y="-96.280998"
       ry="0.229"
       transform="rotate(90)" />
    <rect
       id="rect22"
       width="0.38600001"
       height="2.21"
       x="92.836998"
       y="105.222"
       ry="0.193" />
    <rect
       id="rect24"
       width="0.38600001"
       height="2.21"
       x="98.970001"
       y="105.222"
       ry="0.193" />
    <path
       id="path26"
       d="m 95.52,100.86 -0.1,0.726 c 0.408,-0.305 0.323,0.265 0.624,0.291 h 0.016 c 0.301,-0.026 0.215,-0.596 0.624,-0.291 l -0.1,-0.727 c -0.228,0.246 -0.404,0.465 -0.532,0.462 -0.128,0.003 -0.304,-0.216 -0.532,-0.462 z" />
    <path
       id="path28"
       fill="#f90000"
       d="m 93.536,105.728 v 1.269 l -0.441,0.005 -0.007,-0.951 z m 5.082,0 v 1.269 l 0.441,0.005 0.006,-0.951 z" />
    <path
       id="path30"
       fill="#ff0000"
       d="m 94.237,108.881 0.294,-0.248 0.016,0.985 -0.322,-0.088 z m 3.679,0 -0.293,-0.248 -0.017,0.985 0.323,-0.088 z" />
    <path
       id="path32"
       stroke-width="0.2"
       stroke="#000000"
       fill="none"
       d="m 96.065,99.324 c -0.082,0.004 -0.232,0.204 -0.34,0.621 l -0.29,1.347 -0.103,1.686 -0.318,1.449 -1.926,1.624 0.007,0.95 2.29,0.007 v 0.904 c -0.39,0.33 -1.155,0.875 -1.157,0.986 -0.005,0.13 -0.026,0.428 -0.03,0.573 -0.002,0.105 0.2,0.15 0.35,0.147 l 1.517,-0.478 1.541,0.478 c 0.15,0.003 0.351,-0.042 0.349,-0.147 -0.004,-0.145 -0.025,-0.444 -0.03,-0.573 -0.002,-0.11 -0.766,-0.656 -1.157,-0.986 v -0.904 l 2.291,-0.006 0.006,-0.951 -1.925,-1.624 -0.319,-1.449 -0.102,-1.686 -0.29,-1.347 c -0.068,-0.366 -0.284,-0.619 -0.364,-0.62 z" />
    <rect
       id="rect34"
       width="1.12"
       height="1.0089999"
       x="95.473"
       y="108.6"
       ry="0.132" />
  </g>
  <g
     id="g58"
     transform="matrix(1.01116,0,0,1.01116,-57.35,-77.109)">
    <path
       id="path38"
       fill="#ffffff"
       d="m 96.065,99.324 c -0.082,0.004 -0.232,0.204 -0.34,0.621 l -0.29,1.347 -0.103,1.686 -0.318,1.449 -1.926,1.624 0.007,0.95 2.29,0.007 v 0.904 c -0.39,0.33 -1.155,0.875 -1.157,0.986 -0.005,0.13 -0.026,0.428 -0.03,0.573 -0.002,0.105 0.2,0.15 0.35,0.147 l 1.517,-0.478 1.541,0.478 c 0.15,0.003 0.351,-0.042 0.349,-0.147 -0.004,-0.145 -0.025,-0.444 -0.03,-0.573 -0.002,-0.11 -0.766,-0.656 -1.157,-0.986 v -0.904 l 2.291,-0.006 0.006,-0.951 -1.925,-1.624 -0.319,-1.449 -0.102,-1.686 -0.29,-1.347 c -0.068,-0.366 -0.284,-0.619 -0.364,-0.62 z" />
    <path
       id="path40"
       fill="#ff0000"
       d="m 95.52,100.86 h 1.1 c -0.266,-1.582 -0.425,-1.535 -0.555,-1.536 -0.145,-0.013 -0.318,0.15 -0.545,1.535 z" />
    <rect
       id="rect42"
       width="2.1889999"
       height="0.50199997"
       x="102.368"
       y="-96.280998"
       ry="0.229"
       transform="rotate(90)" />
    <rect
       id="rect44"
       width="0.38600001"
       height="2.21"
       x="92.836998"
       y="105.222"
       ry="0.193" />
    <rect
       id="rect46"
       width="0.38600001"
       height="2.21"
       x="98.970001"
       y="105.222"
       ry="0.193" />
    <path
       id="path48"
       d="m 95.52,100.86 -0.1,0.726 c 0.408,-0.305 0.323,0.265 0.624,0.291 h 0.016 c 0.301,-0.026 0.215,-0.596 0.624,-0.291 l -0.1,-0.727 c -0.228,0.246 -0.404,0.465 -0.532,0.462 -0.128,0.003 -0.304,-0.216 -0.532,-0.462 z" />
    <path
       id="path50"
       fill="#f90000"
       d="m 93.536,105.728 v 1.269 l -0.441,0.005 -0.007,-0.951 z m 5.082,0 v 1.269 l 0.441,0.005 0.006,-0.951 z" />
    <path
       id="path52"
       fill="#ff0000"
       d="m 94.237,108.881 0.294,-0.248 0.016,0.985 -0.322,-0.088 z m 3.679,0 -0.293,-0.248 -0.017,0.985 0.323,-0.088 z" />
    <path
       id="path54"
       stroke-width="0.2"
       stroke="#000000"
       fill="none"
       d="m 96.065,99.324 c -0.082,0.004 -0.232,0.204 -0.34,0.621 l -0.29,1.347 -0.103,1.686 -0.318,1.449 -1.926,1.624 0.007,0.95 2.29,0.007 v 0.904 c -0.39,0.33 -1.155,0.875 -1.157,0.986 -0.005,0.13 -0.026,0.428 -0.03,0.573 -0.002,0.105 0.2,0.15 0.35,0.147 l 1.517,-0.478 1.541,0.478 c 0.15,0.003 0.351,-0.042 0.349,-0.147 -0.004,-0.145 -0.025,-0.444 -0.03,-0.573 -0.002,-0.11 -0.766,-0.656 -1.157,-0.986 v -0.904 l 2.291,-0.006 0.006,-0.951 -1.925,-1.624 -0.319,-1.449 -0.102,-1.686 -0.29,-1.347 c -0.068,-0.366 -0.284,-0.619 -0.364,-0.62 z" />
    <rect
       id="rect56"
       width="1.12"
       height="1.0089999"
       x="95.473"
       y="108.6"
       ry="0.132" />
  </g>
  <g
     id="g80"
     transform="matrix(0.09074766,1.0070796,-1.0070796,0.09074766,152.97029,-75.938432)">
    <path
       id="path60"
       fill="#ffffff"
       d="m 96.065,99.324 c -0.082,0.004 -0.232,0.204 -0.34,0.621 l -0.29,1.347 -0.103,1.686 -0.318,1.449 -1.926,1.624 0.007,0.95 2.29,0.007 v 0.904 c -0.39,0.33 -1.155,0.875 -1.157,0.986 -0.005,0.13 -0.026,0.428 -0.03,0.573 -0.002,0.105 0.2,0.15 0.35,0.147 l 1.517,-0.478 1.541,0.478 c 0.15,0.003 0.351,-0.042 0.349,-0.147 -0.004,-0.145 -0.025,-0.444 -0.03,-0.573 -0.002,-0.11 -0.766,-0.656 -1.157,-0.986 v -0.904 l 2.291,-0.006 0.006,-0.951 -1.925,-1.624 -0.319,-1.449 -0.102,-1.686 -0.29,-1.347 c -0.068,-0.366 -0.284,-0.619 -0.364,-0.62 z" />
    <path
       id="path62"
       fill="#ff0000"
       d="m 95.52,100.86 h 1.1 c -0.266,-1.582 -0.425,-1.535 -0.555,-1.536 -0.145,-0.013 -0.318,0.15 -0.545,1.535 z" />
    <rect
       id="rect64"
       width="2.1889999"
       height="0.50199997"
       x="102.368"
       y="-96.280998"
       ry="0.229"
       transform="rotate(90)" />
    <rect
       id="rect66"
       width="0.38600001"
       height="2.21"
       x="92.836998"
       y="105.222"
       ry="0.193" />
    <rect
       id="rect68"
       width="0.38600001"
       height="2.21"
       x="98.970001"
       y="105.222"
       ry="0.193" />
    <path
       id="path70"
       d="m 95.52,100.86 -0.1,0.726 c 0.408,-0.305 0.323,0.265 0.624,0.291 h 0.016 c 0.301,-0.026 0.215,-0.596 0.624,-0.291 l -0.1,-0.727 c -0.228,0.246 -0.404,0.465 -0.532,0.462 -0.128,0.003 -0.304,-0.216 -0.532,-0.462 z" />
    <path
       id="path72"
       fill="#f90000"
       d="m 93.536,105.728 v 1.269 l -0.441,0.005 -0.007,-0.951 z m 5.082,0 v 1.269 l 0.441,0.005 0.006,-0.951 z" />
    <path
       id="path74"
       fill="#ff0000"
       d="m 94.237,108.881 0.294,-0.248 0.016,0.985 -0.322,-0.088 z m 3.679,0 -0.293,-0.248 -0.017,0.985 0.323,-0.088 z" />
    <path
       id="path76"
       stroke-width="0.2"
       stroke="#000000"
       fill="none"
       d="m 96.065,99.324 c -0.082,0.004 -0.232,0.204 -0.34,0.621 l -0.29,1.347 -0.103,1.686 -0.318,1.449 -1.926,1.624 0.007,0.95 2.29,0.007 v 0.904 c -0.39,0.33 -1.155,0.875 -1.157,0.986 -0.005,0.13 -0.026,0.428 -0.03,0.573 -0.002,0.105 0.2,0.15 0.35,0.147 l 1.517,-0.478 1.541,0.478 c 0.15,0.003 0.351,-0.042 0.349,-0.147 -0.004,-0.145 -0.025,-0.444 -0.03,-0.573 -0.002,-0.11 -0.766,-0.656 -1.157,-0.986 v -0.904 l 2.291,-0.006 0.006,-0.951 -1.925,-1.624 -0.319,-1.449 -0.102,-1.686 -0.29,-1.347 c -0.068,-0.366 -0.284,-0.619 -0.364,-0.62 z" />
    <rect
       id="rect78"
       width="1.12"
       height="1.0089999"
       x="95.473"
       y="108.6"
       ry="0.132" />
  </g>
  <g
     id="g102"
     transform="matrix(0.00172951,1.0111585,-1.0111585,0.00172951,172.00164,-60.998854)">
    <path
       id="path82"
       fill="#ffffff"
       d="m 96.065,99.324 c -0.082,0.004 -0.232,0.204 -0.34,0.621 l -0.29,1.347 -0.103,1.686 -0.318,1.449 -1.926,1.624 0.007,0.95 2.29,0.007 v 0.904 c -0.39,0.33 -1.155,0.875 -1.157,0.986 -0.005,0.13 -0.026,0.428 -0.03,0.573 -0.002,0.105 0.2,0.15 0.35,0.147 l 1.517,-0.478 1.541,0.478 c 0.15,0.003 0.351,-0.042 0.349,-0.147 -0.004,-0.145 -0.025,-0.444 -0.03,-0.573 -0.002,-0.11 -0.766,-0.656 -1.157,-0.986 v -0.904 l 2.291,-0.006 0.006,-0.951 -1.925,-1.624 -0.319,-1.449 -0.102,-1.686 -0.29,-1.347 c -0.068,-0.366 -0.284,-0.619 -0.364,-0.62 z" />
    <path
       id="path84"
       fill="#ff0000"
       d="m 95.52,100.86 h 1.1 c -0.266,-1.582 -0.425,-1.535 -0.555,-1.536 -0.145,-0.013 -0.318,0.15 -0.545,1.535 z" />
    <rect
       id="rect86"
       width="2.1889999"
       height="0.50199997"
       x="102.368"
       y="-96.280998"
       ry="0.229"
       transform="rotate(90)" />
    <rect
       id="rect88"
       width="0.38600001"
       height="2.21"
       x="92.836998"
       y="105.222"
       ry="0.193" />
    <rect
       id="rect90"
       width="0.38600001"
       height="2.21"
       x="98.970001"
       y="105.222"
       ry="0.193" />
    <path
       id="path92"
       d="m 95.52,100.86 -0.1,0.726 c 0.408,-0.305 0.323,0.265 0.624,0.291 h 0.016 c 0.301,-0.026 0.215,-0.596 0.624,-0.291 l -0.1,-0.727 c -0.228,0.246 -0.404,0.465 -0.532,0.462 -0.128,0.003 -0.304,-0.216 -0.532,-0.462 z" />
    <path
       id="path94"
       fill="#f90000"
       d="m 93.536,105.728 v 1.269 l -0.441,0.005 -0.007,-0.951 z m 5.082,0 v 1.269 l 0.441,0.005 0.006,-0.951 z" />
    <path
       id="path96"
       fill="#ff0000"
       d="m 94.237,108.881 0.294,-0.248 0.016,0.985 -0.322,-0.088 z m 3.679,0 -0.293,-0.248 -0.017,0.985 0.323,-0.088 z" />
    <path
       id="path98"
       stroke-width="0.2"
       stroke="#000000"
       fill="none"
       d="m 96.065,99.324 c -0.082,0.004 -0.232,0.204 -0.34,0.621 l -0.29,1.347 -0.103,1.686 -0.318,1.449 -1.926,1.624 0.007,0.95 2.29,0.007 v 0.904 c -0.39,0.33 -1.155,0.875 -1.157,0.986 -0.005,0.13 -0.026,0.428 -0.03,0.573 -0.002,0.105 0.2,0.15 0.35,0.147 l 1.517,-0.478 1.541,0.478 c 0.15,0.003 0.351,-0.042 0.349,-0.147 -0.004,-0.145 -0.025,-0.444 -0.03,-0.573 -0.002,-0.11 -0.766,-0.656 -1.157,-0.986 v -0.904 l 2.291,-0.006 0.006,-0.951 -1.925,-1.624 -0.319,-1.449 -0.102,-1.686 -0.29,-1.347 c -0.068,-0.366 -0.284,-0.619 -0.364,-0.62 z" />
    <rect
       id="rect100"
       width="1.12"
       height="1.0089999"
       x="95.473"
       y="108.6"
       ry="0.132" />
  </g>
  <g
     id="g124"
     transform="matrix(0.09011487,-1.0071365,1.0071365,0.09011487,-90.772052,117.65024)">
    <path
       id="path104"
       fill="#ffffff"
       d="m 96.065,99.324 c -0.082,0.004 -0.232,0.204 -0.34,0.621 l -0.29,1.347 -0.103,1.686 -0.318,1.449 -1.926,1.624 0.007,0.95 2.29,0.007 v 0.904 c -0.39,0.33 -1.155,0.875 -1.157,0.986 -0.005,0.13 -0.026,0.428 -0.03,0.573 -0.002,0.105 0.2,0.15 0.35,0.147 l 1.517,-0.478 1.541,0.478 c 0.15,0.003 0.351,-0.042 0.349,-0.147 -0.004,-0.145 -0.025,-0.444 -0.03,-0.573 -0.002,-0.11 -0.766,-0.656 -1.157,-0.986 v -0.904 l 2.291,-0.006 0.006,-0.951 -1.925,-1.624 -0.319,-1.449 -0.102,-1.686 -0.29,-1.347 c -0.068,-0.366 -0.284,-0.619 -0.364,-0.62 z" />
    <path
       id="path106"
       fill="#ff0000"
       d="m 95.52,100.86 h 1.1 c -0.266,-1.582 -0.425,-1.535 -0.555,-1.536 -0.145,-0.013 -0.318,0.15 -0.545,1.535 z" />
    <rect
       id="rect108"
       width="2.1889999"
       height="0.50199997"
       x="102.368"
       y="-96.280998"
       ry="0.229"
       transform="rotate(90)" />
    <rect
       id="rect110"
       width="0.38600001"
       height="2.21"
       x="92.836998"
       y="105.222"
       ry="0.193" />
    <rect
       id="rect112"
       width="0.38600001"
       height="2.21"
       x="98.970001"
       y="105.222"
       ry="0.193" />
    <path
       id="path114"
       d="m 95.52,100.86 -0.1,0.726 c 0.408,-0.305 0.323,0.265 0.624,0.291 h 0.016 c 0.301,-0.026 0.215,-0.596 0.624,-0.291 l -0.1,-0.727 c -0.228,0.246 -0.404,0.465 -0.532,0.462 -0.128,0.003 -0.304,-0.216 -0.532,-0.462 z" />
    <path
       id="path116"
       fill="#f90000"
       d="m 93.536,105.728 v 1.269 l -0.441,0.005 -0.007,-0.951 z m 5.082,0 v 1.269 l 0.441,0.005 0.006,-0.951 z" />
    <path
       id="path118"
       fill="#ff0000"
       d="m 94.237,108.881 0.294,-0.248 0.016,0.985 -0.322,-0.088 z m 3.679,0 -0.293,-0.248 -0.017,0.985 0.323,-0.088 z" />
    <path
       id="path120"
       stroke-width="0.2"
       stroke="#000000"
       fill="none"
       d="m 96.065,99.324 c -0.082,0.004 -0.232,0.204 -0.34,0.621 l -0.29,1.347 -0.103,1.686 -0.318,1.449 -1.926,1.624 0.007,0.95 2.29,0.007 v 0.904 c -0.39,0.33 -1.155,0.875 -1.157,0.986 -0.005,0.13 -0.026,0.428 -0.03,0.573 -0.002,0.105 0.2,0.15 0.35,0.147 l 1.517,-0.478 1.541,0.478 c 0.15,0.003 0.351,-0.042 0.349,-0.147 -0.004,-0.145 -0.025,-0.444 -0.03,-0.573 -0.002,-0.11 -0.766,-0.656 -1.157,-0.986 v -0.904 l 2.291,-0.006 0.006,-0.951 -1.925,-1.624 -0.319,-1.449 -0.102,-1.686 -0.29,-1.347 c -0.068,-0.366 -0.284,-0.619 -0.364,-0.62 z" />
    <rect
       id="rect122"
       width="1.12"
       height="1.0089999"
       x="95.473"
       y="108.6"
       ry="0.132" />
  </g>
  <g
     id="g146"
     transform="matrix(-0.00305311,-1.0111554,1.0111554,-0.00305311,-92.285172,133.81872)">
    <path
       id="path126"
       fill="#ffffff"
       d="m 96.065,99.324 c -0.082,0.004 -0.232,0.204 -0.34,0.621 l -0.29,1.347 -0.103,1.686 -0.318,1.449 -1.926,1.624 0.007,0.95 2.29,0.007 v 0.904 c -0.39,0.33 -1.155,0.875 -1.157,0.986 -0.005,0.13 -0.026,0.428 -0.03,0.573 -0.002,0.105 0.2,0.15 0.35,0.147 l 1.517,-0.478 1.541,0.478 c 0.15,0.003 0.351,-0.042 0.349,-0.147 -0.004,-0.145 -0.025,-0.444 -0.03,-0.573 -0.002,-0.11 -0.766,-0.656 -1.157,-0.986 v -0.904 l 2.291,-0.006 0.006,-0.951 -1.925,-1.624 -0.319,-1.449 -0.102,-1.686 -0.29,-1.347 c -0.068,-0.366 -0.284,-0.619 -0.364,-0.62 z" />
    <path
       id="path128"
       fill="#ff0000"
       d="m 95.52,100.86 h 1.1 c -0.266,-1.582 -0.425,-1.535 -0.555,-1.536 -0.145,-0.013 -0.318,0.15 -0.545,1.535 z" />
    <rect
       id="rect130"
       width="2.1889999"
       height="0.50199997"
       x="102.368"
       y="-96.280998"
       ry="0.229"
       transform="rotate(90)" />
    <rect
       id="rect132"
       width="0.38600001"
       height="2.21"
       x="92.836998"
       y="105.222"
       ry="0.193" />
    <rect
       id="rect134"
       width="0.38600001"
       height="2.21"
       x="98.970001"
       y="105.222"
       ry="0.193" />
    <path
       id="path136"
       d="m 95.52,100.86 -0.1,0.726 c 0.408,-0.305 0.323,0.265 0.624,0.291 h 0.016 c 0.301,-0.026 0.215,-0.596 0.624,-0.291 l -0.1,-0.727 c -0.228,0.246 -0.404,0.465 -0.532,0.462 -0.128,0.003 -0.304,-0.216 -0.532,-0.462 z" />
    <path
       id="path138"
       fill="#f90000"
       d="m 93.536,105.728 v 1.269 l -0.441,0.005 -0.007,-0.951 z m 5.082,0 v 1.269 l 0.441,0.005 0.006,-0.951 z" />
    <path
       id="path140"
       fill="#ff0000"
       d="m 94.237,108.881 0.294,-0.248 0.016,0.985 -0.322,-0.088 z m 3.679,0 -0.293,-0.248 -0.017,0.985 0.323,-0.088 z" />
    <path
       id="path142"
       stroke-width="0.2"
       stroke="#000000"
       fill="none"
       d="m 96.065,99.324 c -0.082,0.004 -0.232,0.204 -0.34,0.621 l -0.29,1.347 -0.103,1.686 -0.318,1.449 -1.926,1.624 0.007,0.95 2.29,0.007 v 0.904 c -0.39,0.33 -1.155,0.875 -1.157,0.986 -0.005,0.13 -0.026,0.428 -0.03,0.573 -0.002,0.105 0.2,0.15 0.35,0.147 l 1.517,-0.478 1.541,0.478 c 0.15,0.003 0.351,-0.042 0.349,-0.147 -0.004,-0.145 -0.025,-0.444 -0.03,-0.573 -0.002,-0.11 -0.766,-0.656 -1.157,-0.986 v -0.904 l 2.291,-0.006 0.006,-0.951 -1.925,-1.624 -0.319,-1.449 -0.102,-1.686 -0.29,-1.347 c -0.068,-0.366 -0.284,-0.619 -0.364,-0.62 z" />
    <rect
       id="rect144"
       width="1.12"
       height="1.0089999"
       x="95.473"
       y="108.6"
       ry="0.132" />
  </g>
</svg>
