<?xml version="1.0" encoding="UTF-8" standalone="no"?>
<svg
   xmlns:dc="http://purl.org/dc/elements/1.1/"
   xmlns:cc="http://creativecommons.org/ns#"
   xmlns:rdf="http://www.w3.org/1999/02/22-rdf-syntax-ns#"
   xmlns:svg="http://www.w3.org/2000/svg"
   xmlns="http://www.w3.org/2000/svg"
   xmlns:sodipodi="http://sodipodi.sourceforge.net/DTD/sodipodi-0.dtd"
   xmlns:inkscape="http://www.inkscape.org/namespaces/inkscape"
   width="4.2333336mm"
   height="4.2333336mm"
   viewBox="0 0 4.2333336 4.2333336"
   version="1.1"
   id="svg8"
   inkscape:version="1.0.2 (e86c870879, 2021-01-15, custom)"
   sodipodi:docname="favicon.svg">
  <defs
     id="defs2" />
  <sodipodi:namedview
     id="base"
     pagecolor="#ffffff"
     bordercolor="#666666"
     borderopacity="1.0"
     inkscape:pageopacity="0.0"
     inkscape:pageshadow="2"
     inkscape:zoom="15.839192"
     inkscape:cx="23.003333"
     inkscape:cy="22.351716"
     inkscape:document-units="mm"
     inkscape:current-layer="layer1"
     inkscape:document-rotation="0"
     showgrid="false"
     fit-margin-top="0"
     fit-margin-left="0"
     fit-margin-right="0"
     fit-margin-bottom="0"
     inkscape:window-width="1920"
     inkscape:window-height="1023"
     inkscape:window-x="0"
     inkscape:window-y="0"
     inkscape:window-maximized="1" />
  <metadata
     id="metadata5">
    <rdf:RDF>
      <cc:Work
         rdf:about="">
        <dc:format>image/svg+xml</dc:format>
        <dc:type
           rdf:resource="http://purl.org/dc/dcmitype/StillImage" />
        <dc:title></dc:title>
      </cc:Work>
    </rdf:RDF>
  </metadata>
  <g
     inkscape:label="Layer 1"
     inkscape:groupmode="layer"
     id="layer1">
    <g
       id="g860"
       transform="matrix(0.05075402,0,0,0.05075402,-1.7270184,-4.2008198)">
      <circle
         style="fill:#533a69;fill-opacity:1;stroke-width:0.2;stroke-linecap:round"
         id="path855"
         cx="75.731644"
         cy="124.47263"
         r="41.704414" />
      <path
         style="fill:#bc9969;fill-opacity:1;stroke-width:0.352778"
         d="m 64.783764,156.04772 c -4.34513,-0.97583 -6.60611,-3.47352 -7.25542,-8.01499 -0.38943,-2.72378 0.11969,-6.07851 1.26569,-8.34003 1.34285,-2.64999 4.17946,-4.4901 7.44054,-4.82668 l 1.90058,-0.19616 v -14.09949 c 0,-13.29167 0.0354,-14.08465 0.61736,-13.84025 3.82071,1.60442 4.2558,1.70891 7.14375,1.71553 2.46065,0.006 3.41497,-0.16411 5.31935,-0.94621 1.2764,-0.5242 2.42734,-0.95309 2.55764,-0.95309 0.1303,0 0.2369,6.35 0.2369,14.11111 v 14.11111 h 1.05455 c 1.41852,0 4.23006,1.10075 5.72608,2.24182 0.67071,0.51157 1.68163,1.76425 2.2465,2.78374 0.95244,1.71897 1.02704,2.12436 1.02704,5.58091 0,3.44885 -0.0793,3.88256 -1.062,5.80568 -1.33628,2.61517 -3.34111,4.20387 -6.00211,4.75629 -3.93769,0.81746 -6.97045,-0.63676 -9.64677,-4.62568 l -1.56386,-2.33085 -1.02998,2.06119 c -0.5665,1.13365 -1.61406,2.54429 -2.32791,3.13473 -1.97625,1.63462 -5.19502,2.42219 -7.64793,1.87132 z"
         id="path847" />
      <path
         style="fill:#a76c6c;fill-opacity:1;stroke-width:0.352778"
         d="m 73.928686,106.65398 c -1.49542,-0.18121 -4.05393,-1.14556 -5.24312,-1.97623 -0.97703,-0.68247 -1.002,-0.77425 -0.76957,-2.82866 0.49949,-4.414914 2.03557,-7.239487 4.56063,-8.386163 2.10114,-0.954165 2.33401,-0.880711 2.33401,0.736206 0,1.019136 0.14699,1.411111 0.52917,1.411111 0.38259,0 0.52916,-0.392722 0.52916,-1.417832 0,-1.366047 0.0354,-1.40962 0.97014,-1.19299 3.80114,0.880961 5.83005,3.765633 6.60161,9.386088 l 0.22789,1.65999 -1.69496,0.84949 c -2.84446,1.4256 -5.67996,2.04557 -8.04496,1.75899 z"
         id="path851" />
    </g>
  </g>
</svg>
