<?xml version="1.0" encoding="UTF-8" standalone="no"?>
<!-- Created with Inkscape (http://www.inkscape.org/) -->

<svg
   width="4.2333331mm"
   height="4.2333331mm"
   viewBox="0 0 4.2333331 4.2333331"
   version="1.1"
   id="svg5"
   inkscape:version="1.1.1 (3bf5ae0d25, 2021-09-20, custom)"
   sodipodi:docname="favicon.svg"
   xmlns:inkscape="http://www.inkscape.org/namespaces/inkscape"
   xmlns:sodipodi="http://sodipodi.sourceforge.net/DTD/sodipodi-0.dtd"
   xmlns="http://www.w3.org/2000/svg"
   xmlns:svg="http://www.w3.org/2000/svg">
  <sodipodi:namedview
     id="namedview7"
     pagecolor="#ffffff"
     bordercolor="#666666"
     borderopacity="1.0"
     inkscape:pageshadow="2"
     inkscape:pageopacity="0.0"
     inkscape:pagecheckerboard="0"
     inkscape:document-units="mm"
     showgrid="false"
     inkscape:zoom="33.663362"
     inkscape:cx="10.872354"
     inkscape:cy="7.322501"
     inkscape:window-width="1920"
     inkscape:window-height="1023"
     inkscape:window-x="0"
     inkscape:window-y="0"
     inkscape:window-maximized="1"
     inkscape:current-layer="layer1" />
  <defs
     id="defs2" />
  <g
     inkscape:label="Layer 1"
     inkscape:groupmode="layer"
     id="layer1">
    <rect
       style="fill:#c1debc;fill-opacity:1;stroke-width:0.000425123"
       id="rect8412"
       width="4.2333331"
       height="4.2333331"
       x="0"
       y="0"
       ry="0.47916743" />
    <path
       style="fill:#000000;fill-opacity:1;stroke-width:0.00369651"
       d="M 3.0454079,3.8159202 C 2.907015,3.8034474 2.7542887,3.7507244 2.6408032,3.6762454 2.4333172,3.5400753 2.290185,3.322716 2.2497218,3.0823525 2.2021851,2.7999713 2.2888944,2.5181565 2.4873006,2.3101935 2.625046,2.165813 2.8281684,2.067308 3.0315985,2.0462343 c 0.060308,-0.00625 0.1786717,-0.0025 0.2348795,0.00745 0.1268042,0.022427 0.2419641,0.068357 0.3451363,0.1376532 0.2120033,0.1423932 0.3486568,0.3616483 0.3862009,0.619644 0.00773,0.053123 0.00872,0.1793601 0.00179,0.2276563 -0.020975,0.1460886 -0.06578,0.2673923 -0.1408305,0.3812738 -0.1404976,0.2131903 -0.3633391,0.3540504 -0.6181357,0.390729 -0.047202,0.00679 -0.1481336,0.00952 -0.1952311,0.00528 z"
       id="path836" />
    <path
       style="fill:#c1debc;fill-opacity:1;stroke-width:0.00369651"
       d="m 3.2221825,3.4552136 c 0.060392,-0.012663 0.1345981,-0.042086 0.1805394,-0.071586 0.030737,-0.019737 0.074906,-0.056184 0.1001822,-0.082669 0.057054,-0.059782 0.094152,-0.12052 0.1208482,-0.197858 0.022079,-0.063961 0.026642,-0.094241 0.026451,-0.1755198 C 3.6500531,2.8630394 3.6490123,2.8510492 3.640382,2.8143191 3.6026019,2.653537 3.5023047,2.5251074 3.3576385,2.4522684 3.1435221,2.3444617 2.8826495,2.3953819 2.7233614,2.5760739 2.6619185,2.6457732 2.6199073,2.7302479 2.599522,2.8250866 2.587937,2.8789836 2.587839,2.9835491 2.5993239,3.0356082 c 0.017952,0.081371 0.04972,0.1517937 0.096898,0.2148048 0.083736,0.1118386 0.2061778,0.1857475 0.345087,0.2083029 0.043067,0.00699 0.1397467,0.00512 0.1808735,-0.0035 z"
       id="path1037" />
    <path
       style="fill:#bb0000;fill-opacity:1;stroke-width:0.00369651"
       d="M 2.537719,1.4745686 C 2.3983763,1.1765569 2.3218536,1.0169566 2.3143955,1.0087922 2.2782568,0.96923112 2.2107926,0.9690463 2.1808405,1.008427 2.1756576,1.0152415 2.0816439,1.2153807 1.9719213,1.4531811 1.8621987,1.6909813 1.7713314,1.8867674 1.7699941,1.8882612 1.7686561,1.889755 1.6970224,1.7649573 1.6108068,1.610933 1.5245912,1.4569086 1.4501387,1.3261395 1.4453567,1.3203349 c -0.016223,-0.019693 -0.039583,-0.030358 -0.06669,-0.030448 -0.027855,-9.79e-5 -0.046687,0.008 -0.065259,0.028044 -0.0063,0.0068 -0.057683,0.078153 -0.1141921,0.1585733 -0.056509,0.08042 -0.1104402,0.1570459 -0.1198463,0.1702797 l -0.017102,0.024061 -0.38595394,9.43e-4 -0.38595393,9.429e-4 -0.007686,-0.021302 C 0.24522979,1.5476539 0.22866949,1.4529936 0.22908201,1.3450938 0.22967508,1.1899593 0.26159311,1.0526432 0.32834977,0.91802916 0.37728396,0.81935394 0.4319356,0.7421266 0.50477272,0.66872867 0.69523101,0.476804 0.94999932,0.38648407 1.1963327,0.42355813 1.3938074,0.4532789 1.582405,0.56961022 1.7272072,0.75101397 c 0.020302,0.025434 0.039499,0.0502398 0.042659,0.0551243 l 0.00575,0.008881 0.029678,-0.0385043 c 0.142835,-0.18531893 0.3055589,-0.29549822 0.5070349,-0.34331118 0.035355,-0.00839 0.105869,-0.0153939 0.1549871,-0.0153939 0.2129877,0 0.4189122,0.0896901 0.5815326,0.25328563 0.141713,0.14256279 0.2349332,0.33031878 0.2657163,0.53518278 0.00921,0.061293 0.011434,0.1862071 0.00428,0.2406123 -0.015491,0.1178667 -0.057696,0.2484471 -0.1212792,0.3752312 l -0.020173,0.040225 -0.044048,-5.401e-4 c -0.1098317,-0.00135 -0.2395799,0.018896 -0.3414021,0.053264 -0.021205,0.00716 -0.039385,0.012978 -0.0404,0.012934 -0.00102,-4.2e-5 -0.097236,-0.2040888 -0.2138231,-0.4534347 z"
       id="path1043" />
    <path
       style="fill:#bb0000;fill-opacity:1;stroke-width:0.00369651"
       d="M 1.7142877,3.1474955 C 1.4275628,2.9882207 1.1266831,2.7569896 0.86711589,2.4964302 0.65628269,2.284791 0.49519899,2.0789733 0.38732162,1.8833944 L 0.37115242,1.85408 h 0.37005691 c 0.40809717,0 0.39347717,8.017e-4 0.42075177,-0.023075 0.0076,-0.00665 0.056491,-0.072669 0.1086553,-0.1467089 0.052164,-0.07404 0.096505,-0.134244 0.098535,-0.1337871 0.00203,4.575e-4 0.077043,0.1318304 0.1666961,0.2919413 0.089653,0.1601108 0.1682533,0.297382 0.1746681,0.305047 0.024446,0.029209 0.067799,0.039014 0.1014328,0.022939 0.032659,-0.015609 0.028869,-0.00826 0.2382473,-0.4618548 0.1086163,-0.2353043 0.1987229,-0.4266004 0.2002366,-0.4251024 0.00205,0.00203 0.3282603,0.6954947 0.3372966,0.7170369 9.04e-4,0.00216 -0.018249,0.016815 -0.042563,0.032576 C 2.47901,2.0759765 2.4310003,2.1153933 2.3692294,2.1775378 2.2824569,2.2648352 2.2241707,2.3458894 2.1705975,2.4537603 2.0937396,2.608515 2.0611031,2.7468592 2.0593511,2.9253289 l -8.678e-4,0.08844 -0.036442,0.023777 c -0.082807,0.054027 -0.2358451,0.1417787 -0.2471996,0.1417432 -0.00184,-5.8e-6 -0.029085,-0.014313 -0.060553,-0.031793 z"
       id="path1041" />
    <path
       style="fill:#000000;stroke-width:0.00369651"
       d="M 3.0821658,3.1231608 C 3.0068936,3.1087457 2.9415567,3.0408921 2.9285635,2.9636426 2.9170187,2.8950033 2.9439538,2.8214384 2.9959811,2.7795124 3.0073932,2.770316 3.1021552,2.7166159 3.2075395,2.6596256 3.4054562,2.5525952 3.4125507,2.5494609 3.44365,2.5553116 c 0.017751,0.00334 0.04051,0.024492 0.048266,0.044859 0.011969,0.031429 0.010781,0.034304 -0.09822,0.2376453 C 3.33831,2.9411396 3.2884627,3.0323406 3.282925,3.0404843 3.2391494,3.1048607 3.1589878,3.1378728 3.0821658,3.1231608 Z"
       id="path1039" />
  </g>
</svg>
