<svg width="16" height="16" viewBox="0 0 4.233 4.233" xmlns="http://www.w3.org/2000/svg"><path d="M2.785 4.229a2.268 2.268 0 01-.502-.11.993.993 0 01-.261-.132 3.162 3.162 0 01-.604-.512 3.275 3.275 0 01-.464-.583 8.273 8.273 0 01-.428-.784A5.159 5.159 0 01.292 1.4C.258 1.22.255 1.026.287.963.3.934.332.914.377.905a1.95 1.95 0 01.38.009c.15.013.211.015.472.017.376.004.559-.008.688-.043.113-.031.306-.115.467-.202.138-.076.172-.1.344-.24.421-.348.489-.4.56-.435.044-.022.076-.013.12.035.08.086.213.399.36.847.08.244.09.282.111.44.031.225.082.853.088 1.083.01.352-.026.651-.11.941a2.799 2.799 0 01-.19.489c-.062.088-.237.217-.399.292a.834.834 0 01-.483.091zm.238-.629a.395.395 0 00.151-.054c.051-.03.14-.116.183-.176a1.08 1.08 0 00.175-.567c.004-.146-.014-.211-.063-.22-.05-.01-.102.039-.198.19-.083.13-.121.18-.18.234-.088.081-.18.111-.323.105-.123-.006-.23-.029-.453-.098-.228-.07-.295-.076-.295-.025 0 .087.203.284.469.454a.986.986 0 00.378.162c.04.005.11.003.156-.005zm-1.23-1.5l.334-.14c.093-.04.103-.045.093-.052a1.569 1.569 0 00-.182-.1c-.274-.118-.428-.02-.475.3-.01.065-.01.089-.004.089l.234-.097zm1.08-.529l.321-.136c.065-.027.118-.05.118-.053a.816.816 0 00-.148-.089c-.294-.144-.465-.051-.512.278a.98.98 0 00-.01.08c0 .015.002.016.014.011l.217-.09z" fill="#7179cd"/></svg>