<?xml version="1.0" encoding="UTF-8" standalone="no"?>
<!-- Created with Inkscape (http://www.inkscape.org/) -->

<svg
   version="1.1"
   id="svg2"
   xml:space="preserve"
   width="15.999999"
   height="16.00001"
   viewBox="0 0 15.999999 16.00001"
   sodipodi:docname="favicon.svg"
   inkscape:version="1.1.1 (3bf5ae0d25, 2021-09-20, custom)"
   xmlns:inkscape="http://www.inkscape.org/namespaces/inkscape"
   xmlns:sodipodi="http://sodipodi.sourceforge.net/DTD/sodipodi-0.dtd"
   xmlns="http://www.w3.org/2000/svg"
   xmlns:svg="http://www.w3.org/2000/svg"><defs
     id="defs6" /><sodipodi:namedview
     id="namedview4"
     pagecolor="#ffffff"
     bordercolor="#666666"
     borderopacity="1.0"
     inkscape:pageshadow="2"
     inkscape:pageopacity="0.0"
     inkscape:pagecheckerboard="0"
     showgrid="false"
     inkscape:zoom="22.141282"
     inkscape:cx="5.2390825"
     inkscape:cy="17.298005"
     inkscape:window-width="1920"
     inkscape:window-height="1056"
     inkscape:window-x="1920"
     inkscape:window-y="0"
     inkscape:window-maximized="1"
     inkscape:current-layer="g8" /><g
     id="g8"
     inkscape:groupmode="layer"
     inkscape:label="ink_ext_XXXXXX"
     transform="matrix(1.3333333,0,0,-1.3333333,0,426.66668)"><g
       id="g10"
       transform="matrix(0.00449079,0,0,0.00375001,1.1249978,308.00003)"><path
         d="m 1832.84,2733.85 c -72.57,97.05 -165.95,174.36 -283.7,223.04 -211.44,87.19 -423.16,108.66 -624.331,62.01 C 802.34,2990.4 683.305,2936.51 569.934,2854.57 440.996,2761.18 350.266,2643.66 285.297,2508.14 220.625,2373.05 182.504,2219.97 162.164,2059.68 c -16.859,-178.07 9.871,-357.35 47.234,-541.57 15.301,-75.82 32.375,-152.4 48.536,-229.93 14.293,-3.84 31.035,-10.55 50.851,-20.35 136.117,-67.28 293.172,-88.85 439.852,-45.94 135.019,39.49 179.89,151.26 192.711,280.84 -8.043,12.55 -16.91,24.62 -26.805,36.04 -10.367,11.78 -21.539,19.34 -37.344,25.92 -15.691,6.43 -36.031,10.95 -59.953,13.66 -48.062,5.79 -107.801,2.82 -170.445,11.16 -41.508,5.88 -87.469,17.56 -128.508,50.04 -23.184,18.36 -43.082,43.39 -56.582,72.38 -15.633,33.21 -27.051,66.8 -34.797,100.23 -21.336,91.92 -15.086,181.24 0.543,264.89 15.758,83.84 40.77,163.28 61.285,238.7 73.176,267.59 279.477,470.8 528.988,529.27 163.15,38.37 345.28,11.14 508.5,-99.49 132.75,-90.74 233.04,-245.32 272.43,-410.99 17.51,-75.57 21.76,-154.07 6.28,-230.22 -25.08,-123.25 -84.24,-215.29 -143.46,-293.96 -59.69,-79.07 -119.09,-147.23 -160.95,-228.02 -20.1,-38.47 -67.51,-53.38 -105.97,-33.32 -38.45,20.05 -53.37,67.46 -33.31,105.91 21.54,41.12 45.38,77.93 69.72,112.03 -0.44,73.31 27.21,187.75 37.8,216.06 50.04,133.84 43.68,199.12 -31.67,320.14 -31.47,50.57 -67.22,126.31 -108.37,165.21 -47.81,45.19 -147.12,70.54 -216.97,89.4 -47.05,-20.47 -87.43,-53.96 -121.53,-109.25 -15.511,-25.15 -30.292,-49.71 -43.07,-74.76 39.641,2.96 82.28,2.84 127.44,-6.12 57.26,-11.64 105.92,-42.03 139.34,-81.37 33.72,-39.29 53.4,-85.58 64.26,-132.17 21.4,-95.17 9.98,-193.86 -19.97,-273.87 -5.23,-13.66 -13.94,-24.92 -24.64,-33.39 -9.84,-51.77 -25.39,-98.75 -46.32,-129.96 -29.59,-44.12 -83.77,-74.34 -142.26,-89.81 46.88,-58.63 77.69,-125.98 93.85,-195.54 31.05,-135.04 10.09,-278.2 -51.59,-398.73 -61.48,-120.019 -167.547,-220.21 -308.84,-253.163 -30.989,-7.215 -63.457,-11.016 -96.946,-11.168 21.739,-182.992 99.661,-380.617 254.321,-393.43 124.235,-10.293 311.985,-18.828 419.945,43.074 13.74,7.883 24.72,16.192 33.64,24.836 5.77,16.395 9.33,31.914 11.31,47.149 3.99,32.058 1.05,64.445 -7.69,102.285 -9.37,40.527 -25.78,86.562 -44.66,139.344 -6.87,19.132 -12.39,38.031 -16.72,56.621 -25.19,106.086 -8.29,206.757 33.72,291.582 41.79,85.3 105.48,156.87 175.85,222.53 126.68,117.84 243.74,235.8 328.62,365.1 84.93,129.61 138.77,268.63 143.77,438.19 2.75,96.79 -6.62,195.3 -28.52,289.47 -28.96,124.73 -79.8,241.67 -152.23,338.63"
         style="fill:#e5a877;fill-opacity:1;fill-rule:nonzero;stroke:none"
         id="path12" /><path
         d="m 603.828,1778.75 c 6.543,-12.71 10.531,-16.06 21.328,-22.07 10.707,-5.58 29.864,-10.59 55.645,-13.14 51.816,-5.99 124.601,-0.62 201.742,-16.91 51.168,-10.93 107.812,-35.31 150.617,-84.97 4.14,-4.76 7.94,-9.7 11.85,-14.59 58.49,15.47 112.67,45.69 142.26,89.81 20.93,31.21 36.48,78.19 46.32,129.96 -9.14,-7.21 -19.7,-12.42 -31.01,-15.05 -14.73,-3.43 -30.59,-2.64 -45.76,3.16 -40.51,15.5 -60.77,60.91 -45.27,101.41 19.33,48.81 27.51,125.87 13.68,182.19 -6.44,27.91 -17.3,50.28 -30.32,65.28 -13.33,14.96 -27.61,24.55 -52.49,30.13 -39.17,8.57 -89.881,3.68 -148.557,-4.01 -58.437,-6.97 -124.945,-17.04 -197.906,-0.8 -22.352,4.98 -45.023,13.15 -67.09,24.45 -18.121,-64.38 -36.07,-126.39 -47.047,-185.38 -13.371,-71.57 -16.593,-137.56 -1.949,-200.51 5.359,-23.04 13.113,-45.87 23.957,-68.96 z m 1041.852,520.22 c -28.51,126.53 -114.51,254.96 -207.29,316.37 -129.41,86.75 -261.67,104.92 -385.12,76.71 -154.254,-35.47 -293.977,-149.26 -371.403,-307.21 15.871,-11.99 31.121,-18.25 49.184,-22.62 23.726,-5.53 53.226,-5.88 87.937,-2.74 37.793,2.79 80.84,10.74 128.172,14.28 12.778,25.05 27.559,49.61 43.07,74.76 34.1,55.29 74.48,88.78 121.53,109.25 69.85,-18.86 169.16,-44.21 216.97,-89.4 41.15,-38.9 76.9,-114.64 108.37,-165.21 75.35,-121.02 81.71,-186.3 31.67,-320.14 -10.59,-28.31 -38.24,-142.75 -37.8,-216.06 35.82,50.21 72.71,94.52 104.96,137.69 54.6,72.93 96.41,140.37 115.14,231.15 10.12,49.27 8,105.7 -5.39,163.17 z M 935.805,375.039 c -154.66,12.813 -232.582,210.438 -254.321,393.43 -13.046,-0.071 -26.234,0.371 -39.57,1.453 -43.219,3.484 -75.43,41.379 -71.93,84.582 3.469,43.219 41.336,75.445 84.582,71.941 31.872,-2.558 61.102,-0.168 88.309,6.16 87.75,20.305 159.238,83.985 204.719,172.005 45.308,87.53 60.636,196.58 38.289,291.37 -8.918,38.34 -23.703,74.29 -44.535,106.75 -12.821,-129.58 -57.692,-241.35 -192.711,-280.84 -146.68,-42.91 -303.735,-21.34 -439.852,45.94 -19.816,9.8 -36.558,16.51 -50.851,20.35 23.179,-111.21 44.453,-224.39 55.754,-340.309 6.675,-69.18 17.457,-140.098 33.597,-209.453 25.016,-107.863 63.047,-211.672 117.438,-300.031 54.48,-88.485 124.398,-161.422 216.043,-212.489 119.492,-66.511 257.32,-84.472 381.554,-55.515 120.8,28.308 227.95,99.07 298.68,213.992 12.95,21.262 22.03,40.461 28.39,58.574 -8.92,-8.644 -19.9,-16.953 -33.64,-24.836 -107.96,-61.902 -295.71,-53.367 -419.945,-43.074"
         style="fill:#b47b55;fill-opacity:1;fill-rule:nonzero;stroke:none"
         id="path14" /><path
         d="m 2138.05,2430.77 c -33.25,142.87 -91.92,279.8 -179.34,397.03 -87.29,117.12 -204.05,214.25 -349.63,274.27 -237.1,98.05 -484.06,124.7 -719.822,69.8 C 745.879,3138.57 607.121,3075.31 477.926,2981.83 325.91,2872.05 217.797,2731.22 143.648,2575.9 69.3164,2420.45 28.0352,2250.64 6.22656,2078.2 6.08594,2077.09 5.96094,2075.98 5.87891,2074.89 -13.2852,1871.25 17.3359,1676 55.4844,1486.96 93.9258,1297.55 139.941,1113.68 157.367,932.754 164.629,857.734 176.363,780.129 194.316,702.859 222.246,582.805 265.121,463.309 330.91,356.172 396.566,249.141 486.098,154.375 604.445,88.6602 758.207,3.25391 935,-20.3516 1097.86,17.4102 l 0.98,0.2265 c 157.66,36.6406 303.02,132.7463 396,284.5973 34.7,56.352 54.77,112.922 61.66,168.204 6.99,55.316 1.02,107.929 -10.54,157.492 -12.48,53.449 -31.1,104.168 -49.72,156.687 -4.9,13.613 -8.67,26.613 -11.65,39.278 -16.04,71.367 -6.37,128 21.87,187.195 28.49,58.75 78.65,117.9 141.74,176.43 129.25,120.47 255.63,246.14 352.85,393.77 97.17,147.27 164.1,318.39 169.55,520.06 3.05,109.87 -7.46,221.42 -32.55,329.42 z m -124.46,-325.02 c -5,-169.56 -58.84,-308.58 -143.77,-438.19 -84.88,-129.3 -201.94,-247.26 -328.62,-365.1 -70.37,-65.66 -134.06,-137.23 -175.85,-222.53 -42.01,-84.825 -58.91,-185.496 -33.72,-291.582 4.33,-18.59 9.85,-37.489 16.72,-56.621 18.88,-52.782 35.29,-98.817 44.66,-139.344 8.74,-37.84 11.68,-70.227 7.69,-102.285 -1.98,-15.235 -5.54,-30.754 -11.31,-47.149 -6.36,-18.113 -15.44,-37.312 -28.39,-58.574 C 1290.27,269.453 1183.12,198.691 1062.32,170.383 938.086,141.426 800.258,159.387 680.766,225.898 589.121,276.965 519.203,349.902 464.723,438.387 c -54.391,88.359 -92.422,192.168 -117.438,300.031 -16.14,69.355 -26.922,140.273 -33.597,209.453 -11.301,115.919 -32.575,229.099 -55.754,340.309 -16.161,77.53 -33.235,154.11 -48.536,229.93 -37.363,184.22 -64.093,363.5 -47.234,541.57 20.34,160.29 58.461,313.37 123.133,448.46 64.969,135.52 155.699,253.04 284.637,346.43 113.371,81.94 232.406,135.83 354.875,164.33 201.171,46.65 412.891,25.18 624.331,-62.01 117.75,-48.68 211.13,-125.99 283.7,-223.04 72.43,-96.96 123.27,-213.9 152.23,-338.63 21.9,-94.17 31.27,-192.68 28.52,-289.47 z m -487.36,639.78 c -163.22,110.63 -345.35,137.86 -508.5,99.49 -249.511,-58.47 -455.812,-261.68 -528.988,-529.27 -20.515,-75.42 -45.527,-154.86 -61.285,-238.7 -15.629,-83.65 -21.879,-172.97 -0.543,-264.89 7.746,-33.43 19.164,-67.02 34.797,-100.23 13.5,-28.99 33.398,-54.02 56.582,-72.38 41.039,-32.48 87,-44.16 128.508,-50.04 62.644,-8.34 122.383,-5.37 170.445,-11.16 23.922,-2.71 44.262,-7.23 59.953,-13.66 15.805,-6.58 26.977,-14.14 37.344,-25.92 9.895,-11.42 18.762,-23.49 26.805,-36.04 20.832,-32.46 35.617,-68.41 44.535,-106.75 22.347,-94.79 7.019,-203.84 -38.289,-291.37 -45.481,-88.02 -116.969,-151.7 -204.719,-172.005 -27.207,-6.328 -56.437,-8.718 -88.309,-6.16 -43.246,3.504 -81.113,-28.722 -84.582,-71.941 -3.5,-43.203 28.711,-81.098 71.93,-84.582 13.336,-1.082 26.524,-1.524 39.57,-1.453 33.489,0.152 65.957,3.953 96.946,11.168 141.293,32.953 247.36,133.144 308.84,253.163 61.68,120.53 82.64,263.69 51.59,398.73 -16.16,69.56 -46.97,136.91 -93.85,195.54 -3.91,4.89 -7.71,9.83 -11.85,14.59 -42.805,49.66 -99.449,74.04 -150.617,84.97 -77.141,16.29 -149.926,10.92 -201.742,16.91 -25.781,2.55 -44.938,7.56 -55.645,13.14 -10.797,6.01 -14.785,9.36 -21.328,22.07 -10.844,23.09 -18.598,45.92 -23.957,68.96 -14.644,62.95 -11.422,128.94 1.949,200.51 10.977,58.99 28.926,121 47.047,185.38 22.067,-11.3 44.738,-19.47 67.09,-24.45 72.961,-16.24 139.469,-6.17 197.906,0.8 58.676,7.69 109.387,12.58 148.557,4.01 24.88,-5.58 39.16,-15.17 52.49,-30.13 13.02,-15 23.88,-37.37 30.32,-65.28 13.83,-56.32 5.65,-133.38 -13.68,-182.19 -15.5,-40.5 4.76,-85.91 45.27,-101.41 15.17,-5.8 31.03,-6.59 45.76,-3.16 11.31,2.63 21.87,7.84 31.01,15.05 10.7,8.47 19.41,19.73 24.64,33.39 29.95,80.01 41.37,178.7 19.97,273.87 -10.86,46.59 -30.54,92.88 -64.26,132.17 -33.42,39.34 -82.08,69.73 -139.34,81.37 -45.16,8.96 -87.799,9.08 -127.44,6.12 -47.332,-3.54 -90.379,-11.49 -128.172,-14.28 -34.711,-3.14 -64.211,-2.79 -87.937,2.74 -18.063,4.37 -33.313,10.63 -49.184,22.62 77.426,157.95 217.149,271.74 371.403,307.21 123.45,28.21 255.71,10.04 385.12,-76.71 92.78,-61.41 178.78,-189.84 207.29,-316.37 13.39,-57.47 15.51,-113.9 5.39,-163.17 -18.73,-90.78 -60.54,-158.22 -115.14,-231.15 -32.25,-43.17 -69.14,-87.48 -104.96,-137.69 -24.34,-34.1 -48.18,-70.91 -69.72,-112.03 -20.06,-38.45 -5.14,-85.86 33.31,-105.91 38.46,-20.06 85.87,-5.15 105.97,33.32 41.86,80.79 101.26,148.95 160.95,228.02 59.22,78.67 118.38,170.71 143.46,293.96 15.48,76.15 11.23,154.65 -6.28,230.22 -39.39,165.67 -139.68,320.25 -272.43,410.99"
         style="fill:#100f0d;fill-opacity:1;fill-rule:nonzero;stroke:none"
         id="path16" /></g></g></svg>
