<svg xmlns="http://www.w3.org/2000/svg" width="16" height="16" viewBox="0 0 4.233 4.233"><g transform="matrix(.02407 0 0 .02415 -.346 -.745)"><rect width="175.868" height="175.327" x="14.392" y="30.867" ry="24.118" fill="#311f00"/><path d="M29.858 163.835l.089-31.955.903-1.364a6.014 6.014 0 015.01-2.692c1.724 0 2.716.45 5.488 2.492 3.38 2.487 3.47 2.498 20.366 2.357 13.866-.116 15.093-.173 18.427-.865 23.408-4.853 41.135-22.586 45.872-45.886.609-2.994.75-4.997.876-12.393l.15-8.822.859.858.858.859 1.733-1.711 1.733-1.711v3.32c0 5.777 1.99 10.078 6.138 13.262 2.663 2.044 5.106 2.929 9.051 3.277 1.893.168 3.8.546 4.655.924 2.067.915 4.292 3.099 5.348 5.25.905 1.842.91 1.895 1.018 9.65l.108 7.798h5.241l-.107-8.455c-.123-9.663-.299-10.468-3.105-14.202-2.888-3.841-6.623-5.778-12.074-6.26-3.924-.346-6.023-1.246-8.059-3.455-2.074-2.25-2.713-3.988-2.886-7.849l-.147-3.283 1.769 1.722 1.768 1.723.894-.894.894-.894v3.97c0 3.52.077 4.069.68 4.835.99 1.258 2.436 1.157 4.623-.324 4.662-3.158 10.306-4.118 14.967-2.547 6.547 2.208 11.567 10.654 13.288 22.356.67 4.556.55 22.198-.185 27.166-3.895 26.328-21.073 48-45.67 57.618-9.145 3.575-21.313 5.444-30.222 4.64-7.672-.69-12.673-2.113-19.7-5.603-7.588-3.77-13.61-8.8-18.8-15.704-3.476-4.625-4.59-5.424-7.781-5.586-1.905-.096-2.635.019-3.897.612-1.848.869-3.581 2.785-4.108 4.542-.267.894-.38 6.309-.38 18.225v16.953H29.77zM95.49 174.27c2.896-1.02 5.213-4.298 5.213-7.374 0-4.133-3.747-7.88-7.88-7.88s-7.88 3.747-7.88 7.88c0 1.967.905 4.053 2.393 5.514 2.274 2.231 5.203 2.9 8.154 1.86zm20.973-7.374v-2.627h-5.254v5.253h5.254zm26.307-8.386c2.896-1.02 5.212-4.298 5.212-7.374 0-4.133-3.747-7.88-7.88-7.88-4.132 0-7.88 3.747-7.88 7.88 0 1.967.906 4.053 2.394 5.514 2.274 2.231 5.203 2.9 8.154 1.86zm-68.334-7.374v-2.627h-5.253v5.254h5.253zm42.068-.506c2.895-1.02 5.212-4.298 5.212-7.374 0-4.133-3.747-7.88-7.88-7.88s-7.88 3.747-7.88 7.88c0 1.967.906 4.053 2.393 5.514 2.274 2.231 5.203 2.9 8.155 1.86zm47.238-12.627v-2.627h-5.253v5.253h5.253zm-68.292-2.627v-2.627h-5.254v5.254h5.254zm55.2-.506c2.895-1.02 5.212-4.298 5.212-7.374 0-4.133-3.747-7.88-7.88-7.88-4.132 0-7.88 3.747-7.88 7.88 0 1.968.906 4.054 2.394 5.514 2.274 2.231 5.203 2.9 8.154 1.86zm-26.307-12.627v-2.627h-5.254v5.253h5.254zm15.8-13.64c2.896-1.02 5.213-4.297 5.213-7.373 0-4.133-3.747-7.88-7.88-7.88s-7.88 3.747-7.88 7.88c0 1.967.905 4.053 2.393 5.513 2.274 2.232 5.203 2.9 8.154 1.86zm-13.174-59.187V38.19h15.76v22.451l-3.4-3.345c-2.921-2.875-3.551-3.346-4.48-3.346-.928 0-1.558.47-4.48 3.346l-3.4 3.345zm10.507-5.973v-2.626h-5.253v5.253h5.253z" fill="#009602"/></g></svg>