<?xml version="1.0" encoding="UTF-8" standalone="no"?>
<!-- Created with Inkscape (http://www.inkscape.org/) -->

<svg
   version="1.1"
   id="svg2"
   xml:space="preserve"
   width="16"
   height="16"
   viewBox="0 0 16 15.999999"
   sodipodi:docname="favicon.svg"
   inkscape:version="1.1 (c4e8f9ed74, 2021-05-24)"
   xmlns:inkscape="http://www.inkscape.org/namespaces/inkscape"
   xmlns:sodipodi="http://sodipodi.sourceforge.net/DTD/sodipodi-0.dtd"
   xmlns="http://www.w3.org/2000/svg"
   xmlns:svg="http://www.w3.org/2000/svg"><defs
     id="defs6" /><sodipodi:namedview
     id="namedview4"
     pagecolor="#ffffff"
     bordercolor="#666666"
     borderopacity="1.0"
     inkscape:pageshadow="2"
     inkscape:pageopacity="0.0"
     inkscape:pagecheckerboard="0"
     showgrid="false"
     fit-margin-top="0"
     fit-margin-left="0"
     fit-margin-right="0"
     fit-margin-bottom="0"
     inkscape:zoom="28.919222"
     inkscape:cx="13.48584"
     inkscape:cy="6.5873141"
     inkscape:window-width="1920"
     inkscape:window-height="1023"
     inkscape:window-x="0"
     inkscape:window-y="0"
     inkscape:window-maximized="1"
     inkscape:current-layer="g10" /><g
     id="g8"
     inkscape:groupmode="layer"
     inkscape:label="ink_ext_XXXXXX"
     transform="matrix(1.3333333,0,0,-1.3333333,0,1306.6668)"><g
       id="g10"
       transform="scale(0.1)"><rect
         style="fill:#ffffff;stroke-width:70.8661;stroke-linecap:round;paint-order:markers fill stroke;fill-opacity:1"
         id="rect1533"
         width="120"
         height="120"
         x="0"
         y="-9800.001"
         transform="scale(1,-1)"
         ry="11.818693" /><g
         id="g1509"
         transform="matrix(0.04631345,0,0,0.04631553,-499.20017,9670.8506)"><path
           d="m 12669.5,1867.67 h -92.6 c 16.2,30.89 24.8,65.44 24.8,101.3 0,58.43 -22.8,113.37 -64.1,154.69 -41.3,41.33 -96.2,64.07 -154.7,64.07 v -62.5 c 41.8,0 81,-16.25 110.5,-45.76 29.5,-29.52 45.8,-68.75 45.8,-110.5 0,-41.72 -16.3,-80.94 -45.7,-110.45 -9,-8.94 -11.7,-22.39 -6.8,-34.07 4.8,-11.67 16.2,-19.28 28.9,-19.28 h 153.9 c 99.4,0 180.3,-80.89 180.3,-180.34 v -179 h 62.5 v 179 c 0,133.91 -108.9,242.84 -242.8,242.84 z m 180.3,-662.59 h 62.5 v 201.7 h -62.5 z m -101.6,0 h 62.5 v 201.7 h -62.5 z m -1506.3,-0.01 1467.3,0.01 v 201.69 h -1467.3 z m 1436.8,498.46 h -234.4 c -40.9,0 -74.2,33.3 -74.2,74.23 v 89.85 c 0,17.26 -14,31.25 -31.3,31.24 -86.1,0.01 -156.2,70.12 -156.2,156.27 0,86.16 70.1,156.27 156.2,156.27 v 62.5 c -120.6,0.01 -218.7,-98.14 -218.7,-218.77 0,-110.02 81.6,-201.33 187.5,-216.54 v -60.82 c 0,-75.4 61.3,-136.73 136.7,-136.74 l 234.4,0.01 c 41,0 74.3,-33.31 74.3,-74.22 v -120.98 h 62.5 v 120.98 c 0,75.38 -61.4,136.71 -136.8,136.72"
           style="fill:#231f20;fill-opacity:1;fill-rule:nonzero;stroke:none"
           id="path288" /><path
           d="m 13078.6,1493.05 c 0,-242.38 -85.9,-464.67 -228.8,-638.159 L 11436.1,2268.54 c 173.5,142.94 395.8,228.79 638.2,228.79 554.6,0 1004.3,-449.62 1004.3,-1004.28 z M 11296.3,2128.2 12709.4,715.129 c -173,-141.5 -394.2,-226.379 -635.1,-226.379 -554.7,0 -1004.3,449.621 -1004.3,1004.3 0,240.95 84.9,462.08 226.3,635.15 z m 1992.5,-635.15 c 0,670.74 -543.8,1214.48 -1214.5,1214.48 -670.8,0 -1214.6,-543.74 -1214.6,-1214.48 0,-670.761 543.8,-1214.511 1214.6,-1214.511 670.7,0 1214.5,543.75 1214.5,1214.511"
           style="fill:#ed1c24;fill-opacity:1;fill-rule:nonzero;stroke:none"
           id="path290" /></g></g></g></svg>
