<svg xmlns="http://www.w3.org/2000/svg" width="16" height="16" viewBox="0 0 4.233 4.233"><circle cx="2.117" cy="2.117" r="2.117" fill="#4c8493" fill-rule="evenodd"/><path d="M2.075 3.494a.113.113 0 01-.08-.118c.002-.019.006-.029.03-.073.01-.02.01-.023.012-.123.001-.093 0-.102-.006-.102-.012 0-.031-.014-.04-.027a.062.062 0 01.004-.063l.01-.015-.01-.012a.043.043 0 01-.01-.031.06.06 0 01.01-.035l.01-.015-.01-.012c-.015-.017-.015-.049 0-.067l.01-.013-.01-.013a.056.056 0 010-.067l.01-.012-.01-.016c-.014-.02-.014-.049 0-.065l.01-.012-.01-.016c-.017-.024-.013-.06.01-.077.002-.003.002-.004-.002-.006-.009-.004-.019-.026-.019-.043 0-.018.01-.04.02-.044.003-.001.003-.003 0-.006-.022-.017-.026-.053-.01-.077l.011-.016-.01-.012a.043.043 0 01-.01-.03.06.06 0 01.01-.035l.01-.015-.01-.013a.043.043 0 01-.01-.03.06.06 0 01.01-.035l.01-.015-.01-.012a.057.057 0 010-.068l.01-.013-.008-.01c-.007-.006-.01-.017-.012-.033-.001-.02 0-.025.01-.036l.01-.014-.01-.013c-.015-.018-.015-.05 0-.067l.01-.012-.01-.015c-.016-.024-.013-.06.007-.074.005-.005.005-.007-.006-.02-.016-.018-.016-.044 0-.067.006-.01.01-.017.007-.017-.002 0-.007-.006-.01-.013a.061.061 0 01.002-.063l.01-.015-.01-.012c-.014-.017-.014-.045 0-.066l.01-.015-.01-.012c-.008-.01-.01-.017-.01-.034 0-.025.013-.045.037-.053l.016-.005V1.29c0-.096.002-.09-.053-.176-.025-.039-.032-.047-.048-.054-.039-.017-.107-.015-.19.007-.04.01-.064.02-.424.186l-.185.085-.011.021a.177.177 0 01-.076.073.169.169 0 01-.167-.029c-.02-.02-.02-.02-.018-.046.003-.044-.007-.038.214-.138l.354-.163c.27-.124.313-.138.431-.139a.26.26 0 01.097.01.204.204 0 01.124.1.133.133 0 00.018.025.042.042 0 00.01-.013.228.228 0 01.134-.112.505.505 0 01.203 0c.088.02.063.009.498.211.41.191.38.174.384.218.001.025 0 .027-.013.043-.036.041-.12.057-.173.032a.173.173 0 01-.076-.073l-.011-.022-.178-.083c-.408-.19-.393-.184-.479-.199-.081-.014-.129-.006-.154.026a.736.736 0 00-.066.106c-.012.024-.013.026-.013.106v.08l.022.01c.018.009.023.014.03.03.008.022.005.04-.01.056-.01.011-.01.013-.003.018.02.017.022.056.003.076-.01.011-.01.012-.001.019.019.017.02.052.003.074l-.009.012.01.013a.058.058 0 010 .066l-.01.014.01.013a.058.058 0 010 .066l-.01.014.01.013a.058.058 0 010 .066c-.01.014-.01.014-.001.026.018.025.017.048-.002.072-.006.007-.01.013-.007.013.002 0 .009.009.014.02.012.024.01.044-.006.061-.008.009-.01.012-.005.015.003.002.01.01.013.018.01.018.007.04-.006.058l-.01.013.01.014a.058.058 0 010 .066l-.01.013.01.014c.008.01.01.02.01.033a.053.053 0 01-.01.033l-.01.013.01.014c.008.01.01.02.01.033a.053.053 0 01-.01.033l-.01.013.01.014a.058.058 0 010 .065l-.01.014.01.014a.058.058 0 010 .066c-.009.012-.01.014-.003.021a.06.06 0 010 .077c-.006.007-.009.012-.006.012.003 0 .009.01.014.02.01.025.008.045-.007.061-.01.011-.01.012-.002.02.019.017.02.052.003.074l-.009.011.01.012a.055.055 0 01.007.056c-.007.016-.03.034-.044.034-.008 0-.008.005-.007.098l.002.1.02.04c.023.046.027.072.017.107a.12.12 0 01-.054.062.144.144 0 01-.081.01z" fill="#fff"/></svg>