<?xml version="1.0" encoding="UTF-8" standalone="no"?>
<!-- Created with Inkscape (http://www.inkscape.org/) -->

<svg
   width="4.2333331mm"
   height="4.2333331mm"
   viewBox="0 0 4.2333331 4.2333331"
   version="1.1"
   id="svg5"
   inkscape:version="1.1.1 (3bf5ae0d25, 2021-09-20, custom)"
   sodipodi:docname="favicon.svg"
   xmlns:inkscape="http://www.inkscape.org/namespaces/inkscape"
   xmlns:sodipodi="http://sodipodi.sourceforge.net/DTD/sodipodi-0.dtd"
   xmlns="http://www.w3.org/2000/svg"
   xmlns:svg="http://www.w3.org/2000/svg">
  <sodipodi:namedview
     id="namedview7"
     pagecolor="#ffffff"
     bordercolor="#666666"
     borderopacity="1.0"
     inkscape:pageshadow="2"
     inkscape:pageopacity="0.0"
     inkscape:pagecheckerboard="0"
     inkscape:document-units="mm"
     showgrid="false"
     inkscape:zoom="16.831681"
     inkscape:cx="14.526178"
     inkscape:cy="8.1097069"
     inkscape:window-width="1457"
     inkscape:window-height="1047"
     inkscape:window-x="179"
     inkscape:window-y="20"
     inkscape:window-maximized="0"
     inkscape:current-layer="layer1" />
  <defs
     id="defs2" />
  <g
     inkscape:label="Layer 1"
     inkscape:groupmode="layer"
     id="layer1">
    <rect
       style="fill:#d7d9f7;stroke-width:0.0244518;fill-opacity:1"
       id="rect851"
       width="4.2333331"
       height="4.2333331"
       x="0"
       y="0"
       ry="0.61871713" />
    <g
       id="g8481"
       transform="matrix(0.03301689,0,0,0.03475125,-0.92846182,-1.714992)">
      <path
         style="fill:#000000;stroke-width:0.264583"
         d="m 105.41427,169.83561 c -1.1633,-1.27323 -1.41269,-1.87031 -5.556251,-13.30237 l -4.33828,-11.96931 -2.02107,-2.1859 c -1.1116,-1.20225 -2.087352,-2.12296 -2.168349,-2.04603 -0.081,0.0769 -0.728676,3.32081 -1.439286,7.20863 -0.710607,3.88781 -1.354058,7.13079 -1.42989,7.20662 -0.180766,0.18077 -7.60871,-3.11642 -7.618365,-3.38171 -0.0041,-0.11202 0.766495,-2.17698 1.712381,-4.5888 0.945885,-2.41183 1.719791,-4.43194 1.719791,-4.48914 0,-0.0572 -0.446484,-0.28997 -0.992187,-0.51726 -1.682985,-0.701 -2.693122,-1.5233 -3.563826,-2.90113 -0.459801,-0.7276 -0.867304,-1.36688 -0.905566,-1.42061 -0.03826,-0.0537 -1.474197,0.85136 -3.19097,2.0113 -2.944349,1.98935 -7.215965,4.56868 -7.566159,4.56868 -0.21531,0 -5.565995,-7.67224 -5.439146,-7.79908 0.05509,-0.0551 0.803519,-0.47015 1.663171,-0.92236 4.251399,-2.23636 13.120282,-9.29996 12.757594,-10.16075 -0.06954,-0.16505 -5.746096,-6.17471 -12.61456,-13.35478 l -12.488118,-13.054687 0.956344,-0.97939 c 0.525986,-0.53866 0.956342,-1.06766 0.956342,-1.17555 0,-0.1079 -3.116464,-3.49616 -6.925474,-7.52947 -3.809011,-4.03331 -7.343781,-7.778 -7.855044,-8.32153 l -0.929569,-0.98823 0.63349,-0.67432 c 0.34842,-0.37088 0.759699,-0.64055 0.913954,-0.59927 0.154256,0.0413 3.773641,3.73622 8.043078,8.21099 4.269439,4.47477 7.832898,8.13594 7.9188,8.13594 0.0859,0 0.473707,-0.30421 0.861787,-0.67602 l 0.705607,-0.67601 15.844305,16.749447 c 8.714369,9.2122 21.023985,22.15997 27.354706,28.77283 l 11.51039,12.02337 -0.0842,2.0127 c -0.13751,3.28628 0.73601,6.21239 2.65798,8.90373 l 0.78306,1.09651 -3.13363,3.02313 c -1.72348,1.66272 -3.66939,3.49557 -4.32423,4.07301 l -1.19063,1.04988 z"
         id="path836" />
      <path
         style="fill:#006530;fill-opacity:1;stroke-width:0.264583"
         d="m 66.955206,86.502983 c -1.443424,-3.31221 -2.160466,-9.07995 -1.73622,-13.96581 0.69732,-8.03081 2.433706,-12.70689 6.079736,-16.37274 5.111522,-5.13929 12.69349,-7.08655 26.413147,-6.78361 8.567271,0.18917 12.748161,0.95845 17.254741,3.17488 5.5479,2.72857 8.33059,7.41072 9.63331,16.20901 0.9065,6.12232 0.77967,10.85814 -0.41932,15.65713 -0.92349,3.69629 -1.00726,3.62535 -2.31975,-1.96452 -0.642,-2.73429 -1.26227,-5.23933 -1.37838,-5.56675 l -0.2111,-0.59531 H 95.266749 70.262116 l -0.184108,0.7276 c -0.101258,0.40019 -0.743627,2.93026 -1.427485,5.62239 l -1.243375,4.8948 z"
         id="path948" />
      <path
         style="fill:#73544b;fill-opacity:1;stroke-width:0.264583"
         d="m 92.741619,112.27019 c -9.536013,-1.128 -17.862947,-8.05375 -21.008332,-17.473217 l -0.669013,-2.00348 1.322351,-5.00797 c 0.727294,-2.75439 1.442098,-5.45446 1.588455,-6.00016 l 0.266102,-0.99219 h 21.137697 21.137681 l 0.39574,1.38906 c 0.21767,0.76399 0.99962,3.60401 1.73768,6.31117 l 1.34193,4.92211 -0.49144,1.42789 c -0.7103,2.06378 -2.30502,5.15138 -3.61351,6.996227 -1.67709,2.36457 -5.52458,5.88782 -7.90803,7.24159 -2.69925,1.53315 -6.5882,2.8276 -9.548771,3.17835 -2.61406,0.30969 -3.15176,0.3107 -5.68854,0.0106 z"
         id="path946" />
      <path
         style="fill:#006530;fill-opacity:1;stroke-width:0.264583"
         d="m 137.98536,154.02456 c 0,-4.36776 -3.13885,-9.19603 -7.27604,-11.19222 -5.26922,-2.54239 -11.02293,-1.47936 -15.03976,2.77869 -0.96871,1.02688 -1.76129,1.98389 -1.76129,2.12668 0,0.1428 -0.1096,0.25962 -0.24356,0.25962 -0.13396,0 -3.96732,-3.89929 -8.51859,-8.6651 -4.55127,-4.76581 -11.886931,-12.39094 -16.301457,-16.94474 -4.414528,-4.55381 -7.965512,-8.3782 -7.891071,-8.49864 0.07444,-0.12045 0.511863,-0.2943 0.972047,-0.38634 0.679556,-0.13591 1.103323,0.01 2.256346,0.77497 6.710304,4.45405 15.534814,4.59062 22.536185,0.34879 l 2.20259,-1.33446 3.2218,0.92192 c 10.19758,2.91801 19.73642,8.23679 25.68822,14.32353 6.30364,6.44655 10.05522,16.41091 7.85859,20.87278 -0.74912,1.52164 -2.56736,3.03115 -5.59287,4.64321 l -2.11114,1.12486 z"
         id="path944" />
      <path
         style="fill:#006530;fill-opacity:1;stroke-width:0.264583"
         d="m 87.714535,162.90442 c -16.468817,-1.13023 -28.77718,-4.40042 -38.299356,-10.17571 -3.578888,-2.17063 -4.448232,-3.5019 -4.385528,-6.71575 0.09571,-4.90584 2.803306,-11.04215 7.114598,-16.12406 2.769817,-3.2649 8.69564,-7.85739 12.834511,-9.94668 l 1.536946,-0.77585 2.860352,3.05387 c 1.573194,1.67964 2.897823,3.15933 2.943619,3.28821 0.139899,0.39369 -3.540445,3.5234 -6.433266,5.47075 -1.953578,1.31509 -3.351745,2.03815 -6.075841,3.14215 -1.158899,0.46967 -2.137897,0.95617 -2.175547,1.08111 -0.08158,0.2707 8.991319,13.3943 9.34051,13.51069 0.314902,0.10497 5.403689,-2.72919 8.415999,-4.68722 l 2.361716,-1.53514 1.078039,0.8323 c 0.592921,0.45777 1.127331,0.86299 1.187574,0.90048 0.09699,0.0604 -0.370318,1.35001 -2.770454,7.6457 l -0.618736,1.62298 1.242951,0.46156 c 1.519383,0.56422 10.294427,4.44812 12.010736,5.31605 0.68353,0.34565 1.29862,0.53811 1.36687,0.42769 0.06825,-0.11043 0.516551,-2.72816 0.996231,-5.81718 0.48969,-3.15351 0.96056,-5.45842 1.07376,-5.25613 0.16726,0.29888 2.79084,7.55165 4.72616,13.06528 l 0.48757,1.38906 -4.81439,-0.0462 c -2.647922,-0.0254 -5.350181,-0.083 -6.005024,-0.12794 z"
         id="path942" />
      <path
         style="fill:#c1af48;fill-opacity:1;stroke-width:0.264583"
         d="m 121.80563,163.73635 c -2.60365,-0.83356 -5.29377,-3.55315 -6.19319,-6.26106 -0.65166,-1.96196 -0.44171,-5.20359 0.46299,-7.1487 0.89269,-1.91928 2.73386,-3.76261 4.66002,-4.66548 1.31845,-0.61801 1.83853,-0.70648 4.15303,-0.70648 2.34316,0 2.81331,0.0823 4.10986,0.71901 1.87142,0.9191 3.77756,2.82674 4.69111,4.69483 0.62468,1.27739 0.71706,1.7877 0.72031,3.97886 0.003,2.20449 -0.0881,2.71233 -0.74344,4.13025 -0.89893,1.94511 -2.69067,3.77145 -4.6768,4.76712 -1.79347,0.89908 -5.18602,1.13126 -7.18389,0.49165 z"
         id="path940" />
      <path
         style="fill:#000000;stroke-width:0.264583"
         d="m 85.617722,139.03956 c 0.257088,-0.85807 0.231826,-1.1759 -0.158903,-1.9993 -0.950069,-2.00212 -3.008577,-2.82835 -4.321511,-1.73455 -0.468844,0.3906 -0.583078,0.68339 -0.459198,1.17697 0.345226,1.3755 2.87396,3.53166 4.181533,3.56546 0.30012,0.008 0.555295,-0.33173 0.758079,-1.00858 z"
         id="path938" />
    </g>
  </g>
</svg>
