<svg xmlns="http://www.w3.org/2000/svg" viewBox="0 0 4.233 4.233" height="16" width="16"><path d="M3.416 4.213c-.201-.009-.34-.067-.55-.233a1.414 1.414 0 00-.46-.26.324.324 0 01-.107-.045 4.15 4.15 0 01-.005-.212c-.003-.477-.11-.646-.55-.86-.128-.063-.248-.12-.268-.129C1.436 2.457.481.868.297.512.3.304 1.642.02 1.642.02c.14.593.211.815.618 1.894l.31.826.168.221c.093.122.214.265.27.318.154.146.375.264.605.324.237.063.28.094.312.231.025.108.01.169-.064.257-.05.06-.301.128-.445.122zm-1.582-.607c-.202-.038-.318-.107-.388-.232a.443.443 0 01-.057-.166 1.948 1.948 0 01.057-.417c.008-.016.238.088.367.165.11.067.164.153.185.298.02.13.024.377.006.38a2.144 2.144 0 01-.17-.028z" fill="#ffa3a3"/></svg>