<?xml version="1.0" encoding="UTF-8" standalone="no"?>
<!-- Created with Inkscape (http://www.inkscape.org/) -->

<svg
   width="4.2333331mm"
   height="4.2333331mm"
   viewBox="0 0 4.2333332 4.2333331"
   version="1.1"
   id="svg5"
   inkscape:version="1.1 (c4e8f9ed74, 2021-05-24)"
   sodipodi:docname="favicon.svg"
   xmlns:inkscape="http://www.inkscape.org/namespaces/inkscape"
   xmlns:sodipodi="http://sodipodi.sourceforge.net/DTD/sodipodi-0.dtd"
   xmlns="http://www.w3.org/2000/svg"
   xmlns:svg="http://www.w3.org/2000/svg">
  <sodipodi:namedview
     id="namedview7"
     pagecolor="#ffffff"
     bordercolor="#666666"
     borderopacity="1.0"
     inkscape:pageshadow="2"
     inkscape:pageopacity="0.0"
     inkscape:pagecheckerboard="0"
     inkscape:document-units="mm"
     showgrid="false"
     inkscape:zoom="23.803591"
     inkscape:cx="-2.3525862"
     inkscape:cy="7.729926"
     inkscape:window-width="1920"
     inkscape:window-height="1056"
     inkscape:window-x="1920"
     inkscape:window-y="0"
     inkscape:window-maximized="1"
     inkscape:current-layer="layer1" />
  <defs
     id="defs2" />
  <g
     inkscape:label="Layer 1"
     inkscape:groupmode="layer"
     id="layer1"
     transform="translate(-49.478052,-19.28579)">
    <circle
       style="fill:#385293;fill-opacity:1;stroke:none;stroke-width:4.63936;stroke-linecap:round;stroke-miterlimit:4;stroke-dasharray:none;stroke-opacity:1"
       id="path2024"
       cx="51.594719"
       cy="21.402456"
       r="2.1166666" />
    <g
       id="g2000"
       transform="matrix(0.01509136,0,0,0.01509136,48.787329,18.992948)">
      <g
         id="g6165">
        <path
           style="fill:#ffbc92;fill-opacity:1;stroke-width:0.264583"
           d="m 160.98644,289.1899 c -4.33349,-0.79808 -4.70781,-3.23114 -1.26885,-8.24749 2.01634,-2.94119 2.76816,-6.32958 3.0362,-13.68382 0.17652,-4.84325 -0.0762,-8.0175 -1.36904,-17.19792 -1.6589,-11.77943 -1.83284,-13.79142 -1.82993,-21.16666 0.002,-5.85149 0.0917,-7.43254 0.5981,-10.58334 1.2097,-7.52607 1.20997,-7.53538 0.45197,-15.62407 -1.71917,-18.34529 -1.82261,-19.91864 -1.84297,-28.03218 -0.0247,-9.83911 0.23786,-11.86912 3.43165,-26.53224 2.67913,-12.30028 3.93602,-23.36368 3.30114,-29.05733 -0.15874,-1.42359 -0.35154,-2.65128 -0.42845,-2.72819 -0.30809,-0.30808 -0.61058,0.72684 -1.02996,3.52382 -1.26453,8.43362 -4.33468,17.36549 -10.05811,29.26165 -1.64528,3.41974 -3.36919,7.38879 -3.83089,8.8201 -0.4617,1.43132 -1.31783,3.75304 -1.90252,5.15938 -0.58468,1.40634 -1.77313,4.34292 -2.64099,6.52573 -2.14882,5.40464 -2.53987,6.21771 -2.99046,6.21771 -0.51859,0 -0.78561,-1.52265 -0.57093,-3.25564 0.51475,-4.1552 0.63815,-4.06583 -1.16729,-0.8454 -1.81691,3.24087 -3.26951,4.9571 -4.09543,4.83872 -0.47042,-0.0674 -0.52563,-0.25426 -0.47847,-1.61932 0.0588,-1.70356 0.0777,-1.70112 -1.57683,-0.2045 l -0.72977,0.66013 -1.07711,-1.04377 c -0.59241,-0.57407 -1.19672,-1.26293 -1.34291,-1.53079 -0.31948,-0.58541 -0.23126,-0.82922 2.16943,-5.99527 2.1451,-4.61604 3.23838,-7.61665 3.12035,-8.56413 l -0.0873,-0.70076 -1.67349,1.03174 c -0.92042,0.56746 -2.1955,1.1779 -2.83353,1.35654 -1.22608,0.34327 -2.50444,0.18653 -2.50444,-0.30709 0,-0.41497 5.50979,-5.834 6.76552,-6.65407 0.57183,-0.37344 1.80011,-0.873 2.72951,-1.11014 3.26546,-0.83318 3.65455,-1.08122 4.50854,-2.87414 1.76415,-3.70377 3.518,-10.9246 4.52286,-18.62116 0.63648,-4.87494 1.08743,-6.62712 3.5247,-13.69533 2.95309,-8.56404 3.55134,-13.08687 3.03314,-22.930386 -0.47898,-9.098487 0.0589,-11.864677 2.81376,-14.470092 1.64393,-1.554758 3.29896,-2.423102 8.89241,-4.665578 2.29901,-0.921695 5.00915,-2.160053 6.02254,-2.751905 2.34528,-1.369714 4.14751,-3.346352 4.67711,-5.129734 0.7005,-2.358835 0.37596,-8.751814 -0.53409,-10.520738 -0.19032,-0.369925 -0.83429,-1.262894 -1.43105,-1.984376 -1.24958,-1.510728 -1.99911,-3.320772 -2.26874,-5.478825 -0.25668,-2.054433 -0.034,-2.844416 0.80196,-2.844416 0.49832,0 0.66131,-0.14338 0.67673,-0.595312 0.0112,-0.327422 0.0409,-2.264487 0.0661,-4.304589 0.0447,-3.615878 0.0677,-3.753766 0.91545,-5.476177 1.84148,-3.741539 5.16401,-5.506144 10.34514,-5.494328 5.43981,0.01241 9.05876,1.925563 10.94868,5.788015 l 0.85531,1.748016 -0.0745,4.147696 c -0.0744,4.142128 -0.0736,4.14781 0.52917,4.233333 0.58334,0.08276 0.60326,0.174546 0.59285,2.731471 -0.01,2.32791 -0.094,2.804795 -0.70293,3.96875 -0.38069,0.727604 -1.07108,1.680104 -1.5342,2.116667 -1.21474,1.145069 -1.51952,1.878301 -1.86741,4.492551 -0.76843,5.774407 0.0553,9.12739 2.72197,11.079544 1.9309,1.413536 6.0998,3.471502 9.78152,4.828616 1.70308,0.627772 3.7173,1.455981 4.47604,1.840466 1.88667,0.956048 4.06505,3.084102 4.84525,4.733319 1.18359,2.501887 1.33361,4.225425 0.98578,11.324942 -0.51412,10.49367 0.0714,15.04317 3.03908,23.61307 2.4298,7.01668 2.88802,8.79544 3.52801,13.69533 0.95701,7.32703 2.20479,12.76384 3.99446,17.4046 0.90493,2.34658 1.7631,3.25448 3.49743,3.70013 3.61449,0.92877 3.72046,0.98457 6.41175,3.37616 3.29284,2.92616 4.85834,4.77154 4.33109,5.10538 -0.85814,0.54335 -2.92771,-0.0152 -5.01206,-1.35275 -1.53496,-0.98499 -1.84021,-0.98526 -1.84021,-0.002 0,1.22386 0.66044,2.93963 3.1098,8.07904 1.24835,2.61937 2.2698,5.09828 2.26989,5.50867 1.2e-4,0.53506 -0.34726,1.0936 -1.22783,1.97417 l -1.228,1.228 -0.73433,-0.66449 c -1.65944,-1.50161 -1.64025,-1.50404 -1.58138,0.20014 0.0472,1.36505 -0.008,1.55189 -0.47847,1.61931 -0.83182,0.11923 -2.28848,-1.61127 -4.07302,-4.83872 -0.88508,-1.60073 -1.60973,-2.79135 -1.61033,-2.64583 -5.3e-4,0.14552 0.12834,1.31995 0.28654,2.60983 0.31798,2.59279 0.15874,4.13704 -0.42661,4.13704 -0.45699,0 -0.9642,-0.94146 -1.88488,-3.49865 -0.38125,-1.05892 -1.52666,-3.88984 -2.54535,-6.29093 -1.01869,-2.40109 -2.37928,-5.91344 -3.02353,-7.80521 -0.64426,-1.89177 -2.46696,-6.11849 -4.05044,-9.39271 -5.263,-10.88246 -8.54572,-20.19418 -9.65401,-27.38438 -0.76114,-4.93803 -1.21781,-6.20561 -1.54897,-4.29948 -0.39812,2.29159 -0.4628,5.46556 -0.18735,9.19427 0.57521,7.78639 1.23351,12.01272 3.62662,23.28334 0.94242,4.43839 2.00571,9.91526 2.36288,12.17084 1.2262,7.74371 1.14679,16.77317 -0.28154,32.01458 -0.34776,3.71078 -0.83152,8.86561 -1.07502,11.45518 -0.48122,5.1174 -0.44287,5.82125 0.70938,13.01878 0.49321,3.08087 0.59521,4.79493 0.60615,10.18646 0.0142,7.01534 -0.19871,9.66283 -1.57486,19.57916 -1.52105,10.96049 -1.78822,14.1524 -1.61672,19.31459 0.14759,4.44265 0.81562,9.53754 1.47042,11.21462 0.16397,0.41997 0.95275,1.69248 1.75284,2.82781 2.39159,3.39369 2.76323,4.86861 1.58083,6.27381 -0.97982,1.16446 -2.57446,1.51299 -6.88625,1.50514 -4.12623,-0.007 -5.51211,-0.40045 -6.14884,-1.74337 -0.49438,-1.0427 -0.90969,-9.99799 -0.84525,-18.22593 0.12286,-15.68679 0.26541,-13.58112 -1.44194,-21.29896 -2.48425,-11.22968 -2.54746,-11.70133 -2.80153,-20.90208 -0.22571,-8.17388 -0.22936,-8.21118 -1.05996,-10.84792 -1.22899,-3.90143 -2.0093,-7.96873 -2.8933,-15.08125 -0.43408,-3.4925 -1.08758,-7.89781 -1.45223,-9.78958 -0.90535,-4.69693 -1.36179,-8.02202 -1.99757,-14.55209 -0.29754,-3.05593 -0.60796,-6.06226 -0.68983,-6.68072 l -0.14885,-1.12453 h -1.81966 -1.81966 l -0.14886,1.12448 c -0.0819,0.61846 -0.39255,3.62479 -0.69041,6.68073 -0.60126,6.1689 -1.24666,10.71651 -2.25299,15.875 -0.36905,1.89177 -0.90577,5.52318 -1.19272,8.06979 -0.88598,7.86307 -1.44334,10.82497 -2.91455,15.48844 -0.8263,2.61925 -0.83275,2.68452 -1.04518,10.57302 -0.11756,4.36563 -0.3528,8.83047 -0.52274,9.92188 -0.16995,1.0914 -1.09333,5.61578 -2.05195,10.05416 -1.95714,9.06148 -1.80417,7.02674 -1.66091,22.09271 0.0782,8.22277 -0.3655,17.24991 -0.91215,18.55825 -0.58034,1.38893 -1.72252,1.74892 -5.82226,1.83509 -1.89177,0.0398 -3.73724,0.0175 -4.10104,-0.0495 z"
           id="path836" />
        <circle
           style="fill:none;stroke:#ff0000;stroke-width:5;stroke-linecap:round;stroke-miterlimit:4;stroke-dasharray:none;stroke-opacity:1"
           id="path1145"
           cx="186.02628"
           cy="43.986694"
           r="6.5259337" />
        <circle
           style="fill:none;stroke:#ff0000;stroke-width:5;stroke-linecap:round;stroke-miterlimit:4;stroke-dasharray:none;stroke-opacity:1"
           id="path1145-3"
           cx="186.02628"
           cy="82.628616"
           r="6.5259337" />
        <circle
           style="fill:none;stroke:#ff0000;stroke-width:5;stroke-linecap:round;stroke-miterlimit:4;stroke-dasharray:none;stroke-opacity:1"
           id="path1145-3-6"
           cx="186.02628"
           cy="115.95138"
           r="6.5259337" />
        <circle
           style="fill:none;stroke:#ff0000;stroke-width:5;stroke-linecap:round;stroke-miterlimit:4;stroke-dasharray:none;stroke-opacity:1"
           id="path1145-3-6-5"
           cx="231.33899"
           cy="160.177"
           r="6.5259337" />
        <circle
           style="fill:none;stroke:#ff0000;stroke-width:5;stroke-linecap:round;stroke-miterlimit:4;stroke-dasharray:none;stroke-opacity:1"
           id="path1145-3-6-5-3"
           cx="140.71355"
           cy="160.17709"
           r="6.5259337" />
        <circle
           style="fill:none;stroke:#ff0000;stroke-width:5;stroke-linecap:round;stroke-miterlimit:4;stroke-dasharray:none;stroke-opacity:1"
           id="path1145-3-6-5-3-5"
           cx="204.22368"
           cy="218.99434"
           r="6.5259337" />
        <circle
           style="fill:none;stroke:#ff0000;stroke-width:5;stroke-linecap:round;stroke-miterlimit:4;stroke-dasharray:none;stroke-opacity:1"
           id="path1145-3-6-5-3-5-6"
           cx="167.82855"
           cy="218.99409"
           r="6.5259337" />
        <circle
           style="fill:none;stroke:#ff0000;stroke-width:5;stroke-linecap:round;stroke-miterlimit:4;stroke-dasharray:none;stroke-opacity:1"
           id="path1145-3-6-5-3-5-6-2"
           cx="164.58255"
           cy="280.23285"
           r="6.5259337" />
        <circle
           style="fill:none;stroke:#ff0000;stroke-width:5;stroke-linecap:round;stroke-miterlimit:4;stroke-dasharray:none;stroke-opacity:1"
           id="path1145-3-6-5-3-5-6-2-9"
           cx="207.46925"
           cy="280.23285"
           r="6.5259337" />
        <circle
           style="fill:none;stroke:#ff0000;stroke-width:5;stroke-linecap:round;stroke-miterlimit:4;stroke-dasharray:none;stroke-opacity:1"
           id="path1145-3-6-7"
           cx="186.02628"
           cy="149.26895"
           r="6.5259337" />
      </g>
    </g>
  </g>
</svg>
