<?xml version="1.0" encoding="UTF-8" standalone="no"?>
<svg
   xmlns:dc="http://purl.org/dc/elements/1.1/"
   xmlns:cc="http://creativecommons.org/ns#"
   xmlns:rdf="http://www.w3.org/1999/02/22-rdf-syntax-ns#"
   xmlns:svg="http://www.w3.org/2000/svg"
   xmlns="http://www.w3.org/2000/svg"
   xmlns:sodipodi="http://sodipodi.sourceforge.net/DTD/sodipodi-0.dtd"
   xmlns:inkscape="http://www.inkscape.org/namespaces/inkscape"
   id="svg8"
   version="1.1"
   viewBox="0 0 4.2333332 4.2333332"
   height="16"
   width="16"
   sodipodi:docname="doc.svg"
   inkscape:version="0.92.4 5da689c313, 2019-01-14">
  <sodipodi:namedview
     pagecolor="#ffffff"
     bordercolor="#666666"
     borderopacity="1"
     objecttolerance="10"
     gridtolerance="10"
     guidetolerance="10"
     inkscape:pageopacity="0"
     inkscape:pageshadow="2"
     inkscape:window-width="1920"
     inkscape:window-height="1015"
     id="namedview12"
     showgrid="false"
     inkscape:pagecheckerboard="true"
     inkscape:zoom="14.75"
     inkscape:cx="-12.813559"
     inkscape:cy="8"
     inkscape:window-x="0"
     inkscape:window-y="0"
     inkscape:window-maximized="1"
     inkscape:current-layer="svg8" />
  <defs
     id="defs2" />
  <metadata
     id="metadata5">
    <rdf:RDF>
      <cc:Work
         rdf:about="">
        <dc:format>image/svg+xml</dc:format>
        <dc:type
           rdf:resource="http://purl.org/dc/dcmitype/StillImage" />
        <dc:title></dc:title>
      </cc:Work>
    </rdf:RDF>
  </metadata>
  <g
     transform="matrix(0.26458333,0,0,0.26458333,-4e-8,-1.3233167e-4)"
     id="g842">
    <path
       inkscape:connector-curvature="0"
       id="path2"
       style="fill:#3468ce;fill-opacity:1"
       d="M 2.668,0 C 2.324,0 2,0.338 2,0.697 v 14.607 c 0,0.338 0.344,0.697 0.668,0.697 H 13.332 C 13.656,16.001 14,15.642 14,15.304 V 4 L 10,0 Z" />
    <path
       inkscape:connector-curvature="0"
       id="path4"
       style="fill:#000000;fill-opacity:0.19599998"
       d="m 10.583,3.332 0.015,0.02 0.04,-0.02 z M 10.613,4 14,7.664 V 4 Z" />
    <path
       inkscape:connector-curvature="0"
       id="path6"
       style="fill:#ffffff;fill-opacity:0.39200003"
       d="m 10,0 3.996,4 H 10.612 C 10.313,4 9.999,3.683 9.999,3.384 Z" />
    <path
       inkscape:connector-curvature="0"
       id="path8"
       style="fill:#f9f9f9;fill-opacity:1"
       d="m 8,8 v 1 h 4 V 8 Z" />
    <path
       inkscape:connector-curvature="0"
       id="path10"
       style="fill:#f9f9f9;fill-opacity:1"
       d="m 4,10 v 1 h 8 v -1 z" />
    <path
       inkscape:connector-curvature="0"
       id="path12"
       style="fill:#f9f9f9;fill-opacity:1"
       d="m 4,12 v 1 h 8 v -1 z" />
    <path
       inkscape:connector-curvature="0"
       id="path14"
       style="fill:#f9f9f9;fill-opacity:1"
       d="m 8,6 v 1 h 4 V 6 Z" />
    <rect
       id="rect16"
       style="fill:#f9f9f9;fill-opacity:1;fill-rule:evenodd;stroke:none"
       y="6"
       x="4"
       height="3"
       width="3" />
  </g>
</svg>
