<svg xmlns="http://www.w3.org/2000/svg" viewBox="0 0 398.465 398.465"><path d="M369.658 28.812c38.41 38.4 38.41 100.89 0 139.3l-82.73 82.74a98.88 98.88 0 01-20.43 15.66 98.401 98.401 0 01-15.64 20.41l-82.74 82.73c-19.21 19.21-44.44 28.81-69.66 28.81-25.23 0-50.45-9.6-69.65-28.8-38.41-38.41-38.41-100.9 0-139.31l82.74-82.74a98.105 98.105 0 0120.41-15.65c4.28-7.43 9.53-14.3 15.66-20.42l82.74-82.74c18.57-18.57 43.31-28.8 69.64-28.8h.01c26.34 0 51.079 10.231 69.65 28.81zm-10.601 128.691c32.55-32.56 32.55-85.53 0-118.09-15.75-15.74-36.72-24.41-59.05-24.41h-.01c-22.33 0-43.29 8.66-59.04 24.41l-81.92 81.92c15.88-3.64 32.58-3.35 48.47 1.03l58.2-58.2c9.15-9.15 21.33-14.19 34.29-14.19h.01c12.97 0 25.15 5.04 34.3 14.19s14.19 21.33 14.19 34.3c0 12.96-5.04 25.14-14.19 34.29l-82.74 82.74a48.635 48.635 0 01-28.8 13.88c-1.87.21-3.74.32-5.59.32-12.81 0-25.03-5.02-34.21-14.19-8.02-8.03-12.86-18.4-13.94-29.46-4.29 1.66-8.18 4.19-11.52 7.53l-18.01 18.01c4.17 10.77 10.46 20.4 18.73 28.67 9.35 9.35 20.43 16.17 32.93 20.25 21.93 7.19 46.08 4.98 66.25-6.07 6.91-3.78 13.27-8.56 18.91-14.19l82.74-82.74zm-25.56-59.04c0-8.96-3.48-17.37-9.8-23.69s-14.73-9.8-23.69-9.8h-.01c-8.96 0-17.37 3.48-23.68 9.79l-53.3 53.3c10.31 4.81 19.65 11.35 27.84 19.55 8.2 8.2 14.75 17.53 19.55 27.83l53.29-53.29c6.32-6.321 9.8-14.73 9.8-23.69zm-92.539 106.42l18.02-18.01c-4.17-10.76-10.45-20.38-18.72-28.65-9.35-9.35-20.44-16.17-32.95-20.26-21.94-7.18-46.08-4.97-66.25 6.07a82.737 82.737 0 00-18.9 14.19l-82.74 82.73c-32.56 32.56-32.56 85.54 0 118.1 32.55 32.56 85.53 32.56 118.09 0l81.92-81.92a99.227 99.227 0 01-22.19 2.52 99.01 99.01 0 01-26.27-3.56l-58.21 58.21a48.438 48.438 0 01-15.72 10.53c-5.81 2.4-12.1 3.66-18.58 3.66-12.97 0-25.15-5.04-34.3-14.18-18.91-18.92-18.91-49.69 0-68.61l82.74-82.74c7.72-7.72 17.95-12.64 28.8-13.87 14.79-1.68 29.31 3.37 39.81 13.87 8.03 8.03 12.86 18.4 13.94 29.45 4.279-1.651 8.18-4.19 11.51-7.53zm-26.381 9.689c-.61-7.88-3.98-15.3-9.68-21-5.7-5.7-13.12-9.06-21-9.68.62 7.88 3.98 15.3 9.68 21s13.12 9.07 21 9.68zm-92.419 109.121l53.29-53.29c-10.3-4.8-19.63-11.35-27.83-19.55-8.2-8.19-14.74-17.53-19.55-27.84l-53.3 53.3c-13.06 13.06-13.06 34.32 0 47.39 3.15 3.16 6.84 5.6 10.85 7.26 4.02 1.66 8.36 2.53 12.84 2.53 8.96-.001 17.38-3.48 23.7-9.8z"/><path d="M359.057 39.412c32.55 32.56 32.55 85.53 0 118.09l-82.74 82.74c-5.64 5.63-12 10.41-18.91 14.19-20.17 11.05-44.32 13.26-66.25 6.07-12.5-4.08-23.58-10.9-32.93-20.25-8.27-8.27-14.56-17.9-18.73-28.67l18.01-18.01c3.34-3.34 7.23-5.87 11.52-7.53 1.08 11.06 5.92 21.43 13.94 29.46 9.18 9.17 21.4 14.19 34.21 14.19 1.85 0 3.72-.11 5.59-.32a48.635 48.635 0 0028.8-13.88l82.74-82.74c9.15-9.15 14.19-21.33 14.19-34.29 0-12.97-5.04-25.15-14.19-34.3s-21.33-14.19-34.3-14.19h-.01c-12.96 0-25.14 5.04-34.29 14.19l-58.2 58.2c-15.89-4.38-32.59-4.67-48.47-1.03l81.92-81.92c15.75-15.75 36.71-24.41 59.04-24.41h.01c22.33 0 43.3 8.671 59.05 24.41z" fill="#f48c6c"/><path d="M258.978 186.872l-18.02 18.01c-3.33 3.34-7.23 5.88-11.51 7.53-1.08-11.05-5.91-21.42-13.94-29.45-10.5-10.5-25.02-15.55-39.81-13.87-10.85 1.23-21.08 6.15-28.8 13.87l-82.74 82.74c-18.91 18.92-18.91 49.69 0 68.61 9.15 9.14 21.33 14.18 34.3 14.18 6.48 0 12.77-1.26 18.58-3.66a48.438 48.438 0 0015.72-10.53l58.21-58.21a99.01 99.01 0 0026.27 3.56c7.47 0 14.91-.85 22.19-2.52l-81.92 81.92c-32.56 32.56-85.54 32.56-118.09 0-32.56-32.56-32.56-85.54 0-118.1l82.74-82.73a82.737 82.737 0 0118.9-14.19c20.17-11.04 44.31-13.25 66.25-6.07 12.51 4.09 23.6 10.91 32.95 20.26 8.269 8.27 14.549 17.891 18.72 28.65z" fill="#3dd0f2"/></svg>