<svg xmlns="http://www.w3.org/2000/svg" viewBox="0 0 4.233 4.233" height="16" width="16"><path d="M.706 0C.615 0 .529.09.529.184V4.05c0 .09.091.184.177.184h2.821c.086 0 .177-.095.177-.184v-2.99L2.646 0z" fill="#df1818"/><path d="M2.8.882l.004.005.01-.005zm.008.176l.896.97v-.97z" fill-opacity=".196"/><path d="M2.646 0l1.057 1.058h-.895c-.08 0-.162-.084-.162-.163z" fill="#fff" fill-opacity=".392"/><path d="M2.075 1.413s.061.56-.37 1.303c-.43.741-.556.642-.6.616-.046-.026-.104-.109.086-.276.191-.166.264-.163.264-.163s-.174.105-.242.209c-.069.102-.123.166-.107.195.017.029.211-.118.293-.244.128-.199.37-.568.484-.922.113-.352.192-.718.192-.718z" fill="#fff"/><path d="M3.137 2.713s-.01.026-.123.015c-.114-.009-.554-.147-.791-.43-.236-.281-.255-.67-.272-.873-.015-.202.074-.146.087-.12.02.017.03.072.03.072s-.007-.083-.042-.118c-.037-.035-.068-.036-.104.025-.035.06-.051.231-.023.395.03.164.15.54.298.713.15.173.448.324.668.369.22.045.271-.048.271-.048z" fill="#fff"/><path d="M1.702 2.786s.428-.137.832-.177c.406-.038.544.004.58.032.035.03.035.061.035.061s.046-.044.016-.09c-.025-.047-.064-.085-.384-.076-.32.01-.344.023-.638.076-.295.055-.44.174-.44.174z" fill="#fff"/></svg>