<svg xmlns="http://www.w3.org/2000/svg" viewBox="0 0 4.233 4.233" height="16" width="16"><path d="M.706 0C.615 0 .529.09.529.184V4.05c0 .09.091.184.177.184h2.821c.086 0 .177-.095.177-.184v-2.99L2.646 0z" fill="#dcdcdc"/><path d="M1.058 2.117v.264h2.117v-.264zM1.058 2.646v.264h2.117v-.264zM1.058 3.175v.264h2.117v-.264z" fill="#888"/><path d="M2.8.882l.004.005.01-.005zm.008.176l.896.97v-.97z" fill-opacity=".196"/><path d="M2.646 0l1.057 1.058h-.895c-.08 0-.162-.084-.162-.163z" fill="#fff" fill-opacity=".392"/><path d="M1.058 1.587v.265h2.117v-.265z" fill="#888"/></svg>