<?xml version="1.0" encoding="UTF-8" standalone="no"?>
<svg
   xmlns:dc="http://purl.org/dc/elements/1.1/"
   xmlns:cc="http://creativecommons.org/ns#"
   xmlns:rdf="http://www.w3.org/1999/02/22-rdf-syntax-ns#"
   xmlns:svg="http://www.w3.org/2000/svg"
   xmlns="http://www.w3.org/2000/svg"
   xmlns:sodipodi="http://sodipodi.sourceforge.net/DTD/sodipodi-0.dtd"
   xmlns:inkscape="http://www.inkscape.org/namespaces/inkscape"
   id="svg4"
   version="1.1"
   height="16"
   width="16"
   sodipodi:docname="remove_ascii.svg"
   inkscape:version="0.92.4 5da689c313, 2019-01-14">
  <sodipodi:namedview
     pagecolor="#ffffff"
     bordercolor="#666666"
     borderopacity="1"
     objecttolerance="10"
     gridtolerance="10"
     guidetolerance="10"
     inkscape:pageopacity="0"
     inkscape:pageshadow="2"
     inkscape:window-width="1920"
     inkscape:window-height="1046"
     id="namedview6"
     showgrid="false"
     fit-margin-top="0"
     fit-margin-left="0"
     fit-margin-right="0"
     fit-margin-bottom="0"
     inkscape:zoom="1.18"
     inkscape:cx="100"
     inkscape:cy="100"
     inkscape:window-x="0"
     inkscape:window-y="0"
     inkscape:window-maximized="1"
     inkscape:current-layer="svg4" />
  <metadata
     id="metadata10">
    <rdf:RDF>
      <cc:Work
         rdf:about="">
        <dc:format>image/svg+xml</dc:format>
        <dc:type
           rdf:resource="http://purl.org/dc/dcmitype/StillImage" />
        <dc:title></dc:title>
      </cc:Work>
    </rdf:RDF>
  </metadata>
  <defs
     id="defs8" />
  <path
     style="fill:#ffffff;fill-opacity:1;stroke:none;stroke-width:0.08000001"
     id="path2"
     d="M 16,8 8,16 0,8 8,0 Z M 10.851767,5.97647 q 0,-1.08235 -0.800005,-1.80236 -0.7999988,-0.72 -1.9482308,-0.72 -1.383532,0 -2.4094129,0.42353 L 5.5247032,5.56235 q 0.7811785,-0.49882 1.7223552,-0.49882 0.7058848,0 1.1670592,0.38588 0.4611752,0.38588 0.4611752,1.01647 0,0.68706 -0.7952936,1.73647 -0.7952936,1.04941 -0.7952936,2.14118 h 1.4305888 q 0,-0.50823 0.555296,-1.1953 Q 10.211767,7.98118 10.296471,7.84 10.851767,6.95529 10.851767,5.97647 Z M 9.0917648,13.34588 V 11.36942 H 6.9082352 v 1.97646 z"
     inkscape:connector-curvature="0" />
</svg>
