<svg xmlns="http://www.w3.org/2000/svg" viewBox="0 0 16 16" height="16mm" width="16mm"><path d="M7.304 13.456a180.5 180.5 0 01-.75-.914l-.337-.413H4.199c-1.525 0-2.029-.01-2.06-.041-.03-.03-.04-.393-.04-1.422V9.285H.846v2.85l-.112.113c-.215.214-.532.173-.672-.087-.059-.11-.062-.27-.062-3.249 0-2.978.003-3.138.062-3.249.14-.26.457-.3.672-.086l.112.112v2.749H2.1v-1.33c0-.99.01-1.341.04-1.371.03-.03.288-.041.949-.041h.907v-.578c0-.333.015-.605.035-.643.033-.062.08-.066.88-.066h.846V3.292h-.862c-.526 0-.898-.014-.956-.036a.685.685 0 01-.337-.327c-.107-.25-.02-.604.184-.75.197-.14.278-.142 3.28-.132l2.883.01.145.101c.194.136.276.285.279.502a.627.627 0 01-.274.531c-.121.084-.129.084-.997.094l-.874.01V4.41h.975c.713 0 .986.011 1.016.041.028.029.04.22.04.643v.603h1.077c.792 0 1.087.01 1.117.04.03.03.04.265.04.847v.806h1.22v-.642c0-.6.004-.645.065-.677.039-.021.34-.035.74-.035.6 0 .68.006.726.059.096.11.267.487.4.884.459 1.38.476 2.99.05 4.66-.162.63-.385 1.276-.465 1.345-.06.053-.148.06-.727.06-.389 0-.685-.015-.724-.035-.061-.033-.065-.078-.065-.745v-.71h-1.22v1.161c0 .858-.01 1.172-.04 1.202-.03.031-.607.04-2.387.04H7.72zm.048-9.089c.011-.036.01-.593-.002-.965l-.003-.11h-.711V4.41h.352c.252 0 .355-.012.364-.042z" fill="#70b764"/><path d="M10.685 9.519H8.516v2.168H6.782V9.519H4.614V7.784h2.168V5.616h1.734v2.168h2.169z" fill="#fff"/></svg>