<svg xmlns="http://www.w3.org/2000/svg" viewBox="0 0 31.228 70.963" height="268.208" width="118.026">
<g stroke="#000" fill="none" stroke-width=".265">
<path d="M7.375 60.383l-2.21-4.589-.474-1.133-.153-.944-.078-.566-.087-1.646.081-1.396L4.4 48.8l-.185-1.57-.171-1.537-.5-1.589-.479-1.66-.477-1.579-1.017-3.485-.658-2.612-.186-.894-.21-1.278-.22-2.395-.164-3.244.112-2.163.48-2.611.826-3.274.461-1.747c.26-.904.82-1.37 1.486-1.984l1.69-.873L6.2 13.57c.428-.238.837-.157 1.308-.128.74.341 1.197.82 1.321 1.619.2.859.087 1.374-.172 2.16-.141.561-.32 1-.894 1.346-.652.232-1.264.117-1.934.046l-.92-.145"/>
<path d="M6.319 54.497l.322.794.19 1.072.27 1.306.141 1.35.133 1.364.433 1.38.557 1.537.941 1.661.901 1.314.96 1.366 1.128 1.066 1.086.857 1.354.764 1.273.296 1.596.206 1.657-.133 1.475-.609 1.657-1.333 1.18-1.665.872-1.905.518-1.531.482-2.293.354-2.665.107-3.07-.104-3.002-.047-4.156.207-2.533.2-2.087.15-2.378.135-2.41.4-1.755.469-1.891.506-1.747.87-2.491.818-2.183.555-1.781c.49-1.702.385-3.34.285-5.075l-.319-2.19-.4-1.883L29.4 14.8c-.036-1.26.47-2.331.908-3.485l.384-1.43.403-1.633c.207-1.582-.338-2.805-.883-4.25L28.58 1.36C27.787.62 27.143.263 26.118.133l-1.25.17c-.923.242-1.276.654-1.805 1.382l-.227.778-.14.662-.136 1.031-.459 1.569-.251 1.162-.012 1.24.184.56.552 1.158.213.85-.014 1.397c-.11.519-.319.618-.566.655-.266-.045-.513-.205-.513-.205l-.132-1.273-.087-1.673.498-1.019"/>
<path d="M22.742 2.754c-.737-1.742-1.837-2.33-3.516-2.042-.992.325-1.379.829-1.937 1.645-.288.564-.258 1.054-.226 1.663l.718.807c.55.987.991 1.623 2.057 1.838l.89-.018"/>
<path d="M16.011 9.128l1.015-.574c.574-.39.817-.83 1.09-1.435.267-.779.071-1.084.107-1.625"/>
<path d="M16.536 12.35l.26-1.324s.077-.91.081-1.012c.036-.841-.086-1.328.15-1.46 1.788-1.544.838-2.575.717 1.304 0 .059.145 1.362.12 1.435-.025.072-.106.814-.106.814M7.509 13.442c.032-2.706.477-4.334 3.363-4.637l.72.163c.813.177 1.138.468 1.603 1.095l.153.936c-.362 2.73-.763 3.792-4.161 2.722M13.195 10.063c-.457-1.187-.52-2.384-.594-3.634-.058-1.184.095-1.945 1.003-2.8.93-.55 1.447-.596 2.426-.282.095.066 1.033.673 1.033.673M4.823 20.561c1.035-.414 1.564-.948 2.156-1.826M8.427 17.804s2.101-1.375 2.196-1.397c.095-.022 2.113-1.316 2.113-1.316l2.02-1.401 1.563-.906 1.407-.498 2.634-.038 1.255.504a34.5 34.5 0 002.23.698l1.485.323 1.274.022 1.387.028M12.035 33.798s.211 2.845.211 2.986c0 .142-.033 4.15-.033 4.15l.12 3.093.403 3.897.544 2.387.347 1.385.384.882v.48M15.778 26.702c.133 1.16.644 1.48 1.514 2.159.889.585 1.962 1.063 2.92 1.638 2.59 1.144 2.757 1.234 5.217-.154l.776-.904"/>
</g>
</svg>
