<svg xmlns="http://www.w3.org/2000/svg" viewBox="0 0 28.645 83.292" height="314.805" width="108.264">
<g fill="none" stroke="#000" stroke-width=".265">
<path d="M.132.006s.765 17.387 3.84 23.288c3.076 5.901 2.43 8.385 2.74 8.96"/>
<path d="M3.88 23.073s-1.095 3.722-1.066 7.18c.03 3.457.704 6.017.56 7.572-.412 4.429-1.618 9.31-1.59 10.031.085 2.23-.215 4.848-.27 6.466-.055 1.618-1.43 4.888-1.36 5.796.072.907 1.637 6.097 1.761 6.615.118.493-.113 2.597-.026 4.523.375 1.35 1.118 2.814 1.712 3.466.592.652.377.967 1.576 2.14 1.034.405 1.407.2 1.407.2.454-.213 1.205-1.417.333-4.65"/>
<path d="M7.224 75.972c-.638 2.377-.013 3.785-.013 3.785s1.516 2.367 3.613.13c.699-.747.567-2.146.187-3.2l.092-4.158s.28-1.215.92-.062c.166.299-.454 2.665-.22 5.607-.144.824-.626 2.837.36 3.57 1.234.92 3.5.93 3.962-.626.19-.637-.46-2.567-.46-2.567l-.093-5.035s.331-.674.885.134c.554.809-.115 5.801-.115 5.801s.179 2.658.636 2.835c.56.217 2.192 1.153 3.466-.587.128-.176-.065-1.168-.191-2.132-.136-1.04-.22-2.085-.445-3.166-.044-.99-.302-2.314-.132-2.97.066-.343.7-.18.936.47.398 1.096.054 2.736-.23 4.253.218 2.523.512 6.095 5.306 4.85.624-.162 1.299-.892 1.613-1.772 2.507-7.023.346-11.696.346-11.696-.145-1.593.19-4.728.514-6.159.25-1.104-.22-5.83-.642-7.038 0 0-3.322-8.085-3.258-9.593.065-1.509-.347-9.079-.347-9.079l-.883-6.88c-.041-.324.04-6.226.04-6.226s-1.057-7.931-1.165-8.418c-.108-.487-.593-2.102-.603-3.196-.01-1.095-.063-4.275-.063-4.275"/>
<path d="M19.737 16.276s-.624 1.13-.53 2.036c.096.907.144 2.789-.334 3.846s-.447 2.363-.408 2.648M19.934 32.152s2.783-.943 3.072-5.264M4.7 75.379l1.146-.72s.525.27.427 1.528c-.1 1.257-1.574-.808-1.574-.808zM7.446 78.945s.103-1.088.337-1.382c.234-.294 1.853-.224 1.883.484.03.707-.381 1.724-.381 1.724zM12.667 79.666s1.18-.621 2.05.065c0 0 .232.256.132 1.361l-2.246.013c-.071-.576-.02-.83.064-1.44zM17.423 81.085c-.2-.944-.149-1.165-.045-1.723 0 0 .839-.647 1.856-.01.239.36.194 1.583.194 1.583zM22.119 78.356s1.314-1.606 3.745.156c.296.214-.076 2.478-.076 2.478-.914.508-2.2 1.318-3.777-.145-.207-.84-.06-2.183.108-2.49z"/>
</g>
</svg>
