<?xml version="1.0" encoding="UTF-8" standalone="no"?>
<!-- Created with Inkscape (http://www.inkscape.org/) -->

<svg
   width="4.233335mm"
   height="4.2333341mm"
   viewBox="0 0 4.233335 4.2333341"
   version="1.1"
   id="svg5"
   inkscape:version="1.1 (c4e8f9ed74, 2021-05-24)"
   sodipodi:docname="favicon.svg"
   xmlns:inkscape="http://www.inkscape.org/namespaces/inkscape"
   xmlns:sodipodi="http://sodipodi.sourceforge.net/DTD/sodipodi-0.dtd"
   xmlns="http://www.w3.org/2000/svg"
   xmlns:svg="http://www.w3.org/2000/svg">
  <sodipodi:namedview
     id="namedview7"
     pagecolor="#ffffff"
     bordercolor="#666666"
     borderopacity="1.0"
     inkscape:pageshadow="2"
     inkscape:pageopacity="0.0"
     inkscape:pagecheckerboard="0"
     inkscape:document-units="mm"
     showgrid="false"
     inkscape:zoom="23.803591"
     inkscape:cx="3.0457589"
     inkscape:cy="14.724669"
     inkscape:window-width="1457"
     inkscape:window-height="1047"
     inkscape:window-x="318"
     inkscape:window-y="0"
     inkscape:window-maximized="0"
     inkscape:current-layer="layer1" />
  <defs
     id="defs2" />
  <g
     inkscape:label="Layer 1"
     inkscape:groupmode="layer"
     id="layer1">
    <path
       style="fill:#ffd3ab;stroke-width:0.00754931;fill-opacity:1"
       d="M 1.8341933,4.229334 C 1.4253367,4.2156997 1.1145599,4.185187 0.71936532,4.1198779 0.49157848,4.0822342 0.38808952,4.061794 0.21997867,4.0212432 0.08630938,3.9890001 0.05531413,3.9708865 0.02103664,3.9049806 L 0,3.8645331 V 3.3283953 2.7922576 l 0.024481,0.00549 c 0.01346456,0.00302 0.04687846,0.00539 0.07425306,0.00528 0.07027422,-2.945e-4 0.13860677,-0.03594 0.2318237,-0.1209329 0.0388753,-0.035445 0.078704,-0.066469 0.0885083,-0.06894 0.0326091,-0.00822 0.0541685,0.00425 0.12931934,0.07482 0.0410005,0.0385 0.0928543,0.080183 0.11523051,0.092631 0.0362473,0.020163 0.047684,0.022631 0.10486983,0.022631 0.0569893,0 0.0696574,-0.00271 0.11298932,-0.02418 0.026842,-0.013299 0.0777186,-0.04916 0.11305899,-0.079691 0.0353405,-0.030531 0.0764168,-0.06306 0.0912806,-0.072287 0.029879,-0.018548 0.071959,-0.021911 0.091576,-0.00732 0.011701,0.0087 0.010281,0.015746 -0.017816,0.088365 -0.050738,0.1311388 -0.068267,0.2006189 -0.072667,0.2880466 -0.017064,0.3390061 0.2211318,0.6225799 0.5062419,0.6026836 0.2453826,-0.017124 0.4366664,-0.2412833 0.453437,-0.5313685 0.00461,-0.079792 -0.00568,-0.1778287 -0.024211,-0.2305817 L 2.0118782,2.8070112 H 2.05218 c 0.083873,0 0.1386796,-0.02659 0.2781389,-0.1349396 0.075301,-0.058503 0.1087343,-0.07095 0.1488362,-0.055409 l 0.019754,0.00766 -0.011266,0.040276 c -0.017809,0.063668 -0.015674,0.1941357 0.00435,0.2656804 0.04711,0.1683376 0.1470567,0.2753559 0.2984446,0.319561 0.032099,0.00937 0.062895,0.01202 0.1138069,0.00978 0.063717,-0.0028 0.075345,-0.00583 0.133432,-0.034737 0.1425261,-0.070938 0.2465492,-0.2429662 0.2465492,-0.4077307 0,-0.026383 0.00186,-0.047969 0.00414,-0.047969 0.00228,0 0.014988,0.00571 0.028247,0.012698 0.014944,0.00787 0.042717,0.012891 0.073069,0.013205 0.04039,4.175e-4 0.058164,-0.00386 0.1015214,-0.024456 0.028908,-0.013729 0.069584,-0.037812 0.090391,-0.053518 0.1712183,-0.1292398 0.1794409,-0.130619 0.3099821,-0.052 0.045036,0.027123 0.096217,0.05656 0.1137364,0.065415 0.049273,0.024906 0.1273676,0.040655 0.1809434,0.036491 l 0.047079,-0.00366 -1.708e-4,0.5457772 c -1.708e-4,0.5324864 -5.381e-4,0.5466063 -0.015491,0.5798244 -0.018424,0.040929 -0.053898,0.079666 -0.0898,0.09806 -0.0769,0.039399 -0.6534009,0.1484887 -0.9980719,0.1888628 -0.3938208,0.046132 -0.8950415,0.06681 -1.2956111,0.053452 z"
       id="path836" />
    <path
       style="fill:#ffab75;stroke-width:0.00754931;fill-opacity:1"
       d="M 3.3321599,2.6330829 C 3.2490969,2.5763365 3.2422769,2.5676987 3.2170205,2.4872543 3.1917985,2.40692 3.1880735,2.3585107 3.2042025,2.3206485 c 0.014383,-0.033764 0.048068,-0.063025 0.083786,-0.072779 0.038455,-0.010502 0.6072151,-0.011181 0.6704034,-8.007e-4 0.1020051,0.016758 0.1933113,0.086921 0.2420703,0.1860164 0.022464,0.045655 0.027574,0.065317 0.030902,0.1189054 0.00462,0.074412 0.00423,0.074814 -0.072323,0.074446 -0.054635,-2.574e-4 -0.1103134,-0.020854 -0.1782944,-0.065937 -0.09623,-0.063817 -0.1367157,-0.080915 -0.2007647,-0.084785 -0.052616,-0.00318 -0.062328,-0.00141 -0.106653,0.019424 -0.026821,0.012607 -0.087209,0.050038 -0.1341945,0.08318 -0.094393,0.066581 -0.126427,0.084938 -0.1482235,0.084938 -0.00802,0 -0.034458,-0.013579 -0.058752,-0.030175 z"
       id="path1818" />
    <path
       style="fill:#ffab75;stroke-width:0.00754931;fill-opacity:1"
       d="m 2.0074436,2.6554629 c -0.052251,-0.028248 -0.062629,-0.043762 -0.082858,-0.1238611 -0.021254,-0.084155 -0.024699,-0.1680242 -0.00821,-0.1997351 0.013552,-0.026055 0.04607,-0.056395 0.079765,-0.074421 0.024092,-0.012889 0.046486,-0.014104 0.2598754,-0.014104 0.2275109,0 0.2341961,4.29e-4 0.2601623,0.01665 0.056305,0.035176 0.072062,0.097353 0.046792,0.1846485 -0.012343,0.042641 -0.01438,0.04523 -0.032014,0.040688 -0.010357,-0.00267 -0.042559,-0.00659 -0.07156,-0.00871 C 2.3868813,2.4713182 2.338545,2.4905922 2.249956,2.5601472 2.1359133,2.6496872 2.1101613,2.6654091 2.0720928,2.668734 2.0468208,2.670944 2.0294958,2.667384 2.0074388,2.65546 Z"
       id="path1816" />
    <path
       style="fill:#ffab75;stroke-width:0.00754931;fill-opacity:1"
       d="M 0.05272834,2.6653629 C 0.04651394,2.663018 0.03172552,2.6542691 0.01986508,2.6459221 -0.00168951,2.6307527 -0.00169762,2.630715 0.00177574,2.5618826 0.00749811,2.4484831 0.04413067,2.3756686 0.12860751,2.3097796 c 0.022903,-0.017863 0.0618076,-0.04012 0.0864548,-0.04946 0.0441327,-0.016723 0.0510304,-0.017015 0.45427944,-0.019238 0.44452755,-0.00245 0.46871555,-7.321e-4 0.52051085,0.036954 0.052275,0.038036 0.062167,0.060912 0.058102,0.1343682 -0.00192,0.034728 -0.00693,0.066589 -0.011122,0.070803 -0.00515,0.00517 -0.016645,0.00467 -0.035373,-0.00154 -0.040276,-0.013352 -0.1213217,-0.00665 -0.1623859,0.013419 -0.018879,0.00923 -0.0646398,0.042499 -0.10169035,0.073934 -0.11735108,0.099565 -0.14932162,0.1147118 -0.20070698,0.095088 -0.009662,-0.00369 -0.0514063,-0.037732 -0.092765,-0.07565 -0.0924841,-0.084789 -0.14634544,-0.1143592 -0.20830365,-0.1143592 -0.0613792,0 -0.1004893,0.020618 -0.1905687,0.1004657 -0.0415548,0.036834 -0.0881304,0.07356 -0.10350138,0.081612 -0.026934,0.014109 -0.06525448,0.01807 -0.0888093,0.00918 z"
       id="path1814" />
    <path
       style="fill:#b78d61;stroke-width:0.00754931;fill-opacity:1"
       d="M 2.8219271,3.0455832 C 2.7247341,3.0107843 2.6608051,2.8735304 2.6814195,2.7439177 c 0.0042,-0.026379 0.026004,-0.098729 0.048463,-0.160779 0.022459,-0.06205 0.046205,-0.1390409 0.052768,-0.1710917 0.00656,-0.032051 0.020422,-0.1750497 0.030797,-0.3177749 0.0273,-0.3755652 0.039412,-0.5067892 0.068126,-0.7380739 0.047188,-0.38009217 0.076573,-0.54510118 0.1311024,-0.73620391 0.051173,-0.17934142 0.05384,-0.17952357 0.049216,-0.00336 -0.00465,0.17693019 -0.014837,0.36775983 -0.030105,0.56367221 -0.01533,0.1967058 -0.02423,0.386693 -0.038001,0.8112666 -0.013876,0.4277777 -0.013633,0.4310803 0.044161,0.5998051 0.037941,0.1107649 0.038878,0.1155811 0.039002,0.2005008 1.138e-4,0.079614 -0.00167,0.090869 -0.020982,0.1324063 C 3.0056109,3.032582 2.9157264,3.0791674 2.8219271,3.0455832 Z"
       id="path1812" />
    <path
       style="fill:#b78d61;stroke-width:0.00754931;fill-opacity:1"
       d="M 1.5086789,3.3866414 C 1.3976317,3.350197 1.3276717,3.2604374 1.2989468,3.1175524 1.2763355,3.0050782 1.2921705,2.9161184 1.3678353,2.7305416 1.43978,2.5540881 1.4524894,2.471867 1.4875866,1.9558286 1.5167197,1.5274815 1.5305723,1.35102 1.5487637,1.1765237 1.5598296,1.0703767 1.6370742,0.62153762 1.6717006,0.46218378 1.7108537,0.28199764 1.7996488,0 1.8172325,0 c 0.0034,0 0.00448,0.01617227 0.0024,0.0359388 -0.00208,0.01976624 -0.00572,0.09211682 -0.00808,0.16077879 -0.00565,0.16411624 -0.022016,0.43606633 -0.045068,0.74904105 -0.031354,0.42568826 -0.069614,1.35969956 -0.060975,1.48851636 0.00687,0.1024755 0.022584,0.1683906 0.081495,0.3419101 0.047191,0.1389988 0.053233,0.1633624 0.056433,0.2275439 0.010217,0.2049522 -0.1043698,0.3767754 -0.2599114,0.3897377 -0.025945,0.00216 -0.055737,-5.547e-4 -0.074844,-0.00683 z"
       id="path1810" />
    <path
       style="fill:#9a5b34;stroke-width:0.00754931;fill-opacity:1"
       d="m 3.9398478,3.2590802 c 0.036179,-0.018325 0.067507,-0.066603 0.067507,-0.1040334 0,-0.065237 -0.072562,-0.1279695 -0.1356381,-0.1172654 -0.096592,0.016392 -0.13144,0.1378135 -0.059039,0.2057122 0.038053,0.035687 0.077856,0.040565 0.1271701,0.015587 z"
       id="path1808" />
    <path
       style="fill:#9a5b34;stroke-width:0.00754931;fill-opacity:1"
       d="m 0.83071344,3.2656902 c 0.0133315,-0.00573 0.0344081,-0.021274 0.0468369,-0.034544 0.0205907,-0.021984 0.0225979,-0.02875 0.0225979,-0.076172 0,-0.049151 -0.001454,-0.053553 -0.0261504,-0.079146 -0.0632907,-0.065589 -0.1606388,-0.046704 -0.19260279,0.037364 -0.0224909,0.059153 0.002661,0.1224414 0.0588406,0.1480572 0.0380811,0.017364 0.0581208,0.018347 0.0904778,0.00444 z"
       id="path1806" />
    <path
       style="fill:#9a5b34;stroke-width:0.00754931;fill-opacity:1"
       d="m 2.3349623,3.2931194 c 0.038982,-0.019672 0.060411,-0.056571 0.060411,-0.1040217 0,-0.1192086 -0.1415074,-0.1601194 -0.2139869,-0.061865 -0.011378,0.015424 -0.015758,0.03262 -0.015758,0.061865 0,0.045536 0.014768,0.071778 0.056418,0.1002504 0.030411,0.020789 0.076165,0.022318 0.1129159,0.00377 z"
       id="path1804" />
    <path
       style="fill:#9a5b34;stroke-width:0.00754931;fill-opacity:1"
       d="M 3.305033,3.4526076 C 3.337064,3.4285865 3.353426,3.4010922 3.357548,3.364361 3.360688,3.3363808 3.3577188,3.3234833 3.341911,3.2963865 3.278756,3.188142 3.1186518,3.2384738 3.127964,3.3636447 c 0.00326,0.043807 0.019827,0.070434 0.058334,0.093753 0.032479,0.019668 0.08917,0.017381 0.118735,-0.00479 z"
       id="path1802" />
    <path
       style="fill:#9a5b34;stroke-width:0.00754931;fill-opacity:1"
       d="m 0.41052784,3.5947145 c 0.0545483,-0.025288 0.0790925,-0.06482 0.0790925,-0.1273916 0,-0.1140893 -0.13814186,-0.1730125 -0.22100167,-0.094267 -0.0305881,0.02907 -0.04264,0.056178 -0.04264,0.095912 0,0.05781 0.0308017,0.1052885 0.0830829,0.128066 0.0349453,0.015225 0.0651089,0.014535 0.10146627,-0.00232 z"
       id="path1800" />
    <path
       style="fill:#9a5b34;stroke-width:0.00754931;fill-opacity:1"
       d="m 3.8243697,3.7023519 c 0.083164,-0.054164 0.085282,-0.1716181 0.00409,-0.2265791 -0.089053,-0.060279 -0.2052646,0.00424 -0.2052646,0.1139543 0,0.1037772 0.1154916,0.1684322 0.201179,0.1126248 z"
       id="path1798" />
    <path
       style="fill:#9a5b34;stroke-width:0.00754931;fill-opacity:1"
       d="m 1.0633889,3.8238504 c 0.035739,-0.018337 0.055205,-0.054544 0.055205,-0.1026816 0,-0.070566 -0.044218,-0.1159372 -0.1129894,-0.1159372 -0.0856582,0 -0.1403064,0.084569 -0.10649633,0.1648049 0.0263208,0.062463 0.10023442,0.086675 0.16428073,0.053814 z"
       id="path1796" />
    <path
       style="fill:#9a5b34;stroke-width:0.00754931;fill-opacity:1"
       d="M 2.555975,3.8657152 C 2.621949,3.8473139 2.674039,3.7667359 2.6628738,3.7003548 2.6432388,3.5836201 2.5019252,3.5299476 2.4170344,3.606982 c -0.033346,0.03026 -0.047229,0.053625 -0.054425,0.091594 -0.011716,0.061822 0.034649,0.1412456 0.094978,0.1626979 0.039062,0.01389 0.060967,0.014879 0.098388,0.00444 z"
       id="path1794" />
  </g>
</svg>
