<?xml version="1.0" encoding="UTF-8" standalone="no"?>
<svg
   enable-background="new 0 0 64 64"
   height="16"
   version="1.1"
   viewBox="0 0 16 16"
   width="16"
   xml:space="preserve"
   id="svg42"
   sodipodi:docname="favicon.svg"
   inkscape:version="1.1.1 (3bf5ae0d25, 2021-09-20, custom)"
   xmlns:inkscape="http://www.inkscape.org/namespaces/inkscape"
   xmlns:sodipodi="http://sodipodi.sourceforge.net/DTD/sodipodi-0.dtd"
   xmlns="http://www.w3.org/2000/svg"
   xmlns:svg="http://www.w3.org/2000/svg"><defs
     id="defs46" /><sodipodi:namedview
     id="namedview44"
     pagecolor="#ffffff"
     bordercolor="#666666"
     borderopacity="1.0"
     inkscape:pageshadow="2"
     inkscape:pageopacity="0.0"
     inkscape:pagecheckerboard="0"
     showgrid="false"
     inkscape:zoom="36.902135"
     inkscape:cx="6.3681952"
     inkscape:cy="8.9019239"
     inkscape:window-width="1920"
     inkscape:window-height="1023"
     inkscape:window-x="0"
     inkscape:window-y="0"
     inkscape:window-maximized="1"
     inkscape:current-layer="g4" /><g
     id="Layer_1"
     transform="scale(0.25)"><g
       id="g4"><circle
         cx="32"
         cy="32"
         fill="#76c2af"
         id="circle2"
         r="32"
         style="fill:#4452bb;fill-opacity:1" /></g><g
       opacity="0.2"
       id="g18"><g
         id="g10"><g
           id="g8"><path
             d="m 42.461,44 c -0.671,0 -1.326,-0.338 -1.705,-0.951 -0.58,-0.94 -0.287,-2.172 0.653,-2.752 l 10.124,-6.242 c 0.005,-0.018 0.007,-0.036 0.007,-0.056 0,-0.02 -0.002,-0.038 -0.007,-0.056 L 41.41,27.703 c -0.94,-0.58 -1.232,-1.812 -0.653,-2.752 0.58,-0.94 1.812,-1.232 2.752,-0.653 l 10.63,6.554 0.165,0.165 c 0.797,0.797 1.236,1.856 1.236,2.983 0,1.126 -0.439,2.186 -1.236,2.983 l -0.166,0.166 -10.63,6.554 C 43.182,43.904 42.819,44 42.461,44 Z"
             fill="#231f20"
             id="path6" /></g></g><g
         id="g16"><g
           id="g14"><path
             d="m 21.539,44 c -0.358,0 -0.721,-0.096 -1.048,-0.298 L 9.861,37.148 9.695,36.982 C 8.898,36.186 8.459,35.126 8.459,34 c 0,-1.127 0.439,-2.187 1.236,-2.983 L 9.86,30.852 20.49,24.298 c 0.941,-0.58 2.172,-0.287 2.752,0.653 0.58,0.94 0.287,2.172 -0.653,2.752 l -10.124,6.242 c -0.005,0.018 -0.007,0.036 -0.007,0.056 0,0.02 0.002,0.038 0.007,0.056 l 10.124,6.242 c 0.94,0.58 1.232,1.812 0.653,2.752 C 22.865,43.663 22.209,44 21.539,44 Z"
             fill="#231f20"
             id="path12" /></g></g></g><g
       opacity="0.2"
       id="g24"><g
         id="g22"><path
           d="m 25.5,53 c -0.237,0 -0.479,-0.042 -0.714,-0.132 -1.032,-0.395 -1.548,-1.551 -1.154,-2.583 l 13,-34 c 0.395,-1.032 1.551,-1.549 2.583,-1.154 1.032,0.395 1.548,1.551 1.154,2.583 l -13,34 C 27.063,52.511 26.305,53 25.5,53 Z"
           fill="#231f20"
           id="path20" /></g></g><g
       id="g34"><g
         id="g28"><path
           d="m 42.461,42 c -0.671,0 -1.327,-0.337 -1.705,-0.95 -0.58,-0.94 -0.287,-2.173 0.653,-2.752 l 10.123,-6.241 c 0.01,-0.037 0.01,-0.076 0,-0.113 L 41.41,25.702 c -0.94,-0.579 -1.233,-1.812 -0.653,-2.752 0.58,-0.94 1.811,-1.233 2.752,-0.652 l 10.631,6.554 0.166,0.165 c 1.644,1.646 1.644,4.321 0,5.967 L 54.14,35.149 43.509,41.703 C 43.182,41.904 42.819,42 42.461,42 Z"
           fill="#ffffff"
           id="path26" /></g><g
         id="g32"><path
           d="m 21.539,42 c -0.358,0 -0.72,-0.096 -1.047,-0.298 L 9.86,35.148 9.694,34.983 C 8.05,33.337 8.05,30.662 9.694,29.016 L 9.86,28.851 20.491,22.297 c 0.939,-0.581 2.173,-0.288 2.752,0.652 0.58,0.94 0.287,2.173 -0.653,2.752 l -10.123,6.241 c -0.01,0.037 -0.01,0.076 0,0.113 l 10.123,6.241 c 0.94,0.579 1.233,1.812 0.653,2.752 C 22.865,41.663 22.209,42 21.539,42 Z"
           fill="#ffffff"
           id="path30" /></g></g><g
       id="g38"><path
         d="m 25.5,51.001 c -0.237,0 -0.479,-0.043 -0.714,-0.133 -1.032,-0.395 -1.548,-1.551 -1.154,-2.582 l 13,-34 c 0.395,-1.031 1.551,-1.55 2.583,-1.154 1.032,0.395 1.548,1.551 1.154,2.582 l -13,34 c -0.306,0.797 -1.064,1.287 -1.869,1.287 z"
         fill="#ffffff"
         id="path36" /></g></g><g
     id="Layer_2"
     transform="scale(0.25)" /></svg>
