<?xml version="1.0" encoding="UTF-8" standalone="no"?>
<svg
   xmlns:dc="http://purl.org/dc/elements/1.1/"
   xmlns:cc="http://creativecommons.org/ns#"
   xmlns:rdf="http://www.w3.org/1999/02/22-rdf-syntax-ns#"
   xmlns:svg="http://www.w3.org/2000/svg"
   xmlns="http://www.w3.org/2000/svg"
   xmlns:sodipodi="http://sodipodi.sourceforge.net/DTD/sodipodi-0.dtd"
   xmlns:inkscape="http://www.inkscape.org/namespaces/inkscape"
   width="4.2333331mm"
   height="4.2333331mm"
   viewBox="0 0 4.2333331 4.2333331"
   version="1.1"
   id="svg8"
   inkscape:version="1.0.2 (e86c870879, 2021-01-15, custom)"
   sodipodi:docname="favicon.svg">
  <defs
     id="defs2" />
  <sodipodi:namedview
     id="base"
     pagecolor="#ffffff"
     bordercolor="#666666"
     borderopacity="1.0"
     inkscape:pageopacity="0.0"
     inkscape:pageshadow="2"
     inkscape:zoom="31.678384"
     inkscape:cx="11.657107"
     inkscape:cy="12.235169"
     inkscape:document-units="mm"
     inkscape:current-layer="layer1"
     inkscape:document-rotation="0"
     showgrid="false"
     inkscape:pagecheckerboard="true"
     fit-margin-top="0"
     fit-margin-left="0"
     fit-margin-right="0"
     fit-margin-bottom="0"
     inkscape:window-width="1537"
     inkscape:window-height="1047"
     inkscape:window-x="150"
     inkscape:window-y="41"
     inkscape:window-maximized="0" />
  <metadata
     id="metadata5">
    <rdf:RDF>
      <cc:Work
         rdf:about="">
        <dc:format>image/svg+xml</dc:format>
        <dc:type
           rdf:resource="http://purl.org/dc/dcmitype/StillImage" />
        <dc:title></dc:title>
      </cc:Work>
    </rdf:RDF>
  </metadata>
  <g
     inkscape:label="Layer 1"
     inkscape:groupmode="layer"
     id="layer1">
    <circle
       style="fill:#ffffff;fill-opacity:1;stroke-width:0.00335861;stroke-linecap:round"
       id="path849"
       cx="2.1166666"
       cy="2.1166666"
       r="2.1166666" />
    <path
       style="fill:#000000;stroke-width:0.00604179"
       d="M 2.001492,3.3791557 C 1.979827,3.3716757 1.950754,3.3590267 1.936883,3.3510687 L 1.911664,3.3365977 1.88412,3.3502717 C 1.8022633,3.3909091 1.674519,3.3765755 1.5968901,3.3180434 1.5240944,3.2631554 1.4999835,3.2156094 1.4933341,3.1138347 l -0.00391,-0.059777 -0.045449,-0.014153 C 1.2278386,2.9725991 1.0482634,2.8655209 0.91430754,2.7240701 0.80256142,2.6060715 0.71976159,2.4457924 0.69765638,2.304689 c -0.004282,-0.027333 -0.00991,-0.049695 -0.0125074,-0.049695 -0.006783,0 -0.005848,-0.2089333 9.9165e-4,-0.2214539 0.003142,-0.00576 0.011494,-0.044343 0.0185602,-0.085757 C 0.75029556,1.6805575 0.87354961,1.4425657 1.0645719,1.2529046 1.1847741,1.1335622 1.2947023,1.0549912 1.4409502,0.98389095 1.5859552,0.91339505 1.7164443,0.8757851 1.9015042,0.851148 1.9858462,0.839919 2.0181767,0.838621 2.1499606,0.841168 c 0.1557449,0.00301 0.223782,0.010815 0.350492,0.040183 0.2229601,0.051677 0.4414475,0.1682332 0.6172464,0.3292818 0.1851665,0.1696303 0.3016695,0.3514991 0.3748353,0.5851431 0.01782,0.056905 0.048178,0.2001569 0.048178,0.2273397 0,0.00826 0.00273,0.01502 0.00605,0.01502 0.00381,0 0.00606,0.040158 0.00606,0.1084272 0,0.068269 -0.00224,0.1084272 -0.00606,0.1084272 -0.00334,0 -0.00609,0.00881 -0.00613,0.019576 -4.59e-5,0.010767 -0.00657,0.045511 -0.014504,0.077208 -0.079249,0.3164585 -0.3488651,0.5674669 -0.7398829,0.6888186 -0.1092098,0.033893 -0.098063,0.024408 -0.1010236,0.085961 -0.00209,0.04346 -0.00598,0.060546 -0.021092,0.092647 -0.048448,0.1029138 -0.1793329,0.1693716 -0.297578,0.1510982 -0.024272,-0.00375 -0.054965,-0.012315 -0.068209,-0.01903 l -0.024078,-0.01221 -0.02329,0.014614 c -0.064496,0.040472 -0.1738205,0.051637 -0.2494884,0.025479 z M 2.2111484,2.8466116 c 0.044539,-0.022685 0.060593,-0.063196 0.050435,-0.1272709 -0.009,-0.056738 -0.04105,-0.1209005 -0.07949,-0.1591112 -0.035261,-0.035051 -0.057159,-0.043163 -0.091253,-0.033805 -0.049454,0.013574 -0.1157776,0.094613 -0.1348983,0.1648278 -0.021721,0.079767 0.00655,0.1337991 0.084521,0.1615749 0.042821,0.015253 0.1351347,0.011892 0.170685,-0.00622 z M 1.6106272,2.4722128 C 1.68075,2.4483359 1.7341334,2.4111405 1.7894478,2.3476184 1.8246615,2.3071792 1.8688258,2.2221505 1.8844885,2.1646373 1.8995636,2.109281 1.8993619,1.9604658 1.884138,1.9059652 1.8457884,1.7686755 1.7492557,1.6542434 1.6318366,1.6068798 1.5834739,1.5873721 1.4901619,1.5805001 1.4309273,1.5920843 1.2948613,1.6186937 1.1711503,1.7467562 1.127875,1.905796 1.109856,1.972016 1.108572,2.0976728 1.125295,2.1585992 c 0.045692,0.1665039 0.1633057,0.290163 0.3065673,0.3223254 0.051248,0.011506 0.1307759,0.00763 0.1787678,-0.00871 z m 1.1512106,0.0086 C 2.8351368,2.4653798 2.8882019,2.4357858 2.9435224,2.3794882 3.0371974,2.2841582 3.0800784,2.1799199 3.0814675,2.0441625 3.0829675,1.896995 3.0365525,1.781042 2.9378452,1.6854161 2.8657432,1.6155641 2.7918555,1.5863591 2.6872376,1.5863591 c -0.1044702,0 -0.1700166,0.028827 -0.2526884,0.1111304 -0.093189,0.092774 -0.1313821,0.189275 -0.1324384,0.3346259 -7.146e-4,0.098386 0.00975,0.1473437 0.048279,0.2258898 0.084152,0.1715491 0.2439425,0.2580798 0.4114488,0.2228093 z"
       id="path847" />
  </g>
</svg>
