<svg xml:space="preserve" width="16" height="12" xmlns="http://www.w3.org/2000/svg"><path d="M602.445 1122.28h-54.906c-24.734 0-44.789-20.05-44.789-44.79v-4.28h144.48v4.28c0 24.74-20.046 44.79-44.785 44.79" style="fill:#fbc3ba;fill-opacity:1;fill-rule:nonzero;stroke:none" transform="matrix(.08983 0 0 -.09342 -43.65 105.11)"/><path d="M654.586 1060.04H495.391a6.582 6.582 0 0 0-6.586 6.59 6.58 6.58 0 0 0 6.586 6.58h159.195a6.58 6.58 0 0 0 6.59-6.58c0-3.65-2.949-6.59-6.59-6.59" style="fill:#f58113;fill-opacity:1;fill-rule:nonzero;stroke:none" transform="matrix(.08983 0 0 -.09342 -43.65 105.11)"/><path d="M651.285 1033.62H498.703c-5.465 0-9.898 4.43-9.898 9.9 0 5.46 4.433 9.9 9.898 9.9h152.582c5.457 0 9.891-4.44 9.891-9.9 0-5.47-4.434-9.9-9.891-9.9" style="fill:#fae54a;fill-opacity:1;fill-rule:nonzero;stroke:none" transform="matrix(.08983 0 0 -.09342 -43.65 105.11)"/><path d="M536.797 999.57h76.391c18.8 0 34.042 15.24 34.042 34.05H502.75c0-18.81 15.242-34.05 34.047-34.05" style="fill:#fbc3ba;fill-opacity:1;fill-rule:nonzero;stroke:none" transform="matrix(.08983 0 0 -.09342 -43.65 105.11)"/><path d="M654.586 1060.04c7.363-13.18-11.465-26.42-23.508-17.66-.113.08-.234.17-.359.25-10.5 7.48-24.27 8.65-36.067 3.46-11.277-4.96-19.828-5.18-36.898.72-22.16 7.66-29.141-3.15-45.965-3.33-16.828-.18-19.082 9.41-16.398 16.56h159.195" style="fill:#b5dc1a;fill-opacity:1;fill-rule:nonzero;stroke:none" transform="matrix(.08983 0 0 -.09342 -43.65 105.11)"/><path d="M574.992 999.57h38.196c18.8 0 34.042 15.24 34.042 34.05h-72.238v-34.05" style="fill:#f9aa90;fill-opacity:1;fill-rule:nonzero;stroke:none" transform="matrix(.08983 0 0 -.09342 -43.65 105.11)"/><path d="M651.285 1053.42h-76.293v-19.8h76.293c5.457 0 9.891 4.43 9.891 9.9 0 5.46-4.434 9.9-9.891 9.9" style="fill:#fbc224;fill-opacity:1;fill-rule:nonzero;stroke:none" transform="matrix(.08983 0 0 -.09342 -43.65 105.11)"/><path d="M574.992 1060.04v-17.46c7.168-.7 12.934.55 19.66 3.51 11.797 5.19 25.567 4.02 36.067-3.46.125-.08.246-.17.359-.25 12.043-8.76 30.871 4.48 23.508 17.66h-79.594" style="fill:#90d123;fill-opacity:1;fill-rule:nonzero;stroke:none" transform="matrix(.08983 0 0 -.09342 -43.65 105.11)"/><path d="M602.445 1122.28h-27.453v-49.07h72.238v4.28c0 24.74-20.046 44.79-44.785 44.79" style="fill:#f9aa90;fill-opacity:1;fill-rule:nonzero;stroke:none" transform="matrix(.08983 0 0 -.09342 -43.65 105.11)"/><path d="M654.586 1073.21h-79.594v-13.17h79.594c3.641 0 6.59 2.94 6.59 6.59a6.58 6.58 0 0 1-6.59 6.58" style="fill:#f1501c;fill-opacity:1;fill-rule:nonzero;stroke:none" transform="matrix(.08983 0 0 -.09342 -43.65 105.11)"/><path d="M552.074 1114.94c-2.371 0-4.304-1.94-4.304-4.31 0-2.38 1.933-4.31 4.304-4.31a4.314 4.314 0 0 1 4.313 4.31 4.32 4.32 0 0 1-4.313 4.31" style="fill:#f9aa90;fill-opacity:1;fill-rule:nonzero;stroke:none" transform="matrix(.08983 0 0 -.09342 -43.65 105.11)"/><path d="M586.07 1090.92a4.318 4.318 0 0 1-4.308-4.31 4.312 4.312 0 0 1 8.625 0 4.32 4.32 0 0 1-4.317 4.31M623.336 1099.74a4.315 4.315 0 0 1-4.309-4.31c0-2.37 1.938-4.3 4.309-4.3 2.383 0 4.316 1.93 4.316 4.3 0 2.38-1.933 4.31-4.316 4.31" style="fill:#fbc3ba;fill-opacity:1;fill-rule:nonzero;stroke:none" transform="matrix(.08983 0 0 -.09342 -43.65 105.11)"/><path d="M535.852 1089.48a4.31 4.31 0 0 1-4.309-4.3c0-2.38 1.934-4.32 4.309-4.32s4.308 1.94 4.308 4.32a4.31 4.31 0 0 1-4.308 4.3" style="fill:#f9aa90;fill-opacity:1;fill-rule:nonzero;stroke:none" transform="matrix(.08983 0 0 -.09342 -43.65 105.11)"/><path d="M596.148 1116a4.306 4.306 0 0 1-4.304-4.3c0-2.38 1.929-4.32 4.304-4.32a4.323 4.323 0 0 1 4.317 4.32c0 2.37-1.934 4.3-4.317 4.3" style="fill:#fbc3ba;fill-opacity:1;fill-rule:nonzero;stroke:none" transform="matrix(.08983 0 0 -.09342 -43.65 105.11)"/><path d="M574.992 1062.91h-2.097a2.877 2.877 0 0 1-2.875-2.87c0-1.59 1.289-2.88 2.875-2.88h2.097a2.879 2.879 0 0 1 2.875 2.88c0 1.58-1.289 2.87-2.875 2.87" style="fill:#2d3d3e;fill-opacity:1;fill-rule:nonzero;stroke:none" transform="matrix(.08983 0 0 -.09342 -43.65 105.11)"/><path d="M613.18 1002.44h-76.383c-16.219 0-29.574 12.46-31.031 28.31h138.449c-1.457-15.85-14.805-28.31-31.035-28.31zm36.308 43.72c-4.199-3.71-11.277-5.42-16.718-1.46l-.383.27c-11.16 7.96-26.063 9.39-38.895 3.74-10.941-4.81-19.07-4.62-34.801.82-14.824 5.12-23.461 2.42-31.808-.2-4.789-1.5-9.305-2.91-15.125-2.97-6.606-.06-11.133 1.44-13.184 4.37-1.492 2.14-1.398 4.62-1.019 6.43h61.226a2.876 2.876 0 0 1 0 5.75h-63.39a3.717 3.717 0 0 0-3.715 3.72c0 2.04 1.668 3.71 3.715 3.71h159.195a3.722 3.722 0 0 0 3.719-3.71c0-2.06-1.668-3.72-3.719-3.72h-66.875a2.876 2.876 0 0 1 0-5.75h65.047c2.109-5.58-1.895-9.77-3.27-11zm9.59 7.45c.039 1.48-.156 2.96-.566 4.41 3.261 1.5 5.539 4.79 5.539 8.61 0 5.21-4.242 9.46-9.465 9.46H505.621v1.4c0 23.11 18.805 41.92 41.918 41.92h54.906c19.825 0 37.09-14.08 41.067-33.47.324-1.55 1.836-2.56 3.386-2.24a2.87 2.87 0 0 1 2.239 3.39c-4.512 22.05-24.153 38.06-46.692 38.06h-54.906c-26.281 0-47.664-21.38-47.664-47.66v-1.4h-4.484c-5.215 0-9.457-4.25-9.457-9.46 0-3.96 2.445-7.36 5.902-8.77-.688-3.83-.004-7.51 2.031-10.42 2.227-3.18 7.129-6.96 17.949-6.83 6.676.07 11.813 1.68 16.782 3.24 8.14 2.55 15.175 4.76 28.218.25 17.145-5.93 26.622-6.09 38.989-.64 10.988 4.83 23.722 3.61 33.3-3.21l.286-.2c3.23-2.35 6.843-3.35 10.379-3.35 5.089 0 10.039 2.07 13.527 5.16 1.75 1.55 3.105 3.31 4.062 5.18.614-1.05.946-2.25.946-3.52 0-3.88-3.153-7.03-7.02-7.03H498.703a7.034 7.034 0 0 0-7.027 7.03c0 1.58-1.285 2.87-2.871 2.87a2.873 2.873 0 0 1-2.871-2.87c0-7.04 5.726-12.77 12.769-12.77H500c1.469-19.03 17.406-34.055 36.797-34.055h76.383c19.394 0 35.332 15.025 36.804 34.055h1.301c7.039 0 12.766 5.73 12.766 12.77 0 4.02-1.836 7.69-4.973 10.09" style="fill:#2d3d3e;fill-opacity:1;fill-rule:nonzero;stroke:none" transform="matrix(.08983 0 0 -.09342 -43.65 105.11)"/><path d="M547.77 1110.63c0-2.38 1.933-4.31 4.304-4.31a4.314 4.314 0 0 1 4.313 4.31 4.32 4.32 0 0 1-4.313 4.31c-2.371 0-4.304-1.94-4.304-4.31M581.762 1086.61a4.312 4.312 0 0 1 8.625 0 4.32 4.32 0 0 1-4.317 4.31 4.318 4.318 0 0 1-4.308-4.31M619.027 1095.43c0-2.37 1.938-4.3 4.309-4.3 2.383 0 4.316 1.93 4.316 4.3a4.314 4.314 0 0 1-8.625 0M531.543 1085.18c0-2.38 1.934-4.32 4.309-4.32s4.308 1.94 4.308 4.32a4.31 4.31 0 0 1-4.308 4.3 4.31 4.31 0 0 1-4.309-4.3M591.844 1111.7c0-2.38 1.929-4.32 4.304-4.32a4.323 4.323 0 0 1 4.317 4.32c0 2.37-1.934 4.3-4.317 4.3a4.306 4.306 0 0 1-4.304-4.3" style="fill:#2d3d3e;fill-opacity:1;fill-rule:nonzero;stroke:none" transform="matrix(.08983 0 0 -.09342 -43.65 105.11)"/></svg>