<svg xmlns="http://www.w3.org/2000/svg" viewBox="0 0 14.55 15.943" height="60.255" width="54.993"><path d="M9.061 10.59l2.218 2.835-1.794 1.333-2.256.975-.434.094-.541-.314-.786-1.308-1.465-2.874-.642-1.884-.699-1.653-.564-1.67L1.15 4.39l-.125-.47 2.651-1.455.489 1.18.215-.278.05-.263.804.247-.016.817-.5 1.437.094.972.325 1.552.402.776 2.04 2.946.368-.22z" fill="#9dabd9"/><path d="M14.418 5.721l-.009 4.864s-1.42.683-1.704 1.147c-1.26 1.62-2.332 2.59-3.99 3.393-.462.179-1.486.608-1.486.608s-.633.346-1.125-.425c-.492-.77-1.756-3.141-2.051-3.88-.296-.74-.835-2.411-1.127-3.033-.291-.622-.333-.853-.548-1.485-.312-1.073-1.018-1.888-1.353-2.99C.75 3.367.354 2.64.197 2.262c0 0-.112-.335-.042-.454.07-.118.292-.104.399.051.056.082.72 1.278.72 1.278.126.248.399.206.17-.179C1.223 2.582.64 1.135.64 1.135S.564.923.652.81C.741.699.905.794.992.882c.352.354.88 1.88.961 1.934.179.117.207-.159-.072-.892L1.355.54S1.299.088 1.58.17c.28.083 1.043 2.376 1.102 2.45.06.074.229-.001.211-.156C2.876 2.31 2.42.628 2.42.628s-.125-.456.142-.494c.266-.039.451.698.506.828.055.13.55 1.46.608 1.503 0 0 .335.914.489 1.18.059.069.183-.175.2-.267.017-.093.121-.756.208-.949.092-.202.138-.3.28-.409.17-.131.481.058.399.277-.03.08-.097.784-.077 1.083.012.18.058.374-.013.8-.077.46-.553 1.288-.482 1.752.071.464.418 2.19.536 2.453.119.263 2.216 3.34 2.369 3.466.152.126 2.258-2.082 2.384-2.246.125-.165 1.623-2.503 1.806-2.675.184-.173 1.562-1.263 1.879-1.382.462-.178.77-.127.764.173z" fill="none" stroke="#000" stroke-width=".265"/></svg>