<svg xmlns="http://www.w3.org/2000/svg" viewBox="0 0 10.534 31.285" height="118.243" width="39.812"><g fill="none" stroke="#000" stroke-width=".265"><path d="M10.262 31.152l-2.277-.028s-1.403-2.607-2.75-3.125c0 0-.125-.368.07-1.03.197-.661.61-.255.63-2.264-.271-3.127-.756-5.566.63-7.884.348-.776-.024-1.547-.024-1.547l-.417-1.01-.16-.341s-.048.887-.255 1.28c-.207.393-.669 1.257-1.123 2.65-.455 1.391-1.019 2.578-1.092 2.948-.074.37-.795 3.721-.534 5.725.26 2.004.783 2.416 1.82 3.144.304.213-.048.59-.048.59l-1.974-.005C1.144 27.898.154 27.317.146 27.248c-.07-.629.105-1.038.59-1.614.306-.362.172-5.407.172-5.407s.026-2.49 1.232-4.19c.072-.102.56-2.287.588-4.229.021-1.567.17-2.41.17-2.41-.272-.717-.844-2.102-.812-3.166 0 0-.085-2.228 1.21-4.233.153-.236.076-.61.077-.845 0 0 2.49-2.107 4.885-.276.476.364.108 2.693.108 2.693l-.495 2.496s.848 2.6 1.341 4.768c.493 2.169.852 4.415.852 4.415l-.128 1.863c-.44 1.044-.87 2.106-1.175 3.378 0 0-.501 1.628-.45 2.774.052 1.145-.04 3.443-.04 3.443s.572 2.617 1.316 3.384c1.27.318.675 1.06.675 1.06z"/><path d="M2.086 6.232S2.76 8.086 4.038 9.84c.203.28 1.367 2.885 2.086 4.423M7.135 4.026l.736 2.04"/></g></svg>