<svg xmlns="http://www.w3.org/2000/svg" viewBox="0 0 10.601 31.33" height="118.414" width="40.067"><path d="M4.835 29.707l.194.285-.297.268-1.988-.078-.622-.911-.992-1.17-.953-.844-.072-.511.35-.732.36-.46.16-2.937L.92 19.66l.41-1.877.79-1.72 2.808.797-.536 1.545-.793 2.054-.48 2.533-.198 1.829-.011 1.377.258 1.448.443 1.054.755.7zM9.855 17.434l-.652 1.523-.732 2.8-.157 1.652.025 2.438-.068.861.778 2.586.538.798.778.482.134.355-.237.223-2.146.001-1.299-1.907-.906-.936-.66-.39-.105-.485.112-.412.52-.65.171-1.352-.268-3.18-.038-1.879.267-1.677.655-1.464z" fill="#9dabd9"/><g fill="none" stroke="#000" stroke-width=".265"><path d="M10.262 31.152c-.715 0-2.097.103-2.146.001-.212-.198-1.402-2.607-2.75-3.124-.327-.245-.226-.794-.06-1.06.365-.585.609-.255.63-2.264-.272-3.127-.757-5.566.63-7.884.347-.776-.025-1.547-.025-1.547l-.417-1.01-.16-.341s-.048.887-.255 1.28c-.207.393-.669 1.257-1.123 2.65-.455 1.391-1.019 2.578-1.092 2.948-.074.37-.795 3.721-.534 5.725.26 2.004.78 2.421 1.82 3.144.307.212.22.524-.048.59-.658-.002-1.858.058-1.988-.078-1.478-2.306-2.59-2.865-2.598-2.934-.07-.629.105-1.038.59-1.614.306-.362.172-5.407.172-5.407s.026-2.49 1.232-4.19c.072-.102.56-2.287.587-4.229.022-1.567.171-2.41.171-2.41-.272-.717-.844-2.102-.812-3.166 0 0-.085-2.228 1.21-4.233.153-.236.076-.61.077-.845 0 0 2.49-2.107 4.885-.276.476.364.108 2.693.108 2.693l-.495 2.496s.848 2.6 1.341 4.768c.493 2.169.852 4.415.852 4.415-.043.62.041 1.473-.128 1.863-.44 1.044-.87 2.106-1.175 3.378 0 0-.501 1.628-.45 2.774.052 1.145-.04 3.443-.04 3.443s.572 2.617 1.316 3.384c1.25.53.863 1.077.675 1.06z"/><path d="M2.086 6.232S2.76 8.086 4.038 9.84c.203.28 1.367 2.885 2.086 4.423M7.135 4.026l.736 2.041"/></g></svg>