<svg xmlns="http://www.w3.org/2000/svg" viewBox="0 0 16 16"><path d="M2.668 0C2.324 0 2 .338 2 .697v14.607c0 .338.344.697.668.697h10.664c.324 0 .668-.359.668-.697V4l-4-4z" style="fill:#dcdcdc;fill-opacity:1"/><path d="M4 8v1h8V8zM4 10v1h8v-1zM4 12v1h8v-1z" style="fill:#888"/><path d="m10.583 3.332.015.02.04-.02zm.03.668L14 7.664V4z" style="fill:#000;fill-opacity:.196"/><path d="m10 0 3.996 4h-3.384c-.299 0-.613-.317-.613-.616z" style="fill:#fff;fill-opacity:.392"/><path d="M4 6v1h8V6z" style="fill:#888"/></svg>