<svg width="579.207" height="609.084" viewBox="0 0 153.248 161.153" xmlns="http://www.w3.org/2000/svg"><defs><marker id="a" refX="0" refY="0" orient="auto" overflow="visible"><path transform="matrix(-1.1 0 0 -1.1 -1.1 0)" d="M8.719 4.034L-2.207.016 8.719-4.002c-1.746 2.372-1.736 5.618 0 8.036z" fill="context-stroke" fill-rule="evenodd" stroke-width=".625" stroke-linejoin="round"/></marker><marker id="b" refX="0" refY="0" orient="auto" overflow="visible"><path transform="matrix(-1.1 0 0 -1.1 -1.1 0)" d="M8.719 4.034L-2.207.016 8.719-4.002c-1.746 2.372-1.736 5.618 0 8.036z" fill="context-stroke" fill-rule="evenodd" stroke-width=".625" stroke-linejoin="round"/></marker><marker id="c" refX="0" refY="0" orient="auto" overflow="visible"><path transform="matrix(-1.1 0 0 -1.1 -1.1 0)" d="M8.719 4.034L-2.207.016 8.719-4.002c-1.746 2.372-1.736 5.618 0 8.036z" fill="context-stroke" fill-rule="evenodd" stroke-width=".625" stroke-linejoin="round"/></marker><marker id="d" refX="0" refY="0" orient="auto" overflow="visible"><path transform="matrix(-1.1 0 0 -1.1 -1.1 0)" d="M8.719 4.034L-2.207.016 8.719-4.002c-1.746 2.372-1.736 5.618 0 8.036z" fill="context-stroke" fill-rule="evenodd" stroke-width=".625" stroke-linejoin="round"/></marker></defs><g transform="translate(-27.087 -45.273)"><g fill="#ececec"><path d="M131.117 197.085c8.03 10.477 22.927 1.412 23.126-6.76m-7.105-74.505c19.989 15.14 27.57 48.416 27.57 48.416m-23.525 18.892c5.787 18.044 18.079 20.39 24.283 15.031 3.058-2.515 4.99-7.341 4.71-18.038-.215-8.22.053-15.792-5.468-15.885 0 0-20.083 6.516-25.03 10.89-5.35 5.822 1.505 8.002 1.505 8.002zm-19.39-36.682c16.785 51.313-4.016 58.967-26.418 55.26-30.407-5.774-16.444-44.858-19.856-72.33-1.739-10.262-.377-17.89 10.518-17.89 10.17-.534 27.266 3.106 48.246-11.676 11.533-8.125 19.258-23.316 20.3-13.674 1.781 9.129-10.474 27.913-12.874 33.414"/><path d="M150.351 120.847l24.357 43.39-20.465 26.088-23.126 6.76.676-50.64z"/></g><g stroke="#000" stroke-width=".265"><path d="M164.583 86.136c1.781 9.129-10.474 27.913-12.874 33.414" fill="none"/><path d="M85.52 129.376c.79 6.495.639 13.058.376 19.581-.31 7.688-.924 15.38-.643 23.076.175 4.816.666 9.675 2.159 14.279 1.148 3.542 3.016 6.896 5.706 9.505 2.722 2.64 6.228 4.336 9.861 5.34 2.23.617 4.53.917 6.827 1.127 4.359.4 8.82.33 13.071-.805 3.266-.872 6.364-2.497 8.775-4.893 2.506-2.49 4.146-5.741 5.065-9.129 1.24-4.57 1.376-9.368 1.018-14.064-.531-6.983-2.061-13.852-3.984-20.572a177.904 177.904 0 00-1.958-6.375" fill="none" stroke-linecap="round" paint-order="markers fill stroke"/><path d="M151.183 183.128c5.787 18.044 18.079 20.39 24.283 15.031 3.058-2.515 4.99-7.341 4.71-18.038-.215-8.22.053-15.792-5.468-15.885 0 0-20.083 6.516-25.03 10.89-5.35 5.822 1.505 8.002 1.505 8.002z" fill="#d3d3d3"/><path d="M147.138 115.82c19.989 15.14 27.57 48.416 27.57 48.416m-43.591 32.849c8.03 10.477 22.927 1.412 23.126-6.76" fill="none"/></g><ellipse cx="33.408" cy="126.197" rx="11.476" ry="13.543" transform="matrix(.8725 -.48862 .42275 .90625 0 0)" fill="#cfcfcf" stroke="#000" stroke-width=".27" stroke-linecap="round" paint-order="markers fill stroke"/><ellipse cx="27.747" cy="125.481" rx="11.476" ry="13.543" transform="matrix(.8725 -.48862 .42275 .90625 0 0)" fill="#cfcfcf" stroke="#000" stroke-width=".27" stroke-linecap="round" paint-order="markers fill stroke"/><path d="M83.109 112.511l3.415-1.327c-5.318-1.589-4.583-10.658-4.72-12.537 2.925-2.541 5.81-6.083 8.546-9.668-.349-.418-1.459-1.454-1.688-1.609-11.39 17.805-7.2 2.348-8.457-2.744-.397.055-2.293.419-2.675.845 2.143 2.968-1.043 21.947 5.579 27.04z" fill="#fff" stroke="#000" stroke-width=".265" stroke-dasharray="2.11999983,1.05999991"/><path d="M92.232 55.079c-7.196-11.979-22.73-10.982-26.67-6.838-3.837 4.038-3.583 8.865-1.393 16.107 3.812 10.425 9.444 12.417 13.442 21.127.218-.358 2.224-.813 2.594-.849-5.007-14.39 6.27-29.09 1.623-29.445-10.545-.806-12.292 6.835-7.084 21.205-14.033-18.738-10.588-27.97-2.272-28.962 9.669-1.153 14.733 4.67 17.606 8.106.597-.224 1.553-.398 2.154-.451z" fill="#fff" stroke="#000" stroke-width=".265"/><path d="M128.274 62.727s-7.974-8.866-10.008-9.835c-10.635-5.855-14.445.412-16.578 6.464-.16.838-2.496 6.888-2.755 7.774-.26.887-2.12 6.738-2.493 7.664-.373.927-.889 4.235-1.091 5.021-.758 3.674-2.616 5.942-4.999 9.164-.087-.159-1.297-1.306-1.645-1.563 5.156-6.087 1.087-14.4 1.087-14.4S84.22 63.5 86.027 59.898c1.814-3.612 3.966-4.622 5.918-4.763 4.695-.485 3.444 8.957 2.598 12.571-.653 1.92-.427 3.222-.761 5.796-.77 5.577.876 4.415 1.385-.292.152-.858 2.743-8.11 4.262-13.265 3.748-12.299 14.28-16.64 27.409-1.867.615.741 1.081 1.938 1.436 4.649" fill="#fff" stroke="#000" stroke-width=".265"/><path d="M95.325 61.523c.127.98-.425 4.489-.425 4.489l1.265 3.993 1.101-3.261zm7.978 50.255c-.763-26.528-3.063-35.362-5.113-42.358l-1.082 3.485c2.868 10.219 3.832 29.37 3.845 38.901z" fill="#fff" stroke="#000" stroke-width=".265"/><ellipse cx="114.557" cy="167.026" rx="13.019" ry="15.932" fill="#979797" stroke="#000" stroke-width=".305" stroke-linecap="round" paint-order="markers fill stroke"/><ellipse cx="117.297" cy="174.621" rx="14.928" ry="19.604" fill="#ccc" stroke="#000" stroke-width=".28" stroke-linecap="round" paint-order="markers fill stroke"/><path d="M113.782 114.194c-1.454 12.189 1.264 23.17 8.22 25.784 13.83 5.197 26.89 27.688 27.675 35.148m26.571 1.678c-3.622-2.92 11.548-13.748-20.754 3.329m-12.05-23.932c1.489-10.075 12.264-16 14.68-14.002m-18.562 7.537c3.715-9.898 8.441-13.817 13.61-12.87" fill="none" stroke="#000" stroke-width=".265"/><path d="M86.356 111.108c.53.16 1.72 1.26 14.11.744 32.73-1.364 38.64 7.05 48.241 20.1 16.452 22.363 23.402 49.811 24.167 67.891-1.004.402-1.476.593-2.406.438-1.172-10.67-1.73-48.81-34.592-79.546-6.581-6.155-18.297-6.924-28.047-6.457-25.538 1.222-23.212-.291-24.72-1.767.954-.598 2.524-1.28 3.247-1.403z" fill="#fff" stroke="#000" stroke-width=".265"/><path d="M105.476 186.58c-20.708-2.902-3.445-52-4.754-71.99l2.555-.09c1.904 21.71-11.516 54.697-.714 63.127-.044 2.302 1.344 5.976 2.913 8.953z" fill="#fff" stroke="#000" stroke-width=".265"/><text style="line-height:1.25" x="50.892" y="206.309" font-weight="400" font-size="7.761" font-family="sans-serif" stroke-width=".265"><tspan style="-inkscape-font-specification:Tahoma" x="50.892" y="206.309" font-family="Tahoma">Scrotum</tspan></text><text style="line-height:1.25" x="40.775" y="171.81" font-weight="400" font-size="7.761" font-family="sans-serif" stroke-width=".265"><tspan style="-inkscape-font-specification:Tahoma" x="40.775" y="171.81" font-family="Tahoma">Testicle</tspan></text><text style="line-height:1;text-align:end" x="73.388" y="123.974" font-weight="400" font-size="7.761" font-family="sans-serif" text-anchor="end" stroke-width=".265"><tspan style="-inkscape-font-specification:Tahoma;text-align:end" x="73.388" y="123.974" font-family="Tahoma">Vas deferens</tspan><tspan style="-inkscape-font-specification:Tahoma;text-align:end" x="73.388" y="131.949" font-family="Tahoma">Cut here:</tspan></text><text style="line-height:1.25" x="26.515" y="96.91" font-weight="400" font-size="7.761" font-family="sans-serif" stroke-width=".265"><tspan style="-inkscape-font-specification:Tahoma" x="26.515" y="96.91" font-family="Tahoma">Prostate</tspan></text><path d="M100.166 126.125l-.69 5.24 3.081.335.578-5.522z" fill="#2e1d1d" stroke="#000" stroke-width=".265"/><path d="M75.67 125.716c.468.107 23.373 2.735 23.373 2.735" fill="none" stroke="#000" stroke-width=".5" marker-end="url(#a)"/><path d="M68.597 170.238l43.82 5.355" fill="none" stroke="#000" stroke-width=".5" marker-end="url(#b)"/><path d="M81.056 204.82l16.432-5.86" fill="none" stroke="#000" stroke-width=".5" marker-end="url(#c)"/><path d="M56.676 96.436c.468.107 14.19 3.99 14.19 3.99" fill="none" stroke="#000" stroke-width=".5" marker-end="url(#d)"/></g></svg>