<?xml version="1.0" encoding="UTF-8" standalone="no"?>
<!-- Created with Inkscape (http://www.inkscape.org/) -->

<svg
   version="1.1"
   id="svg2"
   xml:space="preserve"
   width="16"
   height="16"
   viewBox="0 0 16 15.999999"
   sodipodi:docname="ball.svg"
   inkscape:version="1.1 (c4e8f9ed74, 2021-05-24)"
   xmlns:inkscape="http://www.inkscape.org/namespaces/inkscape"
   xmlns:sodipodi="http://sodipodi.sourceforge.net/DTD/sodipodi-0.dtd"
   xmlns="http://www.w3.org/2000/svg"
   xmlns:svg="http://www.w3.org/2000/svg"><defs
     id="defs6" /><sodipodi:namedview
     id="namedview4"
     pagecolor="#ffffff"
     bordercolor="#666666"
     borderopacity="1.0"
     inkscape:pageshadow="2"
     inkscape:pageopacity="0.0"
     inkscape:pagecheckerboard="0"
     showgrid="false"
     fit-margin-top="0"
     fit-margin-left="0"
     fit-margin-right="0"
     fit-margin-bottom="0"
     inkscape:zoom="28.919222"
     inkscape:cx="0.17289538"
     inkscape:cy="6.7947885"
     inkscape:window-width="1920"
     inkscape:window-height="1023"
     inkscape:window-x="0"
     inkscape:window-y="0"
     inkscape:window-maximized="1"
     inkscape:current-layer="g10" /><g
     id="g8"
     inkscape:groupmode="layer"
     inkscape:label="ink_ext_XXXXXX"
     transform="matrix(1.3333333,0,0,-1.3333333,-9.7233331e-7,1306.6667)"><g
       id="g10"
       transform="scale(0.1)"><g
         id="g368"
         transform="matrix(0.04342037,0,0,0.04342021,-176.29755,9458.7941)"><path
           d="M 6334.43,5094.55 H 4549.75 c -269.23,0 -489.5,220.28 -489.5,489.51 v 1784.68 c 0,269.22 220.27,489.5 489.5,489.5 h 1784.68 c 269.22,0 489.5,-220.28 489.5,-489.5 V 5584.06 c 0,-269.23 -220.28,-489.51 -489.5,-489.51"
           style="fill:#4fb997;fill-opacity:1;fill-rule:nonzero;stroke:none"
           id="path12" /><path
           d="m 4600.71,6930.43 c 259.33,464.68 846.26,631.15 1310.94,371.81 464.68,-259.33 631.15,-846.26 371.82,-1310.94 -259.34,-464.68 -846.27,-631.15 -1310.95,-371.82 -464.68,259.34 -631.15,846.27 -371.81,1310.95"
           style="fill:#f2f4f4;fill-opacity:1;fill-rule:nonzero;stroke:none"
           id="path14" /><path
           d="m 5881.17,6172.58 c -63.3,-48.11 -239.76,-117.44 -326.68,-148.94 l -281.43,228.42 59.74,388.92 337.19,120.39 c 145.46,-92.39 241.4,-183.99 274.4,-217.43 z m -434.35,-462.32 -286.41,-43.04 c -42.37,24.3 -197.66,117.21 -312.44,235.79 l 59.93,241.98 312.23,49.72 283.56,-230.15 z m -398.23,1431.08 c 101.58,77.01 291.27,115.59 342.25,124.86 l 262.56,-146.53 -16.13,-287.29 -335.89,-119.93 -287.89,160.67 z m 1278.92,-1060.7 -17.77,34.64 -215.02,-110.28 -136.14,158.29 63.64,373.83 c 65.31,60.19 147.71,133.5 185.47,166.97 l 144.18,-80.47 29.36,52.61 c -1.79,7.81 -3.67,15.59 -5.66,23.35 l -139.7,77.96 c -27.14,85.79 -130.5,254.21 -170.12,317.15 l 43.26,61.89 c -9.44,9.04 -19.13,17.88 -29,26.58 l -31.85,22.27 -43.91,-62.81 c -121.92,40.88 -260.49,39.89 -301.25,38.55 l -267.93,149.53 -6.92,93.74 c -37.53,-0.58 -74.92,-3.34 -111.97,-8.25 l -438.74,-197.52 -26.44,3.43 c -14.03,-10.89 -27.78,-22.22 -41.26,-33.93 l -5.01,-38.59 163.61,-21.25 -33.99,-259.75 -253.71,-294.37 -176.15,71.46 -14.62,-36.04 c -2.08,-13.28 -3.86,-26.58 -5.37,-39.89 l 179.62,-72.87 170.81,-322.56 -60.19,-243.04 -111.69,2.27 -0.79,-38.89 c 9.74,-13.43 19.83,-26.64 30.3,-39.6 l 21.32,-0.43 374.32,-290.03 c 28.24,-11.19 56.77,-20.99 85.5,-29.35 l 11.85,57.01 290.41,43.64 c 90.36,-28.04 190.33,-33.99 258.36,-33.99 46.65,0 78.27,2.77 81.41,3.06 7.37,0.67 14.39,3.43 20.24,7.94 182.37,140.62 257.92,272.76 278.84,314.88 l 185.46,95.12 c 9.75,19.08 18.87,38.32 27.24,57.74"
           style="fill:#31475a;fill-opacity:1;fill-rule:nonzero;stroke:none"
           id="path16" /><path
           d="m 5443.46,7383.99 c -84.54,0 -169.58,-11.73 -253.14,-35.43 -237.11,-67.26 -433.84,-222.82 -553.95,-438.03 -247.95,-444.28 -88.23,-1007.44 356.05,-1255.39 141.92,-79.21 296.07,-116.81 448.11,-116.82 323.9,-0.03 638.54,170.53 807.27,472.88 247.95,444.27 88.22,1007.44 -356.04,1255.39 -139.38,77.78 -292.96,117.4 -448.3,117.4 z m -3.07,-1927.33 c -165.53,0 -333.26,40.93 -487.77,127.17 -483.6,269.89 -657.46,882.9 -387.57,1366.5 269.89,483.6 882.92,657.45 1366.5,387.57 483.6,-269.89 657.47,-882.9 387.57,-1366.5 -183.65,-329.08 -526.2,-514.74 -878.73,-514.74"
           style="fill:#31475a;fill-opacity:1;fill-rule:nonzero;stroke:none"
           id="path18" /></g></g></g></svg>
