<?xml version="1.0" encoding="UTF-8" standalone="no"?>
<!-- Created with Inkscape (http://www.inkscape.org/) -->

<svg
   width="15.999999"
   height="15.999999"
   viewBox="0 0 4.2333329 4.233333"
   version="1.1"
   id="svg5"
   inkscape:version="1.1 (c4e8f9ed74, 2021-05-24)"
   sodipodi:docname="favicon.svg"
   xmlns:inkscape="http://www.inkscape.org/namespaces/inkscape"
   xmlns:sodipodi="http://sodipodi.sourceforge.net/DTD/sodipodi-0.dtd"
   xmlns="http://www.w3.org/2000/svg"
   xmlns:svg="http://www.w3.org/2000/svg">
  <sodipodi:namedview
     id="namedview7"
     pagecolor="#ffffff"
     bordercolor="#666666"
     borderopacity="1.0"
     inkscape:pageshadow="2"
     inkscape:pageopacity="0.0"
     inkscape:pagecheckerboard="0"
     inkscape:document-units="mm"
     showgrid="false"
     units="px"
     inkscape:zoom="23.803591"
     inkscape:cx="8.5491303"
     inkscape:cy="6.7426801"
     inkscape:window-width="1457"
     inkscape:window-height="1047"
     inkscape:window-x="219"
     inkscape:window-y="495"
     inkscape:window-maximized="0"
     inkscape:current-layer="g830" />
  <defs
     id="defs2" />
  <g
     inkscape:label="Layer 1"
     inkscape:groupmode="layer"
     id="layer1">
    <circle
       style="fill:#b11816;fill-opacity:1;stroke-width:0.0428143"
       id="path6482-3"
       cx="2.1166666"
       cy="2.1166666"
       r="2.1166666" />
    <circle
       style="fill:#b78d61;stroke-width:0.0374625"
       id="path6482"
       cx="2.1166666"
       cy="2.1166666"
       r="1.8520833" />
    <g
       aria-label="SBx"
       id="text2168"
       style="font-size:1.86876px;line-height:1.25;stroke-width:0.0467191">
      <g
         id="g830"
         transform="matrix(1.1849376,0,0,1.1849376,-0.39221019,-0.37073918)">
        <g
           id="g1036"
           style="fill:none;fill-opacity:1;stroke:#694300;stroke-opacity:1;stroke-width:0.29959383;stroke-miterlimit:4;stroke-dasharray:none;stroke-linecap:round">
          <path
             style="fill:none;stroke:#694300;stroke-width:0.29959383;stroke-linecap:round;stroke-linejoin:miter;stroke-opacity:1;fill-opacity:1;stroke-miterlimit:4;stroke-dasharray:none"
             d="m 2.9718502,3.0267668 c 0,-0.1698083 0.042362,-0.3932387 -0.1130196,-0.505723 -0.021652,-0.015674 -0.1656777,0.06453 -0.1808327,0.06708 C 2.4465015,2.6270353 2.2323597,2.4154285 2.1873147,2.2023979 2.128438,2.1922335 2.0887096,2.1700695 2.0312533,2.1892216 c -0.030566,0.010189 -0.07508,0.025428 -0.1035132,0.037706 -0.011903,0.00514 -0.012085,0.016805 -0.018646,0.026647 -0.061636,0.092454 -0.05921,0.2200011 -0.019148,0.3209089 0.015901,0.04005 0.046643,0.074698 0.065834,0.1130797 0.015365,0.030729 0.012613,0.062378 0.018933,0.093977 0.00428,0.0214 0.02405,0.053039 0.00938,0.075044 -0.023246,0.034869 -0.062413,0.051559 -0.093569,0.074926 -0.057994,0.043496 -0.3092276,0.027913 -0.3943593,0.027913 -0.018874,0 -0.039098,-0.00701 -0.056622,0 -0.020604,0.00824 -0.037522,0.047636 -0.037522,0.068233"
             id="path945" />
          <path
             style="fill:none;stroke:#694300;stroke-width:0.29959383;stroke-linecap:round;stroke-linejoin:miter;stroke-opacity:1;fill-opacity:1;stroke-miterlimit:4;stroke-dasharray:none"
             d="m 2.1804132,1.0009488 c 0,0.061186 -0.01333,0.058449 -0.028025,0.1027202 -3e-7,10e-7 3e-7,0.018528 0,0.018528 -0.00218,0.00218 -0.00708,-0.00219 -0.00926,0 -0.027739,0.027911 -0.1124601,0.1282594 -0.1125656,0.1688484 -8.3e-5,0.031663 0.051042,0.057436 0.065541,0.093683 0.00871,0.021771 0.024281,0.051861 0.028141,0.075044 0.00765,0.045886 0.00784,0.1778432 0,0.2251312 -0.00196,0.011849 -0.021395,0.055804 -0.027915,0.065754 -0.00331,0.00504 -0.056617,0.030902 -0.065437,0.037522 -0.040871,0.030653 -0.08569,0.081632 -0.1125656,0.1219461 -0.058469,0.087704 0.064662,0.2510296 0.1410494,0.2815852 0.037981,0.015187 0.087507,0.00658 0.1279383,0.010687 0.039135,-0.0866 0.1272264,-0.1143344 0.1844953,-0.1848903 0.038369,-0.047272 0.044463,-0.1085009 0.075044,-0.159468 0.014704,-0.024507 0.038146,-0.0439 0.056283,-0.065663 0.00651,-0.00781 0.023178,-0.041165 0.037522,-0.046902 0.051006,-0.020403 0.1241886,-0.030767 0.1782289,-0.037522 0.063354,-0.00792 0.1241466,0.00649 0.1876093,-0.00938 0.042954,-0.010739 0.1313573,-0.093312 0.1506578,-0.1319137 0.00404,-0.00808 0.042038,-0.1281411 0.042038,-0.076669"
             id="path949" />
          <path
             style="fill:none;stroke:#694300;stroke-width:0.29959383;stroke-linecap:round;stroke-linejoin:miter;stroke-opacity:1;fill-opacity:1;stroke-miterlimit:4;stroke-dasharray:none"
             d="m 2.1873147,2.2023979 c -0.081748,-0.030006 -0.2160208,-0.053 -0.2695591,-0.1388216 -0.051942,-0.083263 -0.00341,-0.030656 -0.056685,-0.094663 -0.012922,-0.015525 -0.049873,-0.036656 -0.056507,-0.056388 -0.00702,-0.020873 -0.012423,-0.043482 -0.037522,-0.056044 -0.01607,-0.00804 -0.1197886,-0.028771 -0.1287856,-0.018761 -0.025037,0.027857 -0.059324,0.075141 -0.073615,0.1107793 -0.00528,0.013174 -0.014814,0.057296 -0.027934,0.0651 -0.011488,0.00683 -0.026709,-0.0041 -0.038988,-0.00938 -0.038425,-0.016533 -0.084652,-0.03775 -0.1145815,-0.067679 -0.015555,-0.015555 -0.025369,-0.045448 -0.046902,-0.056283 -0.016225,-0.00816 -0.033864,-0.020333 -0.046668,-0.037404 -0.028983,-0.038644 -0.026516,-0.090671 -0.046902,-0.1316993 -3.833e-4,-7.715e-4 -0.069587,-0.038737 -0.087096,-0.04552 -0.079465,-0.030788 -0.1148676,0.067294 -0.1591811,0.1116078 -0.0268018,0.026802 -0.14445133,0.00938 -0.17612224,0.00938"
             id="path951" />
        </g>
      </g>
    </g>
  </g>
</svg>
