<?xml version="1.0" encoding="UTF-8" standalone="no"?>
<!-- Created with Inkscape (http://www.inkscape.org/) -->

<svg
   width="15.999997"
   height="16"
   viewBox="0 0 4.2333326 4.2333333"
   version="1.1"
   id="svg5"
   inkscape:version="1.1 (c4e8f9ed74, 2021-05-24)"
   sodipodi:docname="drawing.svg"
   xmlns:inkscape="http://www.inkscape.org/namespaces/inkscape"
   xmlns:sodipodi="http://sodipodi.sourceforge.net/DTD/sodipodi-0.dtd"
   xmlns="http://www.w3.org/2000/svg"
   xmlns:svg="http://www.w3.org/2000/svg">
  <sodipodi:namedview
     id="namedview7"
     pagecolor="#ffffff"
     bordercolor="#666666"
     borderopacity="1.0"
     inkscape:pageshadow="2"
     inkscape:pageopacity="0.0"
     inkscape:pagecheckerboard="0"
     inkscape:document-units="mm"
     showgrid="false"
     units="px"
     inkscape:zoom="23.974635"
     inkscape:cx="1.7935622"
     inkscape:cy="6.2774678"
     inkscape:window-width="1920"
     inkscape:window-height="1029"
     inkscape:window-x="0"
     inkscape:window-y="0"
     inkscape:window-maximized="1"
     inkscape:current-layer="layer1" />
  <defs
     id="defs2" />
  <g
     inkscape:label="Layer 1"
     inkscape:groupmode="layer"
     id="layer1">
    <g
       id="g7990"
       transform="matrix(0.03881083,0,0,0.03949506,-1.7133539,-3.2738217)">
      <g
         id="g1241"
         style="fill:#e4dd3e;fill-opacity:1">
        <path
           style="fill:#e4dd3e;fill-opacity:1;stroke-width:0.264583"
           d="m 59.52698,126.21189 c -3.107173,-1.80186 -1.901706,-6.31093 1.687183,-6.31093 1.178654,0 1.427217,0.10886 2.345569,1.02721 0.880208,0.88021 1.027065,1.19258 1.026216,2.18281 -0.0013,1.47703 -0.793427,2.79213 -1.980681,3.2882 -1.232275,0.51487 -1.941921,0.4717 -3.078287,-0.18729 z"
           id="path1204" />
        <path
           style="fill:#e4dd3e;fill-opacity:1;stroke-width:0.264583"
           d="m 64.698115,134.67938 c -1.370864,-0.66519 -1.833479,-2.87537 -0.916593,-4.37911 0.754393,-1.23724 2.257983,-1.64161 3.623842,-0.97459 1.429178,0.69794 2.127067,2.15032 1.706988,3.55242 -0.175326,0.58519 -0.629766,1.2502 -1.067168,1.56166 -0.819962,0.58386 -2.403938,0.69726 -3.347069,0.23962 z"
           id="path1202" />
        <path
           style="fill:#e4dd3e;fill-opacity:1;stroke-width:0.264583"
           d="m 70.679085,141.33894 c -1.185116,-1.18511 -0.973447,-2.95155 0.453549,-3.78496 2.415804,-1.41091 4.727678,2.04351 2.526432,3.77501 -0.872882,0.68661 -2.298565,0.69137 -2.979981,0.01 z"
           id="path1200" />
        <path
           style="fill:#e4dd3e;fill-opacity:1;stroke-width:0.264583"
           d="m 48.611211,144.24313 c -2.613843,-0.81557 -3.2588,-4.31726 -1.098641,-5.9649 2.275487,-1.7356 5.520895,-0.19186 5.520895,2.62612 0,2.40756 -2.165896,4.04281 -4.422254,3.33878 z"
           id="path1198" />
        <path
           style="fill:#e4dd3e;fill-opacity:1;stroke-width:0.264583"
           d="m 76.613454,146.5036 c -0.357188,-0.35717 -0.649433,-0.89837 -0.649433,-1.20264 0,-0.71384 1.138237,-1.85208 1.852083,-1.85208 0.713846,0 1.852083,1.13824 1.852083,1.85208 0,0.71385 -1.138237,1.85209 -1.852083,1.85209 -0.304271,0 -0.845463,-0.29225 -1.20265,-0.64944 z"
           id="path1196" />
        <path
           style="fill:#e4dd3e;fill-opacity:1;stroke-width:0.264583"
           d="m 57.284437,146.518 c -0.69441,-0.69441 -0.899583,-1.11983 -0.899583,-1.86523 0,-1.38531 0.670411,-2.50233 1.780136,-2.966 1.241085,-0.51856 2.436252,-0.28054 3.342827,0.66572 1.954395,2.03995 0.545978,5.06509 -2.358157,5.06509 -0.7454,0 -1.170813,-0.20517 -1.865223,-0.89958 z"
           id="path1194" />
        <path
           style="fill:#e4dd3e;fill-opacity:1;stroke-width:0.264583"
           d="m 82.569108,150.31025 c -0.227684,-0.42543 -0.199014,-0.68989 0.129082,-1.19062 0.512403,-0.78203 1.221693,-0.82516 1.865763,-0.11348 0.3965,0.43813 0.42759,0.64497 0.17897,1.19063 -0.39122,0.85864 -1.737403,0.92891 -2.173815,0.11347 z"
           id="path1192" />
        <path
           style="fill:#e4dd3e;fill-opacity:1;stroke-width:0.264583"
           d="m 66.386041,150.05114 c -0.696426,-0.69643 -0.784816,-0.93927 -0.650037,-1.78594 0.191836,-1.20513 1.226222,-2.17054 2.325624,-2.17054 1.102257,0 2.346143,1.2625 2.346143,2.38125 0,0.56952 -0.245555,1.08001 -0.773399,1.60785 -1.052168,1.05218 -2.174811,1.0409 -3.248331,-0.0326 z"
           id="path1190" />
        <path
           style="fill:#e4dd3e;fill-opacity:1;stroke-width:0.264583"
           d="m 73.75607,154.07747 c -0.581202,-0.64222 -0.556916,-1.97224 0.04597,-2.51784 1.13596,-1.02803 2.95573,-0.20254 2.95573,1.34078 0,1.39675 -2.068746,2.20797 -3.0017,1.17706 z"
           id="path1188" />
        <path
           style="fill:#e4dd3e;fill-opacity:1;stroke-width:0.264583"
           d="m 79.932771,156.678 c -0.291042,-0.29105 -0.529167,-0.62174 -0.529167,-0.73488 0,-0.42199 0.837441,-1.38179 1.205627,-1.38179 0.434581,0 1.440206,0.92373 1.440206,1.32292 0,0.14552 -0.238125,0.5027 -0.529166,0.79375 -0.291042,0.29104 -0.648229,0.52916 -0.79375,0.52916 -0.145521,0 -0.502709,-0.23812 -0.79375,-0.52916 z"
           id="path1186" />
        <path
           style="fill:#e4dd3e;fill-opacity:1;stroke-width:0.264583"
           d="m 56.982411,162.04105 c -0.776475,-0.14088 -2.125475,-1.50275 -2.235115,-2.25644 -0.16791,-1.15425 0.122862,-2.08038 0.895855,-2.85337 0.648951,-0.64896 0.998502,-0.78241 2.049291,-0.78241 1.550287,0 2.532982,0.68418 2.901935,2.02042 0.624269,2.26092 -1.274203,4.29596 -3.611966,3.8718 z"
           id="path1184" />
        <path
           style="fill:#e4dd3e;fill-opacity:1;stroke-width:0.264583"
           d="m 65.475144,162.23647 c -2.22498,-0.89789 -1.57756,-4.50014 0.808794,-4.50014 2.543191,0 3.370712,3.42603 1.060654,4.39123 -1.005663,0.42019 -1.086438,0.4249 -1.869448,0.10891 z"
           id="path1182" />
        <path
           style="fill:#e4dd3e;fill-opacity:1;stroke-width:0.264583"
           d="m 72.692411,162.21507 c -0.852938,-0.67092 -0.929318,-1.86528 -0.167974,-2.62663 1.090092,-1.09009 2.910417,-0.27468 2.910417,1.30372 0,0.77579 -1.006803,1.87128 -1.719792,1.87128 -0.179033,0 -0.639225,-0.24676 -1.022651,-0.54837 z"
           id="path1180" />
        <path
           style="fill:#e4dd3e;fill-opacity:1;stroke-width:0.264583"
           d="m 45.882042,163.58433 c -1.749296,-1.09867 -2.242383,-3.13638 -1.176333,-4.86129 1.386276,-2.24304 4.812227,-1.97735 5.970253,0.46301 0.615459,1.29699 0.370502,2.55369 -0.732334,3.75709 -1.096886,1.19691 -2.75898,1.4593 -4.061586,0.64119 z"
           id="path1178" />
        <path
           style="fill:#e4dd3e;fill-opacity:1;stroke-width:0.264583"
           d="m 79.456521,164.03344 c -0.742157,-0.74215 -0.183021,-2.06375 0.873125,-2.06375 1.1142,0 1.574003,1.16633 0.77485,1.96548 -0.495173,0.49517 -1.208537,0.53771 -1.647975,0.0983 z"
           id="path1176" />
      </g>
      <g
         id="g7230"
         style="fill:#007777;fill-opacity:1">
        <path
           style="fill:#007777;fill-opacity:1;stroke-width:0.264583"
           d="m 119.22339,176.62819 c -1.53943,-0.22619 -3.18613,-0.65243 -4.16718,-1.07864 -1.17404,-0.51006 -1.22611,-0.87245 -0.46686,-3.24912 1.69665,-5.31096 1.28238,-10.31892 -1.25558,-15.17824 -0.51844,-0.99264 -1.45919,-2.37935 -2.09056,-3.08159 -0.63137,-0.70223 -1.14794,-1.45214 -1.14794,-1.66646 0,-0.3161 12.13948,-41.13701 15.11215,-50.81701 0.60934,-1.984186 0.89054,-2.565886 1.18566,-2.452646 0.21278,0.0816 6.03876,3.795006 12.94662,8.251916 9.4504,6.09733 12.55974,8.23018 12.55974,8.61538 0,0.44259 -4.04897,13.9796 -12.61064,42.16145 -1.23787,4.07459 -2.59643,8.13685 -3.01903,9.02725 -1.86892,3.93767 -4.85782,7.23614 -7.80801,8.61671 -1.46324,0.68473 -1.95058,0.76829 -5.03238,0.86289 -1.87673,0.0576 -3.76942,0.0523 -4.20599,-0.0119 z"
           id="path836" />
        <path
           style="fill:#007777;fill-opacity:1;stroke-width:0.264583"
           d="m 143.82633,107.83128 c -14.61798,-9.431106 -14.41648,-9.291896 -14.41648,-9.959596 0,-1.30216 0.54952,-1.6217 2.71304,-1.57757 3.58042,0.073 9.21613,1.61552 16.32539,4.468236 3.63747,1.4596 4.77407,2.18401 4.77407,3.04275 0,0.38118 -2.76661,7.83817 -2.99145,8.06301 -0.0318,0.0318 -2.91389,-1.78474 -6.40457,-4.03683 z"
           id="path1206" />
        <path
           style="fill:#007777;fill-opacity:1;stroke-width:0.264583"
           d="m 107.05256,173.31198 c -2.18281,-0.72081 -8.171537,-2.68235 -13.308287,-4.35897 -8.56813,-2.7966 -9.36126,-3.10552 -9.60252,-3.74007 -0.38032,-1.00032 0.1117,-9.43903 0.58845,-10.09267 0.44979,-0.61668 2.8979,-3.51439 4.14203,-4.90273 l 0.92887,-1.03654 1.2174,0.31682 c 0.66956,0.17425 5.02294,1.34808 9.674157,2.60852 9.57745,2.5954 8.96253,2.26466 10.71328,5.76231 2.04031,4.07614 2.63617,8.5132 1.69749,12.64029 -0.53884,2.36907 -1.29632,4.16807 -1.74199,4.13718 -0.18707,-0.013 -2.12607,-0.61332 -4.30888,-1.33414 z"
           id="path1174" />
      </g>
    </g>
  </g>
</svg>
