<svg width="16" height="16" viewBox="0 0 4.233 4.233" xmlns="http://www.w3.org/2000/svg"><circle cx="2.117" cy="2.117" r="2.117" fill="#dc7a30"/><path d="M.742 3.448v-.11l.169-.162.169-.163-.05-.177a2.986 2.986 0 01-.053-.208c-.008-.067-.047-.024.676-.721l.658-.634-.09-.087c-.076-.074-.091-.091-.097-.114-.025-.09.058-.166.153-.142.024.006.045.024.166.14l.139.132.15-.144.15-.145-.047-.046C2.797.828 2.787.815 2.78.79c-.024-.096.076-.174.169-.132.034.016.68.64.693.67.038.088-.043.18-.14.157-.025-.005-.039-.015-.077-.05l-.047-.043-.15.144-.15.145.135.131c.14.136.15.15.15.195 0 .073-.08.13-.154.111-.023-.006-.042-.02-.118-.093l-.09-.087-.656.63c-.51.491-.661.634-.683.643a.163.163 0 01-.055.012c-.015 0-.115-.023-.221-.05l-.194-.049-.225.217-.226.216zM1.51 2.8l.089-.086-.066-.064c-.069-.067-.079-.08-.079-.104 0-.042.037-.074.082-.074h.03l.072.067.072.068.08-.076.079-.077-.066-.064c-.069-.067-.078-.08-.078-.104 0-.042.036-.074.081-.074h.031l.071.067.072.068.075-.072.075-.072-.062-.06a.653.653 0 01-.07-.074c-.033-.059.02-.123.09-.108.014.003.04.023.088.068l.068.064.073-.07.073-.071-.068-.067c-.053-.052-.068-.071-.072-.088a.079.079 0 01.056-.088c.038-.012.055-.003.13.067l.069.066.1-.096.099-.096-.138-.133-.138-.133-.643.62-.644.618.137.132c.075.072.138.131.14.131.002 0 .043-.038.092-.085zm1.62-1.65l-.134-.129-.15.145-.151.144.133.129.134.129.15-.145.15-.145z" fill="#fff"/></svg>