<svg xmlns="http://www.w3.org/2000/svg" width="16" height="16" viewBox="0 0 4.233 4.233"><circle cx="2.117" cy="2.117" r="2.117"/><path d="M1.869 3.737a1.222 1.222 0 01-1.08-.912A1.385 1.385 0 01.995 1.68c.12-.182.397-.466.65-.668.258-.206.469-.416.563-.56a.861.861 0 01.088-.123.619.619 0 01-.021.113c-.042.17-.226.533-.422.829-.214.324-.292.471-.36.68-.193.604-.105 1.197.228 1.526.124.122.33.244.412.244.065 0 .032.012-.058.02a1.255 1.255 0 01-.206-.004zm.699-.076a.87.87 0 00.35-.368.532.532 0 00.07-.277.702.702 0 00-.234-.587.675.675 0 00-.776-.112c-.095.05-.117.051-.154.01-.042-.047-.05-.135-.028-.29.043-.294.181-.575.394-.8.148-.157.294-.261.504-.36a1.84 1.84 0 01.445-.133c.012 0-.032.045-.097.101-.281.242-.398.51-.329.749.038.13.1.217.256.355.319.284.359.328.427.468.173.352.104.729-.184 1.006a1.02 1.02 0 01-.648.281H2.48z" fill="red"/></svg>