<svg width="16" height="16" viewBox="0 0 4.233 4.233" xmlns="http://www.w3.org/2000/svg"><rect width="4.233" height="4.233" ry=".565" fill="#9ec0c9" paint-order="markers fill stroke"/><path d="M1.974 3.913a.648.648 0 01.087-.35.906.906 0 01.247-.304c.145-.129.284-.302.257-.32a1.732 1.732 0 00-.115-.044.753.753 0 01-.389-.377 1.604 1.604 0 01-.087-.204c-.01-.04-.031-.059-.076-.067a.354.354 0 01-.136-.081C1.679 2.089.899.733.875.625A.395.395 0 01.948.34c.045-.055.295-.19.396-.213a.38.38 0 01.295.089c.032.03.24.377.465.769.449.786.47.84.384.999l-.041.076.09.149c.097.161.183.388.183.485 0 .084.02.127.059.127.164 0 .378.161.465.35.06.13.135.45.117.494-.007.015-.012.005-.013-.022-.003-.084-.105-.353-.178-.467-.09-.143-.228-.23-.366-.23-.09 0-.103.007-.115.054-.019.074-.145.204-.327.336-.233.17-.317.31-.368.608l-.03.167zm.587-1.202a1.449 1.449 0 00-.235-.442c-.05-.058-.081-.076-.108-.066-.042.015-.038.047.029.237a.564.564 0 00.222.299c.093.055.107.05.092-.028zm-.363-.925c.077-.06.07-.197-.014-.258-.139-.103-.34.092-.234.228a.18.18 0 00.248.03zm-.558-.372c0-.03-.012-.042-.038-.037-.056.01-.062.08-.007.08.031 0 .045-.013.045-.043zm.16-.305c.066-.063.028-.156-.063-.156-.092 0-.125.082-.061.15.044.048.08.05.124.006zM1.296.806c.08-.042.04-.167-.056-.167-.092 0-.136.122-.059.166.048.027.064.027.115 0zm.356-.17c.023-.035-.05-.096-.08-.066a.057.057 0 00-.011.057c.015.038.07.044.091.01z" fill="#007605"/></svg>