<svg width="16" height="16" viewBox="0 0 4.233 4.233" xml:space="preserve" xmlns="http://www.w3.org/2000/svg"><g transform="matrix(.03376 0 0 .03376 -1.428 -2.896)" style="stroke-width:29.625"><circle style="fill:#ecc000;fill-opacity:1;stroke-width:210.337" cx="105" cy="148.5" r="56.16"/><path style="fill:#000;stroke-width:29.625" d="M98.12 210.999c0-.115-1.16-.363-2.579-.552-1.419-.19-4.144-.744-6.057-1.233-22.162-5.664-39.534-23.036-45.198-45.198-.49-1.913-1.044-4.638-1.233-6.057-.189-1.419-.437-2.58-.552-2.58-.114 0-.207-3.095-.207-6.879 0-3.784.093-6.88.207-6.88.115 0 .363-1.16.552-2.579.436-3.27 1.837-8.772 3.093-12.142 6.456-17.329 19.924-30.797 37.253-37.253 3.37-1.256 8.871-2.657 12.142-3.093 1.419-.189 2.58-.437 2.58-.552 0-.114 3.095-.207 6.879-.207 3.784 0 6.88.102 6.88.228 0 .125.803.309 1.785.407 2.58.26 7.404 1.38 10.914 2.535a62.677 62.677 0 0 1 41.135 44.02c.49 1.913 1.044 4.638 1.233 6.057.189 1.419.437 2.58.551 2.58.115 0 .208 3.095.208 6.879 0 3.784-.093 6.88-.208 6.88-.114 0-.362 1.16-.551 2.579-.19 1.419-.744 4.144-1.233 6.057-5.665 22.168-23.03 39.533-45.198 45.198-1.913.49-4.638 1.044-6.057 1.233-1.419.189-2.58.437-2.58.552 0 .114-3.095.207-6.879.207-3.784 0-6.88-.093-6.88-.207zM87.539 179.72v-6.88h6.879v6.88H101.56v6.879H139.925v-6.88h-14.023v-10.318h14.023v6.88h6.88v-14.024H132.78v-6.879h14.023v-14.023h-6.879v-6.894l-3.506.074-3.505.073-.071 6.946-.07 6.945h-6.871v20.902h-6.879V179.721H101.56v-6.88h10.32V165.699H80.658v14.023h-6.871l-.07-6.946-.071-6.945-3.506-.074-3.506-.073V186.6h20.903Zm24.606-43.524v-22.622H66.635v45.244h45.509zm-38.365 0v-15.743H105v31.486H73.78Zm24.342 0v-8.6H80.658V144.797H98.12zm27.781 1.72v-3.44h6.88V127.614l-3.374-.074-3.374-.074-.074-3.378-.074-3.378 6.953.07 6.954.071.042 3.307.042 3.308 3.464.073 3.463.074v-14.039h-28.13l.174 5.359c.095 2.947.174 9.197.174 13.89v8.533h6.88z"/></g></svg>