<?xml version="1.0" encoding="UTF-8" standalone="no"?>
<!-- Created with Inkscape (http://www.inkscape.org/) -->

<svg
   width="4.2333341mm"
   height="4.2333345mm"
   viewBox="0 0 4.2333341 4.2333345"
   version="1.1"
   id="svg5"
   inkscape:version="1.1.1 (3bf5ae0d25, 2021-09-20, custom)"
   sodipodi:docname="armrested.svg"
   xmlns:inkscape="http://www.inkscape.org/namespaces/inkscape"
   xmlns:sodipodi="http://sodipodi.sourceforge.net/DTD/sodipodi-0.dtd"
   xmlns="http://www.w3.org/2000/svg"
   xmlns:svg="http://www.w3.org/2000/svg">
  <sodipodi:namedview
     id="namedview7"
     pagecolor="#ffffff"
     bordercolor="#666666"
     borderopacity="1.0"
     inkscape:pageshadow="2"
     inkscape:pageopacity="0.0"
     inkscape:pagecheckerboard="0"
     inkscape:document-units="mm"
     showgrid="false"
     inkscape:zoom="23.803591"
     inkscape:cx="9.0952662"
     inkscape:cy="11.741926"
     inkscape:window-width="1457"
     inkscape:window-height="1047"
     inkscape:window-x="269"
     inkscape:window-y="58"
     inkscape:window-maximized="0"
     inkscape:current-layer="layer1" />
  <defs
     id="defs2" />
  <g
     inkscape:label="Layer 1"
     inkscape:groupmode="layer"
     id="layer1">
    <path
       style="fill:#000000;stroke-width:0.00880918"
       d="m 0.30027677,4.2225144 c -0.0473618,-0.021564 -0.0826849,-0.075465 -0.0826849,-0.1261731 0,-0.01193 0.0447287,-0.2164171 0.0993971,-0.4544166 L 0.41638604,3.2091991 0.35397956,3.1447019 C 0.27965109,3.0678837 0.23347505,2.9902904 0.20433492,2.8932424 0.18196885,2.8187547 0,1.6470653 0,1.577539 0,1.4398027 0.1861205,1.392859 0.25477487,1.513279 c 0.0120973,0.021219 0.0410293,0.1909455 0.11094319,0.6508377 0.052018,0.3421733 0.1005193,0.6392294 0.10778061,0.6601243 0.03265,0.093953 0.10807915,0.1672072 0.2041288,0.1982423 0.0514132,0.016612 0.0792533,0.017873 0.39470183,0.017873 0.2965848,0 0.3431823,0.00184 0.3694806,0.014629 0.060322,0.029323 0.093138,0.104491 0.07296,0.1671223 -0.011385,0.035338 -0.059221,0.082628 -0.092145,0.091093 -0.014869,0.00382 -0.020567,0.010283 -0.017808,0.02019 0.026907,0.096614 0.1618362,0.7299903 0.1618119,0.7595642 -6.25e-5,0.07712 -0.056353,0.1331358 -0.1338471,0.1331968 -0.047061,3.37e-5 -0.090386,-0.02198 -0.1130847,-0.057467 C 1.312127,4.1568469 1.262696,3.9635953 1.2098533,3.7392363 1.1570103,3.5148772 1.1127773,3.3302881 1.1115573,3.3290383 c -0.00122,-0.00125 -0.1000494,-0.00306 -0.21962052,-0.00403 l -0.21740204,-0.00176 -0.0961926,0.4135759 c -0.0556184,0.2391291 -0.10298734,0.424135 -0.11230138,0.438609 -0.03283,0.051017 -0.10937235,0.072758 -0.16576397,0.047083 z M 1.9675936,4.1978034 C 1.8829966,4.1449194 1.8854586,4.1537726 1.7666078,3.4751489 1.7092948,3.1478959 1.6624018,2.8780755 1.6624018,2.8755477 c 0,-0.00253 -0.1912184,-0.0046 -0.4249296,-0.0046 -0.47804859,0 -0.47822495,-1.78e-5 -0.54033415,-0.063645 C 0.67811085,2.787816 0.65657895,2.7550434 0.64928935,2.7344793 0.64199979,2.7139153 0.59635355,2.4362974 0.54785326,2.1175502 0.44461772,1.4390795 0.44378688,1.4254358 0.49851756,1.3073772 0.58998626,1.1100711 0.79354531,1.0158905 1.0215653,1.0653784 c 0.072048,0.015637 0.097911,0.030228 0.3300901,0.1862305 0.31078,0.2088151 0.3163004,0.210594 0.6537578,0.2106651 0.1433108,2.67e-5 0.2494372,0.00387 0.2705977,0.00979 0.083519,0.02337 0.1309759,0.094856 0.1244378,0.1874453 C 2.3961887,1.7198703 2.3669137,1.7650335 2.3099977,1.79906 2.2761767,1.819279 2.2746027,1.819364 1.9887892,1.816301 1.7072112,1.813281 1.6998577,1.812741 1.6145311,1.788774 1.5666611,1.775326 1.4906538,1.746461 1.4456264,1.724629 1.4005994,1.702797 1.3624824,1.686242 1.3609224,1.68784 c -0.00156,0.0016 0.00776,0.1698727 0.020705,0.3739444 l 0.02354,0.3710393 0.2352369,0.00293 c 0.2033172,0.00253 0.2399608,0.0051 0.2700517,0.018905 0.039942,0.01833 0.087232,0.061995 0.1052073,0.097144 0.020857,0.040783 0.2666429,1.4306455 0.262526,1.4845196 -0.00479,0.062617 -0.042124,0.1233687 -0.097302,0.1583152 -0.034694,0.021973 -0.053716,0.027414 -0.1042142,0.029809 -0.057127,0.00271 -0.065332,7.043e-4 -0.1090804,-0.026644 z m 0.6521239,0.00832 c -0.066225,-0.046172 -0.08431,-0.1090459 -0.050501,-0.175569 0.031822,-0.062612 0.056195,-0.075785 0.1469533,-0.079424 l 0.07771,-0.00312 V 3.1107974 2.2735803 H 2.2691515 1.7444233 L 1.7055883,2.2535193 C 1.6046206,2.2013622 1.6067533,2.0574351 1.7092483,2.0066084 l 0.037485,-0.018589 1.1966116,0.00235 1.1966112,0.00235 0.032139,0.025113 c 0.045846,0.035823 0.061239,0.064111 0.061239,0.1125394 0,0.055477 -0.027569,0.1006939 -0.076053,0.1247372 -0.036396,0.018049 -0.049041,0.018465 -0.5610589,0.018465 H 3.072397 V 3.1107911 3.948008 l 0.07771,0.00312 c 0.091606,0.00367 0.1157017,0.016988 0.1472161,0.081345 0.024782,0.050609 0.020038,0.099966 -0.013538,0.1408427 -0.043174,0.052562 -0.045213,0.052867 -0.3532787,0.052867 -0.2781315,0 -0.2824105,-2.696e-4 -0.3107881,-0.020061 z M 0.81379355,0.91740795 C 0.73477836,0.90103429 0.64487831,0.84963364 0.58302974,0.78546808 0.49034993,0.68931611 0.45249962,0.59466136 0.45269436,0.45952958 0.45288516,0.3281545 0.49427837,0.2247756 0.58314619,0.13374004 0.67374159,0.04093431 0.7709167,0 0.90063384,0 1.0315634,0 1.119337,0.03528277 1.2139457,0.12594361 1.3479703,0.25437549 1.3912953,0.45397611 1.3240142,0.63303594 1.2798892,0.75047006 1.1615239,0.86387183 1.0439412,0.90136555 0.9770337,0.92270026 0.87399345,0.92988271 0.81379355,0.91740795 Z"
       id="path836" />
  </g>
</svg>
