<?xml version="1.0" encoding="UTF-8" standalone="no"?>
<!-- Created with Inkscape (http://www.inkscape.org/) -->

<svg
   width="4.2333331mm"
   height="4.2333336mm"
   viewBox="0 0 4.2333331 4.2333336"
   version="1.1"
   id="svg5"
   inkscape:version="1.1.1 (3bf5ae0d25, 2021-09-20, custom)"
   sodipodi:docname="chair.svg"
   xmlns:inkscape="http://www.inkscape.org/namespaces/inkscape"
   xmlns:sodipodi="http://sodipodi.sourceforge.net/DTD/sodipodi-0.dtd"
   xmlns="http://www.w3.org/2000/svg"
   xmlns:svg="http://www.w3.org/2000/svg">
  <sodipodi:namedview
     id="namedview7"
     pagecolor="#ffffff"
     bordercolor="#666666"
     borderopacity="1.0"
     inkscape:pageshadow="2"
     inkscape:pageopacity="0.0"
     inkscape:pagecheckerboard="0"
     inkscape:document-units="mm"
     showgrid="false"
     inkscape:zoom="16.831681"
     inkscape:cx="11.139707"
     inkscape:cy="18.447355"
     inkscape:window-width="1457"
     inkscape:window-height="1047"
     inkscape:window-x="313"
     inkscape:window-y="81"
     inkscape:window-maximized="0"
     inkscape:current-layer="layer1" />
  <defs
     id="defs2" />
  <g
     inkscape:label="Layer 1"
     inkscape:groupmode="layer"
     id="layer1">
    <path
       style="fill:#000000;stroke-width:0.0100584"
       d="m 1.0124898,4.2222508 c -0.0149955,-0.00606 -0.0378302,-0.022207 -0.0507439,-0.035883 L 0.9382667,4.1615022 1.0039661,3.512964 C 1.0401007,3.1562681 1.0779384,2.7911766 1.0880499,2.7016494 L 1.1064343,2.5388733 H 1.266228 1.4260215 l -0.0036,0.033447 c -0.00198,0.018396 -0.038566,0.3789775 -0.0813,0.8012927 -0.08408,0.8309181 -0.079971,0.8080894 -0.1516195,0.8424404 -0.041893,0.020086 -0.13461,0.023331 -0.1770102,0.0062 z m 2.0858735,-0.00534 C 3.0200824,4.1840018 3.0269221,4.2208036 2.9399103,3.3643529 2.8961429,2.9335559 2.8603333,2.571588 2.8603333,2.5599794 v -0.021106 h 0.1588045 c 0.1435349,0 0.1588416,0.0015 0.1591867,0.015609 2.148e-4,0.00858 0.00534,0.057752 0.011386,0.1092607 0.025309,0.2153855 0.1470359,1.4230494 0.1470359,1.458754 0,0.04961 -0.016425,0.077522 -0.056597,0.096182 -0.042938,0.019944 -0.132215,0.019078 -0.1817868,-0.00177 z M 1.4127437,3.6114133 c 0.0041,-0.04783 0.010486,-0.1080343 0.014204,-0.1337888 l 0.00676,-0.046826 H 2.118661 c 0.3767256,0 0.6852304,0.001 0.6855673,0.00223 3.433e-4,0.00123 0.00692,0.061431 0.014631,0.1337887 l 0.014019,0.1315586 H 2.1190891 1.4052991 Z M 0.99653187,2.4430324 C 0.99382322,2.4393307 0.96583679,2.3700764 0.93433983,2.289134 0.88378673,2.1592201 0.87164362,2.1111188 0.83076418,1.8788483 0.7088708,1.1862695 0.65117487,0.67412821 0.66296102,0.38933294 0.67051988,0.20668338 0.68499761,0.163964 0.75599192,0.11482614 0.86553988,0.039004 1.0771631,-0.0171669 1.1704647,0.00481374 c 0.065877,0.01551933 0.130598,0.06967501 0.1524654,0.12757493 0.018494,0.048969 0.030557,0.1664486 0.05157,0.50222367 0.00675,0.10792303 0.027244,0.31462711 0.045532,0.45934186 0.03609,0.2855713 0.062386,0.5427265 0.074643,0.7299665 l 0.00779,0.1189976 0.048003,-0.00566 c 0.1897992,-0.02238 1.2719855,-0.019661 1.5026995,0.00378 0.1975731,0.02007 0.3242813,0.057344 0.4418684,0.1299846 0.069073,0.042671 0.085491,0.067152 0.073006,0.1088554 -0.012135,0.040534 -0.079962,0.1365164 -0.1433913,0.2029131 l -0.059644,0.062435 -1.1817754,0.00227 c -0.649976,0.00125 -1.183991,-7.584e-4 -1.18669972,-0.00446 z"
       id="path836" />
  </g>
</svg>
