<?xml version="1.0" encoding="UTF-8" standalone="no"?>
<!-- Created with Inkscape (http://www.inkscape.org/) -->

<svg
   width="4.2333331mm"
   height="4.2333331mm"
   viewBox="0 0 4.2333331 4.2333331"
   version="1.1"
   id="svg5"
   inkscape:version="1.1.1 (3bf5ae0d25, 2021-09-20, custom)"
   sodipodi:docname="clock.svg"
   xmlns:inkscape="http://www.inkscape.org/namespaces/inkscape"
   xmlns:sodipodi="http://sodipodi.sourceforge.net/DTD/sodipodi-0.dtd"
   xmlns="http://www.w3.org/2000/svg"
   xmlns:svg="http://www.w3.org/2000/svg">
  <sodipodi:namedview
     id="namedview7"
     pagecolor="#ffffff"
     bordercolor="#666666"
     borderopacity="1.0"
     inkscape:pageshadow="2"
     inkscape:pageopacity="0.0"
     inkscape:pagecheckerboard="0"
     inkscape:document-units="mm"
     showgrid="false"
     inkscape:zoom="23.803591"
     inkscape:cx="7.9609836"
     inkscape:cy="8.8011929"
     inkscape:window-width="1457"
     inkscape:window-height="1047"
     inkscape:window-x="401"
     inkscape:window-y="23"
     inkscape:window-maximized="0"
     inkscape:current-layer="layer1" />
  <defs
     id="defs2" />
  <g
     inkscape:label="Layer 1"
     inkscape:groupmode="layer"
     id="layer1">
    <path
       style="fill:#000000;stroke-width:0.00432076"
       d="M 2.0088498,4.230627 C 1.5454015,4.2058409 1.1114446,4.0348477 0.75356988,3.7360056 0.66555299,3.6625075 0.54188152,3.535718 0.46341529,3.438536 0.33547161,3.2800749 0.22026231,3.0804646 0.1442303,2.8855199 -0.09769752,2.2652209 -0.03262263,1.5641909 0.31949158,0.99748863 0.4527833,0.78296538 0.64147478,0.57723083 0.84431301,0.42526398 1.2896552,0.0916129 1.8351629,-0.05268101 2.3869461,0.017217 2.7882254,0.06804985 3.1631741,0.23254252 3.4801847,0.49682856 3.5361397,0.54347688 3.6538674,0.65881632 3.7045692,0.71666012 4.1296023,1.2015664 4.3093712,1.8328408 4.2037623,2.469621 4.0753623,3.2438235 3.5148874,3.8913518 2.7650425,4.1318039 2.5259755,4.2084653 2.2554679,4.2438166 2.0088498,4.230627 Z m 0.060496,-0.4987144 c 0,-0.1104652 4.915e-4,-0.1177549 0.00871,-0.1293021 0.019002,-0.026683 0.061298,-0.0258 0.078025,0.00163 0.00763,0.012506 0.00829,0.022842 0.00831,0.1289575 l 1.63e-5,0.1153614 0.03781,-0.00226 c 0.020795,-0.00124 0.065931,-0.00515 0.1003023,-0.00869 C 2.6042203,3.8065584 2.8997293,3.6917383 3.1434848,3.5108519 3.1998978,3.4689889 3.287503,3.3962928 3.3007041,3.380389 3.3059441,3.374079 3.2972641,3.363895 3.2237911,3.290081 3.1466211,3.212554 3.1409751,3.205809 3.1409751,3.191136 c 0,-0.032499 0.018069,-0.050716 0.050306,-0.050716 0.015216,0 0.021045,0.00486 0.099179,0.082603 0.045815,0.04559 0.085077,0.081328 0.08762,0.079756 0.00799,-0.00494 0.086765,-0.09796 0.1192001,-0.1407576 0.1900543,-0.2507756 0.3092155,-0.5512826 0.3409911,-0.8599302 0.00354,-0.034366 0.00745,-0.079495 0.00869,-0.100287 l 0.00226,-0.037804 H 3.7345048 c -0.09938,0 -0.1163444,-9.634e-4 -0.1269235,-0.00721 -0.030916,-0.01826 -0.030916,-0.062366 0,-0.080625 0.010582,-0.00625 0.027571,-0.00721 0.1273484,-0.00721 H 3.850067 l -0.00227,-0.02484 C 3.846547,2.0304517 3.844377,2.0008028 3.842967,1.9782284 3.835777,1.8627122 3.806214,1.7113812 3.767363,1.5911625 3.705742,1.4004845 3.615628,1.2270537 3.4961968,1.0692862 3.4614598,1.0233985 3.3799012,0.92836217 3.3752586,0.92836217 c -0.00155,0 -0.039946,0.0369398 -0.085318,0.0820882 -0.081407,0.081006 -0.082739,0.082088 -0.101039,0.082088 -0.015328,0 -0.021092,-0.00255 -0.033236,-0.014689 -0.012144,-0.012142 -0.014692,-0.017905 -0.014692,-0.033231 0,-0.018303 0.00107,-0.019613 0.082814,-0.10174043 C 3.2972606,0.8690642 3.3059366,0.8588776 3.3007006,0.8525704 3.2777306,0.824897 3.1521136,0.72544882 3.0761562,0.67480295 2.8332813,0.51286205 2.5340855,0.40904516 2.2573075,0.39067332 c -0.021389,-0.001421 -0.051043,-0.00366 -0.065897,-0.004978 l -0.027007,-0.002396 V 0.50278753 0.6222759 l -0.01241,0.0124076 c -0.022199,0.0221955 -0.048046,0.0221955 -0.070245,0 L 2.0693385,0.6222753 V 0.50270659 0.38313804 l -0.024846,0.002435 c -0.013665,0.001339 -0.044291,0.003659 -0.068057,0.005155 -0.1189691,0.00749 -0.2722969,0.0386834 -0.4018625,0.0817552 -0.2280663,0.0758164 -0.4194049,0.18514585 -0.5995528,0.34257989 -0.0255485,0.0223273 -0.0464518,0.041822 -0.0464518,0.043322 0,0.001501 0.0369454,0.0398439 0.0821009,0.0852089 0.081019,0.0813945 0.082101,0.0827263 0.082101,0.10102347 0,0.015326 -0.00255,0.021089 -0.014692,0.033231 -0.012144,0.012142 -0.017908,0.014689 -0.033236,0.014689 -0.0183,0 -0.019632,-0.00108 -0.10103893,-0.082088 -0.045372,-0.0451484 -0.083765,-0.0820882 -0.0853179,-0.0820882 -0.004674,0 -0.0863413,0.0952156 -0.12087208,0.140924 C 0.58942563,1.2654416 0.4841684,1.4895692 0.42956989,1.7252125 0.41128709,1.80412 0.39474559,1.9121787 0.39083869,1.978228 0.38936269,2.003179 0.38710469,2.0338 0.38582169,2.046275 l -0.002334,0.022682 h 0.11503632 c 0.12450182,0 0.13285676,0.00135 0.14464598,0.023375 0.007621,0.014239 0.007621,0.034061 0,0.048299 -0.0117892,0.022025 -0.0201442,0.023375 -0.14464598,0.023375 H 0.38349387 l 0.002334,0.022683 c 0.001284,0.012475 0.003541,0.043096 0.005017,0.068047 0.003907,0.066049 0.0204484,0.1741082 0.0387312,0.2530156 0.0547007,0.2360842 0.16012417,0.460614 0.30797744,0.6559268 0.0347373,0.045888 0.11629561,0.140924 0.12093815,0.140924 0.001553,0 0.0399459,-0.03694 0.0853179,-0.082088 0.0776278,-0.077246 0.0834482,-0.082088 0.0986609,-0.082088 0.032237,0 0.050306,0.018217 0.050306,0.050716 0,0.014671 -0.00564,0.021411 -0.082616,0.098746 -0.0455967,0.045808 -0.0813402,0.085064 -0.0797685,0.087607 0.004937,0.00799 0.0979749,0.086752 0.14077914,0.1191818 0.2764173,0.209423 0.6020386,0.3283113 0.957124,0.3494575 0.011883,7.07e-4 0.025981,0.00164 0.031328,0.00207 l 0.00972,7.789e-4 z M 2.6526943,2.8528959 C 2.6396233,2.8493212 2.6192053,2.8397161 2.6073223,2.8315517 2.5954393,2.8233873 2.4560169,2.6868613 2.2974947,2.5281608 2.0413888,2.2717668 2.0079248,2.2367259 1.9971782,2.2136918 L 1.9850832,2.1877692 V 1.6369134 1.0860576 l 0.00981,-0.021258 c 0.015958,-0.034599 0.037045,-0.05673 0.069077,-0.0724963 0.025488,-0.0125461 0.033133,-0.0142565 0.063714,-0.0142565 0.030581,0 0.038226,0.00171 0.063714,0.0142565 0.032032,0.0157667 0.053119,0.0378973 0.069077,0.0724963 l 0.00981,0.021258 0.00117,0.503308 0.00117,0.5033079 0.2671285,0.2678903 c 0.2147785,0.215391 0.2690939,0.2721235 0.2771578,0.2894923 0.014827,0.031934 0.016811,0.082743 0.0045,0.1153626 -0.025245,0.066915 -0.1007474,0.106064 -0.1687096,0.087477 z"
       id="path836" />
  </g>
</svg>
