<?xml version="1.0" encoding="UTF-8" standalone="no"?>
<!-- Created with Inkscape (http://www.inkscape.org/) -->

<svg
   width="4.2333345mm"
   height="4.2333326mm"
   viewBox="0 0 4.2333345 4.2333326"
   version="1.1"
   id="svg5"
   inkscape:version="1.1.1 (3bf5ae0d25, 2021-09-20, custom)"
   sodipodi:docname="measure.svg"
   xmlns:inkscape="http://www.inkscape.org/namespaces/inkscape"
   xmlns:sodipodi="http://sodipodi.sourceforge.net/DTD/sodipodi-0.dtd"
   xmlns="http://www.w3.org/2000/svg"
   xmlns:svg="http://www.w3.org/2000/svg">
  <sodipodi:namedview
     id="namedview7"
     pagecolor="#ffffff"
     bordercolor="#666666"
     borderopacity="1.0"
     inkscape:pageshadow="2"
     inkscape:pageopacity="0.0"
     inkscape:pagecheckerboard="0"
     inkscape:document-units="mm"
     showgrid="false"
     inkscape:zoom="11.901796"
     inkscape:cx="4.7471828"
     inkscape:cy="7.5198737"
     inkscape:window-width="1457"
     inkscape:window-height="1047"
     inkscape:window-x="239"
     inkscape:window-y="56"
     inkscape:window-maximized="0"
     inkscape:current-layer="layer1" />
  <defs
     id="defs2" />
  <g
     inkscape:label="Layer 1"
     inkscape:groupmode="layer"
     id="layer1">
    <path
       style="fill:#000000;stroke-width:0.00354148"
       d="M 1.9724634,4.2325407 C 1.8920734,4.2286721 1.7978072,4.2224452 1.7428075,4.2173699 1.2986344,4.176382 0.893982,4.0629484 0.58679099,3.8933118 0.27817346,3.7228871 0.07996569,3.4982811 0.02008731,3.2511319 -0.00161247,3.1615657 2.831421e-5,3.2470719 2.831421e-5,2.2058083 c 0,-0.8895016 3.2540427e-4,-0.9439145 0.0059067858,-0.987571 C 0.02853843,1.041437 0.08063618,0.89839315 0.17681095,0.74906707 0.20972555,0.69796196 0.30247599,0.58814127 0.35184168,0.54182271 0.59406906,0.31454669 0.94720328,0.15197449 1.3828503,0.06717804 c 0.4603393,-0.08960277 1.0298947,-0.08956785 1.4091763,8.731e-5 0.2494233,0.05895831 0.4368437,0.15150479 0.5730314,0.28295726 0.046704,0.04508 0.1012747,0.11612077 0.1314583,0.1711332 0.077292,0.14087203 0.1015512,0.3022418 0.071893,0.47822092 C 3.5444023,1.1420282 3.4805393,1.2725646 3.3853365,1.3737795 3.1780991,1.5941041 2.8314776,1.7059811 2.2868152,1.7283427 2.1592083,1.7335818 2.0965383,1.7331615 2.0001524,1.7264208 1.8251,1.7141787 1.6775085,1.6907273 1.5392492,1.6531858 1.2169991,1.5656861 1.0363427,1.4127344 0.98686372,1.1855122 c -0.007478,-0.03434 -0.008845,-0.048833 -0.009083,-0.096254 -2.3947e-4,-0.047769 8.1812e-4,-0.060273 0.007326,-0.086629 C 1.0251915,0.84028976 1.1625655,0.72971688 1.4132648,0.65800227 c 0.175796,-0.0502879 0.4167907,-0.0807208 0.6398227,-0.080797 l 0.062708,-1.455e-5 v 0.19190597 0.19190613 l -0.108313,0.002461 c -0.2915916,0.006626 -0.5416523,0.0549376 -0.6728536,0.12999638 -0.026339,0.015068 -0.02706,0.015835 -0.022565,0.023974 0.00935,0.016928 0.048088,0.051487 0.079385,0.070822 0.1318031,0.081427 0.3599763,0.1367534 0.6394105,0.1550426 0.1806318,0.011822 0.4596736,-0.00558 0.6484885,-0.040441 0.2334305,-0.0431 0.3979201,-0.1162644 0.490076,-0.2179855 0.054248,-0.059879 0.080412,-0.12373098 0.08548,-0.20861255 C 3.2595839,0.79789816 3.2345049,0.73093342 3.1765079,0.66691659 3.0113524,0.48461906 2.6353315,0.38458551 2.1157945,0.38473307 1.242167,0.38498045 0.56180908,0.66152178 0.37652755,1.0916814 c -0.0338126,0.078501 -0.0502843,0.1579715 -0.0505724,0.2439947 -1.5045e-4,0.044913 8.7698e-4,0.055641 0.007559,0.078929 0.0385342,0.1343035 0.1622255,0.2639603 0.36362572,0.3811632 0.29872267,0.1738386 0.69244533,0.2789685 1.17759753,0.3144364 0.086953,0.00636 0.3869221,0.00638 0.4772283,4.36e-5 C 2.8341734,2.0763872 3.1997893,1.998075 3.4737473,1.8699708 3.5289263,1.844169 3.6218171,1.7907649 3.666845,1.7589567 3.7679705,1.6875206 3.8498737,1.588156 3.8813932,1.4986683 c 0.022374,-0.063524 0.023722,-0.075045 0.02525,-0.21593 l 0.00139,-0.1280185 H 4.070684 4.2333344 l -0.00104,1.000084 c -0.00104,0.9999043 -0.00104,1.0000907 -0.00788,1.0366992 -0.029045,0.1552909 -0.090818,0.2811243 -0.1984465,0.4042482 -0.2337499,0.2674019 -0.6426017,0.466503 -1.169439,0.5694896 -0.1502128,0.029363 -0.3014972,0.048524 -0.4899029,0.062047 -0.054147,0.00389 -0.3427069,0.00774 -0.3941614,0.00526 z M 1.9529184,3.3666373 V 2.88729 H 2.115795 2.2786716 v 0.4798409 0.479841 l 0.04642,-0.00263 c 0.065692,-0.00372 0.1718186,-0.012894 0.2268196,-0.019597 0.025762,-0.00314 0.048117,-0.00571 0.049677,-0.00571 0.00158,0 0.00284,-0.120749 0.00284,-0.2733628 V 3.2723079 h 0.1628766 0.1628764 v 0.2425613 c 0,0.1694996 0.00105,0.2425613 0.00348,0.2425613 0.020307,0 0.2353872,-0.064077 0.3116857,-0.092858 l 0.010587,-0.00399 V 3.1776798 2.694781 H 3.4188105 3.581687 v 0.4023438 c 0,0.2212891 6.808e-4,0.4023437 0.00151,0.4023437 0.00241,0 0.06121,-0.040572 0.087175,-0.060152 0.043836,-0.033056 0.096948,-0.082649 0.1307427,-0.122078 0.050522,-0.058947 0.076722,-0.1040816 0.095934,-0.1652671 l 0.00876,-0.027895 8.791e-4,-0.5459141 8.803e-4,-0.545914 -0.028569,0.022611 C 3.6153245,2.2635484 3.2018626,2.4034924 2.6600355,2.4674404 2.4502737,2.4921971 2.3165568,2.5001414 2.1109089,2.5000644 1.9471598,2.5000062 1.8765229,2.4970683 1.742808,2.4847701 1.1779222,2.4328157 0.67333181,2.2607751 0.36658988,2.015547 0.34782648,2.000546 0.33057408,1.986869 0.32825128,1.985153 c -0.003454,-0.00255 -0.004064,0.1009295 -0.003346,0.5679014 l 8.7697e-4,0.5710218 0.008759,0.027895 c 0.0360146,0.1146995 0.12865926,0.2221619 0.28135575,0.3263559 0.0170406,0.011628 0.0316639,0.021141 0.0324963,0.021141 8.3241e-4,0 0.001514,-0.1810546 0.001514,-0.4023437 V 2.694781 H 0.81280735 0.9757089 l -8.3943e-4,0.4828576 -8.3942e-4,0.4828579 0.0570068,0.01959 c 0.088082,0.030269 0.2505281,0.077344 0.2668947,0.077344 0.00243,0 0.00348,-0.073062 0.00348,-0.2425613 V 3.2723079 h 0.162877 0.1628766 v 0.2729192 0.2729193 l 0.017102,0.0024 c 0.036764,0.00516 0.1207786,0.01359 0.1750924,0.01757 0.031354,0.0023 0.063603,0.0047 0.071666,0.00535 0.00806,6.461e-4 0.025287,0.00148 0.038276,0.00185 l 0.023617,6.723e-4 z"
       id="path836" />
  </g>
</svg>
