<?xml version="1.0" encoding="UTF-8" standalone="no"?>
<!-- Created with Inkscape (http://www.inkscape.org/) -->

<svg
   width="4.2333341mm"
   height="4.2333331mm"
   viewBox="0 0 4.2333341 4.2333331"
   version="1.1"
   id="svg5"
   inkscape:version="1.1.1 (3bf5ae0d25, 2021-09-20, custom)"
   sodipodi:docname="mute.svg"
   xmlns:inkscape="http://www.inkscape.org/namespaces/inkscape"
   xmlns:sodipodi="http://sodipodi.sourceforge.net/DTD/sodipodi-0.dtd"
   xmlns="http://www.w3.org/2000/svg"
   xmlns:svg="http://www.w3.org/2000/svg">
  <sodipodi:namedview
     id="namedview7"
     pagecolor="#ffffff"
     bordercolor="#666666"
     borderopacity="1.0"
     inkscape:pageshadow="2"
     inkscape:pageopacity="0.0"
     inkscape:pagecheckerboard="0"
     inkscape:document-units="mm"
     showgrid="false"
     inkscape:zoom="4.2079202"
     inkscape:cx="2.9705886"
     inkscape:cy="21.982356"
     inkscape:window-width="1457"
     inkscape:window-height="1047"
     inkscape:window-x="390"
     inkscape:window-y="31"
     inkscape:window-maximized="0"
     inkscape:current-layer="layer1" />
  <defs
     id="defs2" />
  <g
     inkscape:label="Layer 1"
     inkscape:groupmode="layer"
     id="layer1">
    <path
       style="fill:#000000;stroke-width:0.0115187"
       d="M 2.944417,4.2150021 C 2.9233326,4.2055639 2.6444858,3.982065 2.3247578,3.7183376 L 1.743434,3.2388328 H 1.489255 1.235076 L 0.81578773,3.5903048 C 0.58517913,3.7836142 0.38218775,3.9497004 0.36469572,3.9593857 0.28526862,4.0033641 0.16909541,3.9907579 0.08671614,3.9292214 0.02391471,3.8823093 7.6301525e-4,3.8338004 5.9785887e-5,3.7476527 -9.3227211e-4,3.6261235 0.00587649,3.6182361 0.38702247,3.2994104 L 0.73112424,3.0115722 0.7313729,2.0987904 C 0.73160869,1.2411865 0.7328709,1.1831748 0.7522787,1.1391208 0.77825806,1.0801501 0.84236627,1.0213762 0.89812623,1.0054088 0.92423356,0.99793257 1.0955127,0.99311333 1.3365318,0.99307354 L 1.73209,0.99302933 2.3153909,0.51189414 c 0.3280313,-0.27057631 0.6016944,-0.48790713 0.625331,-0.49660926 0.1226066,-0.04513931 0.2620088,0.01312172 0.310362,0.12971184 0.010286,0.0248027 0.016318,0.14026324 0.020572,0.39379869 l 0.00602,0.35870769 0.3046733,-0.25489092 c 0.2962892,-0.24787712 0.345893,-0.28132709 0.416937,-0.28115555 0.1056092,2.6525e-4 0.20237,0.0811282 0.2256315,0.18858426 0.016516,0.076297 0.0084,0.15338628 -0.02149,0.20406587 C 4.1920117,0.77346373 3.9804633,0.95752011 3.73332,1.1631211 L 3.2839678,1.5369404 3.2836677,2.7717756 c -3.429e-4,1.3634109 0.00213,1.3150655 -0.070894,1.3879439 -0.070509,0.07037 -0.1829305,0.093539 -0.2683465,0.055304 z M 2.7702234,2.3235431 2.7672334,1.9446172 2.311169,2.3256182 C 2.0603335,2.5351687 1.8491258,2.7128156 1.8418184,2.7203891 c -0.010174,0.010545 -0.00182,0.016955 0.035691,0.027369 0.037321,0.010363 0.1490164,0.095521 0.4693505,0.3578376 l 0.4203739,0.3442381 0.00299,-0.3736822 c 0.00165,-0.2055252 0.00165,-0.5441991 -4e-7,-0.7526085 z M 2.0062808,1.9534153 2.784246,1.3054843 V 1.0373486 0.76921302 l -0.06973,0.056337 C 2.676164,0.85653537 2.4860237,1.0122068 2.2919813,1.1714872 2.0150783,1.3987837 1.9271425,1.4648406 1.883238,1.4785334 1.839535,1.4921636 1.7595186,1.4959797 1.5174194,1.4959797 H 1.2075393 v 0.5565825 c 0,0.3319775 0.00419,0.5550087 0.010388,0.5526833 0.00571,-0.00214 0.3604724,-0.2954678 0.7883535,-0.6518302 z"
       id="path836" />
  </g>
</svg>
