<?xml version="1.0" encoding="UTF-8" standalone="no"?>
<!-- Created with Inkscape (http://www.inkscape.org/) -->

<svg
   width="16"
   height="16"
   viewBox="0 0 4.2333335 4.2333331"
   version="1.1"
   id="svg5"
   inkscape:version="1.1 (c4e8f9ed74, 2021-05-24)"
   sodipodi:docname="favicon.svg"
   xmlns:inkscape="http://www.inkscape.org/namespaces/inkscape"
   xmlns:sodipodi="http://sodipodi.sourceforge.net/DTD/sodipodi-0.dtd"
   xmlns="http://www.w3.org/2000/svg"
   xmlns:svg="http://www.w3.org/2000/svg">
  <sodipodi:namedview
     id="namedview7"
     pagecolor="#ffffff"
     bordercolor="#666666"
     borderopacity="1.0"
     inkscape:pageshadow="2"
     inkscape:pageopacity="0.0"
     inkscape:pagecheckerboard="0"
     inkscape:document-units="mm"
     showgrid="false"
     units="px"
     inkscape:zoom="16.831681"
     inkscape:cx="7.575001"
     inkscape:cy="15.536179"
     inkscape:window-width="1457"
     inkscape:window-height="1047"
     inkscape:window-x="177"
     inkscape:window-y="24"
     inkscape:window-maximized="0"
     inkscape:current-layer="layer1" />
  <defs
     id="defs2" />
  <g
     inkscape:label="Layer 1"
     inkscape:groupmode="layer"
     id="layer1">
    <path
       style="fill:#8c7739;fill-opacity:1;stroke-width:0.00796628"
       d="M 1.9472169,4.228358 C 1.8815387,4.2203863 1.7287585,4.1828328 1.6663497,4.1593206 1.38101,4.0518203 1.1875729,3.854091 1.1024581,3.5829178 1.0670097,3.4699804 1.0543965,3.3655815 1.059376,3.2263283 1.0654657,3.056027 1.0983122,2.9336501 1.189035,2.7432542 1.268231,2.5770496 1.3787,2.412382 1.6284935,2.0881873 1.8192093,1.840667 1.8467837,1.8024475 1.8976629,1.7151079 l 0.042544,-0.073032 -0.104044,-0.05618 C 1.7242704,1.5254779 1.6765371,1.483483 1.668104,1.4380403 1.6446875,1.3118579 1.7040549,1.2247813 1.8160113,1.2210992 c 0.035813,-0.00118 0.061925,0.011338 0.3711095,0.1778709 0.30892,0.1663908 0.3341735,0.1816065 0.3548935,0.2138292 0.029997,0.04665 0.035761,0.1221873 0.012979,0.1700776 -0.020626,0.043358 -0.047241,0.068803 -0.084303,0.080596 l -0.030668,0.00976 0.1419435,0.1819077 c 0.2728938,0.3497271 0.3902566,0.5257067 0.474302,0.7111914 0.087108,0.1922432 0.1187326,0.3255092 0.1187326,0.5003377 0,0.2708689 -0.081859,0.4936209 -0.2437558,0.6632975 -0.1470464,0.1541129 -0.3476541,0.2513296 -0.60133,0.2914117 -0.075568,0.01194 -0.3070462,0.016162 -0.3826977,0.00698 z m 0.30462,-0.3337645 C 2.5072658,3.8638978 2.7000228,3.7520854 2.7934394,3.580427 2.8701674,3.4394348 2.8878754,3.2307986 2.8370424,3.0667049 2.7766334,2.8717013 2.6678564,2.6909985 2.4155635,2.3665367 2.3542265,2.287654 2.2632433,2.1685653 2.2133789,2.1018951 2.1635149,2.0352249 2.1199029,1.9806767 2.1164639,1.9806767 c -0.00344,0 -0.032723,0.036493 -0.065075,0.081096 C 2.0190368,2.1063759 1.9301608,2.223604 1.8538865,2.3222796 1.5789448,2.6779702 1.4647038,2.8628447 1.4000904,3.0566499 1.3465873,3.2171301 1.3568612,3.4021742 1.4276311,3.5526861 1.543234,3.798548 1.8819232,3.9390472 2.2518369,3.8945935 Z M 2.3692674,1.4109308 C 2.3544954,1.404883 2.2005927,1.3233689 2.0272612,1.2297884 1.7361442,1.0726162 1.7104216,1.0570116 1.6899329,1.0251486 1.6455084,0.9560616 1.6575114,0.85328248 1.7162224,0.80004092 c 0.032867,-0.0298055 0.091874,-0.0435124 0.1358923,-0.0315669 0.040268,0.0109275 0.623144,0.32310938 0.6602889,0.35364318 0.085625,0.070385 0.070305,0.2364192 -0.02582,0.279824 -0.03857,0.017416 -0.087564,0.021171 -0.1173162,0.00899 z m 0.00384,-0.47206106 C 2.356222,0.93338627 2.2005927,0.85225334 2.0272612,0.75857461 1.7369554,0.60167556 1.710375,0.58554638 1.6900655,0.55396235 1.6640829,0.51355515 1.655235,0.43874209 1.6712513,0.3948756 1.6855909,0.3556007 1.7228328,0.3163906 1.7605359,0.3008726 1.8231484,0.2751022 1.8402313,0.2818364 2.189889,0.47012442 2.5633037,0.67120525 2.5603456,0.66886777 2.566931,0.7680614 2.572181,0.8470674 2.547911,0.89644088 2.488209,0.92824389 2.454848,0.94601509 2.408325,0.95030979 2.3731043,0.93886974 Z M 2.1141187,0.31378001 1.9625641,0.23147991 V 0.11573994 0 H 2.116037 2.26951 v 0.19848115 c 0,0.10916465 -8.635e-4,0.19828269 -0.00192,0.19804008 C 2.26653,0.3962786 2.197472,0.35904503 2.114117,0.31378003 Z"
       id="path836" />
  </g>
</svg>
