<?xml version="1.0" encoding="UTF-8" standalone="no"?>
<!-- Created with Inkscape (http://www.inkscape.org/) -->

<svg
   width="16"
   height="16"
   viewBox="0 0 4.2333332 4.2333335"
   version="1.1"
   id="svg5"
   inkscape:version="1.1 (c4e8f9ed74, 2021-05-24)"
   sodipodi:docname="favicon.svg"
   xmlns:inkscape="http://www.inkscape.org/namespaces/inkscape"
   xmlns:sodipodi="http://sodipodi.sourceforge.net/DTD/sodipodi-0.dtd"
   xmlns="http://www.w3.org/2000/svg"
   xmlns:svg="http://www.w3.org/2000/svg">
  <sodipodi:namedview
     id="namedview7"
     pagecolor="#ffffff"
     bordercolor="#666666"
     borderopacity="1.0"
     inkscape:pageshadow="2"
     inkscape:pageopacity="0.0"
     inkscape:pagecheckerboard="0"
     inkscape:document-units="mm"
     showgrid="false"
     units="px"
     width="16px"
     inkscape:zoom="23.803591"
     inkscape:cx="5.3353294"
     inkscape:cy="5.7764393"
     inkscape:window-width="1920"
     inkscape:window-height="1023"
     inkscape:window-x="0"
     inkscape:window-y="0"
     inkscape:window-maximized="1"
     inkscape:current-layer="layer1" />
  <defs
     id="defs2" />
  <g
     inkscape:label="Layer 1"
     inkscape:groupmode="layer"
     id="layer1">
    <rect
       style="fill:#303030;fill-opacity:1;stroke:none;stroke-width:0.950064;stroke-linecap:round;paint-order:markers fill stroke"
       id="rect2938"
       width="4.2333331"
       height="4.2333331"
       x="0"
       y="0"
       ry="0.54142863" />
    <path
       style="fill:#c09d0f;fill-opacity:1;stroke-width:0.00825953"
       d="M 1.7367293,4.0802536 C 1.6450945,4.0523013 1.6007551,4.0048391 1.5830968,3.9158014 1.5775966,3.8880677 1.5119969,3.5933877 1.4373194,3.260957 1.3626419,2.9285262 1.3034335,2.6548688 1.3057456,2.6528294 c 0.00232,-0.00204 0.019302,0.00832 0.037756,0.023034 0.1487066,0.1185184 0.4053435,0.1969218 0.6880038,0.210187 l 0.039573,0.00186 v 0.5352808 0.5352811 l -0.023627,0.035455 c -0.056055,0.084113 -0.1931345,0.1221995 -0.3107216,0.086331 z m 0.5893686,0.00362 C 2.2742645,4.0686768 2.24109,4.0517888 2.2144433,4.0270412 2.1619009,3.9782438 2.1634125,3.9963131 2.1634125,3.4168481 V 2.8863655 l 0.090136,-0.0045 C 2.5120449,2.8689485 2.7553278,2.7879935 2.909698,2.6635243 2.933915,2.6439983 2.93841,2.6424833 2.934445,2.6551843 2.931785,2.6637243 2.865559,2.9587041 2.7872859,3.3107097 2.7090139,3.6627151 2.6406859,3.9610028 2.635448,3.9735714 2.620857,4.0085804 2.578555,4.0466094 2.5301157,4.0682634 2.4767447,4.0921214 2.3795444,4.0995664 2.3260977,4.0838894 Z M 1.9567581,2.8370577 C 1.7931558,2.8221478 1.6589149,2.7896708 1.5346558,2.734938 1.3409417,2.6496121 1.2104013,2.5089019 1.1573269,2.328213 1.100874,2.1360234 1.134652,1.8704782 1.2438383,1.6480998 l 0.014537,-0.029606 -0.028844,0.00246 c -0.026742,0.00228 -0.030623,0.00636 -0.053247,0.056106 -0.1035821,0.2277361 -0.1248474,0.5242132 -0.051135,0.7129084 0.024571,0.062899 0.06639,0.1338199 0.1071852,0.1817773 0.033317,0.039167 0.034125,0.041515 0.021619,0.062849 -0.035681,0.060869 -0.1299611,0.097152 -0.2057009,0.07916 C 0.99956683,2.7021861 0.94582154,2.6591576 0.92844546,2.6178336 0.90958428,2.5729778 0.88883554,2.3830039 0.88253865,2.1975142 0.86568928,1.7011735 0.98759306,1.3177782 1.2396015,1.074529 1.3336597,0.9837399 1.4633251,0.90739713 1.5857493,0.87072829 l 0.07552,-0.0226201 0.055409,0.0510276 C 1.82441,0.99834839 1.9367406,1.0451575 2.0820334,1.0513826 c 0.1142882,0.0049 0.1796207,-0.00612 0.2748421,-0.04636 0.059433,-0.025114 0.08916,-0.044292 0.1450976,-0.0936063 l 0.07035,-0.0620211 0.039573,0.00906 c 0.05823,0.0133324 0.180095,0.0663738 0.2411996,0.10498138 0.2223809,0.14050643 0.3824116,0.38346353 0.4528054,0.68744473 0.054438,0.2350816 0.061614,0.5858216 0.018303,0.8946005 -0.013694,0.097625 -0.056452,0.1478615 -0.1434393,0.1685249 -0.043843,0.010415 -0.087527,0.00376 -0.1350085,-0.020552 -0.032939,-0.016869 -0.073314,-0.05993 -0.073314,-0.078193 0,-0.00388 0.015947,-0.025773 0.035437,-0.048656 0.049922,-0.058611 0.093436,-0.1423031 0.1201151,-0.2310204 0.020318,-0.067561 0.022933,-0.091211 0.023426,-0.2118125 4.032e-4,-0.098922 -0.00367,-0.1556174 -0.015016,-0.2089413 -0.016134,-0.075838 -0.055972,-0.1944372 -0.086818,-0.2584598 -0.015316,-0.031792 -0.021226,-0.036849 -0.043053,-0.036849 -0.013914,0 -0.025299,0.00149 -0.025299,0.0033 0,0.00181 0.011605,0.028866 0.025789,0.060122 0.071158,0.1568083 0.1016209,0.307107 0.094806,0.467755 -0.0055,0.1297269 -0.026087,0.2106141 -0.07698,0.302514 C 2.9153019,2.6510199 2.6883036,2.7803542 2.3703282,2.82613 2.2685382,2.840784 2.0585166,2.846334 1.9567572,2.837061 Z M 2.0345541,1.0063768 C 1.8424627,0.97617437 1.6832194,0.84446026 1.6365116,0.67714609 1.6216608,0.62394821 1.6234479,0.51560627 1.6400874,0.46038012 1.6611098,0.39060522 1.7043941,0.32572159 1.7682997,0.26818764 2.0040024,0.05598583 2.4140634,0.11501504 2.559262,0.38204843 2.601793,0.46026643 2.615926,0.52347524 2.609329,0.60594973 2.5946847,0.78900872 2.4551336,0.94094622 2.2530284,0.99387502 2.1927311,1.0096664 2.0921,1.0154248 2.0345541,1.0063768 Z"
       id="path836" />
  </g>
</svg>
