<?xml version="1.0" encoding="UTF-8" standalone="no"?>
<svg
   xmlns:dc="http://purl.org/dc/elements/1.1/"
   xmlns:cc="http://creativecommons.org/ns#"
   xmlns:rdf="http://www.w3.org/1999/02/22-rdf-syntax-ns#"
   xmlns:svg="http://www.w3.org/2000/svg"
   xmlns="http://www.w3.org/2000/svg"
   xmlns:sodipodi="http://sodipodi.sourceforge.net/DTD/sodipodi-0.dtd"
   xmlns:inkscape="http://www.inkscape.org/namespaces/inkscape"
   width="4.2333298mm"
   height="4.2333331mm"
   viewBox="0 0 4.2333298 4.2333331"
   version="1.1"
   id="svg8"
   inkscape:version="1.0.2 (e86c870879, 2021-01-15, custom)"
   sodipodi:docname="favicon.svg">
  <defs
     id="defs2" />
  <sodipodi:namedview
     id="base"
     pagecolor="#ffffff"
     bordercolor="#666666"
     borderopacity="1.0"
     inkscape:pageopacity="0.0"
     inkscape:pageshadow="2"
     inkscape:zoom="44.8"
     inkscape:cx="5.7199117"
     inkscape:cy="8.4779872"
     inkscape:document-units="mm"
     inkscape:current-layer="layer1"
     inkscape:document-rotation="0"
     showgrid="false"
     fit-margin-top="0"
     fit-margin-left="0"
     fit-margin-right="0"
     fit-margin-bottom="0"
     inkscape:window-width="1920"
     inkscape:window-height="1023"
     inkscape:window-x="0"
     inkscape:window-y="0"
     inkscape:window-maximized="1"
     inkscape:pagecheckerboard="true" />
  <metadata
     id="metadata5">
    <rdf:RDF>
      <cc:Work
         rdf:about="">
        <dc:format>image/svg+xml</dc:format>
        <dc:type
           rdf:resource="http://purl.org/dc/dcmitype/StillImage" />
        <dc:title></dc:title>
      </cc:Work>
    </rdf:RDF>
  </metadata>
  <g
     inkscape:label="Layer 1"
     inkscape:groupmode="layer"
     id="layer1">
    <circle
       style="fill:#ffffff;stroke-width:0.465743;stroke-linecap:round;fill-opacity:1"
       id="path831"
       cx="2.1166666"
       cy="2.1166666"
       r="2.1166666" />
    <path
       style="fill:#ff0000;fill-opacity:1;stroke-width:0.012579"
       d="M 2.0455562,4.1021982 C 1.4611901,3.7435583 1.1903144,3.5484446 0.93968963,3.3056332 0.4272266,2.809148 0.237916,2.2657563 0.41636918,1.8035113 0.51215088,1.5554096 0.67029338,1.3933507 0.92814775,1.2790569 1.0925822,1.2061727 1.2142791,1.1834455 1.3946935,1.1919359 c 0.2434934,0.011449 0.4085417,0.079927 0.5640246,0.2339884 l 0.086033,0.085247 -0.309637,0.00326 -0.3096387,0.00326 0.00867,0.027176 c 0.00476,0.014947 0.015527,0.058689 0.023916,0.097202 l 0.015254,0.070026 H 2.11941 2.765503 l 0.00809,-0.045668 c 0.00445,-0.025118 0.01349,-0.061556 0.020079,-0.080975 0.024211,-0.071285 0.037152,-0.068207 -0.286851,-0.068207 -0.1918612,0 -0.298841,-0.00438 -0.298841,-0.012255 0,-0.00675 0.039468,-0.04986 0.087703,-0.095816 0.1427762,-0.1360173 0.3134581,-0.2041971 0.543008,-0.2168935 0.1565573,-0.00866 0.27373,0.00815 0.4081336,0.058533 0.3304786,0.1238959 0.5483101,0.3677386 0.6184837,0.6923323 0.029606,0.1369465 0.020096,0.3760555 -0.020837,0.5240054 C 3.7207634,2.9142534 3.3556499,3.3349643 2.7093327,3.7751405 2.5088425,3.9116842 2.1384283,4.1358156 2.114895,4.1348231 2.10535,4.1343916 2.0741462,4.1197376 2.0455623,4.1021953 Z M 2.1950909,3.614943 c 4.604e-4,-0.034794 0.054107,-0.7915696 0.064127,-0.9042265 0.00684,-0.077025 0.015965,-0.192109 0.020252,-0.2557408 0.016769,-0.2487791 0.035236,-0.4239817 0.053721,-0.5097109 0.010621,-0.049261 0.01668,-0.092034 0.013459,-0.095056 -0.00689,-0.00646 -0.4501238,-0.00856 -0.4569467,-0.00217 -0.00255,0.00239 0.0035,0.039921 0.013428,0.083394 0.015446,0.06753 0.036043,0.2573201 0.064747,0.596611 0.00755,0.089207 0.040887,0.5726221 0.052912,0.7672224 0.00435,0.070329 0.0098,0.1388308 0.012119,0.1522277 0.00231,0.013392 0.00464,0.058607 0.00518,0.1004699 l 9.177e-4,0.076112 h 0.077959 c 0.042877,0 0.078012,-0.0041 0.078073,-0.00913 z M 1.8281773,1.2049886 C 1.7573086,1.101497 1.7331768,0.97446948 1.7608413,0.85054156 1.7928737,0.70704914 1.8969559,0.58771822 2.0552534,0.51299682 2.1428177,0.4716652 2.1861718,0.46105673 2.4964303,0.40503767 2.6797636,0.37193705 2.8171734,0.31729185 2.8627455,0.25936314 c 0.015039,-0.0191233 0.029883,-0.0617423 0.033924,-0.0974246 l 0.00719,-0.0634318 0.029131,0.0426244 c 0.076114,0.11135801 0.086031,0.26830638 0.024865,0.39352726 -0.036376,0.0744761 -0.1243575,0.17102427 -0.1807563,0.1983588 -0.020022,0.009707 -0.036405,0.022167 -0.036405,0.0276929 0,0.0177177 0.1329333,-0.008964 0.2002648,-0.040194 C 2.976791,0.7038945 3.008385,0.692425 3.011164,0.6950302 3.02499,0.7079893 2.943558,0.840637 2.8922894,0.88868984 2.8126083,0.96336678 2.7243143,1.002366 2.5537858,1.0382017 c -0.1562073,0.032825 -0.2381175,0.061585 -0.2661981,0.093468 -0.028954,0.032873 -0.040636,0.023574 -0.040636,-0.032344 0,-0.088886 0.033996,-0.17096262 0.098781,-0.23850085 0.057541,-0.059986 0.058434,-0.0620736 0.026498,-0.0620736 -0.018177,0 -0.064032,0.006199 -0.1019022,0.0137654 -0.2282402,0.045627 -0.3709399,0.17947273 -0.3979077,0.37321725 l -0.0097,0.069699 z"
       id="path847" />
  </g>
</svg>
