<?xml version="1.0" encoding="UTF-8" standalone="no"?>
<!-- Created with Inkscape (http://www.inkscape.org/) -->

<svg
   width="4.2333355mm"
   height="4.2333331mm"
   viewBox="0 0 4.2333355 4.2333331"
   version="1.1"
   id="svg5"
   inkscape:version="1.1.1 (3bf5ae0d25, 2021-09-20, custom)"
   sodipodi:docname="coffee.svg"
   xmlns:inkscape="http://www.inkscape.org/namespaces/inkscape"
   xmlns:sodipodi="http://sodipodi.sourceforge.net/DTD/sodipodi-0.dtd"
   xmlns="http://www.w3.org/2000/svg"
   xmlns:svg="http://www.w3.org/2000/svg">
  <sodipodi:namedview
     id="namedview7"
     pagecolor="#ffffff"
     bordercolor="#666666"
     borderopacity="1.0"
     inkscape:pageshadow="2"
     inkscape:pageopacity="0.0"
     inkscape:pagecheckerboard="0"
     inkscape:document-units="mm"
     showgrid="false"
     inkscape:zoom="5.9508979"
     inkscape:cx="43.774907"
     inkscape:cy="25.794427"
     inkscape:window-width="1457"
     inkscape:window-height="1047"
     inkscape:window-x="321"
     inkscape:window-y="38"
     inkscape:window-maximized="0"
     inkscape:current-layer="layer1" />
  <defs
     id="defs2" />
  <g
     inkscape:label="Layer 1"
     inkscape:groupmode="layer"
     id="layer1">
    <path
       style="fill:#000000;stroke-width:0.0141812"
       d="M 1.1364363,4.2250129 C 1.0473141,4.2069074 0.96214886,4.1444422 0.80929344,3.985066 0.57882532,3.7447661 0.43431282,3.5099623 0.27565997,3.1180181 0.11655616,2.72496 8.3435549e-4,2.2503991 1.3351304e-5,1.9876246 -5.2554831e-4,1.8152245 0.01496875,1.7801375 0.09766711,1.7664851 c 0.02980898,-0.00492 0.30797598,-0.00902 0.61814907,-0.0091 0.37918662,-1.072e-4 0.56395102,-0.00496 0.56395102,-0.01483 0,-0.032931 -0.050806,-0.08794 -0.1398597,-0.1514278 C 1.0011339,1.4921889 0.93797146,1.4309987 0.90898767,1.3674149 0.85556957,1.2502281 0.88728327,1.1077236 0.99290047,0.99035523 1.0525725,0.92404443 1.1619652,0.8410066 1.1739178,0.8529489 c 0.00273,0.002732 -9.094e-4,0.0303007 -0.0081,0.0612662 -0.023841,0.1027404 -0.016505,0.1932497 0.020631,0.2545503 0.018825,0.031075 0.093809,0.1078428 0.1666297,0.1705968 0.072821,0.062753 0.1536445,0.1456311 0.1796077,0.1841731 0.042214,0.062666 0.046715,0.078729 0.042562,0.1519084 l -0.00464,0.081834 0.3138973,-2.84e-5 0.3138973,-2.84e-5 0.00887,-0.044296 C 2.2236248,1.631234 2.2157428,1.5238316 2.1890928,1.4652012 2.1569008,1.3943795 2.0972778,1.3335815 1.9332023,1.2042692 1.6759487,1.0015266 1.6033074,0.88434946 1.6037526,0.67284367 1.6041762,0.47216152 1.6753046,0.30891834 1.826654,0.16128464 1.894567,0.0950392 2.0790274,-0.01460748 2.0952662,0.00161702 c 0.00344,0.00343413 -0.013148,0.06652884 -0.036861,0.14020453 -0.055299,0.17180653 -0.058763,0.2795299 -0.012099,0.3762528 0.022653,0.0469538 0.1106334,0.14856111 0.2694372,0.31116621 C 2.5819761,1.101847 2.62964,1.1749168 2.6392131,1.3251296 c 0.00664,0.1042592 -0.024142,0.2343751 -0.082692,0.3494928 l -0.042013,0.082603 0.4289543,1.608e-4 c 0.2359252,1.071e-4 0.4533436,0.00418 0.4831525,0.0091 0.082735,0.013658 0.097859,0.048215 0.097141,0.2219539 L 3.52315,2.1350456 3.596752,2.1533788 C 3.7276461,2.1859827 3.8608471,2.2659014 3.9755249,2.3806377 4.1515001,2.5567023 4.2317436,2.7465232 4.2333115,2.9904486 4.2349215,3.2419525 4.1554255,3.4350619 3.9760081,3.6154318 3.859431,3.7326277 3.7291942,3.8075147 3.5710414,3.8482903 3.4079632,3.8903355 3.0865881,3.8688741 2.9356369,3.8058587 L 2.8875919,3.785802 2.8356769,3.853817 C 2.7581879,3.9553386 2.5402973,4.1600549 2.4696484,4.1977161 2.4077154,4.2307304 2.4072234,4.2307561 1.7976099,4.233078 1.4620768,4.2343531 1.164549,4.2307261 1.1364372,4.2250172 Z M 3.519822,3.5068968 c 0.1467493,-0.047033 0.2597322,-0.1468435 0.3259552,-0.2879529 0.032582,-0.069427 0.037387,-0.097879 0.037387,-0.2214128 0,-0.1281551 -0.004,-0.1498881 -0.041706,-0.2266175 C 3.7720782,2.6297286 3.6314139,2.5127642 3.4992375,2.4863525 l -0.042747,-0.00854 -0.044528,0.161495 C 3.3543585,2.848227 3.2546022,3.122386 3.1660473,3.3151525 c -0.038658,0.08415 -0.070287,0.1595037 -0.070287,0.167452 0,0.00795 0.027134,0.021596 0.060297,0.030326 0.1152612,0.030345 0.2576272,0.027983 0.3637647,-0.00603 z"
       id="path836" />
  </g>
</svg>
