<?xml version="1.0" encoding="UTF-8" standalone="no"?>
<!-- Created with Inkscape (http://www.inkscape.org/) -->

<svg
   width="4.2333331mm"
   height="4.2333331mm"
   viewBox="0 0 4.2333331 4.2333331"
   version="1.1"
   id="svg5"
   inkscape:version="1.1.1 (3bf5ae0d25, 2021-09-20, custom)"
   sodipodi:docname="uncrossed.svg"
   xmlns:inkscape="http://www.inkscape.org/namespaces/inkscape"
   xmlns:sodipodi="http://sodipodi.sourceforge.net/DTD/sodipodi-0.dtd"
   xmlns="http://www.w3.org/2000/svg"
   xmlns:svg="http://www.w3.org/2000/svg">
  <sodipodi:namedview
     id="namedview7"
     pagecolor="#ffffff"
     bordercolor="#666666"
     borderopacity="1.0"
     inkscape:pageshadow="2"
     inkscape:pageopacity="0.0"
     inkscape:pagecheckerboard="0"
     inkscape:document-units="mm"
     showgrid="false"
     inkscape:zoom="16.831681"
     inkscape:cx="11.674413"
     inkscape:cy="13.516178"
     inkscape:window-width="1457"
     inkscape:window-height="1047"
     inkscape:window-x="307"
     inkscape:window-y="78"
     inkscape:window-maximized="0"
     inkscape:current-layer="layer1" />
  <defs
     id="defs2" />
  <g
     inkscape:label="Layer 1"
     inkscape:groupmode="layer"
     id="layer1">
    <path
       style="fill:#000000;stroke-width:0.0243384"
       d="M 1.5924013,4.1942497 C 1.5476646,4.1603394 1.5115882,4.0422618 1.392746,3.5407878 L 1.2476925,2.9287158 0.88842958,2.9221654 0.52916667,2.915615 0.53988355,2.7455529 C 0.54866852,2.6060634 0.5928386,2.4641363 0.78555241,1.9560872 0.91477685,1.6154147 1.0506879,1.2922167 1.0875762,1.2378683 1.1720183,1.1134592 1.3279617,1.0115647 1.4965883,0.97061802 1.6568158,0.93171122 2.5600035,0.92684642 2.744551,0.96389802 2.8977191,0.99464792 3.0717706,1.0952394 3.1607373,1.2044276 3.2003269,1.2530166 3.3248867,1.543531 3.4658995,1.9161663 3.6897609,2.5077339 3.7041667,2.5570244 3.7041667,2.7313728 V 2.916942 H 3.365539 3.0269122 l -0.023773,0.088306 c -0.013075,0.048568 -0.07816,0.321432 -0.1446314,0.606365 -0.095727,0.4103335 -0.132593,0.5290768 -0.1772955,0.5710425 -0.070404,0.066095 -0.157876,0.067593 -0.2439971,0.00417 -0.085854,-0.063219 -0.08541,-0.099283 0.00918,-0.7438815 0.041504,-0.2828299 0.075463,-0.5168855 0.075466,-0.5201233 3.8e-6,-0.00324 -0.1751695,-0.00588 -0.3892725,-0.00588 H 1.7433134 l 0.011913,0.064757 c 0.03071,0.1669352 0.1413598,0.9697086 0.1448044,1.0505624 0.00683,0.1604144 -0.1799471,0.2587675 -0.3076256,0.1619853 z M 1.1839046,2.5082238 C 1.2471506,2.3444945 1.4322964,2.2791002 1.56756,2.3727157 1.624608,2.4121987 1.64143,2.4159507 1.64143,2.3891917 1.64143,2.3323777 1.4610609,1.375544 1.4479423,1.3627634 1.4157115,1.3313629 1.3355812,1.4860892 1.2023569,1.8369719 1.1218956,2.0488867 1.0244244,2.3043951 0.98575157,2.4047695 L 0.91543967,2.5872673 H 1.0344055 c 0.1121594,0 0.1207133,-0.00452 0.1494991,-0.079044 z M 3.2904029,2.4283173 C 3.0441019,1.7601454 2.9136016,1.438625 2.8727761,1.3993934 2.8465697,1.3742094 2.8208818,1.3583154 2.8156922,1.3640714 2.8064922,1.3742784 2.6216877,2.3690122 2.62222,2.4054742 c 1.9e-4,0.010101 0.03351,-0.00464 0.074137,-0.032759 0.1355423,-0.093809 0.3550122,-0.011624 0.3921979,0.1468646 0.014835,0.063229 0.023936,0.067687 0.1381605,0.067687 H 3.3489949 Z M 1.917882,0.72107541 C 1.7879589,0.63829919 1.7348583,0.55460093 1.7242868,0.41592588 1.7115953,0.24942381 1.7866087,0.12358093 1.9424381,0.04995311 c 0.1356392,-0.0640878 0.2314646,-0.06620068 0.3680964,-0.0081169 0.1438261,0.06114454 0.2190866,0.16870485 0.2311556,0.33036083 0.011284,0.15113961 -0.04683,0.25551103 -0.1939413,0.34831498 -0.1167059,0.0736242 -0.3147819,0.0738823 -0.4298668,5.34e-4 z"
       id="path836" />
  </g>
</svg>
