<svg width="16" height="16" viewBox="0 0 4.233 4.233" xmlns="http://www.w3.org/2000/svg"><path fill="#fff" paint-order="markers fill stroke" d="M.242.191h3.797v3.797H.242z"/><path d="M.132 4.224a.177.177 0 01-.12-.114C.002 4.074-.002 3.454 0 2.077L.005.097.058.048.11 0h2.001c1.6 0 2.008.005 2.034.02.018.009.045.036.06.059.027.04.027.088.027 2.031 0 1.971 0 1.99-.028 2.037-.057.093.072.087-2.085.086-1.078-.001-1.972-.005-1.988-.01zm2.6-.389c.033-.02.487-.525.511-.57a.224.224 0 00.016-.086c0-.065-.004-.07-.209-.243l-.14-.12.023-.035c.014-.02.068-.131.121-.248l.1-.215a.659.659 0 01.042.1c.031.087.046.11.08.123.057.024.071.016.305-.183.22-.187.233-.21.171-.288-.052-.067-.101-.053-.253.074a.62.62 0 01-.142.102 1.563 1.563 0 01-.063-.143c-.065-.162-.112-.237-.169-.27-.064-.037-.598-.183-.636-.173a.127.127 0 00-.054.032 4.284 4.284 0 00-.206.515c0 .036.057.094.093.094.068 0 .087-.025.16-.216.04-.102.079-.192.085-.198.012-.013.184.03.184.045a7.79 7.79 0 01-.436.878l-.164.277-.274.09c-.244.08-.277.095-.3.133-.052.08-.002.194.093.212.03.006.081-.006.17-.04.07-.026.21-.075.31-.109.124-.04.193-.072.215-.096a1.86 1.86 0 00.127-.195l.093-.16.038.032.16.135c.068.057.123.11.123.116 0 .007-.078.1-.174.207a3.24 3.24 0 00-.19.225.187.187 0 00-.002.146c.031.06.132.087.191.052zm-.757-.914c0-.064-.006-.087-.022-.093-.032-.012-.034-.007-.025.09.006.061.014.088.027.088.014 0 .02-.022.02-.085zm-.085-.113c0-.007-.01-.013-.021-.013-.022 0-.028.016-.012.032.01.011.033-.001.033-.02zm.155-.006c0-.012-.035-.041-.078-.065-.135-.077-.123-.13.054-.229.161-.09.196-.134.166-.212-.02-.054-.061-.075-.277-.138-.143-.042-.205-.067-.228-.092-.041-.045-.04-.084 0-.111.043-.027.233-.068.467-.1l.18-.025.046-.093c.037-.077.052-.095.09-.106.04-.012.046-.02.046-.06a.267.267 0 00-.096-.186.477.477 0 00-.203-.076c-.023 0-.06.018-.092.046-.084.073-.085.08-.017.143.074.068.114.08.162.048.028-.018.04-.02.056-.007a.08.08 0 01.022.097c-.02.035-.056.046-.347.107-.27.056-.377.1-.427.175-.04.06-.04.117-.003.183.046.08.086.1.313.156.246.06.273.078.199.14a.861.861 0 01-.127.08c-.103.053-.131.085-.131.151 0 .064.038.111.126.158.077.04.1.044.1.016zm-.07-.163c0-.058-.01-.068-.04-.04-.03.03-.01.097.028.097.007 0 .012-.026.012-.057zm-.011-.217c.03-.023.034-.107.005-.107a.143.143 0 01-.043-.009c-.018-.007-.022.003-.022.054 0 .084.013.097.06.062zm.032-.383A.536.536 0 002 1.926c-.003-.003-.03-.002-.058.003-.05.008-.052.011-.052.061 0 .084.015.14.04.146.053.014.056.009.066-.097zm1.43-.236c.121-.08.153-.263.064-.374a.27.27 0 00-.235-.11c-.274.03-.336.388-.088.504a.279.279 0 00.26-.02zm-1.806.012a.323.323 0 01.108-.044c.05-.014.091-.03.091-.035 0-.005-.043-.017-.096-.027-.162-.029-.222-.087-.167-.162.017-.024.021-.025.063-.003.025.013.06.02.077.015.038-.01.137-.1.137-.124 0-.025-.099-.117-.138-.13a.081.081 0 00-.066.014.136.136 0 01-.05.022c-.045 0-.12.053-.157.111a.221.221 0 00-.04.144c0 .096.036.16.12.207.065.036.096.04.118.012zM2 1.7c.003-.002.012-.213.02-.468l.016-.465.038-.022c.05-.029.09-.133.078-.201-.021-.115-.156-.197-.264-.16a.224.224 0 00-.153.202c0 .052.052.147.09.164l.033.015.01.404c.005.223.012.438.017.48l.008.074.052-.01A.324.324 0 002 1.7zm-.221-.523l.044-.009-.009-.115a3.026 3.026 0 01-.009-.172c0-.056-.002-.06-.064-.083a.806.806 0 01-.204-.157C1.421.53 1.389.508 1.352.508c-.024 0-.124.036-.222.08C.967.66.66.766.509.804.455.818.45.823.466.843.52.908.7.95.782.918c.02-.008.04-.002.07.019.029.02.064.03.109.03.048 0 .074.008.098.03.076.071.207.107.268.074.023-.012.035-.01.06.013.043.04.143.087.211.101.057.012.087.01.18-.008zm.605-.02a.674.674 0 00.107-.063c.04-.03.051-.032.097-.02.064.018.15-.008.229-.067a.169.169 0 01.112-.04c.04 0 .075-.012.104-.033.039-.029.049-.03.098-.015.032.01.082.012.118.007.066-.01.2-.085.188-.105a.278.278 0 00-.089-.03A4.177 4.177 0 012.754.58c-.227-.104-.226-.104-.385.049a.876.876 0 01-.201.155l-.076.035-.01.116c-.015.199-.013.222.023.236a.49.49 0 00.279-.015z" fill="#0000ad"/></svg>