<?xml version="1.0" encoding="UTF-8" standalone="no"?>
<!-- Created with Inkscape (http://www.inkscape.org/) -->

<svg
   width="4.2333331mm"
   height="4.2333331mm"
   viewBox="0 0 4.2333331 4.2333331"
   version="1.1"
   id="svg5"
   inkscape:version="1.1 (c4e8f9ed74, 2021-05-24)"
   sodipodi:docname="favicon.svg"
   xmlns:inkscape="http://www.inkscape.org/namespaces/inkscape"
   xmlns:sodipodi="http://sodipodi.sourceforge.net/DTD/sodipodi-0.dtd"
   xmlns="http://www.w3.org/2000/svg"
   xmlns:svg="http://www.w3.org/2000/svg">
  <sodipodi:namedview
     id="namedview7"
     pagecolor="#ffffff"
     bordercolor="#666666"
     borderopacity="1.0"
     inkscape:pageshadow="2"
     inkscape:pageopacity="0.0"
     inkscape:pagecheckerboard="0"
     inkscape:document-units="mm"
     showgrid="false"
     fit-margin-top="0"
     fit-margin-left="0"
     fit-margin-right="0"
     fit-margin-bottom="0"
     inkscape:zoom="23.803591"
     inkscape:cx="11.762931"
     inkscape:cy="5.1462823"
     inkscape:window-width="1920"
     inkscape:window-height="1023"
     inkscape:window-x="0"
     inkscape:window-y="0"
     inkscape:window-maximized="1"
     inkscape:current-layer="layer1" />
  <defs
     id="defs2" />
  <g
     inkscape:label="Layer 1"
     inkscape:groupmode="layer"
     id="layer1">
    <rect
       style="fill:#8c528c;fill-opacity:1;stroke-width:0.00993777;stroke-linecap:round"
       id="rect1732"
       width="4.2333331"
       height="4.2333331"
       x="0"
       y="0"
       ry="0.58807707" />
    <path
       style="fill:#fafafa;fill-opacity:1;stroke-width:0.0179317"
       d="M 0.52929813,2.829217 C 0.52940091,2.1410913 0.53677313,1.6440158 0.54795993,1.5744 0.64154173,0.99200923 1.0494087,0.52347129 1.6285023,0.33312382 1.7868246,0.28108352 1.835351,0.27344922 2.0520621,0.26648902 c 0.2777274,-0.00892 0.4108154,0.011693 0.6443527,0.0997981 0.2635586,0.099431 0.5325298,0.30556785 0.7085358,0.54301572 0.093639,0.12632656 0.1990207,0.35176006 0.2454649,0.52509876 0.03881,0.1448532 0.040073,0.1810217 0.046819,1.3416078 L 3.7041645,3.96875 H 3.5398507 3.3755357 L 3.3752274,2.8114809 C 3.3748676,1.5339412 3.3741173,1.5236765 3.2617174,1.287731 3.0604355,0.8652004 2.6596323,0.59688147 2.1874057,0.56852981 1.5851849,0.53237354 1.0305208,0.93243987 0.87890102,1.5123243 0.84932165,1.6254534 0.84643959,1.740007 0.84643959,2.8026094 v 1.1661334 l -0.15863574,3.5e-6 -0.15863523,3.6e-6 z M 1.8567108,2.9308113 C 1.4971888,2.8544274 1.1922267,2.5881822 1.0860257,2.2579697 1.0493188,2.1438367 1.0458596,2.0971885 1.0458596,1.7162874 c 0,-0.47655 0.00707,-0.5113254 0.1301341,-0.6400319 0.1511439,-0.15807454 0.3571352,-0.20229483 0.9395226,-0.20168786 0.3877359,4.0221e-4 0.6438037,0.0265058 0.7623716,0.0777107 0.1086246,0.0469109 0.2078215,0.14031636 0.2555914,0.24067016 0.040587,0.085265 0.042273,0.1057949 0.042237,0.5144709 -1.85e-5,0.2984151 -0.00726,0.4521721 -0.024208,0.5143418 C 3.0566666,2.5697316 2.7430182,2.8534319 2.3669924,2.9313683 2.213783,2.9631226 2.007734,2.9628978 1.8567104,2.9308103 Z M 2.4146573,2.710145 C 2.5314142,2.6720566 2.7238928,2.5590511 2.7359338,2.5215218 2.7447375,2.4940842 2.5474047,2.4111032 2.4013516,2.3808261 c -0.156999,-0.032547 -0.4146717,-0.032547 -0.5716702,0 -0.1289576,0.026733 -0.3396421,0.1105357 -0.3396421,0.1350976 0,0.021911 0.10672,0.096644 0.2110849,0.1478174 C 1.914759,2.7684917 2.1824398,2.7859 2.4146573,2.710145 Z M 1.5469255,2.3732003 c 0.3461037,-0.157601 0.7713436,-0.1600021 1.1368624,-0.00642 0.1708221,0.071776 0.1556859,0.077111 0.2353036,-0.082944 0.048038,-0.09657 0.048581,-0.1019525 0.05421,-0.5370268 0.00544,-0.420735 0.00406,-0.4420504 -0.03241,-0.4997808 C 2.8701384,1.1350358 2.7183671,1.0944857 2.2696197,1.0676796 2.077524,1.0562047 1.6584784,1.0823639 1.5085643,1.1151891 c -0.1104948,0.024194 -0.190554,0.088433 -0.2271992,0.1823022 -0.042991,0.1101242 -0.031443,0.8111905 0.015338,0.9311918 0.036153,0.09274 0.099812,0.1970411 0.1202607,0.1970411 0.00804,0 0.066522,-0.023636 0.1299617,-0.052524 z"
       id="path836" />
  </g>
</svg>
