<?xml version="1.0" encoding="UTF-8" standalone="no"?>
<svg
   xmlns:dc="http://purl.org/dc/elements/1.1/"
   xmlns:cc="http://creativecommons.org/ns#"
   xmlns:rdf="http://www.w3.org/1999/02/22-rdf-syntax-ns#"
   xmlns:svg="http://www.w3.org/2000/svg"
   xmlns="http://www.w3.org/2000/svg"
   xmlns:sodipodi="http://sodipodi.sourceforge.net/DTD/sodipodi-0.dtd"
   xmlns:inkscape="http://www.inkscape.org/namespaces/inkscape"
   version="1.1"
   x="0px"
   y="0px"
   viewBox="0 0 16 16"
   enable-background="new 0 0 1000 1000"
   xml:space="preserve"
   id="svg10"
   sodipodi:docname="favicon.svg"
   width="16"
   height="16"
   inkscape:version="1.0.2 (e86c870879, 2021-01-15, custom)"><defs
   id="defs14" /><sodipodi:namedview
   pagecolor="#ffffff"
   bordercolor="#666666"
   borderopacity="1"
   objecttolerance="10"
   gridtolerance="10"
   guidetolerance="10"
   inkscape:pageopacity="0"
   inkscape:pageshadow="2"
   inkscape:window-width="1920"
   inkscape:window-height="1023"
   id="namedview12"
   showgrid="false"
   fit-margin-top="0"
   fit-margin-left="0"
   fit-margin-right="0"
   fit-margin-bottom="0"
   inkscape:zoom="27.296"
   inkscape:cx="13.652265"
   inkscape:cy="11.083857"
   inkscape:window-x="0"
   inkscape:window-y="0"
   inkscape:window-maximized="1"
   inkscape:current-layer="svg10" />
<metadata
   id="metadata2"> Svg Vector Icons : http://www.onlinewebfonts.com/icon <rdf:RDF><cc:Work
     rdf:about=""><dc:format>image/svg+xml</dc:format><dc:type
       rdf:resource="http://purl.org/dc/dcmitype/StillImage" /><dc:title></dc:title></cc:Work></rdf:RDF></metadata>
<circle
   style="fill:#6200ff;fill-opacity:1;stroke-width:0.0223145;stroke-linecap:round"
   id="path839"
   cx="8"
   cy="8"
   r="8" /><g
   id="g8"
   style="fill:#ff8c8c;fill-opacity:1"
   transform="matrix(0.01224484,0,0,0.01238422,1.8775276,0.74253297)"><g
     transform="matrix(0.1,0,0,-0.1,0,511)"
     id="g6"
     style="fill:#ff8c8c;fill-opacity:1"><path
       d="m 4708,4899 -63.5,-55.8 -11.5,-1103.8 c -13.5,-1200 -13.5,-1200 -132.7,-1573 -32.7,-100 -90.4,-242.3 -126.9,-317.3 l -65.4,-134.6 7.7,115.4 c 63.5,846.1 55.8,1284.6 -25,1550 -50,157.7 -103.8,240.4 -209.6,315.4 -75,51.9 -101.9,57.7 -253.8,63.5 C 3165.8,3785.7 2196.6,3105 1417.7,2066.5 1102.3,1649 804.2,1118.3 625.4,660.6 71.6,-758.6 -68.8,-2979.7 321.6,-4166.2 c 121.1,-367.3 263.5,-550 442.3,-565.4 153.8,-15.4 238.5,21.2 490.4,209.6 436.5,326.9 684.6,457.7 1400,746.1 217.3,88.5 473.1,196.2 569.2,242.3 359.6,169.3 603.8,375 711.5,596.2 69.2,140.4 80.8,336.5 44.2,719.2 -13.5,153.8 -25,400 -23.1,548.1 0,238.5 9.6,311.5 80.8,638.5 201.9,944.1 226.9,1090.3 240.4,1355.7 l 13.5,263.4 178.8,180.8 c 190.4,190.4 367.3,405.8 463.5,557.7 32.7,50 61.5,90.4 67.3,90.4 5.8,-1.9 53.8,-69.2 109.6,-150 109.6,-165.4 450,-551.9 540.4,-617.3 l 57.7,-40.4 13.5,-263.5 c 11.4,-269.2 42.1,-434.6 242.1,-1371.1 92.3,-436.5 103.8,-661.5 57.7,-1182.7 -48.1,-555.8 -15.4,-713.4 196.2,-946.1 186.5,-203.8 448.1,-348.1 1128.8,-621.1 709.6,-284.6 961.5,-419.2 1400,-746.1 251.9,-188.5 336.5,-225 490.4,-209.6 178.8,15.4 321.2,198.1 442.3,565.4 388.5,1182.7 250,3409.5 -300,4817.2 -536.5,1373 -1736.5,2688.4 -2773,3044.2 -182.7,61.5 -478.8,86.5 -594.2,48.1 -350,-115.4 -434.6,-601.9 -328.8,-1903.8 l 11.6,-125 -51.9,96.2 c -75,138.5 -157.7,373.1 -215.4,605.8 -48.1,201.9 -48.1,203.8 -59.6,1298.1 -9.6,828.8 -17.3,1105.7 -36.6,1138.4 -50,88.5 -94.2,101.9 -334.6,101.9 -223.2,-0.3 -227.1,-0.3 -288.6,-56 z m 451.9,-1150 c 7.7,-921.1 13.5,-1034.6 48.1,-1228.8 105.8,-561.5 334.6,-1036.5 719.2,-1498 173.1,-209.6 309.6,-336.5 357.7,-336.5 88.5,0 194.2,200 196.2,371.1 0,136.5 -23.1,190.4 -159.6,392.3 -128.8,188.5 -163.5,296.1 -184.6,557.7 -21.1,238.5 -50,296.1 -200,396.1 -59.6,40.4 -109.6,78.8 -109.6,86.5 0,7.7 44.2,9.6 98.1,5.8 l 100,-5.8 -11.5,111.5 c -11.6,105.8 -11.6,111.5 17.3,75 17.3,-21.2 63.5,-107.7 101.9,-192.3 l 73.1,-153.8 34.6,130.8 c 76.9,284.6 84.6,92.3 19.2,-476.9 l -11.5,-96.1 36.5,76.9 c 21.2,42.3 51.9,94.2 69.2,115.4 28.8,38.5 28.8,38.5 30.8,-3.8 0,-25 -23.1,-100 -51.9,-169.2 -51.9,-125 -51.9,-128.8 -17.3,-190.4 38.5,-73.1 255.8,-294.2 271.1,-276.9 5.8,5.8 25,73.1 40.4,151.9 38.5,175 26.9,586.5 -21.2,805.7 -42.3,188.5 -140.4,488.5 -226.9,688.4 -38.5,86.5 -65.4,157.7 -61.5,157.7 17.3,0 184.6,-250 203.8,-305.8 11.6,-32.7 26.9,-59.6 34.6,-59.6 9.6,0 42.3,57.7 75,130.8 l 61.5,128.8 v -76.9 c 0,-42.3 -17.3,-128.8 -40.4,-194.2 l -40.4,-115.4 63.4,-176.9 c 71.2,-196.2 75,-196.2 134.6,-3.8 51.9,163.5 69.2,69.2 26.9,-142.3 -40.4,-203.8 -59.6,-557.7 -34.6,-625 15.4,-40.4 32.7,-21.2 176.9,209.6 l 161.5,251.9 -42.3,205.8 c -21.2,113.5 -40.4,253.8 -40.4,311.5 l 1.9,105.8 53.9,-163.5 c 28.8,-90.4 67.3,-188.5 82.7,-221.1 l 30.8,-57.7 126.9,126.9 c 69.2,69.2 126.9,119.2 126.9,107.7 0,-88.5 -276.9,-621.2 -582.7,-1119.2 l -153.8,-250 -46.2,-450 -46.1,-451.9 82.7,-82.7 c 44.2,-46.2 88.5,-80.8 94.2,-78.8 7.7,3.8 76.9,67.3 155.8,142.3 l 142.3,134.6 92.3,321.1 92.3,319.2 -61.5,159.6 c -46.2,115.4 -65.4,200 -71.2,303.8 -5.8,119.2 -1.9,136.5 15.4,96.2 84.6,-184.6 159.6,-325 200,-375 l 48.1,-57.7 48.1,57.7 c 42.3,51.9 46.2,75 48.1,253.8 0,113.5 9.6,219.2 23.1,250 23.1,48.1 25,30.8 34.6,-165.4 l 9.6,-221.2 78.8,96.2 c 63.5,76.9 82.7,117.3 101.9,228.8 42.3,246.1 163.5,548.1 201.9,507.7 5.8,-5.8 -3.8,-75 -25,-153.8 -46.1,-182.7 -103.8,-517.3 -90.4,-530.8 19.2,-21.1 225,119.2 325,219.2 53.8,55.8 105.8,101.9 115.4,101.9 26.9,0 13.5,-86.5 -25,-148.1 -36.5,-63.5 -253.8,-236.5 -294.2,-236.5 -15.4,0 -15.4,-5.8 0,-21.2 11.5,-11.5 98.1,-23.1 196.2,-25 103.8,0 173.1,-9.6 169.2,-21.2 -11.6,-32.7 -94.2,-44.2 -317.3,-46.2 -244.2,-1.9 -305.8,-21.2 -403.8,-123.1 C 7532.9,1204.6 7450.2,995 7415.6,754.6 l -9.6,-73.1 215.4,5.8 c 205.8,7.7 221.2,11.5 315.4,71.1 98.1,63.5 394.2,355.8 457.7,451.9 17.3,28.8 40.4,51.9 50,51.9 40.4,0 11.6,-82.7 -69.2,-203.8 -48.1,-69.2 -86.5,-130.8 -86.5,-134.6 0,-17.3 109.6,36.5 203.8,100 57.7,38.5 109.6,65.4 115.4,59.6 23.1,-23.1 -59.6,-125 -157.7,-198.1 -57.7,-40.4 -171.2,-111.5 -251.9,-155.8 l -146.2,-78.5 86.5,-13.5 c 50,-7.7 136.5,-9.6 196.2,-5.8 59.6,1.9 107.7,0 107.7,-7.7 0,-34.6 -340.4,-90.4 -576.9,-92.3 l -105.8,-1.9 86.5,-76.9 c 48.1,-42.3 123.1,-100 169.2,-126.9 44.2,-25 80.8,-51.9 80.8,-55.8 0,-15.4 -138.5,15.4 -209.6,44.2 -34.6,15.4 -121.2,65.4 -192.3,113.5 -146.1,98.1 -226.9,107.7 -351.9,44.2 -80.8,-40.4 -380.8,-334.6 -380.8,-373.1 0,-53.8 200,-261.5 313.5,-325 234.6,-130.8 657.7,-215.4 840.4,-165.4 190.4,51.9 378.8,344.2 632.7,980.7 65.4,163.5 123.1,301.9 128.8,307.7 34.6,32.7 -67.3,-421.1 -136.5,-605.8 -11.5,-34.6 -9.6,-34.6 23.1,3.8 40.4,50 159.6,140.4 182.7,140.4 9.6,0 -36.5,-63.5 -98.1,-140.4 -125,-150 -350,-478.8 -338.4,-492.3 3.8,-3.8 63.5,38.5 130.8,92.3 136.6,107.7 167.3,121.1 125,55.8 -15.4,-25 -48.1,-76.9 -71.2,-117.3 l -44.2,-73.1 67.3,26.9 c 78.9,34.6 261.5,148.1 365.4,228.8 67.3,53.8 71.2,53.8 71.2,17.3 0,-105.8 -215.4,-255.8 -538.4,-378.8 l -163.5,-61.5 90.4,-42.3 c 234.6,-103.8 611.5,-151.9 790.4,-100 38.5,11.5 71.2,13.5 71.2,3.8 0,-28.8 -98.1,-96.2 -175,-119.2 -42.3,-11.5 -75,-28.8 -75,-36.5 0,-15.4 194.2,-92.3 236.5,-96.2 13.5,0 3.8,-7.7 -21.2,-17.3 -61.5,-25 -178.8,0 -542.3,123.1 -338.4,113.5 -425,128.8 -955.8,165.4 -161.5,11.5 -355.8,36.5 -432.7,55.8 -76.9,21.2 -142.3,34.6 -144.2,32.7 -1.9,-1.9 5.8,-36.5 17.3,-75 23.1,-73.1 217.3,-257.7 486.5,-459.6 305.8,-230.8 415.4,-255.8 778.8,-180.8 132.7,26.9 292.3,50 355.8,48.1 h 115.4 l -130.8,-38.5 c -186.5,-51.9 -440.4,-151.9 -432.7,-171.2 3.8,-7.7 59.6,-59.6 126.9,-115.4 213.5,-176.9 376.9,-436.5 401.9,-644.2 9.6,-73.1 5.8,-69.2 -65.4,67.3 -80.8,157.7 -230.8,365.4 -300,413.4 -40.4,28.8 -42.3,26.9 -55.8,-42.3 -7.7,-40.4 -13.5,-125 -13.5,-188.5 -1.9,-167.3 -34.6,-111.5 -82.7,138.5 l -40.4,213.4 -307.7,146.2 c -169.2,80.7 -311.5,144.2 -315.4,138.4 -17.3,-17.3 373.1,-919.2 450,-1040.4 109.6,-169.2 376.9,-434.6 553.8,-548.1 l 132.7,-86.5 -101.9,-5.8 c -109.6,-5.8 -109.6,-3.8 -67.3,-132.7 11.6,-36.5 -15.4,-7.7 -236.5,232.7 l -121.1,134.6 69.2,-192.3 c 38.5,-103.8 94.2,-294.2 123.1,-421.2 53.8,-217.3 105.8,-544.2 92.3,-557.7 -3.9,-3.8 -53.8,123.1 -111.5,284.6 l -103.9,292.3 -34.6,-171.2 c -19.2,-94.2 -38.5,-175 -40.4,-178.8 -3.9,-3.8 -13.5,90.4 -19.2,209.6 -15.4,265.4 -59.6,532.7 -123.1,736.5 -50,155.8 -144.2,363.5 -176.9,382.7 -23.1,15.4 -48.1,-711.5 -36.5,-1123.1 7.7,-280.7 5.8,-326.9 -13.5,-278.8 -34.6,82.7 -67.3,371.1 -67.3,596.1 v 192.3 l -76.9,-155.8 c -44.2,-86.5 -103.9,-180.8 -136.5,-211.5 l -57.7,-55.8 46.1,105.8 c 130.8,292.3 205.8,648.1 205.8,961.5 v 201.9 l -55.8,-117.3 c -51.9,-111.6 -171.1,-269.2 -188.5,-250 -3.8,3.8 13.5,51.9 42.3,105.8 153.8,303.8 138.5,655.8 -40.4,957.7 l -53.9,92.3 -82.7,-259.6 c -55.8,-173.1 -92.3,-336.5 -111.5,-490.4 -61.5,-486.5 -111.5,-569.2 -94.2,-155.8 7.7,153.8 9.6,280.8 3.8,280.8 -5.8,0 -51.9,-94.2 -101.9,-211.5 -51.9,-115.4 -96.2,-207.7 -100,-203.8 -3.8,3.8 23.1,109.6 59.6,234.6 38.5,125 65.4,230.8 61.5,234.6 -5.8,3.8 -26.9,-3.8 -50,-15.4 -71.2,-38.5 -63.5,-9.6 30.8,125 150,213.4 257.7,417.3 257.7,482.7 0,42.3 -26.9,98.1 -90.4,182.7 l -90.4,123.1 -13.4,-57.7 c -67.3,-288.5 -88.5,-367.3 -148.1,-507.7 -36.5,-88.4 -126.9,-259.6 -201.9,-382.7 -132.7,-220.6 -132.7,-222.5 -123.1,-332.1 9.6,-111.5 121.1,-369.2 261.5,-609.6 32.7,-53.8 51.9,-100 40.4,-100 -25,0 -223.1,194.2 -344.2,336.5 -44.2,53.8 -76.9,78.8 -69.2,57.7 48.1,-140.4 105.8,-415.4 101.9,-476.9 l -5.8,-75 -80.8,123.1 c -42.3,67.3 -96.2,136.5 -117.3,155.8 -38.5,36.5 -40.4,34.6 -59.6,-38.5 -11.5,-40.4 -21.1,-98.1 -23.1,-130.8 l -1.9,-57.7 -28.8,67.3 c -25,53.8 -26.9,115.4 -17.3,317.3 5.8,138.5 17.3,294.2 23.1,346.2 l 9.6,96.2 -57.7,-67.3 c -32.7,-36.5 -78.8,-103.9 -101.9,-148.1 -46.1,-86.5 -73.1,-105.8 -73.1,-48.1 1.9,69.2 76.9,194.2 253.8,413.5 323.1,401.9 403.8,580.8 403.8,900 0,215.4 -46.2,411.5 -148.1,613.5 -82.7,165.4 -105.8,180.8 -105.8,71.2 0,-113.5 -44.2,-253.8 -115.4,-365.4 -38.5,-59.6 -69.2,-146.2 -86.5,-240.4 -15.4,-80.8 -36.6,-153.8 -44.2,-161.5 -9.6,-9.6 -23.1,30.8 -28.8,92.3 -5.8,59.6 -19.2,117.3 -28.8,126.9 -11.5,11.5 -53.8,-69.2 -109.6,-209.6 -50,-125 -94.2,-230.8 -100,-236.5 -5.8,-5.8 -5.8,42.3 0,105.8 9.6,119.2 67.3,309.6 134.6,440.4 l 36.5,76.9 -53.8,44.2 c -30.8,25 -98.1,71.2 -151.9,101.9 -84.6,50 -90.4,57.7 -46.2,57.7 28.8,0 88.5,-13.5 132.7,-28.8 128.8,-46.2 130.8,-36.5 19.2,78.8 l -105.8,109.6 67.3,-13.5 c 40.4,-7.7 98.1,-42.3 148.1,-92.3 l 80.8,-78.8 23.1,55.8 c 51.9,132.7 -30.8,548.1 -157.7,798.1 -19.2,40.4 -161.5,186.5 -319.2,330.8 -530.7,482.7 -815.4,821.1 -975,1163.4 -30.8,65.4 -63.5,119.2 -69.2,119.2 -7.7,0 -32.7,-44.2 -59.6,-100 -61.5,-132.7 -228.8,-400 -326.9,-523.1 C 4569.6,1162.8 4346.5,932 4117.7,705.1 3673.5,262.8 3594.6,159 3517.7,-83.3 c -48.1,-151.9 -69.2,-409.6 -38.5,-488.5 l 23.1,-55.8 80.7,78.6 c 50,50 107.7,84.6 148.1,92.3 l 67.3,13.5 -105.8,-109.6 c -111.5,-115.4 -109.6,-125 19.2,-78.8 44.2,15.4 103.8,28.8 132.7,28.8 44.2,0 38.5,-7.7 -46.2,-57.7 -51.9,-30.8 -121.1,-76.9 -150,-100 l -53.9,-44.2 46.2,-105.8 c 69.2,-155.8 128.8,-359.6 128.8,-438.4 0,-96.2 -19.2,-65.4 -115.4,175 -50,126.9 -88.5,201.9 -100,190.4 -9.6,-9.6 -23.1,-67.3 -28.8,-126.9 -5.8,-59.6 -19.2,-101.9 -26.9,-94.2 -9.6,9.6 -30.8,84.6 -48.1,167.3 -19.2,90.4 -53.8,186.5 -86.5,240.4 -69.2,107.7 -113.5,250 -113.5,361.5 0,109.6 -23.1,94.2 -105.8,-71.2 -101.9,-201.9 -148.1,-398.1 -148.1,-613.5 0,-319.2 80.8,-498 403.8,-900 176.9,-219.2 251.9,-344.2 253.8,-413.5 0,-57.7 -26.9,-38.5 -73.1,48.1 -23.1,44.2 -69.2,111.5 -101.9,148.1 l -57.7,67.3 9.6,-96.2 c 5.8,-51.9 17.3,-207.7 23.1,-346.2 9.6,-203.8 7.7,-263.5 -17.3,-317.3 l -28.6,-67.2 -1.9,57.7 c -1.9,32.7 -11.5,90.4 -23.1,130.8 -19.2,73.1 -21.2,75 -59.6,38.5 -21.1,-19.2 -75,-88.5 -117.3,-155.8 l -80.8,-123.1 -5.8,71.2 c -5.8,57.7 67.3,400 107.7,507.7 5.8,17.3 -42.3,-36.5 -109.6,-117.3 -117.3,-146.2 -280.8,-303.8 -313.5,-303.8 -7.7,0 11.5,46.2 44.2,101.9 142.3,240.4 251.9,496.2 261.5,607.7 9.6,111.5 9.6,115.4 -105.8,303.8 -209.6,338.4 -267.3,484.6 -367.3,919.2 l -13.5,57.7 -61.5,-103.8 c -96.2,-169.2 -98.1,-226.9 -7.7,-415.4 44.2,-88.5 113.5,-215.4 157.7,-278.8 84.6,-123.1 88.5,-151.9 19.2,-115.4 -23.1,11.5 -44.2,19.2 -48.1,15.4 -3.8,-3.8 23.1,-109.6 57.7,-236.5 36.5,-125 63.5,-230.8 61.5,-234.6 -3.8,-1.9 -48.1,90.4 -100,205.8 -50,117.3 -96.2,211.5 -101.9,211.5 -5.8,0 -3.8,-126.9 3.8,-280.8 17.3,-413.5 -32.7,-330.8 -94.2,155.8 -19.2,153.8 -55.8,317.3 -111.5,490.4 l -82.7,259.6 -53.8,-92.3 c -178.8,-301.9 -194.2,-653.8 -40.4,-957.7 28.8,-53.8 46.2,-101.9 42.3,-105.8 -17.3,-17.3 -136.5,138.4 -190.4,250 l -57.7,117.3 9.6,-278.8 c 11.5,-311.5 55.8,-526.9 175,-821.2 36.5,-92.3 65.4,-169.2 63.5,-173.1 -13.5,-11.5 -128.8,155.8 -190.4,282.7 l -73.1,144.2 v -178.8 c 0,-226.9 -34.6,-532.7 -67.3,-607.7 -21.2,-51.9 -23.1,-23.1 -15.4,219.2 13.5,353.8 -11.5,1196.1 -34.6,1180.7 -32.7,-19.2 -126.9,-226.9 -176.9,-382.7 -63.5,-203.8 -107.7,-471.1 -123.1,-736.5 -5.8,-119.2 -15.4,-213.5 -19.2,-209.6 -1.9,3.8 -21.1,84.6 -40.4,178.8 l -34.6,171.2 -109.6,-298.1 c -105.8,-282.7 -109.6,-292.3 -100,-182.7 21.2,209.6 88.5,515.4 175,776.9 46.2,142.3 84.6,263.4 84.6,267.3 0,5.8 -50,-46.1 -111.5,-113.4 -213.5,-232.7 -238.5,-257.7 -226.9,-223.1 42.3,128.8 42.3,126.9 -67.3,132.7 l -101.9,5.8 132.7,86.5 c 176.9,113.5 444.2,378.8 553.8,548.1 76.9,121.1 467.3,1025 448.1,1042.3 -3.8,3.8 -144.2,-59.6 -313.5,-138.5 l -307.7,-148.1 -42.3,-213.4 c -23.1,-119.2 -50,-223.1 -57.7,-230.8 -7.7,-7.7 -21.2,63.5 -26.9,161.5 -5.8,96.2 -15.4,180.8 -21.2,186.5 -30.8,30.8 -236.5,-228.8 -344.2,-436.5 l -76.9,-146.2 13.5,92.3 c 25,198.1 203.8,473.1 415.4,644.2 57.7,48.1 107.7,92.3 111.5,101.9 7.7,17.3 -248.1,117.3 -432.7,169.2 l -130.8,38.5 h 115.4 c 63.5,1.9 223.1,-21.2 355.8,-48.1 355.8,-73.1 473.1,-48.1 761.5,169.2 284.6,213.5 480.8,396.1 503.8,471.2 11.5,38.5 19.2,73.1 17.3,75 -1.9,1.9 -67.3,-11.5 -144.2,-32.7 -76.9,-19.2 -271.1,-44.2 -432.7,-55.8 -530.8,-36.6 -617.3,-51.9 -955.8,-165.4 -363.2,-123 -480.5,-148 -542,-123 -25,9.6 -34.6,17.3 -21.1,17.3 42.3,3.8 236.5,80.8 236.5,96.2 0,7.7 -32.7,25 -75,36.5 -76.9,25 -175,90.4 -175,119.2 0,9.6 23.1,9.6 53.8,-1.9 146.2,-57.7 573.1,-5.8 807.7,98.1 l 90.4,42.3 -163.5,61.6 c -323.1,123 -538.4,273 -538.4,378.8 0,36.5 3.9,36.5 73.1,-17.3 101.9,-80.8 284.6,-194.2 363.5,-228.8 l 67.3,-26.9 -44.2,73.1 c -23.2,40.3 -55.9,92.2 -71.3,117.2 -42.3,65.4 -11.5,51.9 125,-55.8 67.3,-53.9 126.9,-96.2 130.8,-92.3 11.5,13.5 -213.5,342.3 -338.5,492.3 -61.5,76.9 -107.7,140.4 -98.1,140.4 25,0 132.7,-84.6 173.1,-134.6 32.7,-40.4 28.8,-17.3 -25,173.1 -55.8,200 -103.8,446.2 -80.8,423.1 5.8,-5.8 63.5,-142.3 128.8,-305.8 278.8,-698.1 457.7,-959.6 682.7,-992.3 196.2,-30.8 594.2,59.6 809.6,182.7 98.1,57.7 296.1,269.2 296.1,317.3 0,38.5 -300,332.7 -380.8,373.1 -126.9,65.4 -200,53.9 -369.2,-53.8 -132.7,-84.6 -353.8,-173.1 -376.9,-150 -5.8,3.9 19.2,25 53.9,46.2 34.6,21.1 111.5,76.9 169.2,123.1 l 105.8,84.6 -273.1,21.2 c -257.7,21.2 -409.6,51.9 -409.6,80.8 0,7.7 48.1,9.6 107.7,7.7 59.6,-3.8 146.2,-1.9 196.1,5.8 l 86.5,13.5 -146.1,78.8 c -80.8,44.2 -194.2,115.4 -251.9,155.8 -98.1,73.1 -180.8,175 -157.7,198.1 5.8,5.8 57.7,-21.2 115.4,-59.6 94.2,-63.5 203.8,-117.3 203.8,-100 0,3.9 -38.5,65.4 -86.5,134.6 -78.8,119.2 -109.6,203.8 -71.2,203.8 7.7,0 48.1,-42.3 86.5,-94.2 103.9,-136.5 376.9,-390.4 465.4,-434.6 61.5,-30.8 117.3,-38.5 278.8,-38.5 h 201.9 l -5.8,67.3 c -26.9,294.2 -192.3,590.4 -363.5,655.8 -25,9.6 -144.2,17.3 -261.5,19.2 -221.1,1.9 -303.8,13.5 -315.4,46.2 -3.8,11.5 65.4,21.2 169.2,21.2 98.1,1.9 184.6,13.5 196.1,25 15.4,15.4 15.4,21.2 0,21.2 -40.4,0 -257.7,173.1 -294.2,236.5 -38.5,61.5 -51.9,148.1 -23.1,148.1 7.7,0 51.9,-40.4 100,-90.4 82.7,-84.6 294.2,-236.5 330.8,-236.5 9.6,0 11.5,40.4 5.8,92.3 -13.5,94.2 -94.2,480.8 -117.3,557.7 -23.1,76.9 23.1,44.2 76.9,-53.8 50,-92.3 146.2,-423.1 146.2,-507.7 0,-21.2 38.5,-82.7 86.5,-136.5 l 84.6,-96.2 1.9,221.1 c 0,175 5.8,215.4 25,196.2 15.4,-17.3 25,-103.9 28.8,-248.1 5.8,-190.4 13.5,-230.8 48.1,-278.8 21.2,-28.8 46.2,-53.8 53.9,-53.8 25,0 167.3,226.9 201.9,321.1 53.8,148.1 71.1,146.1 59.6,-3.8 -5.8,-86.5 -30.8,-190.4 -71.2,-294.2 l -61.5,-159.6 92.3,-319.2 92.3,-321.1 142.3,-134.6 c 78.8,-75 148.1,-138.5 155.8,-142.3 5.8,-1.9 50,32.7 94.2,78.8 l 82.7,82.7 -46.2,451.9 -46.2,450 -153.8,250 C 2785,2076 2519.6,2589.4 2519.6,2687.5 c 0,11.5 28.8,-13.5 63.5,-53.8 32.7,-42.3 92.3,-100 128.8,-128.8 l 65.4,-51.9 28.8,53.8 c 15.4,28.8 51.9,126.9 80.8,217.3 l 53.8,163.5 1.9,-96.2 c 0,-51.9 -17.3,-194.2 -40.4,-311.5 l -40.4,-215.4 159.6,-253.8 159.6,-253.8 17.3,65.4 c 25,90.4 5.8,394.2 -34.6,605.8 -21.2,103.8 -28.8,190.4 -19.2,211.5 15.4,34.6 15.4,34.6 25,-1.9 3.8,-21.2 25,-84.6 46.2,-142.3 l 40.4,-103.8 67.3,178.8 67.3,178.8 -42.3,117.3 c -23.1,65.4 -40.4,148.1 -40.4,184.6 1.9,67.3 3.8,65.4 63.5,-51.9 32.7,-67.3 65.4,-121.1 73.1,-121.1 7.7,0 23.1,25 32.7,57.7 23.1,61.5 165.4,278.8 196.2,298.1 11.5,7.7 7.7,-19.2 -11.5,-61.5 -226.9,-523.1 -315.4,-878.8 -315.4,-1263.4 0,-173.1 38.5,-442.3 67.3,-469.2 15.4,-17.3 232.7,203.8 271.1,276.9 34.6,61.5 34.6,65.4 -17.3,190.4 -51.9,123.1 -69.2,228.8 -34.6,192.3 9.6,-11.5 40.4,-61.5 67.3,-113.5 26.9,-51.9 50,-90.4 50,-86.5 0,3.8 -13.5,128.8 -28.8,276.9 -46.2,436.5 -36.5,501.9 38.5,275 l 40.4,-115.4 73.1,165.4 c 98.1,219.2 132.7,248.1 115.4,98.1 l -13.5,-109.6 100,5.8 c 53.8,3.8 98.1,1.9 98.1,-5.8 0,-7.7 -50,-46.2 -109.6,-86.5 -150,-100 -178.8,-155.8 -200,-394.2 -21.2,-259.6 -61.5,-378.8 -188.5,-563.4 -132.7,-198.1 -155.8,-253.8 -155.8,-388.5 0,-123.1 59.6,-276.9 130.8,-340.4 55.8,-50 123.1,-19.2 248.1,109.6 367.3,380.8 626.9,794.2 776.9,1244.2 146.2,436.5 155.8,532.7 165.4,1678.8 l 9.6,1013.4 h 150 150 z"
       id="path4"
       style="fill:#ff8c8c;fill-opacity:1" /></g></g>
</svg>
