<?xml version="1.0" encoding="UTF-8" standalone="no"?>
<!-- Created with Inkscape (http://www.inkscape.org/) -->

<svg
   width="4.2333331mm"
   height="4.2333331mm"
   viewBox="0 0 4.2333331 4.2333331"
   version="1.1"
   id="svg5"
   inkscape:version="1.1.1 (3bf5ae0d25, 2021-09-20, custom)"
   sodipodi:docname="bpcuff.svg"
   xmlns:inkscape="http://www.inkscape.org/namespaces/inkscape"
   xmlns:sodipodi="http://sodipodi.sourceforge.net/DTD/sodipodi-0.dtd"
   xmlns="http://www.w3.org/2000/svg"
   xmlns:svg="http://www.w3.org/2000/svg">
  <sodipodi:namedview
     id="namedview7"
     pagecolor="#ffffff"
     bordercolor="#666666"
     borderopacity="1.0"
     inkscape:pageshadow="2"
     inkscape:pageopacity="0.0"
     inkscape:pagecheckerboard="0"
     inkscape:document-units="mm"
     showgrid="false"
     inkscape:zoom="16.831681"
     inkscape:cx="6.6838244"
     inkscape:cy="14.169708"
     inkscape:window-width="1457"
     inkscape:window-height="1013"
     inkscape:window-x="184"
     inkscape:window-y="0"
     inkscape:window-maximized="0"
     inkscape:current-layer="layer1" />
  <defs
     id="defs2" />
  <g
     inkscape:label="Layer 1"
     inkscape:groupmode="layer"
     id="layer1">
    <path
       style="fill:#000000;stroke-width:0.00560411"
       d="M 1.3980023,4.2302717 C 1.0723418,4.2016442 0.73622307,4.0584018 0.46842542,3.8341181 0.38827071,3.7669875 0.28430886,3.6558851 0.22645929,3.5755329 0.02567405,3.2966447 -0.03857448,3.0111689 0.02173221,2.6658687 0.05112615,2.4975665 0.10416024,2.3313316 0.21738972,2.0525819 c 0.0372531,-0.09171 0.08062,-0.2057265 0.0919662,-0.2417895 0.003074,-0.00977 0.005316,-0.0092 0.0259453,0.00659 0.0541061,0.041435 0.12255643,0.066318 0.18243371,0.066318 0.0184819,0 0.0336033,0.00112 0.0336033,0.0025 0,0.00808 -0.0658562,0.1820386 -0.11794209,0.3115498 -0.0334226,0.083105 -0.0742102,0.1901675 -0.0906393,0.2379172 -0.0936887,0.2722985 -0.11548056,0.4821918 -0.0688054,0.6627156 0.0362954,0.1403781 0.1298902,0.2990238 0.25013625,0.4239877 0.17245509,0.1792213 0.43230606,0.3295777 0.67402541,0.3900085 0.1326735,0.033169 0.1576249,0.036059 0.3125598,0.036209 0.1310836,1.297e-4 0.1517603,-0.00122 0.2054112,-0.013382 C 2.0657213,3.8559816 2.2496684,3.6133875 2.3078957,3.1547096 2.3228927,3.0365717 2.3269027,2.9396333 2.3269027,2.6952178 V 2.4537374 L 2.171872,2.4508137 c -0.091966,-0.00173 -0.1658105,-0.00578 -0.1815313,-0.00997 -0.014575,-0.00388 -0.049159,-0.019194 -0.076853,-0.03403 -0.041948,-0.022473 -0.057654,-0.035125 -0.094104,-0.075805 -0.036876,-0.041158 -0.047415,-0.05756 -0.06706,-0.1043756 -0.012819,-0.03055 -0.026383,-0.068877 -0.030142,-0.085172 -0.00913,-0.039564 -0.013771,-1.70030216 -0.00499,-1.78553384 0.01423,-0.13821539 0.084945,-0.25270679 0.1928667,-0.31226696 0.085494,-0.04718239 0.037063,-0.04470816 0.8397291,-0.0429030769 L 3.4637939,0.00236453 3.5066099,0.0185963 c 0.1004026,0.0380618 0.1821526,0.12519869 0.2211789,0.23575319 0.019501,0.0552428 0.024779,0.10151102 0.024825,0.21760902 l 4e-5,0.10221468 H 3.713593 c -0.1123262,0 -0.2450644,0.0498795 -0.3471463,0.13044819 -0.1320216,0.10419924 -0.2306484,0.2807594 -0.2548198,0.45617392 -0.00676,0.048968 -0.00826,0.1615527 -0.00277,0.20578 0.00927,0.074637 0.040398,0.1804988 0.07003,0.2381476 0.042155,0.082016 0.1094459,0.1696497 0.1709526,0.2226365 0.098688,0.085018 0.2509088,0.1452261 0.3671693,0.1452261 h 0.037169 l -0.00313,0.07555 c -0.00341,0.082446 -0.010492,0.118568 -0.034274,0.1749101 -0.044273,0.1048877 -0.1312313,0.1847115 -0.2348983,0.2156262 -0.030434,0.00908 -0.079156,0.010365 -0.4664505,0.012321 l -0.4324656,0.00219 -0.00331,0.258924 C 2.5744648,3.1180072 2.556561,3.2814452 2.4941126,3.492923 2.4415661,3.670868 2.3784568,3.791918 2.2774747,3.9084561 2.124468,4.0850335 1.9391837,4.1839775 1.6908754,4.2217059 c -0.070662,0.010738 -0.2188649,0.01507 -0.2928775,0.00856 z M 3.6360501,1.8218553 C 3.5037144,1.7904824 3.3904371,1.7065345 3.3166784,1.5851734 3.2217933,1.429053 3.2040898,1.2272387 3.2700713,1.0538909 3.3311583,0.89340318 3.4664057,0.76730126 3.6201492,0.72748564 c 0.076614,-0.0198413 0.1820151,-0.0155552 0.255611,0.0103944 0.1613237,0.056881 0.2798107,0.18582015 0.332457,0.36178436 0.057337,0.1916443 0.014863,0.404427 -0.1106342,0.5542452 -0.046947,0.056045 -0.088843,0.090558 -0.1492011,0.122914 -0.073919,0.039624 -0.1079882,0.048372 -0.1983777,0.050941 -0.054504,0.00155 -0.090336,-3.089e-4 -0.1139541,-0.00591 z M 3.7913905,1.6993414 C 3.8775434,1.6844238 3.9471927,1.6440889 4.0099753,1.5727566 4.154788,1.4082232 4.1576641,1.1488942 4.0165453,0.979964 3.9357953,0.88329719 3.8304826,0.83586195 3.7107094,0.84220861 c -0.1009188,0.005348 -0.1783391,0.0440462 -0.2520996,0.1260112 -0.048318,0.053693 -0.076078,0.10296209 -0.09682,0.17183869 -0.012886,0.042788 -0.014279,0.05577 -0.014308,0.1333233 -4.01e-5,0.081108 8.914e-4,0.088826 0.016449,0.1378338 0.00907,0.028553 0.024509,0.066829 0.034318,0.085058 0.040437,0.075135 0.1117946,0.1436251 0.1834192,0.1760461 0.028729,0.013004 0.045407,0.018022 0.099428,0.029915 0.021942,0.00483 0.073498,0.00348 0.1102886,-0.00289 z M 3.6996523,1.367474 C 3.6827213,1.359944 3.6584413,1.334247 3.6488273,1.313673 3.6369243,1.288202 3.6392073,1.237183 3.6532773,1.214066 3.6769123,1.175242 3.7156333,1.15672 3.7533017,1.166217 c 0.017115,0.00432 0.023293,0.002 0.058276,-0.021855 0.1425352,-0.09719 0.1637374,-0.1056044 0.1785548,-0.070871 0.00385,0.00901 0.00567,0.021014 0.00406,0.026665 -0.0016,0.00565 -0.039884,0.044938 -0.085045,0.087306 C 3.8496255,1.243303 3.8270135,1.268055 3.8269495,1.27744 3.8265188,1.340621 3.7542465,1.3917385 3.6996568,1.367474 Z M 0.47183554,1.7787357 c -0.007288,-0.00144 -0.030715,-0.011939 -0.0520607,-0.023324 C 0.30117872,1.6921538 0.23083397,1.526776 0.2311225,1.3118975 0.23163492,0.93023639 0.43687453,0.62117218 0.68948201,0.6216669 c 0.0810403,1.5677e-4 0.14902073,0.027206 0.21630037,0.0860592 0.0620242,0.0542562 0.10396872,0.12765861 0.12858082,0.2250197 0.00957,0.0378558 0.011997,0.0627388 0.012131,0.1243562 2.623e-4,0.1195555 -0.019943,0.2092246 -0.0761088,0.3377522 -0.0840518,0.1923413 -0.22462399,0.338261 -0.36505835,0.3789442 -0.0294375,0.00853 -0.10182903,0.011205 -0.1334918,0.00493 z"
       id="path836" />
  </g>
</svg>
