<?xml version="1.0" encoding="UTF-8" standalone="no"?>
<!-- Created with Inkscape (http://www.inkscape.org/) -->

<svg
   width="67.957497mm"
   height="105.63323mm"
   viewBox="0 0 67.957496 105.63324"
   version="1.1"
   id="svg5"
   inkscape:version="1.1.1 (3bf5ae0d25, 2021-09-20, custom)"
   sodipodi:docname="pain_arc.svg"
   xmlns:inkscape="http://www.inkscape.org/namespaces/inkscape"
   xmlns:sodipodi="http://sodipodi.sourceforge.net/DTD/sodipodi-0.dtd"
   xmlns="http://www.w3.org/2000/svg"
   xmlns:svg="http://www.w3.org/2000/svg">
  <sodipodi:namedview
     id="namedview7"
     pagecolor="#ffffff"
     bordercolor="#666666"
     borderopacity="1.0"
     inkscape:pageshadow="2"
     inkscape:pageopacity="0.0"
     inkscape:pagecheckerboard="true"
     inkscape:document-units="mm"
     showgrid="false"
     inkscape:zoom="1.0519801"
     inkscape:cx="257.60944"
     inkscape:cy="27.091768"
     inkscape:window-width="1920"
     inkscape:window-height="1023"
     inkscape:window-x="0"
     inkscape:window-y="0"
     inkscape:window-maximized="1"
     inkscape:current-layer="layer1"
     fit-margin-top="0"
     fit-margin-left="0"
     fit-margin-right="0"
     fit-margin-bottom="0" />
  <defs
     id="defs2">
    <inkscape:path-effect
       effect="simplify"
       id="path-effect43788"
       is_visible="true"
       lpeversion="1"
       steps="1"
       threshold="0.000515464"
       smooth_angles="360"
       helper_size="0"
       simplify_individual_paths="false"
       simplify_just_coalesce="false" />
    <inkscape:path-effect
       effect="simplify"
       id="path-effect43277"
       is_visible="true"
       lpeversion="1"
       steps="1"
       threshold="0.000515464"
       smooth_angles="360"
       helper_size="0"
       simplify_individual_paths="false"
       simplify_just_coalesce="false" />
    <inkscape:path-effect
       effect="simplify"
       id="path-effect42744"
       is_visible="true"
       lpeversion="1"
       steps="1"
       threshold="0.000515464"
       smooth_angles="360"
       helper_size="0"
       simplify_individual_paths="false"
       simplify_just_coalesce="false" />
    <inkscape:path-effect
       effect="simplify"
       id="path-effect1361"
       is_visible="true"
       lpeversion="1"
       steps="1"
       threshold="0.000515464"
       smooth_angles="360"
       helper_size="0"
       simplify_individual_paths="false"
       simplify_just_coalesce="false" />
    <inkscape:path-effect
       effect="simplify"
       id="path-effect1357"
       is_visible="true"
       lpeversion="1"
       steps="1"
       threshold="0.000515464"
       smooth_angles="360"
       helper_size="0"
       simplify_individual_paths="false"
       simplify_just_coalesce="false" />
    <inkscape:path-effect
       effect="simplify"
       id="path-effect1353"
       is_visible="true"
       lpeversion="1"
       steps="1"
       threshold="0.000515464"
       smooth_angles="360"
       helper_size="0"
       simplify_individual_paths="false"
       simplify_just_coalesce="false" />
    <inkscape:path-effect
       effect="simplify"
       id="path-effect1349"
       is_visible="true"
       lpeversion="1"
       steps="1"
       threshold="0.000515464"
       smooth_angles="360"
       helper_size="0"
       simplify_individual_paths="false"
       simplify_just_coalesce="false" />
    <inkscape:path-effect
       effect="simplify"
       id="path-effect1345"
       is_visible="true"
       lpeversion="1"
       steps="1"
       threshold="0.000515464"
       smooth_angles="360"
       helper_size="0"
       simplify_individual_paths="false"
       simplify_just_coalesce="false" />
    <inkscape:path-effect
       effect="simplify"
       id="path-effect1341"
       is_visible="true"
       lpeversion="1"
       steps="1"
       threshold="0.000515464"
       smooth_angles="360"
       helper_size="0"
       simplify_individual_paths="false"
       simplify_just_coalesce="false" />
    <inkscape:path-effect
       effect="simplify"
       id="path-effect1337"
       is_visible="true"
       lpeversion="1"
       steps="1"
       threshold="0.000515464"
       smooth_angles="360"
       helper_size="0"
       simplify_individual_paths="false"
       simplify_just_coalesce="false" />
    <inkscape:path-effect
       effect="simplify"
       id="path-effect1333"
       is_visible="true"
       lpeversion="1"
       steps="1"
       threshold="0.000515464"
       smooth_angles="360"
       helper_size="0"
       simplify_individual_paths="false"
       simplify_just_coalesce="false" />
    <inkscape:path-effect
       effect="simplify"
       id="path-effect1329"
       is_visible="true"
       lpeversion="1"
       steps="1"
       threshold="0.000515464"
       smooth_angles="360"
       helper_size="0"
       simplify_individual_paths="false"
       simplify_just_coalesce="false" />
    <inkscape:path-effect
       effect="simplify"
       id="path-effect1325"
       is_visible="true"
       lpeversion="1"
       steps="1"
       threshold="0.000515464"
       smooth_angles="360"
       helper_size="0"
       simplify_individual_paths="false"
       simplify_just_coalesce="false" />
    <inkscape:path-effect
       effect="simplify"
       id="path-effect1321"
       is_visible="true"
       lpeversion="1"
       steps="1"
       threshold="0.000515464"
       smooth_angles="360"
       helper_size="0"
       simplify_individual_paths="false"
       simplify_just_coalesce="false" />
    <inkscape:path-effect
       effect="simplify"
       id="path-effect1317"
       is_visible="true"
       lpeversion="1"
       steps="1"
       threshold="0.000515464"
       smooth_angles="360"
       helper_size="0"
       simplify_individual_paths="false"
       simplify_just_coalesce="false" />
    <inkscape:path-effect
       effect="simplify"
       id="path-effect1313"
       is_visible="true"
       lpeversion="1"
       steps="1"
       threshold="0.000515464"
       smooth_angles="360"
       helper_size="0"
       simplify_individual_paths="false"
       simplify_just_coalesce="false" />
    <inkscape:path-effect
       effect="simplify"
       id="path-effect1309"
       is_visible="true"
       lpeversion="1"
       steps="1"
       threshold="0.000515464"
       smooth_angles="360"
       helper_size="0"
       simplify_individual_paths="false"
       simplify_just_coalesce="false" />
    <inkscape:path-effect
       effect="simplify"
       id="path-effect1305"
       is_visible="true"
       lpeversion="1"
       steps="1"
       threshold="0.000515464"
       smooth_angles="360"
       helper_size="0"
       simplify_individual_paths="false"
       simplify_just_coalesce="false" />
    <inkscape:path-effect
       effect="simplify"
       id="path-effect1301"
       is_visible="true"
       lpeversion="1"
       steps="1"
       threshold="0.000515464"
       smooth_angles="360"
       helper_size="0"
       simplify_individual_paths="false"
       simplify_just_coalesce="false" />
    <inkscape:path-effect
       effect="simplify"
       id="path-effect1297"
       is_visible="true"
       lpeversion="1"
       steps="1"
       threshold="0.000515464"
       smooth_angles="360"
       helper_size="0"
       simplify_individual_paths="false"
       simplify_just_coalesce="false" />
    <inkscape:path-effect
       effect="simplify"
       id="path-effect1293"
       is_visible="true"
       lpeversion="1"
       steps="1"
       threshold="0.000515464"
       smooth_angles="360"
       helper_size="0"
       simplify_individual_paths="false"
       simplify_just_coalesce="false" />
    <inkscape:path-effect
       effect="simplify"
       id="path-effect1289"
       is_visible="true"
       lpeversion="1"
       steps="1"
       threshold="0.000515464"
       smooth_angles="360"
       helper_size="0"
       simplify_individual_paths="false"
       simplify_just_coalesce="false" />
    <inkscape:path-effect
       effect="simplify"
       id="path-effect1285"
       is_visible="true"
       lpeversion="1"
       steps="1"
       threshold="0.000515464"
       smooth_angles="360"
       helper_size="0"
       simplify_individual_paths="false"
       simplify_just_coalesce="false" />
    <inkscape:path-effect
       effect="simplify"
       id="path-effect1281"
       is_visible="true"
       lpeversion="1"
       steps="1"
       threshold="0.000515464"
       smooth_angles="360"
       helper_size="0"
       simplify_individual_paths="false"
       simplify_just_coalesce="false" />
    <inkscape:path-effect
       effect="simplify"
       id="path-effect1277"
       is_visible="true"
       lpeversion="1"
       steps="1"
       threshold="0.000515464"
       smooth_angles="360"
       helper_size="0"
       simplify_individual_paths="false"
       simplify_just_coalesce="false" />
    <inkscape:path-effect
       effect="simplify"
       id="path-effect1273"
       is_visible="true"
       lpeversion="1"
       steps="1"
       threshold="0.000515464"
       smooth_angles="360"
       helper_size="0"
       simplify_individual_paths="false"
       simplify_just_coalesce="false" />
    <inkscape:path-effect
       effect="simplify"
       id="path-effect1269"
       is_visible="true"
       lpeversion="1"
       steps="1"
       threshold="0.000515464"
       smooth_angles="360"
       helper_size="0"
       simplify_individual_paths="false"
       simplify_just_coalesce="false" />
    <inkscape:path-effect
       effect="simplify"
       id="path-effect1265"
       is_visible="true"
       lpeversion="1"
       steps="1"
       threshold="0.000515464"
       smooth_angles="360"
       helper_size="0"
       simplify_individual_paths="false"
       simplify_just_coalesce="false" />
    <inkscape:path-effect
       effect="simplify"
       id="path-effect1261"
       is_visible="true"
       lpeversion="1"
       steps="1"
       threshold="0.000515464"
       smooth_angles="360"
       helper_size="0"
       simplify_individual_paths="false"
       simplify_just_coalesce="false" />
    <inkscape:path-effect
       effect="simplify"
       id="path-effect1257"
       is_visible="true"
       lpeversion="1"
       steps="1"
       threshold="0.000515464"
       smooth_angles="360"
       helper_size="0"
       simplify_individual_paths="false"
       simplify_just_coalesce="false" />
    <inkscape:path-effect
       effect="simplify"
       id="path-effect1253"
       is_visible="true"
       lpeversion="1"
       steps="1"
       threshold="0.000515464"
       smooth_angles="360"
       helper_size="0"
       simplify_individual_paths="false"
       simplify_just_coalesce="false" />
    <inkscape:path-effect
       effect="simplify"
       id="path-effect1249"
       is_visible="true"
       lpeversion="1"
       steps="1"
       threshold="0.000515464"
       smooth_angles="360"
       helper_size="0"
       simplify_individual_paths="false"
       simplify_just_coalesce="false" />
    <inkscape:path-effect
       effect="simplify"
       id="path-effect1245"
       is_visible="true"
       lpeversion="1"
       steps="1"
       threshold="0.000515464"
       smooth_angles="360"
       helper_size="0"
       simplify_individual_paths="false"
       simplify_just_coalesce="false" />
    <inkscape:path-effect
       effect="simplify"
       id="path-effect1241"
       is_visible="true"
       lpeversion="1"
       steps="1"
       threshold="0.000515464"
       smooth_angles="360"
       helper_size="0"
       simplify_individual_paths="false"
       simplify_just_coalesce="false" />
    <inkscape:path-effect
       effect="simplify"
       id="path-effect1237"
       is_visible="true"
       lpeversion="1"
       steps="1"
       threshold="0.000515464"
       smooth_angles="360"
       helper_size="0"
       simplify_individual_paths="false"
       simplify_just_coalesce="false" />
    <inkscape:path-effect
       effect="simplify"
       id="path-effect1233"
       is_visible="true"
       lpeversion="1"
       steps="1"
       threshold="0.000515464"
       smooth_angles="360"
       helper_size="0"
       simplify_individual_paths="false"
       simplify_just_coalesce="false" />
    <inkscape:path-effect
       effect="simplify"
       id="path-effect1229"
       is_visible="true"
       lpeversion="1"
       steps="1"
       threshold="0.000515464"
       smooth_angles="360"
       helper_size="0"
       simplify_individual_paths="false"
       simplify_just_coalesce="false" />
    <inkscape:path-effect
       effect="simplify"
       id="path-effect1225"
       is_visible="true"
       lpeversion="1"
       steps="1"
       threshold="0.000515464"
       smooth_angles="360"
       helper_size="0"
       simplify_individual_paths="false"
       simplify_just_coalesce="false" />
    <inkscape:path-effect
       effect="simplify"
       id="path-effect1221"
       is_visible="true"
       lpeversion="1"
       steps="1"
       threshold="0.000515464"
       smooth_angles="360"
       helper_size="0"
       simplify_individual_paths="false"
       simplify_just_coalesce="false" />
    <inkscape:path-effect
       effect="simplify"
       id="path-effect1217"
       is_visible="true"
       lpeversion="1"
       steps="1"
       threshold="0.000515464"
       smooth_angles="360"
       helper_size="0"
       simplify_individual_paths="false"
       simplify_just_coalesce="false" />
    <inkscape:path-effect
       effect="simplify"
       id="path-effect1213"
       is_visible="true"
       lpeversion="1"
       steps="1"
       threshold="0.000515464"
       smooth_angles="360"
       helper_size="0"
       simplify_individual_paths="false"
       simplify_just_coalesce="false" />
    <inkscape:path-effect
       effect="simplify"
       id="path-effect1209"
       is_visible="true"
       lpeversion="1"
       steps="1"
       threshold="0.000515464"
       smooth_angles="360"
       helper_size="0"
       simplify_individual_paths="false"
       simplify_just_coalesce="false" />
    <inkscape:path-effect
       effect="simplify"
       id="path-effect1205"
       is_visible="true"
       lpeversion="1"
       steps="1"
       threshold="0.000515464"
       smooth_angles="360"
       helper_size="0"
       simplify_individual_paths="false"
       simplify_just_coalesce="false" />
    <inkscape:path-effect
       effect="simplify"
       id="path-effect1201"
       is_visible="true"
       lpeversion="1"
       steps="1"
       threshold="0.000515464"
       smooth_angles="360"
       helper_size="0"
       simplify_individual_paths="false"
       simplify_just_coalesce="false" />
    <inkscape:path-effect
       effect="simplify"
       id="path-effect1197"
       is_visible="true"
       lpeversion="1"
       steps="1"
       threshold="0.000515464"
       smooth_angles="360"
       helper_size="0"
       simplify_individual_paths="false"
       simplify_just_coalesce="false" />
    <inkscape:path-effect
       effect="simplify"
       id="path-effect1193"
       is_visible="true"
       lpeversion="1"
       steps="1"
       threshold="0.000515464"
       smooth_angles="360"
       helper_size="0"
       simplify_individual_paths="false"
       simplify_just_coalesce="false" />
    <inkscape:path-effect
       effect="simplify"
       id="path-effect1189"
       is_visible="true"
       lpeversion="1"
       steps="1"
       threshold="0.000515464"
       smooth_angles="360"
       helper_size="0"
       simplify_individual_paths="false"
       simplify_just_coalesce="false" />
    <inkscape:path-effect
       effect="simplify"
       id="path-effect1185"
       is_visible="true"
       lpeversion="1"
       steps="1"
       threshold="0.000515464"
       smooth_angles="360"
       helper_size="0"
       simplify_individual_paths="false"
       simplify_just_coalesce="false" />
    <inkscape:path-effect
       effect="simplify"
       id="path-effect1181"
       is_visible="true"
       lpeversion="1"
       steps="1"
       threshold="0.000515464"
       smooth_angles="360"
       helper_size="0"
       simplify_individual_paths="false"
       simplify_just_coalesce="false" />
    <inkscape:path-effect
       effect="simplify"
       id="path-effect1111"
       is_visible="true"
       lpeversion="1"
       steps="1"
       threshold="0.000515464"
       smooth_angles="360"
       helper_size="0"
       simplify_individual_paths="false"
       simplify_just_coalesce="false" />
    <inkscape:path-effect
       effect="fill_between_many"
       method="originald"
       linkedpaths="#path1359,0,1"
       id="path-effect6169"
       is_visible="true"
       lpeversion="0"
       join="true"
       close="true"
       autoreverse="true"
       applied="false" />
  </defs>
  <g
     inkscape:label="Layer 1"
     inkscape:groupmode="layer"
     id="layer1"
     transform="translate(-16.034472,-8.6320009)">
    <rect
       style="fill:#ffffff;fill-opacity:1;stroke-width:0.0425227"
       id="rect915"
       width="67.957497"
       height="105.63323"
       x="16.034472"
       y="8.6320009"
       ry="0" />
    <g
       id="g45453"
       transform="matrix(1.0184712,0,0,1.010582,-50.288303,-47.243056)">
      <path
         style="fill:#fb999f;fill-opacity:1;stroke:none;stroke-width:0.367424;stroke-linecap:round;stroke-miterlimit:4;stroke-dasharray:none;stroke-opacity:1;paint-order:markers fill stroke"
         id="path4160-6-5"
         sodipodi:type="arc"
         sodipodi:cx="14.30774"
         sodipodi:cy="-137.8259"
         sodipodi:rx="40.427605"
         sodipodi:ry="40.427605"
         sodipodi:start="3.3098484"
         sodipodi:end="4.4751713"
         sodipodi:arc-type="slice"
         transform="rotate(132.92222)"
         d="m -25.548961,-144.59602 a 40.427605,40.427605 0 0 1 30.356249,-32.52533 l 9.500452,39.29545 z" />
      <path
         style="fill:#fb999f;fill-opacity:1;stroke:none;stroke-width:0.367424;stroke-linecap:round;stroke-miterlimit:4;stroke-dasharray:none;stroke-opacity:1;paint-order:markers fill stroke"
         id="path4160-6-5-3"
         sodipodi:type="arc"
         sodipodi:cx="14.30774"
         sodipodi:cy="-137.8259"
         sodipodi:rx="40.427605"
         sodipodi:ry="40.427605"
         sodipodi:start="2.3794289"
         sodipodi:end="2.5824545"
         sodipodi:arc-type="slice"
         transform="rotate(132.92222)"
         d="m -14.935311,-109.91111 a 40.427605,40.427605 0 0 1 -5.027939,-6.46973 l 34.27099,-21.44506 z" />
      <path
         style="fill:#ffffff;fill-opacity:1;stroke:none;stroke-width:0.367424;stroke-linecap:round;stroke-miterlimit:4;stroke-dasharray:none;stroke-opacity:1;paint-order:markers fill stroke"
         id="path4160-6"
         sodipodi:type="arc"
         sodipodi:cx="14.30774"
         sodipodi:cy="-137.8259"
         sodipodi:rx="40.427605"
         sodipodi:ry="40.427605"
         sodipodi:start="4.4378863"
         sodipodi:end="5.4569999"
         sodipodi:arc-type="slice"
         transform="rotate(132.92222)"
         d="m 3.3490993,-176.7399 a 40.427605,40.427605 0 0 1 38.3558527,9.1855 l -27.397212,29.7285 z" />
      <path
         style="fill:none;fill-opacity:1;stroke:#000000;stroke-width:0.367424;stroke-linecap:round;stroke-miterlimit:4;stroke-dasharray:none;stroke-opacity:1;paint-order:markers fill stroke"
         id="path4160"
         sodipodi:type="arc"
         sodipodi:cx="14.30774"
         sodipodi:cy="-137.8259"
         sodipodi:rx="40.427605"
         sodipodi:ry="40.427605"
         sodipodi:start="2.4050318"
         sodipodi:end="5.4829472"
         sodipodi:arc-type="slice"
         d="m -15.640349,-110.66889 a 40.427605,40.427605 0 0 1 1.851498,-56.22542 40.427605,40.427605 0 0 1 56.255868,0.0607 L 14.30774,-137.8259 Z"
         transform="rotate(132.92222)" />
      <g
         id="g1565"
         style="fill:none;fill-opacity:1">
        <path
           inkscape:original-d="M 0,0"
           inkscape:path-effect="#path-effect6169"
           d="m 90.216139,61.713835 c -0.890591,-1.549736 -1.538095,1.83972 -1.526486,3.030648 -0.161899,2.116126 0.34336,4.393433 1.31858,6.285581 0.819304,3.396732 -0.52237,7.109605 0.07165,10.605223 -0.19257,1.677346 0.488828,3.39977 0.0692,5.02242 z"
           id="path6171"
           style="fill:none" />
        <path
           d="m 90.71753,63.34933 c 0.71029,-2.694334 -0.77809,-2.075016 -0.93562,-0.07129 -0.0775,0.726461 -0.27619,1.40094 -0.30684,2.366219 m 0.74107,-3.930427 c -0.89059,-1.549736 -1.5381,1.839719 -1.52649,3.030648 -0.1619,2.116125 0.34336,4.393433 1.31858,6.28558 0.06604,2.254631 0.149831,5.348309 -0.07274,8.164081 -0.278026,3.517344 0.546151,4.26544 0.213589,7.463563 l -16.927382,62.428556 22.536267,-4.10994 c -0.3174,-2.45879 -2.923605,-22.96527 -1.553515,-25.01374 0.68017,-3.07198 1.27136,-5.48748 1.34856,-8.49198 -0.20057,-1.36514 -0.5315,-2.73723 -0.5511,-4.15207 l -0.11667,-2.62065 c -0.30505,-3.06427 0.27702,-6.041801 0.39792,-9.078992 0.197119,-1.681333 0.483286,-8.298288 0.515196,-9.797742 0.09237,-4.340643 -1.503513,-10.684769 -2.251846,-11.25927 -0.37996,-3.085904 -0.22498,-6.084268 -1.84092,-8.75797 0.007,-1.36432 -0.86023,-4.486503 -1.18142,-1.29572 -0.0292,0.590962 -0.0774,1.183365 -0.0596,1.775378"
           style="fill:#ffffff;fill-opacity:1;stroke:none;stroke-width:0.116417;stroke-linecap:round;stroke-miterlimit:4;stroke-dasharray:none;stroke-opacity:1;paint-order:markers fill stroke"
           id="path21445"
           sodipodi:nodetypes="ccccccsccccccccscccc" />
        <path
           id="path1359"
           style="fill:none;fill-opacity:1;stroke:#000000;stroke-width:0.44;stroke-linecap:round;stroke-miterlimit:4;stroke-dasharray:none;stroke-opacity:1;paint-order:markers fill stroke"
           d="m 90.216139,61.713835 c -0.890591,-1.549736 -1.538095,1.83972 -1.526486,3.030648 -0.161899,2.116126 0.34336,4.393433 1.31858,6.285581 0.819304,3.396732 -0.52237,7.109605 0.07165,10.605223 -0.19257,1.677346 0.488828,3.39977 0.0692,5.02242 m 0.568452,-23.308375 c 0.710281,-2.694333 -0.778099,-2.075016 -0.935621,-0.07129 -0.07751,0.72646 -0.276191,1.40094 -0.306847,2.366218 m 4.127713,46.63418 c 1.22809,-1.98952 1.484172,-5.00884 1.282463,-7.58056 -0.305049,-3.06427 0.277016,-6.0418 0.397917,-9.078992 0.387216,-3.302796 0.04644,-6.65848 0.614277,-9.942674 -0.527481,-3.753818 -0.804897,-7.596174 -2.350925,-11.114338 -0.37996,-3.085902 -0.224986,-6.084266 -1.840921,-8.75797 0.0074,-1.364314 -0.860232,-4.486501 -1.18142,-1.29572 -0.02916,0.590963 -0.07744,1.183365 -0.05955,1.77538 m 2.823392,61.404894 c -0.317403,-2.45879 -0.4536,-5.67741 0.916484,-7.72588 0.680172,-3.07198 1.271329,-5.48748 1.348565,-8.49198 -0.200568,-1.36514 -0.531539,-2.73723 -0.551106,-4.15207 m -1.307316,9.84494 c -0.432392,1.33408 -1.436262,2.5527 -2.613917,3.25798 M 93.8757,114.8757 c -0.71752,1.21232 -1.268761,2.55919 -2.552903,3.26549 m -18.453929,2.1726 c -1.460353,2.197 -1.768412,4.84312 -2.142633,7.37095 -0.09767,3.2875 0.266226,6.70655 -0.765222,9.86552 -0.271085,0.30414 -0.603778,2.63817 -0.16489,2.10664 m 1.830193,-26.73246 c 0.0013,3.28776 1.677942,6.26863 1.975829,9.55182 1.004209,3.20847 -0.432392,6.57878 0.289198,9.63243 m 7.608998,-26.86239 c -1.416728,3.17235 -0.566025,6.714 -0.236557,10.01611 0.266185,2.36694 0.878075,4.58052 0.850599,7.14042 -0.20049,3.30411 0.902854,7.14973 -0.574952,10.19112 m -7.64812,-0.48526 c -0.332757,0.60503 -0.111869,1.48241 -0.0752,2.13694 m 19.641043,-3.72583 c -2.786875,2.36033 -6.578866,2.30281 -10.069211,2.19217 -3.16874,-0.06 -6.433992,0.38219 -9.496633,-0.60328 m 15.165683,2.52355 c 1.491219,-0.28148 3.310689,-0.76868 4.419031,-1.73449 m -19.659841,1.34788 c 2.655634,0.42538 5.595591,0.21475 8.210557,0.3815 0.430838,0.10172 2.764355,0.23809 3.700901,0.0121 m 7.748362,-1.74151 c -0.118778,-1.73619 0.02934,-3.48033 -0.18799,-5.20926 m -9.142981,24.20976 c 2.922102,0.18884 6.082039,0.91155 8.706655,-0.84025 3.27234,0.87391 3.87653,-2.13532 3.318602,-4.93053 -1.175126,-2.68077 -0.354935,-5.5898 -0.776524,-8.42329 0.486066,-2.10376 -1.607023,-2.97976 -1.917762,-4.80643 m -10.304047,19.0736 c 0.03441,-0.12574 1.302172,-0.14831 0.856722,0.0154 m 10.620254,-0.91507 c -0.323593,2.82339 -1.030353,5.62705 -1.26142,8.41895 m -9.181819,-6.78282 c -0.04755,2.19941 0.01671,4.40647 0.223045,6.57875 m -0.400019,-7.30052 c 0.276538,2.56225 -1.214587,4.80201 -1.179437,7.34347 m -9.458316,-8.3184 c 0.222396,2.7622 0.739085,5.45027 0.651513,8.27206 m 15.423599,-8.79107 c 0.537729,0.15279 1.944695,-0.31193 2.142556,0.26328 m -5.73174,0.11663 c 1.925145,0.004 3.85064,0.75289 5.731748,-0.11628 m -8.900914,-5.4317 c 1.786998,1.1399 4.092384,0.15678 5.921875,0.81515 m -13.283041,4.3352 c 1.300752,0.22523 2.667807,0.22896 3.808403,-0.45746 m -6.282561,-3.84925 c 0.465403,0.86311 1.081673,1.57755 1.722834,2.30703 m 6.946024,-3.02069 c -1.240243,1.57493 -3.452116,0.93826 -5.181517,0.90524 -0.486494,-0.2506 -0.910328,-0.60999 -1.510996,-0.44659 m 6.730944,-5.07642 c 0.345627,3.11211 1.655205,6.00595 1.368813,9.21173 -0.324174,0.58466 -0.556715,1.6172 0.22345,1.92338 m -9.355773,-17.72569 c -1.287437,2.81756 -1.685381,5.83881 -1.511669,8.95534 0.742274,2.38137 -1.311378,6.81151 1.236162,7.77331 2.178091,1.54764 4.712474,0.46004 7.085084,0.24118 h 1.834477 m -12.458274,-6.42027 c 0.02886,0.63764 -0.09071,1.3014 0.05248,1.92533 m 0.583297,1.23177 c 0.188033,0.28809 1.966015,2.00464 0.74628,2.30635 m -1.205339,-1.46262 c 0.565579,0.57615 2.155223,2.87093 0.37346,2.51102 -0.135953,-0.13193 -0.359502,-0.22587 -0.427264,-0.42162 m -0.946615,-1.04192 c -0.09954,0.4684 0.65369,1.50973 1.044353,0.80016 0.316401,-1.70524 -0.37319,-3.53229 -0.98817,-4.88209 -0.365105,1.20761 0.344786,2.83703 -0.05614,4.08192 M 69.79606,139.6569 c 0.784762,1.80981 1.703797,3.63466 1.57006,5.70181 0.514913,2.55101 -1.064124,3.79546 -1.729449,1.00983 -0.65942,-0.97761 -0.694042,-1.62386 -0.871304,-2.52481 m -1.186672,-29.83272 c -0.470192,3.15851 -1.028469,6.30495 -1.434582,9.45541 -1.311314,2.4059 -0.65446,5.05456 -0.496676,7.6459 -0.07384,3.00941 0.368581,5.94116 0.861229,8.88824 0.0043,2.76913 0.382161,5.3646 1.370917,8.0022 0.289796,0.61885 0.373558,1.8781 1.298724,1.84073 m 8.068324,-47.28704 c -2.544555,1.39796 -4.832317,3.24666 -7.413509,4.63478 -2.226302,1.55264 -1.892895,4.4749 -2.254426,6.81978 m 11.8398,-27.290998 c 0.04438,-0.628456 0.609411,-1.003486 0.801568,-1.559245 m -0.342847,2.228498 c -0.500753,0.257666 -1.615176,0.911591 -1.684888,1.681922 m 10.083901,3.497114 c -1.227757,-1.280496 -1.079913,5.249469 0.235747,2.966288 m -7.716878,1.979907 c 0.880363,1.015365 2.925359,0.655185 4.18133,0.227155 1.134543,-0.394369 1.90773,-1.179308 2.507965,-2.187893 M 77.24664,102.55648 c 2.363157,-0.69607 3.393929,-3.813893 2.026081,-5.651274 -0.282106,-1.67588 -1.9206,-2.972886 -1.933257,-4.790483 -0.33873,-2.55723 0.567816,-4.766859 2.164339,-6.559048 1.786718,-0.935047 3.710379,-1.649319 5.845929,-1.376025 1.617647,0.504197 3.86214,1.111184 4.6997,2.738585 -0.339427,2.322507 -0.643304,4.628652 -0.732034,7.002243 -0.03515,2.685874 -1.48902,5.126327 -2.813048,7.405992 -0.20676,0.5192 -0.214483,1.07803 -0.130515,1.6225"
           sodipodi:nodetypes="ccccccccccccccccccccccccccccccccccccccccccccccccccccccccccccccccccccccccccccccccccccccccccccccccccccccccccccccccccccccccccccc" />
        <text
           xml:space="preserve"
           style="font-style:normal;font-weight:normal;font-size:3.52778px;line-height:1;font-family:sans-serif;fill:#000000;fill-opacity:1;stroke:none;stroke-width:0.264583"
           x="105.76695"
           y="101.34109"
           id="text27786"><tspan
             sodipodi:role="line"
             id="tspan27784"
             style="font-style:normal;font-variant:normal;font-weight:normal;font-stretch:normal;font-size:3.52778px;font-family:Tahoma;-inkscape-font-specification:Tahoma;stroke-width:0.264583"
             x="105.76695"
             y="101.34109">Glenohumeral</tspan><tspan
             sodipodi:role="line"
             style="font-style:normal;font-variant:normal;font-weight:normal;font-stretch:normal;font-size:3.52778px;font-family:Tahoma;-inkscape-font-specification:Tahoma;stroke-width:0.264583"
             x="105.76695"
             y="104.96611"
             id="tspan27788">painful arc</tspan></text>
        <text
           xml:space="preserve"
           style="font-style:normal;font-weight:normal;font-size:3.52778px;line-height:1;font-family:sans-serif;fill:#000000;fill-opacity:1;stroke:none;stroke-width:0.264583"
           x="104.44775"
           y="57.970264"
           id="text27786-6"><tspan
             sodipodi:role="line"
             style="font-style:normal;font-variant:normal;font-weight:normal;font-stretch:normal;font-size:3.52778px;font-family:Tahoma;-inkscape-font-specification:Tahoma;stroke-width:0.264583"
             x="104.44775"
             y="57.970264"
             id="tspan27788-9">Acromioclavicular</tspan><tspan
             sodipodi:role="line"
             style="font-style:normal;font-variant:normal;font-weight:normal;font-stretch:normal;font-size:3.52778px;font-family:Tahoma;-inkscape-font-specification:Tahoma;stroke-width:0.264583"
             x="104.44775"
             y="61.595287"
             id="tspan35402">painful arc</tspan></text>
        <text
           xml:space="preserve"
           style="font-style:normal;font-weight:normal;font-size:3.52778px;line-height:1;font-family:sans-serif;fill:#000000;fill-opacity:1;stroke:none;stroke-width:0.264583"
           x="101.34032"
           y="80.694565"
           id="text27786-6-1"><tspan
             sodipodi:role="line"
             style="font-style:normal;font-variant:normal;font-weight:normal;font-stretch:normal;font-size:3.52778px;font-family:Tahoma;-inkscape-font-specification:Tahoma;stroke-width:0.264583"
             x="101.34032"
             y="80.694565"
             id="tspan35402-7">Painless</tspan></text>
        <text
           xml:space="preserve"
           style="font-style:normal;font-weight:normal;font-size:3.52778px;line-height:1;font-family:sans-serif;fill:#000000;fill-opacity:1;stroke:none;stroke-width:0.264583"
           x="99.953514"
           y="128.16901"
           id="text27786-6-1-0"><tspan
             sodipodi:role="line"
             style="font-style:normal;font-variant:normal;font-weight:normal;font-stretch:normal;font-size:3.52778px;font-family:Tahoma;-inkscape-font-specification:Tahoma;stroke-width:0.264583"
             x="99.953514"
             y="128.16901"
             id="tspan35402-7-9">Painless</tspan></text>
        <path
           style="fill:#ffffff;fill-opacity:1;stroke:#000000;stroke-width:0.439999;stroke-linecap:round;stroke-miterlimit:4;stroke-dasharray:none;stroke-opacity:1;paint-order:markers fill stroke"
           d="m 95.419216,69.45994 c 5.037364,-2.208999 10.074734,-4.417997 15.112104,-6.626996"
           id="path42742"
           inkscape:path-effect="#path-effect42744"
           inkscape:original-d="M 95.419216,69.45994 110.53132,62.832944"
           sodipodi:nodetypes="cc" />
      </g>
      <path
         id="path43275-3"
         style="fill:#000000;fill-opacity:1;stroke:#000000;stroke-width:0;stroke-linecap:square;stroke-miterlimit:4;stroke-dasharray:none;stroke-opacity:1;paint-order:markers fill stroke"
         d="m 95.979052,62.744734 -0.844023,1.301821 0.723996,1.372202 c 0.844924,1.43274 -3.16152,-1.035051 -4.742282,-1.552566 1.620769,-0.37382 5.767172,-2.517114 4.862309,-1.121457 z"
         sodipodi:nodetypes="scscs" />
    </g>
  </g>
</svg>
