<svg xmlns="http://www.w3.org/2000/svg" viewBox="0 0 14 16" height="60.472" width="14mm"><path d="M6.488 15.963c-.295-.08-.337-.103-3.106-1.746-2.65-1.572-2.898-1.76-3.22-2.43L0 11.45V4.54l.161-.335c.323-.67.57-.858 3.22-2.43A177.723 177.723 0 016.156.149c.383-.199 1.307-.199 1.69 0 .15.077 1.397.809 2.773 1.626 2.65 1.572 2.898 1.76 3.22 2.43L14 4.54v6.911l-.161.336c-.323.67-.57.858-3.22 2.43-1.377.817-2.62 1.544-2.763 1.616-.287.144-1.045.216-1.368.13zm3.73-1.97c1.445-.86 2.713-1.638 2.817-1.729.105-.09.273-.31.375-.488l.184-.325V4.54l-.184-.324a2.265 2.265 0 00-.375-.488c-.104-.09-1.375-.872-2.825-1.736L7.575.422h-1.15L3.79 1.992C2.34 2.856 1.07 3.637.965 3.728c-.105.09-.273.31-.375.488l-.184.324v6.911l.18.314c.098.173.25.383.338.467.187.18 5.124 3.14 5.467 3.28.149.06.416.086.718.07l.48-.025zm-6.099-.912c-1.997-1.193-2.605-1.589-2.705-1.759-.122-.207-.129-.395-.129-3.326 0-2.932.007-3.119.129-3.326.1-.171.706-.564 2.72-1.763C6.362 1.58 6.762 1.364 7.001 1.364c.266 0 .504.115 1.472.715l.222.137-.127.22c-.069.12-.864 1.285-1.767 2.587-.903 1.303-1.656 2.41-1.675 2.46-.027.071.175.094.953.11l.987.019-1.326 2.395c-.729 1.318-1.313 2.408-1.298 2.423.015.016 1.41-1.4 3.1-3.145l3.075-3.174H9.62c-.548 0-.997-.014-.997-.03 0-.025 1.6-2.808 1.662-2.89.01-.012.502.265 1.094.617.776.461 1.113.702 1.207.86.122.21.129.392.129 3.328 0 2.931-.007 3.119-.129 3.326-.1.17-.706.564-2.72 1.763-2.3 1.37-2.622 1.542-2.88 1.54-.252-.004-.627-.205-2.867-1.544z" fill="#0f75bc"/></svg>