<?xml version="1.0" encoding="UTF-8" standalone="no"?>
<!-- Created with Inkscape (http://www.inkscape.org/) -->

<svg
   width="4.2333341mm"
   height="4.2333331mm"
   viewBox="0 0 4.2333341 4.2333331"
   version="1.1"
   id="svg5"
   inkscape:version="1.1.1 (3bf5ae0d25, 2021-09-20, custom)"
   sodipodi:docname="favicon.svg"
   xmlns:inkscape="http://www.inkscape.org/namespaces/inkscape"
   xmlns:sodipodi="http://sodipodi.sourceforge.net/DTD/sodipodi-0.dtd"
   xmlns="http://www.w3.org/2000/svg"
   xmlns:svg="http://www.w3.org/2000/svg">
  <sodipodi:namedview
     id="namedview7"
     pagecolor="#ffffff"
     bordercolor="#666666"
     borderopacity="1.0"
     inkscape:pageshadow="2"
     inkscape:pageopacity="0.0"
     inkscape:pagecheckerboard="0"
     inkscape:document-units="mm"
     showgrid="false"
     inkscape:zoom="16.831681"
     inkscape:cx="9.6544131"
     inkscape:cy="15.773826"
     inkscape:window-width="1457"
     inkscape:window-height="1047"
     inkscape:window-x="464"
     inkscape:window-y="26"
     inkscape:window-maximized="0"
     inkscape:current-layer="g854" />
  <defs
     id="defs2" />
  <g
     inkscape:label="Layer 1"
     inkscape:groupmode="layer"
     id="layer1">
    <g
       id="g854"
       transform="translate(-10.401288,23.228872)">
      <circle
         style="fill:#ffcb94;fill-opacity:1;stroke:none;stroke-width:0.751328;stroke-miterlimit:4;stroke-dasharray:none;stroke-opacity:1"
         id="path7462"
         cx="12.517954"
         cy="-21.112206"
         r="2.1166666" />
      <path
         id="path864"
         style="fill:#e35544;fill-opacity:1;stroke:#7f1e1f;stroke-width:1.865;stroke-miterlimit:4;stroke-dasharray:none;stroke-opacity:1"
         sodipodi:type="inkscape:offset"
         inkscape:radius="0"
         inkscape:original="M 72.806641 7.3925781 C 68.438791 7.3925781 65.756642 7.6541756 61.648438 8.4785156 C 56.773813 9.4566356 48.301616 12.631695 48.291016 13.484375 C 48.279836 14.387295 49.418188 17.869488 50.304688 19.648438 C 53.190258 25.438938 58.601504 29.807989 64.955078 31.474609 C 66.990775 32.008599 68.014591 32.076613 75.738281 32.195312 L 84.269531 32.326172 L 84.269531 34.677734 L 84.269531 37.027344 L 77.589844 37.027344 C 69.704344 37.027084 66.079476 36.729838 62.974609 35.830078 C 59.594854 34.850668 56.931833 33.487787 53.158203 30.810547 C 52.875243 30.609797 52.006691 31.323356 49.457031 33.853516 C 45.447631 37.832226 44.062958 39.566988 42.861328 42.111328 C 41.546218 44.895928 41.067266 47.04216 41.072266 50.125 C 41.084776 58.20466 45.96488 64.944272 53.84375 67.763672 C 55.5434 68.371882 55.729436 68.380969 69.849609 68.511719 L 84.138672 68.644531 L 84.214844 70.958984 L 84.291016 73.275391 L 74.521484 73.275391 L 64.751953 73.275391 L 63.300781 75.060547 C 58.629038 80.815777 56.359412 87.259678 56.382812 94.705078 C 56.400073 100.20367 57.108404 102.88049 60.826172 111.50781 L 62.537109 115.47656 L 65.267578 115.9082 C 68.836034 116.47372 76.09367 116.51967 79.75 116 C 81.26564 115.78458 82.549216 115.56407 82.603516 115.50977 C 82.657796 115.45549 82.212871 114.67223 81.613281 113.76953 C 77.122071 107.00788 75.730909 98.085785 78.011719 90.671875 L 78.398438 89.414062 L 74.455078 89.414062 L 70.511719 89.414062 L 70.511719 87.050781 L 70.511719 84.689453 L 82.880859 84.59375 L 95.25 84.5 L 97.388672 83.785156 C 101.6508 82.359466 104.96834 79.498179 106.98633 75.511719 C 108.13431 73.243949 108.61242 71.146735 108.60742 68.390625 C 108.59662 61.775705 105.88454 57.495751 98.90625 53.087891 L 95.417969 50.884766 L 92.636719 52.253906 C 87.322582 54.870206 83.788417 55.338759 70.248047 55.224609 L 61.382812 55.150391 L 61.306641 52.835938 L 61.230469 50.521484 L 70.435547 50.519531 C 81.410017 50.519271 84.502725 50.277707 87.890625 49.154297 C 93.754582 47.209847 99.206793 42.33416 101.62109 36.875 C 103.06599 33.60783 103.63772 31.023576 103.66602 27.634766 C 103.69179 24.552296 102.98682 17.619341 102.5332 16.494141 C 102.10276 15.426451 95.542199 12.013082 90.726562 10.351562 C 84.935473 8.3534825 79.118091 7.3925781 72.806641 7.3925781 z "
         d="m 72.806641,7.3925781 c -4.36785,0 -7.049999,0.2615975 -11.158203,1.0859375 -4.874625,0.97812 -13.346822,4.1531794 -13.357422,5.0058594 -0.01118,0.90292 1.127172,4.385113 2.013672,6.164063 2.88557,5.7905 8.296816,10.159551 14.65039,11.826171 2.035697,0.53399 3.059513,0.602004 10.783203,0.720703 l 8.53125,0.13086 v 2.351562 2.34961 h -6.679687 c -7.8855,-2.6e-4 -11.510368,-0.297506 -14.615235,-1.197266 -3.379755,-0.97941 -6.042776,-2.342291 -9.816406,-5.019531 -0.28296,-0.20075 -1.151512,0.512809 -3.701172,3.042969 -4.0094,3.97871 -5.394073,5.713472 -6.595703,8.257812 -1.31511,2.7846 -1.794062,4.930832 -1.789062,8.013672 0.01251,8.07966 4.892614,14.819272 12.771484,17.638672 1.69965,0.60821 1.885686,0.617297 16.005859,0.748047 l 14.289063,0.132812 0.07617,2.314453 0.07617,2.316407 h -9.769532 -9.769531 l -1.451172,1.785156 c -4.671743,5.75523 -6.941369,12.199131 -6.917969,19.644531 0.01726,5.498592 0.725592,8.175412 4.44336,16.802732 l 1.710937,3.96875 2.730469,0.43164 C 68.836034,116.47372 76.09367,116.51967 79.75,116 c 1.51564,-0.21542 2.799216,-0.43593 2.853516,-0.49023 0.05428,-0.0543 -0.390645,-0.83754 -0.990235,-1.74024 -4.49121,-6.76165 -5.882372,-15.683745 -3.601562,-23.097655 l 0.386719,-1.257813 h -3.94336 -3.943359 V 87.050781 84.689453 L 82.880859,84.59375 95.25,84.5 97.388672,83.785156 c 4.262128,-1.42569 7.579668,-4.286977 9.597658,-8.273437 1.14798,-2.26777 1.62609,-4.364984 1.62109,-7.121094 -0.0108,-6.61492 -2.72288,-10.894874 -9.70117,-15.302734 l -3.488281,-2.203125 -2.78125,1.36914 c -5.314137,2.6163 -8.848302,3.084853 -22.388672,2.970703 l -8.865235,-0.07422 -0.07617,-2.314453 -0.07617,-2.314454 9.205078,-0.002 c 10.97447,-2.6e-4 14.067178,-0.241824 17.455078,-1.365234 5.863957,-1.94445 11.316168,-6.820137 13.730465,-12.279297 1.4449,-3.26717 2.01663,-5.851424 2.04493,-9.240234 0.0258,-3.08247 -0.6792,-10.015425 -1.13282,-11.140625 -0.43044,-1.06769 -6.991001,-4.481059 -11.806638,-6.142579 C 84.935473,8.3534825 79.118091,7.3925781 72.806641,7.3925781 Z"
         transform="matrix(0.03574402,0,0,0.03573658,9.9118222,-23.323153)" />
      <path
         style="fill:#010000;stroke-width:0.00945628"
         d="m 12.407814,-18.998567 c -0.790187,-0.03579 -1.53302,-0.550318 -1.836133,-1.282115 -0.340744,-0.769855 -0.159972,-1.739584 0.448644,-2.325422 0.571069,-0.593648 1.504183,-0.785452 2.266629,-0.477327 0.834834,0.313045 1.404184,1.197919 1.3432,2.087184 -0.03883,0.867173 -0.665551,1.671087 -1.502709,1.908579 -0.232451,0.06678 -0.477508,0.103263 -0.719631,0.0891 z m 0.387748,-0.176807 c 0.164888,-0.03732 -0.116293,-0.245259 -0.095,-0.37512 -0.08176,-0.181503 0.02211,-0.442942 -0.0162,-0.583299 -0.06666,-0.03714 -0.260316,0.05541 -0.251987,-0.0504 -0.01684,-0.09179 0.01861,-0.129998 0.111542,-0.1093 0.270171,-0.0056 0.542507,-7.2e-5 0.811325,-0.01274 0.302714,-0.08345 0.51704,-0.412411 0.428643,-0.722362 -0.04872,-0.238558 -0.27184,-0.366611 -0.464274,-0.481976 -0.235794,0.158057 -0.526407,0.156726 -0.79925,0.154376 -0.136817,1.07e-4 -0.273634,7.1e-5 -0.410451,1.07e-4 0.01419,-0.05934 -0.0419,-0.188941 0.05985,-0.16074 0.278654,-0.0084 0.561804,0.02365 0.836572,-0.02859 0.399203,-0.09929 0.674418,-0.520814 0.610318,-0.926403 0.03982,-0.248144 -0.132928,-0.379477 -0.352507,-0.441874 -0.514572,-0.222806 -1.125617,-0.194859 -1.626611,0.05257 -0.01775,0.113007 0.07118,0.258426 0.138713,0.358831 0.159064,0.229258 0.439664,0.353442 0.716404,0.329322 0.143772,0.0019 0.28755,0.0034 0.431325,0.0051 -0.01565,0.05803 0.03443,0.183472 -0.06532,0.155267 -0.328249,7.08e-4 -0.685967,0.04331 -0.968206,-0.161765 -0.06753,-0.07801 -0.125788,-0.06044 -0.178963,0.01991 -0.196967,0.173602 -0.377359,0.414691 -0.335662,0.692779 0.03127,0.341731 0.355166,0.620966 0.698948,0.594662 0.282788,0.0047 0.565641,0.0018 0.848459,0.0026 -0.01419,0.05934 0.0419,0.188932 -0.05985,0.160752 -0.214904,3.6e-5 -0.429809,7.2e-5 -0.644713,1.43e-4 -0.206936,0.226779 -0.324789,0.535079 -0.292394,0.843263 0.0033,0.240147 0.126303,0.456974 0.222861,0.670313 0.212901,0.04554 0.431262,0.0371 0.646426,0.01458 z m 0.354931,-0.08645 c 0.814554,-0.265985 1.382213,-1.117955 1.316013,-1.97146 -0.03105,-0.532702 -0.294902,-1.043941 -0.704585,-1.384592 0.05335,0.316255 0.0068,0.665278 -0.219311,0.908265 -0.115146,0.07587 -0.07426,0.12842 0.03604,0.175062 0.375481,0.200364 0.502558,0.737711 0.246008,1.079769 -0.163193,0.249881 -0.474583,0.342008 -0.759949,0.318435 -0.0583,0.01653 -0.163276,-0.037 -0.185129,0.03426 -0.116011,0.294615 -0.03613,0.638543 0.16974,0.873453 0.03394,-0.0104 0.06749,-0.02199 0.10117,-0.03319 z m 0.748824,-0.952527 c -0.03054,-0.105003 0.07168,-0.07728 0.140584,-0.08286 0.02461,0.0115 0.04503,0.175287 -0.01771,0.160864 -0.07504,-0.0088 -0.152686,0.03742 -0.122878,-0.07801 z m 0.243907,-0.81552 c -0.03434,-0.107857 0.0691,-0.07796 0.140241,-0.08037 0.02878,0.0088 0.0468,0.175372 -0.01538,0.160741 -0.07733,-0.0075 -0.150497,0.03565 -0.124861,-0.08037 z m -0.245889,-0.732785 c -0.03481,-0.106749 0.07317,-0.07074 0.140241,-0.07564 0.02761,0.0058 0.04772,0.169015 -0.01538,0.151285 -0.07297,-0.0091 -0.150766,0.03748 -0.124861,-0.07564 z m -1.951097,2.512747 c -0.151907,-0.30782 -0.241957,-0.662668 -0.145725,-1.001747 0.0075,-0.163322 0.186905,-0.341722 0.17643,-0.459633 -0.468382,-0.02047 -0.845086,-0.500983 -0.751425,-0.960478 0.03363,-0.284257 0.263302,-0.470511 0.446316,-0.665291 -0.04674,-0.122652 -0.149602,-0.28689 -0.201755,-0.423879 -0.645682,0.395523 -1.013936,1.193719 -0.890056,1.942103 0.102096,0.729067 0.656899,1.380159 1.367584,1.577651 z m -0.649653,-0.63587 c -0.03368,-0.105621 0.065,-0.07891 0.135512,-0.08037 0.01998,0.01695 0.04343,0.174541 -0.02011,0.16074 -0.07743,-0.0059 -0.139245,0.03296 -0.115404,-0.08037 z m 0.08196,-0.578349 c -0.02188,-0.09562 -0.02244,-0.190945 0.09802,-0.154436 0.0984,-0.02599 0.04143,0.103364 0.05644,0.160739 -0.05144,-0.0014 -0.103695,0.0039 -0.154469,-0.0063 z m -0.649399,-0.480645 c -0.03368,-0.105621 0.065,-0.07891 0.135512,-0.08037 0.01998,0.01695 0.04343,0.174541 -0.02011,0.16074 -0.07743,-0.0059 -0.139246,0.03296 -0.115404,-0.08037 z m 0.160773,-0.817883 c -0.03428,-0.104652 0.06906,-0.07171 0.135512,-0.07564 0.01905,0.01386 0.04419,0.168247 -0.02011,0.151285 -0.07295,-0.0077 -0.139786,0.03519 -0.115404,-0.07564 z"
         id="path856"
         sodipodi:nodetypes="cssssssssscccsssscscccccsssscsccccsssssssscssscccscscsssssscccccsssssssccsssscssscssssscscssscccccccccccccccccccccccccccsssssssssssssscssscccccccccsscccccsscccccccccccccccccc" />
    </g>
  </g>
</svg>
