<?xml version="1.0" encoding="UTF-8" standalone="no"?>
<!-- Created with Inkscape (http://www.inkscape.org/) -->

<svg
   width="4.2333331mm"
   height="4.2333331mm"
   viewBox="0 0 4.2333331 4.2333331"
   version="1.1"
   id="svg5"
   inkscape:version="1.1.1 (3bf5ae0d25, 2021-09-20, custom)"
   sodipodi:docname="favicon.svg"
   xmlns:inkscape="http://www.inkscape.org/namespaces/inkscape"
   xmlns:sodipodi="http://sodipodi.sourceforge.net/DTD/sodipodi-0.dtd"
   xmlns="http://www.w3.org/2000/svg"
   xmlns:svg="http://www.w3.org/2000/svg">
  <sodipodi:namedview
     id="namedview7"
     pagecolor="#ffffff"
     bordercolor="#666666"
     borderopacity="1.0"
     inkscape:pageshadow="2"
     inkscape:pageopacity="0.0"
     inkscape:pagecheckerboard="0"
     inkscape:document-units="mm"
     showgrid="false"
     inkscape:zoom="16.831681"
     inkscape:cx="6.6244127"
     inkscape:cy="14.169708"
     inkscape:window-width="1457"
     inkscape:window-height="1047"
     inkscape:window-x="184"
     inkscape:window-y="0"
     inkscape:window-maximized="0"
     inkscape:current-layer="layer1" />
  <defs
     id="defs2" />
  <g
     inkscape:label="Layer 1"
     inkscape:groupmode="layer"
     id="layer1">
    <rect
       style="fill:#ff936c;stroke-width:5.99766;fill-opacity:1"
       id="rect958"
       width="4.2333331"
       height="4.2333331"
       x="1.110223e-16"
       y="0"
       ry="0.35817894" />
    <path
       style="fill:#000000;stroke-width:0.00504615"
       d="M 1.4762269,4.0396672 C 1.1860137,4.0136213 0.8864807,3.8832965 0.64783215,3.6792386 0.57640208,3.6181618 0.48375622,3.5170785 0.43220343,3.4439725 0.25327316,3.1902343 0.19601793,2.9305026 0.24976038,2.6163414 0.27595487,2.4632166 0.32321633,2.3119727 0.42412106,2.0583605 c 0.0331982,-0.08344 0.0718447,-0.1871741 0.0819559,-0.219985 0.002739,-0.00889 0.004737,-0.00837 0.0231212,0.006 0.0482168,0.037698 0.10921647,0.060337 0.16257626,0.060337 0.0164702,0 0.0299457,0.00102 0.0299457,0.00227 0,0.00735 -0.0586879,0.1656225 -0.10510439,0.2834544 -0.0297846,0.075611 -0.0661326,0.1730183 -0.0807734,0.2164619 -0.0834909,0.2477428 -0.10291079,0.438708 -0.0613161,0.6029522 0.0323447,0.1277189 0.11575198,0.272058 0.22290955,0.3857527 0.15368378,0.1630592 0.38525062,0.2998565 0.60065952,0.3548377 0.1182323,0.030178 0.1404678,0.032807 0.2785384,0.032944 0.1168155,1.18e-4 0.1352416,-0.00111 0.1830527,-0.012175 0.3115801,-0.07208 0.475505,-0.292797 0.5273944,-0.7101116 0.013365,-0.1074842 0.016938,-0.1956808 0.016938,-0.418055 V 2.42334 L 2.1658628,2.42068 C 2.0839063,2.4191093 2.0181003,2.4154155 2.0040907,2.4116124 1.9911012,2.4080823 1.9602825,2.3941493 1.9356029,2.3806512 1.8982208,2.3602057 1.8842235,2.3486938 1.8517419,2.3116823 1.8188797,2.2742359 1.8094879,2.259313 1.7919812,2.2167196 1.7805575,2.1889246 1.7684699,2.1540539 1.7651201,2.1392283 1.7569839,2.103232 1.752848,0.59225871 1.7606732,0.51471319 1.7733541,0.388962 1.8363718,0.28479539 1.9325469,0.23060633 2.008735,0.18767882 1.9655755,0.18992995 2.6808735,0.19157225 l 0.6362886,0.001461 0.038156,0.014768 c 0.089474,0.0346294 0.1623257,0.11390832 0.1971041,0.21449306 0.017378,0.050261 0.022082,0.0923568 0.022123,0.19798514 l 3.57e-5,0.092997 h -0.034806 c -0.1000998,0 -0.2183898,0.0453814 -0.3093603,0.11868443 C 3.1127632,0.9267635 3.0248717,1.0874015 3.0033313,1.2469972 c -0.00602,0.044552 -0.00736,0.1469839 -0.00247,0.1872228 0.00826,0.067906 0.036001,0.1642215 0.062407,0.2166716 0.037567,0.07462 0.097533,0.1543507 0.1523449,0.2025592 0.087946,0.077351 0.223598,0.1321297 0.3272038,0.1321297 H 3.57594 L 3.57315,2.0543175 C 3.57011,2.1293285 3.5638,2.1621931 3.542607,2.2134543 3.503153,2.3088833 3.4256599,2.3815086 3.3332768,2.4096354 c -0.027121,0.00826 -0.07054,0.00943 -0.4156785,0.01121 l -0.3853939,0.00199 -0.00295,0.2355744 c -0.00462,0.3692964 -0.020575,0.5179957 -0.076226,0.7104025 -0.046827,0.161898 -0.103067,0.2720318 -0.1930574,0.3780605 -0.1363523,0.1606537 -0.3014689,0.250675 -0.5227495,0.2850011 -0.062971,0.00977 -0.195042,0.013711 -0.2609985,0.00779 z M 3.4706688,1.8484408 C 3.3527375,1.8198971 3.2517902,1.7435195 3.1860599,1.6331027 3.1015028,1.4910612 3.0857263,1.3074464 3.1445259,1.1497311 3.1989637,1.0037161 3.3194898,0.88898599 3.4564987,0.85276093 3.5247737,0.83470893 3.6187019,0.83860853 3.6842871,0.86221793 3.8280511,0.91396943 3.9336411,1.0312809 3.980557,1.1913767 4.031653,1.3657386 3.993802,1.5593327 3.881965,1.6956403 3.840128,1.7466313 3.802792,1.7780323 3.7490041,1.80747 3.6831311,1.843521 3.6527701,1.85148 3.5722193,1.853817 3.5236483,1.855227 3.4917163,1.8535359 3.470669,1.848437 Z M 3.6091008,1.7369751 C 3.6858762,1.7234028 3.7479443,1.6867053 3.8038932,1.6218057 3.9329434,1.4721098 3.9355064,1.236167 3.8097481,1.0824709 3.7377875,0.99452146 3.6439378,0.95136391 3.5372016,0.95713823 3.447268,0.96200378 3.3782743,0.9972123 3.3125425,1.0717858 c -0.043059,0.048851 -0.067797,0.093677 -0.086281,0.1563423 -0.011483,0.038929 -0.012725,0.050741 -0.012751,0.1213003 -3.58e-5,0.073794 7.943e-4,0.080816 0.014659,0.125404 0.00808,0.025978 0.021841,0.060802 0.030583,0.077387 0.036036,0.068359 0.099626,0.1306731 0.1634545,0.1601704 0.025602,0.011831 0.040465,0.016397 0.088605,0.027217 0.019554,0.00439 0.065498,0.00317 0.098284,-0.00263 z M 3.5273481,1.4350354 c -0.015088,-0.00685 -0.036725,-0.030231 -0.045293,-0.048949 -0.010607,-0.023174 -0.00857,-0.069592 0.00397,-0.090624 0.021062,-0.035323 0.055569,-0.052175 0.089137,-0.043534 0.015252,0.00393 0.020758,0.00182 0.051933,-0.019884 0.1270206,-0.088425 0.145915,-0.096081 0.1591196,-0.06448 0.00343,0.0082 0.00505,0.019119 0.00362,0.02426 -0.00143,0.00514 -0.035543,0.040885 -0.075788,0.079433 -0.053043,0.050805 -0.073194,0.073325 -0.073251,0.081864 -3.838e-4,0.057483 -0.064789,0.1039911 -0.1134372,0.081915 z M 0.65087109,1.8092097 C 0.64437637,1.8078974 0.62349934,1.7983479 0.60447706,1.787989 0.49878984,1.7304357 0.43610194,1.5799716 0.43635906,1.3844707 0.43681571,1.0372277 0.6197155,0.75603477 0.84482728,0.75648488 c 0.0722193,1.4263e-4 0.1328002,0.0247526 0.19275662,0.0782984 0.055273,0.0493634 0.092652,0.11614641 0.1145851,0.20472752 0.00853,0.034442 0.010691,0.057081 0.010811,0.1131418 2.333e-4,0.108774 -0.017773,0.1903568 -0.067825,0.3072938 -0.074903,0.1749961 -0.20017423,0.3077568 -0.32532266,0.3447712 -0.0262333,0.00776 -0.0907452,0.010195 -0.11896155,0.00449 z"
       id="path836" />
  </g>
</svg>
