<?xml version="1.0" encoding="UTF-8" standalone="no"?>
<!-- Created with Inkscape (http://www.inkscape.org/) -->

<svg
   width="16"
   height="15.999999"
   viewBox="0 0 4.2333333 4.2333331"
   version="1.1"
   id="svg5"
   inkscape:version="1.1 (c4e8f9ed74, 2021-05-24)"
   sodipodi:docname="favicon.svg"
   xmlns:inkscape="http://www.inkscape.org/namespaces/inkscape"
   xmlns:sodipodi="http://sodipodi.sourceforge.net/DTD/sodipodi-0.dtd"
   xmlns="http://www.w3.org/2000/svg"
   xmlns:svg="http://www.w3.org/2000/svg">
  <sodipodi:namedview
     id="namedview7"
     pagecolor="#ffffff"
     bordercolor="#666666"
     borderopacity="1.0"
     inkscape:pageshadow="2"
     inkscape:pageopacity="0.0"
     inkscape:pagecheckerboard="0"
     inkscape:document-units="mm"
     showgrid="false"
     units="px"
     inkscape:zoom="16.831681"
     inkscape:cx="3.0300004"
     inkscape:cy="18.506767"
     inkscape:window-width="1920"
     inkscape:window-height="1023"
     inkscape:window-x="0"
     inkscape:window-y="0"
     inkscape:window-maximized="1"
     inkscape:current-layer="layer1" />
  <defs
     id="defs2" />
  <g
     inkscape:label="Layer 1"
     inkscape:groupmode="layer"
     id="layer1"
     transform="translate(-1.0583333)">
    <g
       id="g2426"
       transform="matrix(0.1561909,0,0,0.16393546,-6.9176838,-16.604117)">
      <path
         style="fill:#ff8383;fill-opacity:1;stroke-width:0.0846667"
         d="m 60.03295,126.9359 c -0.158293,-0.1583 -0.167537,-0.24008 -0.117234,-1.03717 0.09235,-1.46341 -0.233089,-5.19598 -0.523531,-6.0045 -0.07195,-0.20029 -0.152607,-0.63991 -0.179244,-0.97694 -0.04471,-0.56578 -0.02825,-0.65345 0.214657,-1.143 0.50194,-1.0116 1.388633,-1.99927 1.944341,-2.16577 0.258753,-0.0775 0.356854,-0.15172 0.356854,-0.2699 0,-0.24628 0.503728,-0.76918 0.917152,-0.95206 0.41273,-0.18257 1.703285,-0.35643 2.596515,-0.34979 0.65023,0.005 1.23471,0.20867 1.57549,0.54946 0.2651,0.2651 1.22632,0.58819 1.38002,0.46387 0.28592,-0.23127 0.2896,-0.40053 0.0182,-0.83711 -0.22667,-0.36464 -0.26393,-0.50439 -0.26414,-0.9906 -1.7e-4,-0.31879 0.0507,-0.66135 0.11626,-0.78421 0.0913,-0.17094 0.0959,-0.27731 0.0212,-0.49159 -0.22031,-0.632 -0.042,-1.5993 0.35565,-1.92933 0.0856,-0.071 0.1114,-0.20254 0.0823,-0.41929 -0.0678,-0.50526 0.11875,-1.02711 0.50401,-1.41016 0.31322,-0.31142 0.34218,-0.37702 0.32655,-0.73947 -0.0111,-0.25773 0.0413,-0.51105 0.14878,-0.71967 0.18454,-0.35801 0.48255,-0.70293 0.60732,-0.70293 0.0448,0 0.0814,-0.0715 0.0814,-0.15893 0,-0.24995 -0.71706,-0.13863 -1.10301,0.17122 -0.17159,0.13777 -0.47673,0.27305 -0.71718,0.31798 -0.23019,0.043 -0.43458,0.12636 -0.4542,0.18524 -0.0805,0.24143 -0.7228,0.8372 -1.00195,0.92932 -0.16467,0.0543 -0.44691,0.079 -0.62719,0.0548 -0.23547,-0.0316 -0.38173,-0.002 -0.5193,0.10521 -0.37434,0.29159 -0.739019,0.42711 -1.149324,0.42711 -0.333841,0 -0.478417,0.0497 -0.732791,0.25184 -0.174293,0.13851 -0.443253,0.27554 -0.59769,0.30451 -0.306826,0.0576 -0.783603,-0.019 -0.949244,-0.15237 -0.07148,-0.0576 -0.213578,-0.041 -0.446213,0.0521 -0.57778,0.23118 -1.085539,0.13802 -1.565575,-0.28724 -0.109827,-0.0973 -0.352598,-0.16247 -0.690843,-0.18545 -0.392092,-0.0266 -0.611924,-0.0953 -0.885847,-0.27654 -0.29617,-0.19599 -0.46232,-0.24261 -0.888029,-0.24915 -0.457924,-0.007 -0.566685,-0.0426 -0.866022,-0.28321 -0.274658,-0.22077 -0.419164,-0.27517 -0.731013,-0.27517 -0.652019,0 -1.227942,-0.35447 -1.532362,-0.94316 -0.175416,-0.33921 -0.106469,-0.58715 0.283432,-1.01925 0.346919,-0.38446 0.721529,-0.57759 1.120338,-0.57759 0.286009,0 0.836783,0.25052 1.010211,0.45948 0.07569,0.0912 0.255393,0.13319 0.57004,0.13319 0.466133,0 0.839513,0.1349 1.039129,0.37542 0.07715,0.093 0.259554,0.13258 0.610386,0.13258 0.556398,0 0.963517,0.1389 1.206536,0.41165 0.123068,0.13812 0.25914,0.18102 0.57422,0.18102 0.227111,0 0.545056,0.0552 0.706544,0.12268 0.256394,0.10713 0.330833,0.10713 0.587227,0 0.161488,-0.0675 0.504388,-0.12268 0.762,-0.12268 0.257613,0 0.468387,-0.0365 0.468387,-0.0811 0,-0.0446 0.167165,-0.17906 0.371477,-0.2988 0.294358,-0.1725 0.470491,-0.21446 0.848411,-0.20212 0.368715,0.0121 0.519765,-0.0221 0.665685,-0.15071 0.24122,-0.21251 0.60633,-0.36794 0.86431,-0.36794 0.13271,0 0.2665,-0.0943 0.39034,-0.27517 0.39354,-0.57473 0.88532,-0.91016 1.3344,-0.91016 0.14504,0 0.43425,-0.1242 0.69004,-0.29634 0.49274,-0.33158 0.82184,-0.37265 1.33644,-0.16675 0.29074,0.11633 0.35557,0.11633 0.63399,0 0.17057,-0.0713 0.40783,-0.12958 0.52724,-0.12958 0.27294,0 0.79112,0.21341 1.01484,0.41796 0.11443,0.10461 0.34226,0.16754 0.69281,0.19136 0.64598,0.0439 1.106011,0.33337 1.394761,0.87766 l 0.1993,0.37569 -0.18319,0.35983 c -0.10075,0.19791 -0.20884,0.51223 -0.24021,0.6985 -0.0417,0.24772 -0.15651,0.43414 -0.42749,0.6942 -0.330861,0.3175 -0.369691,0.39503 -0.363071,0.72489 0.009,0.45501 -0.17629,0.82931 -0.56416,1.1388 -0.25721,0.20523 -0.28913,0.27089 -0.24529,0.50457 0.0725,0.38654 -0.0247,0.72869 -0.32482,1.14297 -0.22435,0.3097 -0.2599,0.42731 -0.24254,0.8022 0.013,0.27965 -0.0308,0.53828 -0.12049,0.71166 -0.13159,0.25446 -0.13136,0.30248 0.003,0.73095 0.14977,0.47616 0.12687,0.70123 -0.13823,1.35822 -0.10178,0.25224 -0.0939,0.29109 0.10328,0.508 0.57517,0.63278 0.55385,1.43228 -0.062,2.32405 -0.29032,0.42043 -0.40891,0.44992 -0.42706,0.1062 -0.0211,-0.39915 -0.33011,-0.76826 -0.86046,-1.02773 -0.46194,-0.22601 -1.10572,-0.28803 -2.08809,-0.20117 -0.48187,0.0426 -1.04635,-0.14425 -1.43706,-0.4757 -0.63737,-0.54069 -1.0963,-0.5961 -3.134939,-0.37851 -1.066258,0.1138 -1.707794,0.47552 -1.905421,1.07434 -0.06995,0.21195 -0.161634,0.29144 -0.428289,0.37133 -0.186607,0.0559 -0.509387,0.26464 -0.717288,0.46385 -0.309306,0.29637 -0.378,0.41711 -0.378,0.66439 0,0.16678 -0.0944,0.46733 -0.210647,0.67068 -0.268845,0.47028 -0.265984,0.74545 0.0199,1.91344 0.175627,0.71754 0.266376,0.95235 0.36813,0.9525 0.205033,3.4e-4 0.414966,0.28017 0.417982,0.5572 0.0015,0.13604 0.05863,0.32129 0.126999,0.41168 0.251727,0.33282 0.03205,0.92693 -0.324217,0.87685 -0.17358,-0.0244 -0.178046,-9.8e-4 -0.140543,0.73681 0.0213,0.4191 0.03873,1.22872 0.03873,1.79916 v 1.03717 h 0.661872 c 0.589896,0 0.657309,-0.0161 0.619907,-0.14817 -0.02308,-0.0815 -0.06761,-0.42439 -0.09896,-0.762 -0.05303,-0.57102 -0.07083,-0.61383 -0.255273,-0.61383 -0.20951,0 -0.461875,-0.28162 -0.461875,-0.51542 0,-0.0765 0.0762,-0.23595 0.169334,-0.35435 0.09313,-0.1184 0.169333,-0.29749 0.169333,-0.39798 0,-0.2452 0.149233,-0.51025 0.287288,-0.51025 0.07709,0 0.145328,-0.2439 0.21895,-0.78264 0.05882,-0.43046 0.15381,-0.93834 0.211078,-1.12863 0.09723,-0.32306 0.09094,-0.35772 -0.09493,-0.52328 -0.248372,-0.22123 -0.262535,-0.61442 -0.02972,-0.82512 0.09313,-0.0843 0.169333,-0.25697 0.169333,-0.38375 0,-0.30146 0.190677,-0.45483 0.476327,-0.38314 0.221155,0.0555 0.223811,0.051 0.176853,-0.29908 -0.02622,-0.19549 -0.0921,-0.38289 -0.1464,-0.41645 -0.0543,-0.0336 -0.367853,-0.086 -0.696785,-0.1166 -0.328931,-0.0306 -0.769245,-0.13131 -0.978474,-0.22386 -0.36881,-0.16314 -0.375879,-0.17329 -0.231693,-0.33261 0.0818,-0.0904 0.354099,-0.24946 0.605115,-0.3535 0.310457,-0.12868 0.45639,-0.23739 0.45639,-0.33997 0,-0.24701 0.477209,-0.71527 0.925441,-0.9081 0.456076,-0.1962 1.779087,-0.38985 2.591782,-0.37937 0.56035,0.007 1.20496,0.2434 1.56277,0.57257 0.2288,0.21049 0.9534,0.49606 1.22767,0.48384 0.0931,-0.004 0.46699,-0.0315 0.83079,-0.0608 0.76193,-0.0613 1.20981,0.037 1.70266,0.37383 0.36135,0.24695 0.39937,0.34369 0.18759,0.47728 -0.098,0.0618 -0.18883,0.0555 -0.31258,-0.0218 -0.23088,-0.14419 -0.70853,0.0201 -0.82934,0.28528 -0.12052,0.26451 -0.57573,0.5877 -1.05291,0.74754 -1.10652,0.37064 -2.51641,-0.064 -2.85438,-0.87991 -0.062,-0.14965 -0.16819,-0.25439 -0.25795,-0.25439 -0.0839,0 -0.32727,-0.13335 -0.540791,-0.29633 -0.51619,-0.39402 -0.691167,-0.38537 -0.862424,0.0426 -0.0746,0.18644 -0.250304,0.43547 -0.390458,0.5534 -0.2495,0.20994 -0.252639,0.22223 -0.150216,0.58805 0.05753,0.20549 0.08958,0.63967 0.0712,0.96483 -0.02781,0.49218 -0.09253,0.70415 -0.386394,1.26546 -0.25369,0.48458 -0.39024,0.88514 -0.485412,1.42393 -0.197032,1.11545 -0.258176,2.89277 -0.130648,3.79768 0.133088,0.94438 0.129241,1.03837 -0.05064,1.23714 -0.129004,0.14255 -0.27619,0.15986 -1.359215,0.15986 -1.107568,0 -1.22968,-0.0151 -1.386387,-0.17184 z"
         id="path836" />
      <path
         style="fill:#ff8383;fill-opacity:1;stroke-width:0.0846667"
         d="m 61.771127,104.95123 c -0.18683,-0.0681 -0.467774,-0.10306 -0.626635,-0.078 -0.227831,0.0359 -0.34276,-8.7e-4 -0.550334,-0.17591 -0.399961,-0.33729 -0.79073,-0.47212 -1.193343,-0.41174 -0.303828,0.0456 -0.392884,0.0191 -0.665295,-0.19734 -0.329116,-0.26155 -0.855596,-0.40133 -1.154387,-0.3065 -0.125957,0.04 -0.258047,-0.0168 -0.468126,-0.20127 -0.887476,-0.77921 -2.085282,-0.37135 -2.553272,0.86941 l -0.09939,0.26351 -0.0064,-0.34631 c -0.01003,-0.53923 0.41859,-1.31844 0.900993,-1.63797 0.565877,-0.37482 1.06013,-0.3633 1.58448,0.037 0.326567,0.24927 0.45686,0.29633 0.820458,0.29633 0.417023,0 1.090295,0.27104 1.090295,0.43893 0,0.038 0.229823,0.0691 0.510719,0.0691 0.56606,0 0.972678,0.13754 1.216903,0.41164 0.125883,0.14129 0.258497,0.18102 0.604113,0.18102 0.243553,0 0.567829,0.0526 0.720612,0.1168 0.236144,0.0993 0.319698,0.0993 0.557335,0 0.15375,-0.0642 0.448391,-0.1168 0.654757,-0.1168 0.288492,0 0.476984,-0.0685 0.815561,-0.29633 0.386991,-0.26043 0.504747,-0.29633 0.971807,-0.29633 0.391262,0 0.562112,-0.037 0.647652,-0.14012 0.14673,-0.17692 0.59743,-0.36788 0.86827,-0.36788 0.15094,0 0.29216,-0.11577 0.52023,-0.42647 0.34889,-0.47527 0.8175,-0.75887 1.25396,-0.75887 0.15988,0 0.3388,-0.0596 0.39988,-0.13319 0.18324,-0.22079 0.73077,-0.45947 1.05403,-0.45947 0.16715,0 0.41873,0.0594 0.55907,0.13195 0.23283,0.1204 0.288,0.11941 0.63011,-0.0112 0.5063,-0.19336 0.98281,-0.12132 1.39649,0.21112 0.27237,0.21889 0.39791,0.26083 0.78068,0.26083 0.873751,0 1.619431,0.77715 1.723411,1.79613 l 0.0457,0.44754 -0.20826,-0.42333 c -0.37298,-0.75817 -1.041081,-1.21199 -1.640941,-1.11465 -0.25963,0.0421 -0.35309,0.0109 -0.59016,-0.19725 -0.42658,-0.37454 -0.90778,-0.47861 -1.40555,-0.30397 -0.37037,0.12994 -0.43327,0.13041 -0.79978,0.006 -0.49981,-0.16969 -0.92876,-0.10467 -1.35728,0.20575 -0.17695,0.12819 -0.49094,0.26012 -0.69776,0.29319 -0.5005,0.08 -0.84239,0.30342 -1.17656,0.76874 -0.18134,0.25251 -0.33975,0.38518 -0.46139,0.3864 -0.24592,0.002 -0.83243,0.27354 -0.98146,0.45362 -0.093,0.11239 -0.19756,0.13185 -0.480476,0.0894 -0.430422,-0.0645 -0.833877,0.054 -1.170636,0.34395 -0.181454,0.15623 -0.343231,0.21181 -0.616553,0.21181 -0.203803,0 -0.507329,0.0572 -0.674503,0.127 -0.347317,0.14512 -0.303794,0.14606 -0.748941,-0.0161 z"
         id="path1871" />
      <g
         id="g1980"
         style="fill:#ff0000;fill-opacity:1">
        <path
           style="fill:#ff0000;fill-opacity:1;stroke-width:0.0846667"
           d="m 56.148249,121.45618 c -0.62477,-0.3659 -0.771224,-0.5421 -0.633376,-0.762 0.154457,-0.24639 0.385846,-0.20716 1.005937,0.17057 0.623075,0.37955 0.732611,0.54621 0.507165,0.77166 -0.1931,0.1931 -0.268748,0.1776 -0.879726,-0.18023 z"
           id="path1869" />
        <path
           style="fill:#ff0000;fill-opacity:1;stroke-width:0.0846667"
           d="m 65.67462,121.76059 c -0.18383,-0.26245 -0.0617,-0.42708 0.58505,-0.78878 0.66013,-0.36916 0.91923,-0.36983 0.95452,-0.003 0.0264,0.27458 0.0392,0.26264 -0.76065,0.70623 -0.57205,0.31724 -0.61313,0.32172 -0.77892,0.085 z"
           id="path1867" />
        <path
           style="fill:#ff0000;fill-opacity:1;stroke-width:0.0846667"
           d="m 55.568065,123.28375 c -0.130589,-0.13059 -0.136495,-0.46437 -0.0096,-0.54279 0.05225,-0.0323 0.421677,-0.0571 0.820946,-0.0551 0.595543,0.003 0.745734,0.0307 0.836113,0.15427 0.09079,0.12416 0.08982,0.18138 -0.0055,0.32528 -0.09904,0.14954 -0.21776,0.17809 -0.826509,0.19879 -0.480288,0.0163 -0.744787,-0.01 -0.815463,-0.0804 z"
           id="path1865" />
        <path
           style="fill:#ff0000;fill-opacity:1;stroke-width:0.0846667"
           d="m 65.37113,123.38546 c -0.0666,-0.12446 -0.0666,-0.22043 0,-0.34489 0.0841,-0.15708 0.16087,-0.17029 0.86184,-0.14817 0.62372,0.0197 0.78722,0.0524 0.86276,0.17245 0.0678,0.10782 0.0678,0.18851 0,0.29633 -0.0755,0.12009 -0.23904,0.15277 -0.86276,0.17245 -0.70097,0.0221 -0.77778,0.009 -0.86184,-0.14817 z"
           id="path1863" />
        <path
           style="fill:#ff0000;fill-opacity:1;stroke-width:0.0846667"
           d="m 55.56506,125.48208 c -0.205913,-0.20591 -0.102676,-0.40781 0.359793,-0.70365 0.784391,-0.50177 0.888193,-0.53183 1.068308,-0.3094 0.08533,0.10538 0.134352,0.24577 0.108942,0.31199 -0.0618,0.16106 -1.085738,0.80266 -1.280968,0.80266 -0.08496,0 -0.200195,-0.0457 -0.256075,-0.1016 z"
           id="path1861" />
        <path
           style="fill:#ff0000;fill-opacity:1;stroke-width:0.0846667"
           d="m 66.21613,125.41838 c -0.59017,-0.34318 -0.74045,-0.62262 -0.46002,-0.85536 0.12317,-0.10223 0.22094,-0.0751 0.76531,0.21265 0.62964,0.33278 0.76664,0.49841 0.66837,0.80804 -0.0783,0.24677 -0.34198,0.202 -0.97366,-0.16533 z"
           id="path1859" />
        <path
           style="fill:#ff0000;fill-opacity:1;stroke-width:0.0846667"
           d="m 63.813945,125.82165 c -0.377143,-0.58189 -0.407171,-2.46958 -0.06025,-3.78797 0.246329,-0.93612 0.389786,-1.20933 0.617178,-1.17539 0.353426,0.0527 0.372241,0.2525 0.115668,1.2279 -0.314578,1.19591 -0.385788,2.43587 -0.177857,3.09694 0.184624,0.58697 0.151966,0.77389 -0.141142,0.80786 -0.162059,0.0188 -0.263002,-0.0296 -0.353592,-0.16934 z"
           id="path1857" />
        <path
           style="fill:#ff0000;fill-opacity:1;stroke-width:0.0846667"
           d="m 58.448707,125.91045 c -0.07451,-0.0745 -0.089,-0.33961 -0.05223,-0.95574 0.05467,-0.91603 -0.103655,-2.52369 -0.384134,-3.90064 -0.164738,-0.80875 -0.158481,-0.93063 0.05192,-1.01137 0.244155,-0.0937 0.44186,0.0421 0.528236,0.36291 0.399202,1.48253 0.658672,4.87844 0.408582,5.34746 -0.126367,0.23699 -0.395958,0.3138 -0.552378,0.15738 z"
           id="path1855" />
      </g>
      <path
         style="fill:#ff8383;fill-opacity:1;stroke-width:0.0846667"
         d="m 70.19893,114.80779 c -0.42494,-0.67109 -0.54061,-1.40312 -0.30921,-1.95694 0.0744,-0.17807 0.11606,-0.35487 0.0926,-0.39289 -0.0235,-0.038 -0.078,-0.25518 -0.12113,-0.48257 -0.0979,-0.51607 0.0159,-1.0655 0.29678,-1.43381 0.15856,-0.20788 0.2073,-0.37632 0.20872,-0.72136 0.002,-0.53687 0.2112,-1.03691 0.57808,-1.38318 0.22696,-0.21422 0.26673,-0.31215 0.26673,-0.65691 0,-0.5169 0.1511,-0.86802 0.54727,-1.27173 0.24915,-0.2539 0.30468,-0.3654 0.26358,-0.52917 -0.0475,-0.1893 -0.0936,-0.20749 -0.526,-0.20749 -0.4575,0 -0.47255,0.007 -0.4342,0.20778 0.029,0.1517 -0.0276,0.27168 -0.20955,0.4445 -0.37005,0.35141 -0.58896,0.83618 -0.5854,1.29631 0.003,0.33887 -0.0365,0.43705 -0.25664,0.6438 -0.36144,0.33945 -0.573,0.84041 -0.5752,1.36202 -0.001,0.32771 -0.0558,0.52027 -0.21232,0.75086 -0.37437,0.55167 -0.46959,1.16796 -0.26767,1.73252 0.0863,0.24135 0.0863,0.34814 8e-5,0.55033 -0.0588,0.13798 -0.10872,0.48152 -0.11082,0.76342 -0.005,0.66312 0.31728,1.36728 0.66009,1.44253 0.1238,0.0272 0.32035,0.0794 0.43676,0.11608 0.28839,0.0908 0.40796,-0.0365 0.25747,-0.2741 z"
         id="path1853" />
    </g>
  </g>
</svg>
