<?xml version="1.0" encoding="UTF-8" standalone="no"?>
<!-- Created with Inkscape (http://www.inkscape.org/) -->

<svg
   width="16"
   height="16"
   viewBox="0 0 4.2333332 4.2333335"
   version="1.1"
   id="svg5"
   inkscape:version="1.1.1 (3bf5ae0d25, 2021-09-20, custom)"
   sodipodi:docname="favicon.svg"
   xmlns:inkscape="http://www.inkscape.org/namespaces/inkscape"
   xmlns:sodipodi="http://sodipodi.sourceforge.net/DTD/sodipodi-0.dtd"
   xmlns="http://www.w3.org/2000/svg"
   xmlns:svg="http://www.w3.org/2000/svg">
  <sodipodi:namedview
     id="namedview7"
     pagecolor="#ffffff"
     bordercolor="#666666"
     borderopacity="1.0"
     inkscape:pageshadow="2"
     inkscape:pageopacity="0.0"
     inkscape:pagecheckerboard="0"
     inkscape:document-units="mm"
     showgrid="false"
     units="px"
     width="16px"
     inkscape:zoom="23.803591"
     inkscape:cx="5.5243765"
     inkscape:cy="14.052501"
     inkscape:window-width="1457"
     inkscape:window-height="1047"
     inkscape:window-x="396"
     inkscape:window-y="41"
     inkscape:window-maximized="0"
     inkscape:current-layer="layer1" />
  <defs
     id="defs2" />
  <g
     inkscape:label="Layer 1"
     inkscape:groupmode="layer"
     id="layer1">
    <rect
       style="fill:#5eab8e;stroke:none;stroke-width:3.08387;fill-opacity:1"
       id="rect958"
       width="4.2333331"
       height="4.2333331"
       x="0"
       y="0"
       ry="0.80895877" />
    <path
       style="fill:#000000;stroke-width:0.00843462"
       d="M 3.3260445,4.2149849 3.3019376,4.1950029 3.2976459,3.2358354 3.2933542,2.276668 3.2695482,2.235984 c -0.023752,-0.04059 -0.023768,-0.040724 -0.00686,-0.058075 0.022717,-0.023305 0.043549,-0.072977 0.043549,-0.103843 0,-0.01381 0.00344,-0.025107 0.00766,-0.025107 0.018676,0 0.1038831,0.1019246 0.1226309,0.1466897 l 0.02006,0.047898 0.00233,0.9604646 c 0.00173,0.7148659 -2.273e-4,0.9664009 -0.00765,0.9836796 -0.02003,0.046602 -0.084869,0.060736 -0.1252161,0.027293 z M 1.6952614,4.1780072 c -0.056612,-0.025028 -0.097633,-0.072985 -0.1173078,-0.1371448 -0.00431,-0.01404 -0.00517,-0.082007 -0.00194,-0.1525244 l 0.00582,-0.1271997 0.035234,0.0048 c 0.030868,0.00421 0.1930021,0.021508 0.3302784,0.035234 l 0.045881,0.00458 -0.00309,0.1214459 c -0.00266,0.1044055 -0.00566,0.1261141 -0.021391,0.1546802 -0.040824,0.074133 -0.1034728,0.111312 -0.1875675,0.111312 -0.031791,0 -0.064725,-0.00582 -0.085918,-0.015194 z M 2.0604151,3.716756 C 1.6093074,3.6876894 1.2565008,3.6274161 0.92012362,3.5219485 0.82794225,3.4930459 0.66944989,3.4354157 0.66175808,3.4280031 0.65735908,3.4237634 0.70232999,3.1714228 0.73413213,3.0218983 0.84617391,2.49511 1.013958,2.005882 1.2154774,1.6183826 1.3536265,1.352737 1.471758,1.1839889 1.6187282,1.0423478 1.7803911,0.88654604 1.9311499,0.81519084 2.0986619,0.81519084 c 0.091303,0 0.1346707,0.009632 0.2258043,0.0501477 0.1719942,0.0764655 0.2472101,0.20778776 0.2695481,0.47061496 0.00909,0.1069936 0.00101,0.3661432 -0.0118,0.3784928 -0.00266,0.00256 -0.023527,-3.6e-4 -0.046373,-0.0065 L 2.4943039,1.6967973 2.4235485,1.4242931 C 2.345261,1.1227797 2.337836,1.1058953 2.2672481,1.0688697 2.1437769,1.0041048 1.9914756,1.089164 1.9917545,1.2227311 c 9.75e-5,0.052561 0.1658216,0.6904049 0.1862016,0.7167123 0.038075,0.049148 0.07344,0.0665 0.219973,0.1079326 0.079309,0.022425 0.1456268,0.042202 0.1473739,0.043949 0.00175,0.00174 -0.00203,0.048702 -0.0084,0.1043437 -0.034933,0.305438 -0.042118,0.431729 -0.042292,0.7434264 -1.948e-4,0.3369385 0.0071,0.4308757 0.051368,0.6621218 0.011302,0.059037 0.019391,0.1084557 0.017975,0.1098192 -0.00414,0.00399 -0.4516214,0.00907 -0.5035463,0.00572 z m 0.74714,-1.3422788 c -0.027249,-0.022097 -0.027416,-0.022706 -0.023439,-0.084874 0.0022,-0.034439 0.010104,-0.076381 0.017555,-0.093205 l 0.013548,-0.030587 0.062931,0.017127 c 0.105918,0.028827 0.1027649,0.02682 0.087744,0.055838 -0.0071,0.013729 -0.014952,0.039049 -0.017434,0.056268 -0.00727,0.050426 -0.021049,0.076812 -0.046827,0.08966 -0.035625,0.017754 -0.063281,0.014748 -0.094078,-0.010227 z M 3.0957334,2.2001083 C 3.068479,2.1944018 2.2987172,1.9763436 2.274491,1.9674665 2.2624886,1.9630688 2.240805,1.9464486 2.226305,1.9305329 2.2023613,1.9042513 2.1922622,1.8714059 2.1162854,1.57272 2.0270743,1.2220053 2.0231158,1.1930724 2.0581124,1.1475281 c 0.00922,-0.012004 0.029553,-0.030209 0.045175,-0.040456 0.055369,-0.036318 0.1568923,-0.017054 0.1938504,0.036784 0.00878,0.012787 0.047821,0.1476846 0.086763,0.2997734 0.038942,0.1520892 0.073913,0.2791933 0.077716,0.2824537 0.0038,0.00326 0.1673653,0.05113 0.3634741,0.1063779 0.1961093,0.055247 0.3659889,0.1072283 0.3775107,0.1155138 0.048524,0.034894 0.068662,0.086335 0.057083,0.1458195 -0.012778,0.065645 -0.097085,0.1203137 -0.1639497,0.1063139 z M 3.0355902,1.279207 C 2.8617621,1.2518761 2.7177912,1.1348389 2.6602621,0.974094 2.6309398,0.8921621 2.6326969,0.75957053 2.6641718,0.67911607 l 0.022461,-0.0574117 -0.026522,-0.029111 c -0.089661,-0.098416 -0.080572,-0.24854505 0.020341,-0.33598503 0.054728,-0.0474208 0.1112991,-0.0657858 0.1865997,-0.0605761 0.093337,0.006457 0.1691017,0.0578051 0.2068094,0.14015982 l 0.017638,0.0385219 0.053669,0.005934 c 0.119625,0.0132259 0.2195832,0.0604643 0.2997077,0.14163733 0.053605,0.0543065 0.080441,0.0980492 0.1072107,0.17475752 0.020194,0.0578652 0.022017,0.0730587 0.018148,0.15126951 C 3.5638736,0.97686523 3.5283568,1.0596703 3.4428345,1.1453346 3.340685,1.2476534 3.1770422,1.3014474 3.0355902,1.279207 Z M 1.3472917,0.81902208 c -0.082697,-0.0429694 -0.1550398,-0.0781776 -0.1607628,-0.0782402 -0.00713,-6.26e-5 -0.011187,0.0216792 -0.012888,0.069132 l -0.00248,0.0692459 -0.17613295,-0.0733102 C 0.89815207,0.7655287 0.81548144,0.73140906 0.81131267,0.7300284 c -0.005998,-0.001988 0.0131342,-0.049296 0.0253648,-0.0627198 0.001491,-0.001638 0.0671307,0.0291032 0.14586478,0.0683126 0.0787341,0.0392092 0.14427235,0.0712892 0.14564065,0.0712892 0.00137,0 0.00524,-0.0335612 0.00861,-0.0745803 0.00337,-0.0410192 0.00894,-0.0762564 0.012378,-0.0783047 0.00728,-0.004337 0.355668,0.22406493 0.359931,0.23597046 0.00521,0.014565 -0.010217,0.007796 -0.1618133,-0.0709737 z M 1.4823845,0.59783232 C 1.4290642,0.52838079 1.3723337,0.45385785 1.3563166,0.43222561 1.3402998,0.41059307 1.3243751,0.3928941 1.3209296,0.3928941 c -0.00345,0 -0.024439,0.0339111 -0.046651,0.0753579 C 1.252067,0.5096988 1.2310113,0.5404396 1.2274884,0.5365646 1.0509835,0.3424272 0.92629095,0.2014349 0.92629095,0.1959954 c 0,-0.009534 0.0461927,-0.0515744 0.0563172,-0.0512552 0.004466,1.2518e-4 0.0203504,0.0159768 0.0352962,0.0351914 0.014946,0.0192144 0.067626,0.0860955 0.1170662,0.14862469 l 0.089892,0.11368957 0.049359,-0.0786242 c 0.027147,-0.0432433 0.051816,-0.0800873 0.054818,-0.0818759 0.00493,-0.002936 0.2674156,0.42671949 0.2674156,0.43772556 0,0.0197546 -0.030429,-0.0126937 -0.1140706,-0.121639 z m 0.2513807,0.0708713 C 1.7331336,0.64232092 1.6910262,0.32394921 1.6877472,0.3207896 1.6854772,0.3185956 1.6561442,0.3339212 1.6225782,0.3548479 1.5821007,0.3800835 1.5603314,0.38941 1.557933,0.3825446 1.5426311,0.3387427 1.4836427,0.01817962 1.4898791,0.01271601 c 0.014281,-0.012511405 0.063591,-0.0176943 0.063937,-0.00672045 9.949e-4,0.03163467 0.04068,0.29668605 0.04505,0.30089814 0.00287,0.00277 0.038307,-0.0123383 0.078735,-0.0335772 l 0.073507,-0.0386161 v 0.21523359 c 0,0.13455727 -0.00322,0.21715175 -0.00859,0.22035106 -0.00473,0.002816 -0.00867,0.002105 -0.00875,-0.001583 z"
       id="path836" />
  </g>
</svg>
