<svg xmlns="http://www.w3.org/2000/svg" width="40.067" height="118.414" viewBox="0 0 10.601 31.33"><path d="M3.368 1.99s2.064-1.7 5.095-.253c.125.06-.136-.822-.136-.822s-2.107-1.9-4.954.24c-.049.036-.005.835-.005.835z" fill="#9dabd9"/><path d="M5.302 9.282S2.764 6.009 4.092.732C4.16.473 5.89.179 5.89.179s-1.577 4.81 1.395 8.201c.14.16-1.983.903-1.983.903z" fill="#9dabd9"/><path d="M2.898 9.399l1.196.478S5.912 8.294 6.98 8.201c1.068-.093 1.572-.002 1.572-.002l1.513 7.05-.128 1.864-1.11 3.067-.494 2.283v2.573l-.06 1.672.474 1.69.565 1.361.415.406.655.432.07.424-.14.18-2.049.006-1.2-1.656-1.083-1.197-.724-.414-.1-.68.56-.871.234-.9-.097-1.75-.227-3.024.11-1.585.334-1.343.569-1.117.076-1.001-.665-1.594-.223.81-.534 1.226S4.6 17.712 4.6 17.757c0 .045-.631 1.808-.631 1.808l-.596 1.578-.307 2.267-.146 1.268.103 2.403.388 1.205.614.868.885.57.069.332-.148.22-1.91-.017-.399-.351-1.19-1.607-1.179-1.039.004-.694.586-.953.215-1.726-.054-3.12.141-1.912.411-1.543.675-1.284.42-2.078.197-2.265z" fill="#9dabd9"/><g fill="none" stroke="#000" stroke-width=".265"><path d="M10.262 31.152c-.715 0-2.097.103-2.146.001-.212-.198-1.402-2.607-2.75-3.124-.327-.245-.226-.794-.06-1.06.365-.585.609-.255.63-2.264-.272-3.127-.757-5.566.63-7.884.347-.776-.025-1.547-.025-1.547l-.417-1.01-.16-.341s-.048.887-.255 1.28c-.207.393-.669 1.257-1.123 2.65-.455 1.391-1.019 2.578-1.092 2.948-.074.37-.795 3.721-.534 5.725.26 2.004.78 2.421 1.82 3.144.307.212.22.524-.048.59-.658-.002-1.858.058-1.988-.078-1.478-2.306-2.59-2.865-2.598-2.934-.07-.629.105-1.038.59-1.614.306-.362.172-5.407.172-5.407s.026-2.49 1.232-4.19c.072-.102.56-2.287.587-4.229.022-1.567.171-2.41.171-2.41-.272-.717-.844-2.102-.812-3.166 0 0-.085-2.228 1.21-4.233.153-.236.076-.61.077-.845 0 0 2.49-2.107 4.885-.276.476.364.108 2.693.108 2.693l-.495 2.496s.848 2.6 1.341 4.768c.493 2.169.852 4.415.852 4.415-.043.62.041 1.473-.128 1.863-.44 1.044-.87 2.106-1.175 3.378 0 0-.501 1.628-.45 2.774.052 1.145-.04 3.443-.04 3.443s.572 2.617 1.316 3.384c1.25.53.863 1.077.675 1.06z"/><path d="M2.086 6.232S2.76 8.086 4.038 9.84c.203.28 1.367 2.885 2.086 4.423M7.135 4.026l.736 2.041"/></g></svg>