<?xml version="1.0" encoding="UTF-8" standalone="no"?>
<!-- Created with Inkscape (http://www.inkscape.org/) -->

<svg
   width="16"
   height="16.000002"
   viewBox="0 0 4.2333334 4.2333336"
   version="1.1"
   id="svg5"
   inkscape:version="1.1 (c4e8f9ed74, 2021-05-24)"
   sodipodi:docname="favicon.svg"
   xmlns:inkscape="http://www.inkscape.org/namespaces/inkscape"
   xmlns:sodipodi="http://sodipodi.sourceforge.net/DTD/sodipodi-0.dtd"
   xmlns="http://www.w3.org/2000/svg"
   xmlns:svg="http://www.w3.org/2000/svg">
  <sodipodi:namedview
     id="namedview7"
     pagecolor="#ffffff"
     bordercolor="#666666"
     borderopacity="1.0"
     inkscape:pageshadow="2"
     inkscape:pageopacity="0.0"
     inkscape:pagecheckerboard="0"
     inkscape:document-units="mm"
     showgrid="false"
     units="px"
     inkscape:zoom="16.831681"
     inkscape:cx="9.2385307"
     inkscape:cy="4.2479417"
     inkscape:window-width="1457"
     inkscape:window-height="1047"
     inkscape:window-x="233"
     inkscape:window-y="13"
     inkscape:window-maximized="0"
     inkscape:current-layer="layer1" />
  <defs
     id="defs2" />
  <g
     inkscape:label="Layer 1"
     inkscape:groupmode="layer"
     id="layer1">
    <path
       style="fill:#c20358;fill-opacity:1;stroke-width:0.00431924"
       d="m 1.2619732,4.2324047 c 0,-0.00151 -0.00706,-0.035733 -0.015688,-0.076054 C 1.1864232,3.8766145 1.0948669,3.6041976 0.99540983,3.4098947 0.93797766,3.297693 0.89020646,3.2252313 0.82419689,3.1501908 0.79547288,3.117537 0.79045595,3.1097352 0.79544365,3.1054767 0.79876665,3.1026395 0.81635761,3.08806 0.83453477,3.0730779 1.0598614,2.8873566 1.3287924,2.6332044 1.5577652,2.3895918 1.6297606,2.3129933 1.7381679,2.1924012 1.7408046,2.1859789 1.7418506,2.1834309 1.728991,2.1567591 1.7122275,2.1267082 1.6954639,2.0966572 1.6684988,2.048256 1.6523049,2.0191499 1.5572674,1.848333 1.4271323,1.5883291 1.377936,1.4709733 1.3095093,1.3077442 1.2754903,1.0973491 1.2877909,0.91346002 c 0.00965,-0.14433578 0.02906,-0.24776363 0.088254,-0.47039668 l 0.039149,-0.14723915 0.019233,-0.0199889 C 1.5819005,0.12256371 1.8024167,0.02737334 2.0647832,0.00372884 2.1473897,-0.00371562 2.3040351,4.98584e-4 2.3658216,0.01182772 2.4829339,0.03330114 2.5658412,0.064119 2.6483859,0.11686116 c 0.064978,0.0415177 0.1374634,0.11438795 0.1635189,0.16438695 0.00942,0.0180783 0.082365,0.2958697 0.1002145,0.38164123 0.0264,0.12686487 0.040478,0.27392617 0.035736,0.37330036 -0.00861,0.1805135 -0.042098,0.3230286 -0.114478,0.4872422 -0.015814,0.03588 -0.027535,0.067133 -0.026045,0.06945 0.00149,0.00232 7.844e-4,0.00307 -0.00156,0.00167 -0.00235,-0.0014 -0.012004,0.014025 -0.021444,0.034273 -0.038212,0.081968 -0.211044,0.4085871 -0.2809117,0.5308694 -0.012518,0.021909 -0.013169,0.024823 -0.00709,0.031752 0.067912,0.077457 0.1200463,0.1320889 0.1238787,0.1298134 0.00275,-0.00163 0.00351,-8.712e-4 0.00179,0.0018 -0.00399,0.0062 0.034278,0.048363 0.1693847,0.1866351 0.03497,0.035789 0.076145,0.078189 0.091503,0.094222 0.016354,0.017073 0.030045,0.027983 0.033049,0.026332 0.00282,-0.00155 0.00356,-0.00117 0.00165,8.376e-4 -0.00415,0.00436 0.1642845,0.1675585 0.1696392,0.164379 0.00205,-0.00121 0.00315,-6.265e-4 0.00249,0.00129 -6.657e-4,0.00192 0.00294,0.0073 0.00798,0.011957 0.00505,0.00466 0.026299,0.024342 0.047204,0.043743 0.023594,0.021897 0.040002,0.034093 0.043263,0.032156 0.00316,-0.00188 0.0041,-0.00132 0.00235,0.00142 -0.00322,0.00501 0.062503,0.064609 0.1712092,0.1552545 0.038778,0.032335 0.073155,0.061099 0.076394,0.06392 0.0048,0.00418 -0.00116,0.013227 -0.032405,0.049066 -0.1016197,0.1165984 -0.1865274,0.270433 -0.2685672,0.4865863 -0.056538,0.148962 -0.1126248,0.3421239 -0.1498342,0.516023 -0.00869,0.040615 -0.016582,0.074597 -0.017536,0.075514 -0.002,0.00192 -0.00535,-0.00302 -0.040852,-0.060454 C 2.7593467,3.8976799 2.6837818,3.7746018 2.5624133,3.5750058 2.5156884,3.4981656 2.4756705,3.4324386 2.4734835,3.4289459 2.4712936,3.4254531 2.4563506,3.4006864 2.4402696,3.3739087 2.3280328,3.1870065 2.2641762,3.0800705 2.1975727,2.9674811 2.1555608,2.8964621 2.119331,2.8383556 2.117062,2.8383556 c -0.00226,0 -0.061386,0.096209 -0.1313725,0.2137979 -0.1199307,0.2015041 -0.3155819,0.5262704 -0.322637,0.5355532 -0.00177,0.00233 -0.00921,0.014712 -0.016543,0.027519 -0.00733,0.012807 -0.042613,0.070913 -0.078409,0.1291254 C 1.5323041,3.8025631 1.480282,3.8873413 1.4524952,3.9327469 1.2994253,4.1828736 1.2619737,4.2417789 1.2619732,4.2324047 Z M 2.1724785,1.6497154 C 2.2520544,1.5410156 2.336307,1.4176862 2.401842,1.3139732 2.4885438,1.1767627 2.5357415,1.0948011 2.6015938,0.96709484 c 0.04958,-0.0961486 0.088112,-0.17704423 0.088112,-0.18498493 0,-0.005633 -0.050356,-0.0354896 -0.094381,-0.0559598 -0.076999,-0.0358023 -0.1591013,-0.0587551 -0.2603494,-0.0727839 -0.066272,-0.009183 -0.2300227,-0.0103948 -0.2974442,-0.002202 -0.1190417,0.0144655 -0.2498382,0.0475707 -0.3439592,0.0870578 -0.054263,0.0227653 -0.1363581,0.0662623 -0.1363581,0.0722477 0,0.0147171 0.1146029,0.23966169 0.1203595,0.23624359 0.00242,-0.00143 0.00304,-5.08e-4 0.00139,0.00205 -0.00457,0.0071 0.1010132,0.18673 0.1933631,0.3289886 0.037178,0.05727 0.044105,0.06616 0.048552,0.062302 0.00192,-0.00167 0.0021,-7.069e-4 4.06e-4,0.00213 -0.00178,0.00298 0.00968,0.023556 0.027125,0.048687 0.080388,0.1157923 0.1647435,0.2319483 0.1683867,0.2318661 0.00125,-2.4e-5 0.026298,-0.032892 0.055683,-0.07303 z"
       id="path1040" />
  </g>
</svg>
