<svg xmlns="http://www.w3.org/2000/svg" width="43.611" height="46.304" viewBox="0 0 11.539 12.251"><g transform="translate(-66.03 -101.872)"><rect width="11.539" height="12.251" x="66.031" y="101.872" ry=".86" fill="#0000b9"/><path d="M70.847 113.204c-.029-.029-.052-.628-.052-1.332 0-1.466.073-1.342-.824-1.38l-.47-.021-.021-3.315-.02-3.315h2.982c2.664 0 2.982.013 2.982.124 0 .068-.2.545-.444 1.06l-.444.935h-1.204c-1.124 0-1.203.01-1.203.147 0 .08-.022.257-.05.392l-.048.245h1.03c.773 0 1.028.025 1.025.098-.002.054-.152.398-.333.765l-.33.667-.803.022c-.885.025-.848 0-.902.606l-.02.235.607.023c.452.017.608.05.608.13 0 .06-.259.65-.576 1.311-.317.662-.728 1.53-.915 1.93-.312.668-.436.812-.575.673z" fill="#b3ffff"/></g></svg>