<?xml version="1.0" encoding="UTF-8" standalone="no"?>
<!-- Created with Inkscape (http://www.inkscape.org/) -->

<svg
   width="4.2333345mm"
   height="4.2333336mm"
   viewBox="0 0 4.2333345 4.2333336"
   version="1.1"
   id="svg5"
   inkscape:version="1.1 (c4e8f9ed74, 2021-05-24)"
   sodipodi:docname="favicon.2.svg"
   xmlns:inkscape="http://www.inkscape.org/namespaces/inkscape"
   xmlns:sodipodi="http://sodipodi.sourceforge.net/DTD/sodipodi-0.dtd"
   xmlns="http://www.w3.org/2000/svg"
   xmlns:svg="http://www.w3.org/2000/svg">
  <sodipodi:namedview
     id="namedview7"
     pagecolor="#ffffff"
     bordercolor="#666666"
     borderopacity="1.0"
     inkscape:pageshadow="2"
     inkscape:pageopacity="0.0"
     inkscape:pagecheckerboard="true"
     inkscape:document-units="mm"
     showgrid="false"
     fit-margin-top="0"
     fit-margin-left="0"
     fit-margin-right="0"
     fit-margin-bottom="0"
     inkscape:zoom="23.803591"
     inkscape:cx="9.3053187"
     inkscape:cy="8.2130465"
     inkscape:window-width="1457"
     inkscape:window-height="1047"
     inkscape:window-x="422"
     inkscape:window-y="0"
     inkscape:window-maximized="0"
     inkscape:current-layer="layer1" />
  <defs
     id="defs2" />
  <g
     inkscape:label="Layer 1"
     inkscape:groupmode="layer"
     id="layer1">
    <circle
       style="fill:#ffffff;fill-opacity:1;stroke-width:3.28407;stroke-linecap:round;paint-order:markers fill stroke"
       id="path844"
       cx="2.1166673"
       cy="2.1166668"
       r="2.1166666" />
    <path
       style="fill:#dc5823;fill-opacity:1;stroke-width:0.0234188"
       d="M 1.931053,4.2235752 C 1.7497829,4.2054922 1.4961191,4.1423591 1.4750181,4.1100753 1.4678981,4.0991841 1.4843381,4.0301476 1.5115371,3.9566596 1.5387411,3.8831723 1.5915281,3.7143313 1.6288402,3.5814573 1.6797832,3.4000409 1.7312566,3.2837665 1.8355026,3.1146202 2.0030495,2.8427644 2.0344255,2.8065391 2.0983469,2.8111455 c 0.092193,0.00664 0.1078492,-0.00137 0.1690058,-0.086467 0.043772,-0.060909 0.061077,-0.1150408 0.061077,-0.1910508 C 2.3284297,2.386959 2.2601247,2.0601326 2.2140626,1.9864 2.1332346,1.8570164 1.9534813,1.8404007 1.7587596,1.944313 1.6883476,1.981888 1.6208834,2.01263 1.6088375,2.01263 1.5967915,2.01263 1.5549565,1.984383 1.5158695,1.949858 1.4767825,1.9153323 1.3892173,1.8624668 1.3212796,1.8323784 L 1.1977561,1.7776725 1.0706935,1.8574769 C 0.96758142,1.9222388 0.93566405,1.9583337 0.9013655,2.048966 0.846777,2.1932166 0.8487219,2.3185076 0.9074485,2.4408666 0.9591206,2.548524 1.0041495,2.8338737 1.0032852,3.0481826 1.0030122,3.1236601 0.9815548,3.3186343 0.9556717,3.4814578 0.9297885,3.6442813 0.9083626,3.7851868 0.9080581,3.7945804 0.9067541,3.8348493 0.8529221,3.8036403 0.71416315,3.6821663 0.30018756,3.3197601 0.04435408,2.8228501 0.0070221,2.3086725 -0.03771942,1.6924432 0.13071127,1.1865779 0.53043389,0.73665659 1.2725084,-0.09861068 2.6471717,-0.24594878 3.5807689,0.40971664 L 3.737311,0.51965651 3.6289354,0.53954564 C 3.5693294,0.55048463 3.457304,0.58419112 3.3799911,0.6144486 3.190922,0.68844331 2.6520979,0.81482717 2.2682201,0.87522013 1.914726,0.930833 1.6778181,1.0128134 1.4763077,1.1492577 1.2983301,1.2697674 1.2828483,1.3380931 1.3862017,1.5469306 c 0.077308,0.1562121 0.1532823,0.2359183 0.226108,0.2372165 0.042935,7.682e-4 0.2718223,-0.05007 0.4271178,-0.094863 0.070761,-0.020409 0.3084976,-0.1985466 0.3323948,-0.2490656 0.004,-0.00845 -0.031499,-0.027462 -0.078883,-0.042249 C 2.1783091,1.3621975 2.0717842,1.2746559 2.0151477,1.1696814 l -0.046252,-0.085726 0.065371,-0.013397 C 2.0702197,1.0631884 2.2784568,1.0509194 2.4970146,1.0432904 2.8503824,1.0309554 2.9197304,1.0217304 3.1231843,0.9599847 3.2490201,0.9217951 3.3816751,0.8763672 3.4179726,0.8590337 3.4542696,0.8417002 3.5897391,0.8069312 3.7190156,0.7817688 L 3.9540633,0.7360201 4.0190413,0.8107049 C 4.1411141,0.9510152 4.2555963,1.1534356 4.2296182,1.183034 4.1935372,1.2241413 3.9479176,1.3021086 3.7998824,1.3194447 3.6667712,1.3350327 3.6584514,1.3405306 3.5105364,1.510642 L 3.4420954,1.589354 3.3441304,1.547582 C 3.2789184,1.5197761 3.23822,1.484257 3.2223982,1.4413422 3.2067302,1.3988443 3.1681452,1.3648293 3.1091791,1.3415325 3.0259281,1.3086413 3.007035,1.3095418 2.836642,1.3545216 2.6170817,1.412481 2.5913972,1.4243798 2.4371899,1.5395775 2.3161253,1.6300175 2.2325465,1.7274233 2.2322543,1.7784194 c -6.83e-5,0.01522 0.032035,0.062344 0.071384,0.1047202 0.1322438,0.1424186 0.1757025,0.2748426 0.1620728,0.4938509 -0.00662,0.1064611 -0.029176,0.2311886 -0.050112,0.2771716 l -0.038065,0.083605 0.1246432,0.025276 c 0.068554,0.013902 0.2552905,0.093465 0.4149708,0.1768061 0.2508374,0.1309186 0.3178705,0.1790441 0.4928183,0.3538078 0.1897961,0.1895977 0.3393872,0.3635248 0.3393872,0.3945995 0,0.019758 -0.088316,0.088736 -0.2499403,0.1952105 -0.1849,0.1218074 -0.4556225,0.23895 -0.6746278,0.2919137 -0.2016331,0.048761 -0.6471938,0.072789 -0.8937325,0.048195 z"
       id="path836" />
  </g>
</svg>
