<svg width="16" height="16" viewBox="0 0 4.233 4.233" xmlns="http://www.w3.org/2000/svg"><g fill="#257cff"><path d="M3.097 1.277l-.128-.214-.144-.17S2.605.693 2.58.685C2.557.678 2.277.512 2.24.504c-.036-.008-.388-.1-.388-.1l-.38-.007-.233.032-.28.079-.228.11-.276.2-.248.253-.14.194L0 1.5l.008.159.104.138.116.111.216.111.284.092.368.067.492.047.425-.007.456-.032.412-.048.508-.06.492-.047.352-.55-.584.07-.636.06-.696.055-.516.024-.433-.004-.392-.04-.312-.063-.104-.028.048-.099.112-.146.152-.123.164-.107.22-.095.176-.036.189-.012.228.024.236.08.184.122.128.095.072.072zM2.242 3.109l.343-.017.302-.038.182-.042-.05.088-.111.135-.178.177-.25.18-.243.11-.216.084-.234.034-.28.016-.331-.046-.263-.1-.149-.072-.25-.169-.187-.176-.149-.147-.097-.156-.064-.223.026-.206.084-.13.174-.101.12-.026.148.005.161.042.242.05.208.025.348.03.293.004.45-.021.522-.05.455-.06.513-.088-.356.518s-.735.122-.752.122c-.017 0-.5.058-.5.058l-.582.009s-.471-.059-.488-.059c-.017 0-.497-.093-.497-.093l.136.156.17.147.212.13.216.068.221.034h.23l.216-.063.153-.072z"/></g></svg>