<svg xmlns="http://www.w3.org/2000/svg" width="16" height="16" viewBox="0 0 4.233 4.233"><rect width="4.233" height="4.233" ry=".88" fill="#ffaae8"/><path d="M3.209 3.959c-.01-.01.029-.103.207-.497.253-.559.27-.609.289-.812a1.067 1.067 0 00-.038-.394 1.583 1.583 0 00-.377-.629c-.19-.208-.291-.357-.359-.534A1.094 1.094 0 012.893.37a.271.271 0 01.04-.094.393.393 0 01.125-.01c.145 0 .143-.002.104.114a.812.812 0 00-.051.302.79.79 0 00.063.319c.065.164.132.265.309.463.25.28.354.445.423.662.074.238.083.511.024.753-.032.131-.063.206-.266.654l-.198.434-.122.002c-.099.002-.125 0-.135-.01zM.762 3.952a29.459 29.459 0 01-.407-.894 1.472 1.472 0 01-.019-.963c.073-.213.18-.38.404-.625.21-.229.284-.35.348-.558a.719.719 0 00.03-.205.792.792 0 00-.052-.347.23.23 0 01-.02-.083c.005-.01.026-.012.129-.012h.122L1.31.29c.049.096.08.325.064.474-.03.284-.156.542-.391.802-.255.281-.37.472-.44.731-.03.113-.032.352-.004.482s.058.205.28.693c.112.249.204.46.202.469-.003.015-.011.016-.126.018-.09.002-.125 0-.133-.008zm1.214-.011a11.637 11.637 0 01-.007-.557v-.551l-.234-.228a5.545 5.545 0 01-.234-.234c0-.008.127-.081.143-.081.005 0 .098.084.206.187.107.103.204.193.214.2.018.014.025.009.213-.171l.214-.205.02-.02.066.041c.037.023.065.047.064.053a4.965 4.965 0 01-.233.234l-.229.223-.005.555-.005.555-.093.002a.492.492 0 01-.1-.003zm.062-2.348c-.053-.016-.087-.074-.069-.119.028-.069.14-.083.198-.025.021.022.022.084.002.108a.136.136 0 01-.131.036z"/></svg>